G04 #@! TF.GenerationSoftware,KiCad,Pcbnew,(6.0.8)*
G04 #@! TF.CreationDate,2022-11-10T03:51:40+05:30*
G04 #@! TF.ProjectId,digclockv4,64696763-6c6f-4636-9b76-342e6b696361,rev?*
G04 #@! TF.SameCoordinates,Original*
G04 #@! TF.FileFunction,Legend,Bot*
G04 #@! TF.FilePolarity,Positive*
%FSLAX46Y46*%
G04 Gerber Fmt 4.6, Leading zero omitted, Abs format (unit mm)*
G04 Created by KiCad (PCBNEW (6.0.8)) date 2022-11-10 03:51:40*
%MOMM*%
%LPD*%
G01*
G04 APERTURE LIST*
%ADD10C,1.600000*%
%ADD11R,1.600000X1.600000*%
%ADD12R,1.050000X1.500000*%
%ADD13O,1.050000X1.500000*%
%ADD14R,1.905000X2.000000*%
%ADD15O,1.905000X2.000000*%
%ADD16R,2.000000X2.000000*%
%ADD17C,2.000000*%
%ADD18O,1.600000X1.600000*%
%ADD19C,1.200000*%
%ADD20C,1.500000*%
G04 APERTURE END LIST*
%LPC*%
D10*
X111252000Y-92456000D03*
X113792000Y-92456000D03*
X116332000Y-92456000D03*
X118872000Y-92456000D03*
X121412000Y-92456000D03*
X123952000Y-92456000D03*
X126492000Y-92456000D03*
X129032000Y-92456000D03*
X131572000Y-92456000D03*
X134112000Y-92456000D03*
X136652000Y-92456000D03*
X139192000Y-92456000D03*
X141732000Y-92456000D03*
X144272000Y-92456000D03*
X146812000Y-92456000D03*
X149352000Y-92456000D03*
X151892000Y-92456000D03*
X154432000Y-92456000D03*
X156972000Y-92456000D03*
X159512000Y-92456000D03*
X159512000Y-77216000D03*
X156972000Y-77216000D03*
X154432000Y-77216000D03*
X151892000Y-77216000D03*
X149352000Y-77216000D03*
X146812000Y-77216000D03*
X144272000Y-77216000D03*
X141732000Y-77216000D03*
X139192000Y-77216000D03*
X136652000Y-77216000D03*
X134112000Y-77216000D03*
X131572000Y-77216000D03*
X129032000Y-77216000D03*
X126492000Y-77216000D03*
X123952000Y-77216000D03*
X121412000Y-77216000D03*
X118872000Y-77216000D03*
X116332000Y-77216000D03*
X113792000Y-77216000D03*
X111252000Y-77216000D03*
D11*
X109423200Y-60121800D03*
D10*
X111963200Y-60121800D03*
X114503200Y-60121800D03*
X117043200Y-60121800D03*
X119583200Y-60121800D03*
X119583200Y-44881800D03*
X117043200Y-44881800D03*
X114503200Y-44881800D03*
X111963200Y-44881800D03*
X109423200Y-44881800D03*
X123748800Y-44881800D03*
X126288800Y-44881800D03*
X128828800Y-44881800D03*
X131368800Y-44881800D03*
X133908800Y-44881800D03*
X133908800Y-60121800D03*
X131368800Y-60121800D03*
X128828800Y-60121800D03*
X126288800Y-60121800D03*
D11*
X123748800Y-60121800D03*
D12*
X114554000Y-39476000D03*
D13*
X115824000Y-39476000D03*
X117094000Y-39476000D03*
D14*
X98425000Y-43688000D03*
D15*
X100965000Y-43688000D03*
X103505000Y-43688000D03*
D16*
X98308000Y-83820000D03*
D17*
X105908000Y-83820000D03*
D12*
X128778000Y-39518000D03*
D13*
X130048000Y-39518000D03*
X131318000Y-39518000D03*
D10*
X97028000Y-51308000D03*
D18*
X104648000Y-51308000D03*
D10*
X97028000Y-70358000D03*
D18*
X104648000Y-70358000D03*
D10*
X120904000Y-73025000D03*
D18*
X120904000Y-65405000D03*
D10*
X143764000Y-73025000D03*
D18*
X143764000Y-65405000D03*
D12*
X143129000Y-39497000D03*
D13*
X144399000Y-39497000D03*
X145669000Y-39497000D03*
D17*
X115519000Y-101945000D03*
X109019000Y-101945000D03*
X115519000Y-97445000D03*
X109019000Y-97445000D03*
D10*
X109474000Y-73025000D03*
D18*
X109474000Y-65405000D03*
D17*
X181792000Y-67870000D03*
X181792000Y-74370000D03*
X177292000Y-67870000D03*
X177292000Y-74370000D03*
D10*
X97028000Y-74168000D03*
D18*
X104648000Y-74168000D03*
D10*
X97028000Y-66548000D03*
D18*
X104648000Y-66548000D03*
D12*
X171831000Y-39497000D03*
D13*
X173101000Y-39497000D03*
X174371000Y-39497000D03*
D10*
X139954000Y-73025000D03*
D18*
X139954000Y-65405000D03*
D19*
X145611000Y-98715000D03*
X147611000Y-98715000D03*
D17*
X186000000Y-85044000D03*
X186000000Y-91544000D03*
X190500000Y-91544000D03*
X190500000Y-85044000D03*
D12*
X157480000Y-39497000D03*
D13*
X158750000Y-39497000D03*
X160020000Y-39497000D03*
D10*
X117094000Y-73025000D03*
D18*
X117094000Y-65405000D03*
D10*
X138099800Y-44881800D03*
X140639800Y-44881800D03*
X143179800Y-44881800D03*
X145719800Y-44881800D03*
X148259800Y-44881800D03*
X148259800Y-60121800D03*
X145719800Y-60121800D03*
X143179800Y-60121800D03*
X140639800Y-60121800D03*
D11*
X138099800Y-60121800D03*
D10*
X97028000Y-62738000D03*
D18*
X104648000Y-62738000D03*
D11*
X181076600Y-60121800D03*
D10*
X183616600Y-60121800D03*
X186156600Y-60121800D03*
X188696600Y-60121800D03*
X191236600Y-60121800D03*
X191236600Y-44881800D03*
X188696600Y-44881800D03*
X186156600Y-44881800D03*
X183616600Y-44881800D03*
X181076600Y-44881800D03*
X128524000Y-73025000D03*
D18*
X128524000Y-65405000D03*
D12*
X186182000Y-39476000D03*
D13*
X187452000Y-39476000D03*
X188722000Y-39476000D03*
D17*
X173283000Y-74370000D03*
X173283000Y-67870000D03*
X168783000Y-67870000D03*
X168783000Y-74370000D03*
D11*
X101660888Y-94996000D03*
D10*
X103660888Y-94996000D03*
X97028000Y-55118000D03*
D18*
X104648000Y-55118000D03*
D10*
X136144000Y-73025000D03*
D18*
X136144000Y-65405000D03*
D17*
X177364000Y-85852000D03*
X177364000Y-79352000D03*
X181864000Y-79352000D03*
X181864000Y-85852000D03*
D10*
X151384000Y-73025000D03*
D18*
X151384000Y-65405000D03*
D10*
X155194000Y-73025000D03*
D18*
X155194000Y-65405000D03*
D11*
X119239888Y-98686112D03*
D10*
X121239888Y-98686112D03*
D20*
X158078000Y-98588000D03*
X153198000Y-98588000D03*
D10*
X97028000Y-47498000D03*
D18*
X104648000Y-47498000D03*
D17*
X135181000Y-101818000D03*
X141681000Y-101818000D03*
X141681000Y-97318000D03*
X135181000Y-97318000D03*
D10*
X113284000Y-73025000D03*
D18*
X113284000Y-65405000D03*
D17*
X173228000Y-91544000D03*
X173228000Y-85044000D03*
X168728000Y-85044000D03*
X168728000Y-91544000D03*
D19*
X165534000Y-98588000D03*
X163534000Y-98588000D03*
D10*
X147574000Y-73025000D03*
D18*
X147574000Y-65405000D03*
D10*
X132334000Y-73025000D03*
D18*
X132334000Y-65405000D03*
D11*
X152425400Y-60121800D03*
D10*
X154965400Y-60121800D03*
X157505400Y-60121800D03*
X160045400Y-60121800D03*
X162585400Y-60121800D03*
X162585400Y-44881800D03*
X160045400Y-44881800D03*
X157505400Y-44881800D03*
X154965400Y-44881800D03*
X152425400Y-44881800D03*
X159004000Y-73025000D03*
D18*
X159004000Y-65405000D03*
D10*
X132006000Y-98686112D03*
D18*
X124386000Y-98686112D03*
D10*
X166751000Y-44881800D03*
X169291000Y-44881800D03*
X171831000Y-44881800D03*
X174371000Y-44881800D03*
X176911000Y-44881800D03*
X176911000Y-60121800D03*
X174371000Y-60121800D03*
X171831000Y-60121800D03*
X169291000Y-60121800D03*
D11*
X166751000Y-60121800D03*
D10*
X124714000Y-73025000D03*
D18*
X124714000Y-65405000D03*
D10*
X97028000Y-58928000D03*
D18*
X104648000Y-58928000D03*
D17*
X181864000Y-90124000D03*
X181864000Y-96624000D03*
X177364000Y-96624000D03*
X177364000Y-90124000D03*
M02*
