G04 #@! TF.GenerationSoftware,KiCad,Pcbnew,(6.0.8)*
G04 #@! TF.CreationDate,2022-11-10T03:51:40+05:30*
G04 #@! TF.ProjectId,digclockv4,64696763-6c6f-4636-9b76-342e6b696361,rev?*
G04 #@! TF.SameCoordinates,Original*
G04 #@! TF.FileFunction,Copper,L1,Top*
G04 #@! TF.FilePolarity,Positive*
%FSLAX46Y46*%
G04 Gerber Fmt 4.6, Leading zero omitted, Abs format (unit mm)*
G04 Created by KiCad (PCBNEW (6.0.8)) date 2022-11-10 03:51:40*
%MOMM*%
%LPD*%
G01*
G04 APERTURE LIST*
G04 #@! TA.AperFunction,ComponentPad*
%ADD10C,1.600000*%
G04 #@! TD*
G04 #@! TA.AperFunction,ComponentPad*
%ADD11R,1.600000X1.600000*%
G04 #@! TD*
G04 #@! TA.AperFunction,ComponentPad*
%ADD12R,1.050000X1.500000*%
G04 #@! TD*
G04 #@! TA.AperFunction,ComponentPad*
%ADD13O,1.050000X1.500000*%
G04 #@! TD*
G04 #@! TA.AperFunction,ComponentPad*
%ADD14R,1.905000X2.000000*%
G04 #@! TD*
G04 #@! TA.AperFunction,ComponentPad*
%ADD15O,1.905000X2.000000*%
G04 #@! TD*
G04 #@! TA.AperFunction,ComponentPad*
%ADD16R,2.000000X2.000000*%
G04 #@! TD*
G04 #@! TA.AperFunction,ComponentPad*
%ADD17C,2.000000*%
G04 #@! TD*
G04 #@! TA.AperFunction,ComponentPad*
%ADD18O,1.600000X1.600000*%
G04 #@! TD*
G04 #@! TA.AperFunction,ComponentPad*
%ADD19C,1.200000*%
G04 #@! TD*
G04 #@! TA.AperFunction,ComponentPad*
%ADD20C,1.500000*%
G04 #@! TD*
G04 #@! TA.AperFunction,Conductor*
%ADD21C,0.508000*%
G04 #@! TD*
G04 APERTURE END LIST*
D10*
X111252000Y-92456000D03*
X113792000Y-92456000D03*
X116332000Y-92456000D03*
X118872000Y-92456000D03*
X121412000Y-92456000D03*
X123952000Y-92456000D03*
X126492000Y-92456000D03*
X129032000Y-92456000D03*
X131572000Y-92456000D03*
X134112000Y-92456000D03*
X136652000Y-92456000D03*
X139192000Y-92456000D03*
X141732000Y-92456000D03*
X144272000Y-92456000D03*
X146812000Y-92456000D03*
X149352000Y-92456000D03*
X151892000Y-92456000D03*
X154432000Y-92456000D03*
X156972000Y-92456000D03*
X159512000Y-92456000D03*
X159512000Y-77216000D03*
X156972000Y-77216000D03*
X154432000Y-77216000D03*
X151892000Y-77216000D03*
X149352000Y-77216000D03*
X146812000Y-77216000D03*
X144272000Y-77216000D03*
X141732000Y-77216000D03*
X139192000Y-77216000D03*
X136652000Y-77216000D03*
X134112000Y-77216000D03*
X131572000Y-77216000D03*
X129032000Y-77216000D03*
X126492000Y-77216000D03*
X123952000Y-77216000D03*
X121412000Y-77216000D03*
X118872000Y-77216000D03*
X116332000Y-77216000D03*
X113792000Y-77216000D03*
X111252000Y-77216000D03*
D11*
X109423200Y-60121800D03*
D10*
X111963200Y-60121800D03*
X114503200Y-60121800D03*
X117043200Y-60121800D03*
X119583200Y-60121800D03*
X119583200Y-44881800D03*
X117043200Y-44881800D03*
X114503200Y-44881800D03*
X111963200Y-44881800D03*
X109423200Y-44881800D03*
X123748800Y-44881800D03*
X126288800Y-44881800D03*
X128828800Y-44881800D03*
X131368800Y-44881800D03*
X133908800Y-44881800D03*
X133908800Y-60121800D03*
X131368800Y-60121800D03*
X128828800Y-60121800D03*
X126288800Y-60121800D03*
D11*
X123748800Y-60121800D03*
D12*
X114554000Y-39476000D03*
D13*
X115824000Y-39476000D03*
X117094000Y-39476000D03*
D14*
X98425000Y-43688000D03*
D15*
X100965000Y-43688000D03*
X103505000Y-43688000D03*
D16*
X98308000Y-83820000D03*
D17*
X105908000Y-83820000D03*
D12*
X128778000Y-39518000D03*
D13*
X130048000Y-39518000D03*
X131318000Y-39518000D03*
D10*
X97028000Y-51308000D03*
D18*
X104648000Y-51308000D03*
D10*
X97028000Y-70358000D03*
D18*
X104648000Y-70358000D03*
D10*
X120904000Y-73025000D03*
D18*
X120904000Y-65405000D03*
D10*
X143764000Y-73025000D03*
D18*
X143764000Y-65405000D03*
D12*
X143129000Y-39497000D03*
D13*
X144399000Y-39497000D03*
X145669000Y-39497000D03*
D17*
X115519000Y-101945000D03*
X109019000Y-101945000D03*
X115519000Y-97445000D03*
X109019000Y-97445000D03*
D10*
X109474000Y-73025000D03*
D18*
X109474000Y-65405000D03*
D17*
X181792000Y-67870000D03*
X181792000Y-74370000D03*
X177292000Y-67870000D03*
X177292000Y-74370000D03*
D10*
X97028000Y-74168000D03*
D18*
X104648000Y-74168000D03*
D10*
X97028000Y-66548000D03*
D18*
X104648000Y-66548000D03*
D12*
X171831000Y-39497000D03*
D13*
X173101000Y-39497000D03*
X174371000Y-39497000D03*
D10*
X139954000Y-73025000D03*
D18*
X139954000Y-65405000D03*
D19*
X145611000Y-98715000D03*
X147611000Y-98715000D03*
D17*
X186000000Y-85044000D03*
X186000000Y-91544000D03*
X190500000Y-91544000D03*
X190500000Y-85044000D03*
D12*
X157480000Y-39497000D03*
D13*
X158750000Y-39497000D03*
X160020000Y-39497000D03*
D10*
X117094000Y-73025000D03*
D18*
X117094000Y-65405000D03*
D10*
X138099800Y-44881800D03*
X140639800Y-44881800D03*
X143179800Y-44881800D03*
X145719800Y-44881800D03*
X148259800Y-44881800D03*
X148259800Y-60121800D03*
X145719800Y-60121800D03*
X143179800Y-60121800D03*
X140639800Y-60121800D03*
D11*
X138099800Y-60121800D03*
D10*
X97028000Y-62738000D03*
D18*
X104648000Y-62738000D03*
D11*
X181076600Y-60121800D03*
D10*
X183616600Y-60121800D03*
X186156600Y-60121800D03*
X188696600Y-60121800D03*
X191236600Y-60121800D03*
X191236600Y-44881800D03*
X188696600Y-44881800D03*
X186156600Y-44881800D03*
X183616600Y-44881800D03*
X181076600Y-44881800D03*
X128524000Y-73025000D03*
D18*
X128524000Y-65405000D03*
D12*
X186182000Y-39476000D03*
D13*
X187452000Y-39476000D03*
X188722000Y-39476000D03*
D17*
X173283000Y-74370000D03*
X173283000Y-67870000D03*
X168783000Y-67870000D03*
X168783000Y-74370000D03*
D11*
X101660888Y-94996000D03*
D10*
X103660888Y-94996000D03*
X97028000Y-55118000D03*
D18*
X104648000Y-55118000D03*
D10*
X136144000Y-73025000D03*
D18*
X136144000Y-65405000D03*
D17*
X177364000Y-85852000D03*
X177364000Y-79352000D03*
X181864000Y-79352000D03*
X181864000Y-85852000D03*
D10*
X151384000Y-73025000D03*
D18*
X151384000Y-65405000D03*
D10*
X155194000Y-73025000D03*
D18*
X155194000Y-65405000D03*
D11*
X119239888Y-98686112D03*
D10*
X121239888Y-98686112D03*
D20*
X158078000Y-98588000D03*
X153198000Y-98588000D03*
D10*
X97028000Y-47498000D03*
D18*
X104648000Y-47498000D03*
D17*
X135181000Y-101818000D03*
X141681000Y-101818000D03*
X141681000Y-97318000D03*
X135181000Y-97318000D03*
D10*
X113284000Y-73025000D03*
D18*
X113284000Y-65405000D03*
D17*
X173228000Y-91544000D03*
X173228000Y-85044000D03*
X168728000Y-85044000D03*
X168728000Y-91544000D03*
D19*
X165534000Y-98588000D03*
X163534000Y-98588000D03*
D10*
X147574000Y-73025000D03*
D18*
X147574000Y-65405000D03*
D10*
X132334000Y-73025000D03*
D18*
X132334000Y-65405000D03*
D11*
X152425400Y-60121800D03*
D10*
X154965400Y-60121800D03*
X157505400Y-60121800D03*
X160045400Y-60121800D03*
X162585400Y-60121800D03*
X162585400Y-44881800D03*
X160045400Y-44881800D03*
X157505400Y-44881800D03*
X154965400Y-44881800D03*
X152425400Y-44881800D03*
X159004000Y-73025000D03*
D18*
X159004000Y-65405000D03*
D10*
X132006000Y-98686112D03*
D18*
X124386000Y-98686112D03*
D10*
X166751000Y-44881800D03*
X169291000Y-44881800D03*
X171831000Y-44881800D03*
X174371000Y-44881800D03*
X176911000Y-44881800D03*
X176911000Y-60121800D03*
X174371000Y-60121800D03*
X171831000Y-60121800D03*
X169291000Y-60121800D03*
D11*
X166751000Y-60121800D03*
D10*
X124714000Y-73025000D03*
D18*
X124714000Y-65405000D03*
D10*
X97028000Y-58928000D03*
D18*
X104648000Y-58928000D03*
D17*
X181864000Y-90124000D03*
X181864000Y-96624000D03*
X177364000Y-96624000D03*
X177364000Y-90124000D03*
D21*
X109423200Y-48463200D02*
X109423200Y-44881800D01*
X111963200Y-47447200D02*
X111963200Y-44881800D01*
X122123200Y-43256200D02*
X122123200Y-47447200D01*
X126238000Y-43307000D02*
X126187200Y-43256200D01*
X126238000Y-44831000D02*
X126238000Y-43307000D01*
X126187200Y-43256200D02*
X122123200Y-43256200D01*
X126314200Y-44907200D02*
X126238000Y-44831000D01*
X126314200Y-47447200D02*
X126314200Y-44907200D01*
X136474200Y-47447200D02*
X126314200Y-47447200D01*
X136601200Y-47320200D02*
X136474200Y-47447200D01*
X136601200Y-43256200D02*
X136601200Y-47320200D01*
X122123200Y-47447200D02*
X111963200Y-47447200D01*
X140538200Y-43256200D02*
X136601200Y-43256200D01*
X140589000Y-43307000D02*
X140538200Y-43256200D01*
X140589000Y-44831000D02*
X140589000Y-43307000D01*
X140665200Y-44907200D02*
X140589000Y-44831000D01*
X140665200Y-47447200D02*
X140665200Y-44907200D01*
X150825200Y-47447200D02*
X140665200Y-47447200D01*
X150825200Y-43256200D02*
X150825200Y-47447200D01*
X154889200Y-43256200D02*
X150825200Y-43256200D01*
X154914600Y-43281600D02*
X154889200Y-43256200D01*
X154914600Y-44831000D02*
X154914600Y-43281600D01*
X155016200Y-44932600D02*
X154914600Y-44831000D01*
X155016200Y-47447200D02*
X155016200Y-44932600D01*
X165176200Y-47447200D02*
X155016200Y-47447200D01*
X179400200Y-43256200D02*
X179400200Y-47447200D01*
X169240200Y-47447200D02*
X169240200Y-43256200D01*
X165176200Y-43256200D02*
X165176200Y-47447200D01*
X183464200Y-43256200D02*
X179400200Y-43256200D01*
X179400200Y-47447200D02*
X169240200Y-47447200D01*
X183565800Y-43357800D02*
X183464200Y-43256200D01*
X183565800Y-44831000D02*
X183565800Y-43357800D01*
X169240200Y-43256200D02*
X165176200Y-43256200D01*
X181792000Y-74370000D02*
X181792000Y-77144000D01*
X173283000Y-76763000D02*
X173736000Y-77216000D01*
X181792000Y-77144000D02*
X181792000Y-79280000D01*
X173736000Y-77216000D02*
X181720000Y-77216000D01*
X173283000Y-74370000D02*
X173283000Y-76763000D01*
X181720000Y-77216000D02*
X181792000Y-77144000D01*
X181792000Y-79280000D02*
X181864000Y-79352000D01*
X177292000Y-67870000D02*
X177292000Y-74370000D01*
X99762000Y-45025000D02*
X99762000Y-80458000D01*
X99762000Y-80458000D02*
X101660888Y-82356888D01*
X98425000Y-43688000D02*
X99762000Y-45025000D01*
X101660888Y-82356888D02*
X101660888Y-94996000D01*
X100965000Y-78877000D02*
X105908000Y-83820000D01*
X100965000Y-43688000D02*
X100965000Y-78877000D01*
X103660888Y-86067112D02*
X105908000Y-83820000D01*
X103660888Y-94996000D02*
X103660888Y-86067112D01*
X165534000Y-100150000D02*
X165534000Y-98588000D01*
X165100000Y-100584000D02*
X165534000Y-100150000D01*
X185420000Y-96624000D02*
X190500000Y-91544000D01*
X181864000Y-96624000D02*
X185420000Y-96624000D01*
X186228000Y-80772000D02*
X190500000Y-85044000D01*
X183284000Y-80772000D02*
X186228000Y-80772000D01*
X181864000Y-79352000D02*
X183284000Y-80772000D01*
X175976000Y-82296000D02*
X178920000Y-82296000D01*
X178920000Y-82296000D02*
X181864000Y-79352000D01*
X173228000Y-85044000D02*
X175976000Y-82296000D01*
X118872000Y-89408000D02*
X118872000Y-92456000D01*
X119156000Y-89124000D02*
X118872000Y-89408000D01*
X176364000Y-89124000D02*
X119156000Y-89124000D01*
X177364000Y-90124000D02*
X176364000Y-89124000D01*
X185928000Y-87884000D02*
X113792000Y-87884000D01*
X186000000Y-87812000D02*
X185928000Y-87884000D01*
X113792000Y-87884000D02*
X113792000Y-89916000D01*
X186000000Y-85044000D02*
X186000000Y-87812000D01*
X112060000Y-85044000D02*
X111252000Y-85852000D01*
X168728000Y-85044000D02*
X112060000Y-85044000D01*
X165608000Y-92456000D02*
X165615000Y-92463000D01*
X165615000Y-92463000D02*
X165615000Y-97028000D01*
X159512000Y-92456000D02*
X165608000Y-92456000D01*
X173228000Y-97028000D02*
X173228000Y-91544000D01*
X165615000Y-97028000D02*
X173228000Y-97028000D01*
X165534000Y-97109000D02*
X165615000Y-97028000D01*
X165534000Y-97109000D02*
X165534000Y-98588000D01*
X113792000Y-89916000D02*
X113792000Y-92456000D01*
X111252000Y-85852000D02*
X111252000Y-92456000D01*
X145796000Y-100584000D02*
X165100000Y-100584000D01*
X145611000Y-100769000D02*
X145796000Y-100584000D01*
X145611000Y-100769000D02*
X145611000Y-98715000D01*
X145611000Y-101277000D02*
X145611000Y-100769000D01*
X132006000Y-95430000D02*
X132006000Y-98686112D01*
X131572000Y-94996000D02*
X132006000Y-95430000D01*
X103660888Y-94996000D02*
X131572000Y-94996000D01*
X117998776Y-97445000D02*
X119239888Y-98686112D01*
X115519000Y-97445000D02*
X117998776Y-97445000D01*
X139482000Y-97318000D02*
X141681000Y-97318000D01*
X139192000Y-97028000D02*
X139482000Y-97318000D01*
X139192000Y-92456000D02*
X139192000Y-97028000D01*
X145070000Y-101818000D02*
X145611000Y-101277000D01*
X141681000Y-101818000D02*
X145070000Y-101818000D01*
X132298000Y-101818000D02*
X135181000Y-101818000D01*
X132006000Y-101526000D02*
X132298000Y-101818000D01*
X132006000Y-98686112D02*
X132006000Y-101526000D01*
X121239888Y-98686112D02*
X124386000Y-98686112D01*
X121239888Y-101264112D02*
X121239888Y-98686112D01*
X120559000Y-101945000D02*
X121239888Y-101264112D01*
X115519000Y-101945000D02*
X120559000Y-101945000D01*
X154432000Y-97354000D02*
X153198000Y-98588000D01*
X154432000Y-92456000D02*
X154432000Y-97354000D01*
X156972000Y-97482000D02*
X158078000Y-98588000D01*
X156972000Y-92456000D02*
X156972000Y-97482000D01*
X113792000Y-75184000D02*
X113792000Y-77216000D01*
X109474000Y-74930000D02*
X109728000Y-75184000D01*
X109728000Y-75184000D02*
X113792000Y-75184000D01*
X109474000Y-73025000D02*
X109474000Y-74930000D01*
X118872000Y-75184000D02*
X118872000Y-77216000D01*
X117094000Y-74930000D02*
X117348000Y-75184000D01*
X117348000Y-75184000D02*
X118872000Y-75184000D01*
X117094000Y-73025000D02*
X117094000Y-74930000D01*
X120904000Y-74676000D02*
X121412000Y-75184000D01*
X121412000Y-75184000D02*
X121412000Y-77216000D01*
X120904000Y-73025000D02*
X120904000Y-74676000D01*
X123952000Y-75184000D02*
X123952000Y-77216000D01*
X124714000Y-74422000D02*
X123952000Y-75184000D01*
X124714000Y-73025000D02*
X124714000Y-74422000D01*
X126492000Y-75184000D02*
X126492000Y-77216000D01*
X128524000Y-75184000D02*
X126492000Y-75184000D01*
X128524000Y-73025000D02*
X128524000Y-75184000D01*
X131572000Y-75184000D02*
X131572000Y-77216000D01*
X136144000Y-75184000D02*
X131572000Y-75184000D01*
X136144000Y-73025000D02*
X136144000Y-75184000D01*
X141732000Y-74803000D02*
X141732000Y-77216000D01*
X139954000Y-73025000D02*
X141732000Y-74803000D01*
X144272000Y-74676000D02*
X144272000Y-77216000D01*
X143764000Y-74168000D02*
X144272000Y-74676000D01*
X143764000Y-73025000D02*
X143764000Y-74168000D01*
X146812000Y-74676000D02*
X146812000Y-77216000D01*
X147574000Y-73914000D02*
X146812000Y-74676000D01*
X147574000Y-73025000D02*
X147574000Y-73914000D01*
X149352000Y-75184000D02*
X149352000Y-77216000D01*
X151384000Y-75184000D02*
X149352000Y-75184000D01*
X151384000Y-73025000D02*
X151384000Y-75184000D01*
X154432000Y-75184000D02*
X154432000Y-77216000D01*
X159004000Y-75184000D02*
X154432000Y-75184000D01*
X159004000Y-73025000D02*
X159004000Y-75184000D01*
X181792000Y-67870000D02*
X181792000Y-74370000D01*
X173283000Y-67870000D02*
X173283000Y-74370000D01*
X168783000Y-67870000D02*
X168783000Y-74370000D01*
X153071000Y-98715000D02*
X153198000Y-98588000D01*
X147611000Y-98715000D02*
X153071000Y-98715000D01*
X158078000Y-98588000D02*
X163534000Y-98588000D01*
X192786000Y-65405000D02*
X159004000Y-65405000D01*
X192786000Y-36957000D02*
X192786000Y-65405000D01*
X115824000Y-36957000D02*
X192786000Y-36957000D01*
X115824000Y-39476000D02*
X115824000Y-36957000D01*
X100965000Y-41021000D02*
X117094000Y-41021000D01*
X117094000Y-41021000D02*
X117094000Y-39476000D01*
X100965000Y-43688000D02*
X100965000Y-41021000D01*
X131318000Y-38100000D02*
X131191000Y-37973000D01*
X117094000Y-37973000D02*
X131191000Y-37973000D01*
X131191000Y-37973000D02*
X145796000Y-37973000D01*
X131318000Y-39518000D02*
X131318000Y-38100000D01*
X145669000Y-38100000D02*
X145796000Y-37973000D01*
X145669000Y-39497000D02*
X145669000Y-38100000D01*
X145796000Y-37973000D02*
X159893000Y-37973000D01*
X160020000Y-38100000D02*
X159893000Y-37973000D01*
X160020000Y-39497000D02*
X160020000Y-38100000D01*
X159893000Y-37973000D02*
X174371000Y-37973000D01*
X174371000Y-39497000D02*
X174371000Y-37973000D01*
X174371000Y-37973000D02*
X188722000Y-37973000D01*
X117094000Y-39476000D02*
X117094000Y-37973000D01*
X188722000Y-37973000D02*
X188722000Y-39476000D01*
X124714000Y-63754000D02*
X124714000Y-65405000D01*
X124714000Y-63754000D02*
X138176000Y-63754000D01*
X123698000Y-63754000D02*
X124714000Y-63754000D01*
X107823000Y-74168000D02*
X107823000Y-65532000D01*
X104648000Y-74168000D02*
X107823000Y-74168000D01*
X107950000Y-65405000D02*
X107823000Y-65532000D01*
X109474000Y-65405000D02*
X107950000Y-65405000D01*
X107823000Y-43307000D02*
X107823000Y-65532000D01*
X106807000Y-70358000D02*
X104648000Y-70358000D01*
X106807000Y-42291000D02*
X106807000Y-70358000D01*
X119507000Y-42291000D02*
X106807000Y-42291000D01*
X119532400Y-42265600D02*
X119507000Y-42291000D01*
X119532400Y-42265600D02*
X119532400Y-41148000D01*
X119532400Y-44831000D02*
X119532400Y-42265600D01*
X116840000Y-43307000D02*
X107823000Y-43307000D01*
X116840000Y-44678600D02*
X116840000Y-43307000D01*
X117043200Y-44881800D02*
X116840000Y-44678600D01*
X123748800Y-48463200D02*
X138099800Y-48463200D01*
X109423200Y-48463200D02*
X123748800Y-48463200D01*
X123748800Y-44881800D02*
X123748800Y-48463200D01*
X138099800Y-44881800D02*
X138099800Y-48463200D01*
X138099800Y-48463200D02*
X152450800Y-48463200D01*
X152425400Y-48437800D02*
X152450800Y-48463200D01*
X152425400Y-44881800D02*
X152425400Y-48437800D01*
X152450800Y-48463200D02*
X166827200Y-48463200D01*
X166751000Y-44881800D02*
X166751000Y-48387000D01*
X166827200Y-48463200D02*
X181051200Y-48463200D01*
X166751000Y-48387000D02*
X166827200Y-48463200D01*
X181076600Y-48437800D02*
X181076600Y-44881800D01*
X181051200Y-48463200D02*
X181076600Y-48437800D01*
X178384200Y-42240200D02*
X188671200Y-42240200D01*
X188645800Y-42265600D02*
X188645800Y-44831000D01*
X178384200Y-46431200D02*
X178384200Y-42240200D01*
X174320200Y-46431200D02*
X178384200Y-46431200D01*
X174320200Y-44831000D02*
X174320200Y-46431200D01*
X188671200Y-42240200D02*
X188645800Y-42265600D01*
X160096200Y-44932600D02*
X160096200Y-46431200D01*
X159994600Y-44831000D02*
X160096200Y-44932600D01*
X174320200Y-42240200D02*
X174320200Y-44831000D01*
X164160200Y-42240200D02*
X174320200Y-42240200D01*
X164160200Y-46431200D02*
X164160200Y-42240200D01*
X160096200Y-46431200D02*
X164160200Y-46431200D01*
X191185800Y-41122600D02*
X191185800Y-44831000D01*
X119532400Y-41148000D02*
X119583200Y-41097200D01*
X148412200Y-41097200D02*
X162382200Y-41097200D01*
X162534600Y-41249600D02*
X162382200Y-41097200D01*
X191211200Y-41097200D02*
X191185800Y-41122600D01*
X162534600Y-44831000D02*
X162534600Y-41249600D01*
X134061200Y-41097200D02*
X148412200Y-41097200D01*
X148209000Y-41300400D02*
X148412200Y-41097200D01*
X148209000Y-44831000D02*
X148209000Y-41300400D01*
X109372400Y-44831000D02*
X109423200Y-44881800D01*
X145669000Y-42291000D02*
X145669000Y-44831000D01*
X145618200Y-42240200D02*
X145669000Y-42291000D01*
X135585200Y-42240200D02*
X145618200Y-42240200D01*
X135585200Y-46304200D02*
X135585200Y-42240200D01*
X135458200Y-46431200D02*
X135585200Y-46304200D01*
X131394200Y-46431200D02*
X135458200Y-46431200D01*
X131394200Y-44907200D02*
X131394200Y-46431200D01*
X131318000Y-44831000D02*
X131394200Y-44907200D01*
X149809200Y-42240200D02*
X159969200Y-42240200D01*
X145745200Y-44907200D02*
X145745200Y-46431200D01*
X145745200Y-46431200D02*
X149809200Y-46431200D01*
X159969200Y-42240200D02*
X159994600Y-42265600D01*
X149809200Y-46431200D02*
X149809200Y-42240200D01*
X145669000Y-44831000D02*
X145745200Y-44907200D01*
X159994600Y-42265600D02*
X159994600Y-44831000D01*
X119583200Y-41097200D02*
X134061200Y-41097200D01*
X176860200Y-41224200D02*
X176733200Y-41097200D01*
X162382200Y-41097200D02*
X176733200Y-41097200D01*
X133858000Y-44831000D02*
X133858000Y-41300400D01*
X176860200Y-44831000D02*
X176860200Y-41224200D01*
X176733200Y-41097200D02*
X191211200Y-41097200D01*
X121107200Y-42240200D02*
X131267200Y-42240200D01*
X121107200Y-46431200D02*
X121107200Y-42240200D01*
X117043200Y-46431200D02*
X121107200Y-46431200D01*
X117043200Y-44881800D02*
X117043200Y-46431200D01*
X131267200Y-42240200D02*
X131318000Y-42291000D01*
X131318000Y-42291000D02*
X131318000Y-44831000D01*
X111912400Y-44831000D02*
X111963200Y-44881800D01*
X183616600Y-58648600D02*
X183616600Y-60121800D01*
X183515000Y-58547000D02*
X183616600Y-58648600D01*
X179451000Y-58547000D02*
X183515000Y-58547000D01*
X179451000Y-62738000D02*
X179451000Y-58547000D01*
X169291000Y-62738000D02*
X179451000Y-62738000D01*
X169291000Y-60121800D02*
X169291000Y-62738000D01*
X188696600Y-57556400D02*
X188696600Y-60121800D01*
X178435000Y-57531000D02*
X188722000Y-57531000D01*
X174371000Y-61722000D02*
X178435000Y-61722000D01*
X174371000Y-60121800D02*
X174371000Y-61722000D01*
X178435000Y-61722000D02*
X178435000Y-57531000D01*
X188722000Y-57531000D02*
X188696600Y-57556400D01*
X169291000Y-58547000D02*
X169291000Y-60121800D01*
X165227000Y-58547000D02*
X169291000Y-58547000D01*
X165227000Y-62738000D02*
X165227000Y-58547000D01*
X155067000Y-60223400D02*
X155067000Y-62738000D01*
X154965400Y-60121800D02*
X155067000Y-60223400D01*
X155067000Y-62738000D02*
X165227000Y-62738000D01*
X174371000Y-57531000D02*
X174371000Y-60121800D01*
X164211000Y-57531000D02*
X174371000Y-57531000D01*
X164211000Y-61722000D02*
X164211000Y-57531000D01*
X160147000Y-61722000D02*
X164211000Y-61722000D01*
X160147000Y-60223400D02*
X160147000Y-61722000D01*
X160045400Y-60121800D02*
X160147000Y-60223400D01*
X154965400Y-58572400D02*
X154965400Y-60121800D01*
X150876000Y-62738000D02*
X150876000Y-58547000D01*
X140716000Y-60198000D02*
X140716000Y-62738000D01*
X140716000Y-62738000D02*
X150876000Y-62738000D01*
X150876000Y-58547000D02*
X154940000Y-58547000D01*
X140639800Y-60121800D02*
X140716000Y-60198000D01*
X154940000Y-58547000D02*
X154965400Y-58572400D01*
X160020000Y-57531000D02*
X160045400Y-57556400D01*
X149860000Y-57531000D02*
X160020000Y-57531000D01*
X145796000Y-61722000D02*
X149860000Y-61722000D01*
X145796000Y-60198000D02*
X145796000Y-61722000D01*
X149860000Y-61722000D02*
X149860000Y-57531000D01*
X160045400Y-57556400D02*
X160045400Y-60121800D01*
X145719800Y-60121800D02*
X145796000Y-60198000D01*
X140639800Y-58597800D02*
X140639800Y-60121800D01*
X140589000Y-58547000D02*
X140639800Y-58597800D01*
X136652000Y-58547000D02*
X140589000Y-58547000D01*
X136652000Y-62611000D02*
X136652000Y-58547000D01*
X136525000Y-62738000D02*
X136652000Y-62611000D01*
X126365000Y-62738000D02*
X136525000Y-62738000D01*
X126365000Y-60198000D02*
X126365000Y-62738000D01*
X126288800Y-60121800D02*
X126365000Y-60198000D01*
X145719800Y-57581800D02*
X145719800Y-60121800D01*
X145669000Y-57531000D02*
X145719800Y-57581800D01*
X135636000Y-57531000D02*
X145669000Y-57531000D01*
X135636000Y-61595000D02*
X135636000Y-57531000D01*
X135509000Y-61722000D02*
X135636000Y-61595000D01*
X131445000Y-61722000D02*
X135509000Y-61722000D01*
X131445000Y-60198000D02*
X131445000Y-61722000D01*
X131368800Y-60121800D02*
X131445000Y-60198000D01*
X176911000Y-56515000D02*
X176784000Y-56388000D01*
X176911000Y-60121800D02*
X176911000Y-56515000D01*
X162433000Y-56388000D02*
X176784000Y-56388000D01*
X176784000Y-56388000D02*
X191262000Y-56388000D01*
X162585400Y-56540400D02*
X162433000Y-56388000D01*
X148463000Y-56388000D02*
X162433000Y-56388000D01*
X162585400Y-60121800D02*
X162585400Y-56540400D01*
X148259800Y-56591200D02*
X148463000Y-56388000D01*
X134112000Y-56388000D02*
X148463000Y-56388000D01*
X148259800Y-60121800D02*
X148259800Y-56591200D01*
X133908800Y-56591200D02*
X134112000Y-56388000D01*
X133908800Y-60121800D02*
X133908800Y-56591200D01*
X119634000Y-56388000D02*
X134112000Y-56388000D01*
X191236600Y-56413400D02*
X191236600Y-60121800D01*
X191262000Y-56388000D02*
X191236600Y-56413400D01*
X119583200Y-56438800D02*
X119634000Y-56388000D01*
X119583200Y-60121800D02*
X119583200Y-56438800D01*
X166751000Y-63627000D02*
X166624000Y-63754000D01*
X166751000Y-60121800D02*
X166751000Y-63627000D01*
X166624000Y-63754000D02*
X181102000Y-63754000D01*
X152527000Y-63754000D02*
X166624000Y-63754000D01*
X152425400Y-63652400D02*
X152527000Y-63754000D01*
X152425400Y-60121800D02*
X152425400Y-63652400D01*
X138176000Y-63754000D02*
X152527000Y-63754000D01*
X138099800Y-63677800D02*
X138176000Y-63754000D01*
X138099800Y-60121800D02*
X138099800Y-63677800D01*
X123748800Y-63703200D02*
X123698000Y-63754000D01*
X123748800Y-60121800D02*
X123748800Y-63703200D01*
X109474000Y-63754000D02*
X123698000Y-63754000D01*
X181102000Y-63754000D02*
X181076600Y-63728600D01*
X181076600Y-63728600D02*
X181076600Y-60121800D01*
X109474000Y-60172600D02*
X109474000Y-63754000D01*
X109423200Y-60121800D02*
X109474000Y-60172600D01*
X121158000Y-57531000D02*
X131318000Y-57531000D01*
X121158000Y-61722000D02*
X121158000Y-57531000D01*
X117094000Y-61722000D02*
X121158000Y-61722000D01*
X117094000Y-60172600D02*
X117094000Y-61722000D01*
X117043200Y-60121800D02*
X117094000Y-60172600D01*
X131318000Y-57531000D02*
X131368800Y-57581800D01*
X131368800Y-57581800D02*
X131368800Y-60121800D01*
X126238000Y-58547000D02*
X126288800Y-58597800D01*
X126288800Y-58597800D02*
X126288800Y-60121800D01*
X122174000Y-58547000D02*
X126238000Y-58547000D01*
X122174000Y-62738000D02*
X122174000Y-58547000D01*
X112014000Y-62738000D02*
X122174000Y-62738000D01*
X111963200Y-60121800D02*
X112014000Y-60172600D01*
X112014000Y-60172600D02*
X112014000Y-62738000D01*
M02*
