M48
; DRILL file {KiCad (6.0.8)} date Thu Nov 10 03:51:50 2022
; FORMAT={-:-/ absolute / inch / decimal}
; #@! TF.CreationDate,2022-11-10T03:51:50+05:30
; #@! TF.GenerationSoftware,Kicad,Pcbnew,(6.0.8)
; #@! TF.FileFunction,Plated,1,2,PTH
FMAT,2
INCH
; #@! TA.AperFunction,Plated,PTH,ComponentDrill
T1C0.0236
; #@! TA.AperFunction,Plated,PTH,ComponentDrill
T2C0.0295
; #@! TA.AperFunction,Plated,PTH,ComponentDrill
T3C0.0315
; #@! TA.AperFunction,Plated,PTH,ComponentDrill
T4C0.0394
; #@! TA.AperFunction,Plated,PTH,ComponentDrill
T5C0.0433
%
G90
G05
T1
X5.7327Y-3.8864
X5.8115Y-3.8864
X6.4383Y-3.8814
X6.5171Y-3.8814
T2
X4.51Y-1.5542
X4.56Y-1.5542
X4.61Y-1.5542
X5.07Y-1.5558
X5.12Y-1.5558
X5.17Y-1.5558
X5.635Y-1.555
X5.685Y-1.555
X5.735Y-1.555
X6.2Y-1.555
X6.25Y-1.555
X6.3Y-1.555
X6.765Y-1.555
X6.815Y-1.555
X6.865Y-1.555
X7.33Y-1.5542
X7.38Y-1.5542
X7.43Y-1.5542
T3
X3.82Y-1.87
X3.82Y-2.02
X3.82Y-2.17
X3.82Y-2.32
X3.82Y-2.47
X3.82Y-2.62
X3.82Y-2.77
X3.82Y-2.92
X4.0024Y-3.74
X4.0811Y-3.74
X4.12Y-1.87
X4.12Y-2.02
X4.12Y-2.17
X4.12Y-2.32
X4.12Y-2.47
X4.12Y-2.62
X4.12Y-2.77
X4.12Y-2.92
X4.308Y-1.767
X4.308Y-2.367
X4.31Y-2.575
X4.31Y-2.875
X4.408Y-1.767
X4.408Y-2.367
X4.46Y-2.575
X4.46Y-2.875
X4.508Y-1.767
X4.508Y-2.367
X4.608Y-1.767
X4.608Y-2.367
X4.61Y-2.575
X4.61Y-2.875
X4.6945Y-3.8853
X4.708Y-1.767
X4.708Y-2.367
X4.76Y-2.575
X4.76Y-2.875
X4.7732Y-3.8853
X4.872Y-1.767
X4.872Y-2.367
X4.8971Y-3.8853
X4.91Y-2.575
X4.91Y-2.875
X4.972Y-1.767
X4.972Y-2.367
X5.06Y-2.575
X5.06Y-2.875
X5.072Y-1.767
X5.072Y-2.367
X5.172Y-1.767
X5.172Y-2.367
X5.1971Y-3.8853
X5.21Y-2.575
X5.21Y-2.875
X5.272Y-1.767
X5.272Y-2.367
X5.36Y-2.575
X5.36Y-2.875
X5.437Y-1.767
X5.437Y-2.367
X5.51Y-2.575
X5.51Y-2.875
X5.537Y-1.767
X5.537Y-2.367
X5.637Y-1.767
X5.637Y-2.367
X5.66Y-2.575
X5.66Y-2.875
X5.737Y-1.767
X5.737Y-2.367
X5.81Y-2.575
X5.81Y-2.875
X5.837Y-1.767
X5.837Y-2.367
X5.96Y-2.575
X5.96Y-2.875
X6.001Y-1.767
X6.001Y-2.367
X6.0314Y-3.8814
X6.101Y-1.767
X6.101Y-2.367
X6.11Y-2.575
X6.11Y-2.875
X6.201Y-1.767
X6.201Y-2.367
X6.2235Y-3.8814
X6.26Y-2.575
X6.26Y-2.875
X6.301Y-1.767
X6.301Y-2.367
X6.401Y-1.767
X6.401Y-2.367
X6.565Y-1.767
X6.565Y-2.367
X6.665Y-1.767
X6.665Y-2.367
X6.765Y-1.767
X6.765Y-2.367
X6.865Y-1.767
X6.865Y-2.367
X6.965Y-1.767
X6.965Y-2.367
X7.129Y-1.767
X7.129Y-2.367
X7.229Y-1.767
X7.229Y-2.367
X7.329Y-1.767
X7.329Y-2.367
X7.429Y-1.767
X7.429Y-2.367
X7.529Y-1.767
X7.529Y-2.367
T4
X3.8704Y-3.3
X4.1696Y-3.3
X4.38Y-3.04
X4.38Y-3.64
X4.48Y-3.04
X4.48Y-3.64
X4.58Y-3.04
X4.58Y-3.64
X4.68Y-3.04
X4.68Y-3.64
X4.78Y-3.04
X4.78Y-3.64
X4.88Y-3.04
X4.88Y-3.64
X4.98Y-3.04
X4.98Y-3.64
X5.08Y-3.04
X5.08Y-3.64
X5.18Y-3.04
X5.18Y-3.64
X5.28Y-3.04
X5.28Y-3.64
X5.38Y-3.04
X5.38Y-3.64
X5.48Y-3.04
X5.48Y-3.64
X5.58Y-3.04
X5.58Y-3.64
X5.68Y-3.04
X5.68Y-3.64
X5.78Y-3.04
X5.78Y-3.64
X5.88Y-3.04
X5.88Y-3.64
X5.98Y-3.04
X5.98Y-3.64
X6.08Y-3.04
X6.08Y-3.64
X6.18Y-3.04
X6.18Y-3.64
X6.28Y-3.04
X6.28Y-3.64
T5
X3.875Y-1.72
X3.975Y-1.72
X4.075Y-1.72
X4.2921Y-3.8364
X4.2921Y-4.0136
X4.548Y-3.8364
X4.548Y-4.0136
X5.3221Y-3.8314
X5.3221Y-4.0086
X5.578Y-3.8314
X5.578Y-4.0086
X6.6428Y-3.3482
X6.6428Y-3.6041
X6.645Y-2.672
X6.645Y-2.928
X6.82Y-3.3482
X6.82Y-3.6041
X6.8222Y-2.672
X6.8222Y-2.928
X6.98Y-2.672
X6.98Y-2.928
X6.9828Y-3.1241
X6.9828Y-3.38
X6.9828Y-3.5482
X6.9828Y-3.8041
X7.1572Y-2.672
X7.1572Y-2.928
X7.16Y-3.1241
X7.16Y-3.38
X7.16Y-3.5482
X7.16Y-3.8041
X7.3228Y-3.3482
X7.3228Y-3.6041
X7.5Y-3.3482
X7.5Y-3.6041
T0
M30
