%TF.GenerationSoftware,KiCad,Pcbnew,(6.0.8)*%
%TF.CreationDate,2022-11-10T03:51:54+05:30*%
%TF.ProjectId,digclockv4,64696763-6c6f-4636-9b76-342e6b696361,rev?*%
%TF.SameCoordinates,Original*%
%TF.FileFunction,Drillmap*%
%TF.FilePolarity,Positive*%
%FSLAX45Y45*%
G04 Gerber Fmt 4.5, Leading zero omitted, Abs format (unit mm)*
G04 Created by KiCad (PCBNEW (6.0.8)) date 2022-11-10 03:51:54*
%MOMM*%
%LPD*%
G01*
G04 APERTURE LIST*
%ADD10C,0.100000*%
%ADD11C,0.200000*%
%ADD12C,0.060000*%
%ADD13C,0.075000*%
%ADD14C,0.080000*%
%ADD15C,0.110000*%
G04 APERTURE END LIST*
D10*
X9500000Y-3500000D02*
X19350000Y-3500000D01*
X9500000Y-10450000D02*
X19350000Y-10450000D01*
X19350000Y-3500000D02*
X19350000Y-10450000D01*
X9500000Y-10450000D02*
X9500000Y-3500000D01*
D11*
D12*
X14531100Y-9841500D02*
X14591100Y-9901500D01*
X14591100Y-9841500D02*
X14531100Y-9901500D01*
X14731100Y-9841500D02*
X14791100Y-9901500D01*
X14791100Y-9841500D02*
X14731100Y-9901500D01*
X16323400Y-9828800D02*
X16383400Y-9888800D01*
X16383400Y-9828800D02*
X16323400Y-9888800D01*
X16523400Y-9828800D02*
X16583400Y-9888800D01*
X16583400Y-9828800D02*
X16523400Y-9888800D01*
D13*
X11492900Y-3947600D02*
G75*
G03*
X11492900Y-3947600I-37500J0D01*
G01*
X11619900Y-3947600D02*
G75*
G03*
X11619900Y-3947600I-37500J0D01*
G01*
X11746900Y-3947600D02*
G75*
G03*
X11746900Y-3947600I-37500J0D01*
G01*
X12915300Y-3951800D02*
G75*
G03*
X12915300Y-3951800I-37500J0D01*
G01*
X13042300Y-3951800D02*
G75*
G03*
X13042300Y-3951800I-37500J0D01*
G01*
X13169300Y-3951800D02*
G75*
G03*
X13169300Y-3951800I-37500J0D01*
G01*
X14350400Y-3949700D02*
G75*
G03*
X14350400Y-3949700I-37500J0D01*
G01*
X14477400Y-3949700D02*
G75*
G03*
X14477400Y-3949700I-37500J0D01*
G01*
X14604400Y-3949700D02*
G75*
G03*
X14604400Y-3949700I-37500J0D01*
G01*
X15785500Y-3949700D02*
G75*
G03*
X15785500Y-3949700I-37500J0D01*
G01*
X15912500Y-3949700D02*
G75*
G03*
X15912500Y-3949700I-37500J0D01*
G01*
X16039500Y-3949700D02*
G75*
G03*
X16039500Y-3949700I-37500J0D01*
G01*
X17220600Y-3949700D02*
G75*
G03*
X17220600Y-3949700I-37500J0D01*
G01*
X17347600Y-3949700D02*
G75*
G03*
X17347600Y-3949700I-37500J0D01*
G01*
X17474600Y-3949700D02*
G75*
G03*
X17474600Y-3949700I-37500J0D01*
G01*
X18655700Y-3947600D02*
G75*
G03*
X18655700Y-3947600I-37500J0D01*
G01*
X18782700Y-3947600D02*
G75*
G03*
X18782700Y-3947600I-37500J0D01*
G01*
X18909700Y-3947600D02*
G75*
G03*
X18909700Y-3947600I-37500J0D01*
G01*
D14*
X9702800Y-4709800D02*
X9702800Y-4789800D01*
X9662800Y-4749800D02*
X9742800Y-4749800D01*
X9702800Y-5090800D02*
X9702800Y-5170800D01*
X9662800Y-5130800D02*
X9742800Y-5130800D01*
X9702800Y-5471800D02*
X9702800Y-5551800D01*
X9662800Y-5511800D02*
X9742800Y-5511800D01*
X9702800Y-5852800D02*
X9702800Y-5932800D01*
X9662800Y-5892800D02*
X9742800Y-5892800D01*
X9702800Y-6233800D02*
X9702800Y-6313800D01*
X9662800Y-6273800D02*
X9742800Y-6273800D01*
X9702800Y-6614800D02*
X9702800Y-6694800D01*
X9662800Y-6654800D02*
X9742800Y-6654800D01*
X9702800Y-6995800D02*
X9702800Y-7075800D01*
X9662800Y-7035800D02*
X9742800Y-7035800D01*
X9702800Y-7376800D02*
X9702800Y-7456800D01*
X9662800Y-7416800D02*
X9742800Y-7416800D01*
X10166089Y-9459600D02*
X10166089Y-9539600D01*
X10126089Y-9499600D02*
X10206089Y-9499600D01*
X10366089Y-9459600D02*
X10366089Y-9539600D01*
X10326089Y-9499600D02*
X10406089Y-9499600D01*
X10464800Y-4709800D02*
X10464800Y-4789800D01*
X10424800Y-4749800D02*
X10504800Y-4749800D01*
X10464800Y-5090800D02*
X10464800Y-5170800D01*
X10424800Y-5130800D02*
X10504800Y-5130800D01*
X10464800Y-5471800D02*
X10464800Y-5551800D01*
X10424800Y-5511800D02*
X10504800Y-5511800D01*
X10464800Y-5852800D02*
X10464800Y-5932800D01*
X10424800Y-5892800D02*
X10504800Y-5892800D01*
X10464800Y-6233800D02*
X10464800Y-6313800D01*
X10424800Y-6273800D02*
X10504800Y-6273800D01*
X10464800Y-6614800D02*
X10464800Y-6694800D01*
X10424800Y-6654800D02*
X10504800Y-6654800D01*
X10464800Y-6995800D02*
X10464800Y-7075800D01*
X10424800Y-7035800D02*
X10504800Y-7035800D01*
X10464800Y-7376800D02*
X10464800Y-7456800D01*
X10424800Y-7416800D02*
X10504800Y-7416800D01*
X10942320Y-4448180D02*
X10942320Y-4528180D01*
X10902320Y-4488180D02*
X10982320Y-4488180D01*
X10942320Y-5972180D02*
X10942320Y-6052180D01*
X10902320Y-6012180D02*
X10982320Y-6012180D01*
X10947400Y-6500500D02*
X10947400Y-6580500D01*
X10907400Y-6540500D02*
X10987400Y-6540500D01*
X10947400Y-7262500D02*
X10947400Y-7342500D01*
X10907400Y-7302500D02*
X10987400Y-7302500D01*
X11196320Y-4448180D02*
X11196320Y-4528180D01*
X11156320Y-4488180D02*
X11236320Y-4488180D01*
X11196320Y-5972180D02*
X11196320Y-6052180D01*
X11156320Y-6012180D02*
X11236320Y-6012180D01*
X11328400Y-6500500D02*
X11328400Y-6580500D01*
X11288400Y-6540500D02*
X11368400Y-6540500D01*
X11328400Y-7262500D02*
X11328400Y-7342500D01*
X11288400Y-7302500D02*
X11368400Y-7302500D01*
X11450320Y-4448180D02*
X11450320Y-4528180D01*
X11410320Y-4488180D02*
X11490320Y-4488180D01*
X11450320Y-5972180D02*
X11450320Y-6052180D01*
X11410320Y-6012180D02*
X11490320Y-6012180D01*
X11704320Y-4448180D02*
X11704320Y-4528180D01*
X11664320Y-4488180D02*
X11744320Y-4488180D01*
X11704320Y-5972180D02*
X11704320Y-6052180D01*
X11664320Y-6012180D02*
X11744320Y-6012180D01*
X11709400Y-6500500D02*
X11709400Y-6580500D01*
X11669400Y-6540500D02*
X11749400Y-6540500D01*
X11709400Y-7262500D02*
X11709400Y-7342500D01*
X11669400Y-7302500D02*
X11749400Y-7302500D01*
X11923989Y-9828611D02*
X11923989Y-9908611D01*
X11883989Y-9868611D02*
X11963989Y-9868611D01*
X11958320Y-4448180D02*
X11958320Y-4528180D01*
X11918320Y-4488180D02*
X11998320Y-4488180D01*
X11958320Y-5972180D02*
X11958320Y-6052180D01*
X11918320Y-6012180D02*
X11998320Y-6012180D01*
X12090400Y-6500500D02*
X12090400Y-6580500D01*
X12050400Y-6540500D02*
X12130400Y-6540500D01*
X12090400Y-7262500D02*
X12090400Y-7342500D01*
X12050400Y-7302500D02*
X12130400Y-7302500D01*
X12123989Y-9828611D02*
X12123989Y-9908611D01*
X12083989Y-9868611D02*
X12163989Y-9868611D01*
X12374880Y-4448180D02*
X12374880Y-4528180D01*
X12334880Y-4488180D02*
X12414880Y-4488180D01*
X12374880Y-5972180D02*
X12374880Y-6052180D01*
X12334880Y-6012180D02*
X12414880Y-6012180D01*
X12438600Y-9828611D02*
X12438600Y-9908611D01*
X12398600Y-9868611D02*
X12478600Y-9868611D01*
X12471400Y-6500500D02*
X12471400Y-6580500D01*
X12431400Y-6540500D02*
X12511400Y-6540500D01*
X12471400Y-7262500D02*
X12471400Y-7342500D01*
X12431400Y-7302500D02*
X12511400Y-7302500D01*
X12628880Y-4448180D02*
X12628880Y-4528180D01*
X12588880Y-4488180D02*
X12668880Y-4488180D01*
X12628880Y-5972180D02*
X12628880Y-6052180D01*
X12588880Y-6012180D02*
X12668880Y-6012180D01*
X12852400Y-6500500D02*
X12852400Y-6580500D01*
X12812400Y-6540500D02*
X12892400Y-6540500D01*
X12852400Y-7262500D02*
X12852400Y-7342500D01*
X12812400Y-7302500D02*
X12892400Y-7302500D01*
X12882880Y-4448180D02*
X12882880Y-4528180D01*
X12842880Y-4488180D02*
X12922880Y-4488180D01*
X12882880Y-5972180D02*
X12882880Y-6052180D01*
X12842880Y-6012180D02*
X12922880Y-6012180D01*
X13136880Y-4448180D02*
X13136880Y-4528180D01*
X13096880Y-4488180D02*
X13176880Y-4488180D01*
X13136880Y-5972180D02*
X13136880Y-6052180D01*
X13096880Y-6012180D02*
X13176880Y-6012180D01*
X13200600Y-9828611D02*
X13200600Y-9908611D01*
X13160600Y-9868611D02*
X13240600Y-9868611D01*
X13233400Y-6500500D02*
X13233400Y-6580500D01*
X13193400Y-6540500D02*
X13273400Y-6540500D01*
X13233400Y-7262500D02*
X13233400Y-7342500D01*
X13193400Y-7302500D02*
X13273400Y-7302500D01*
X13390880Y-4448180D02*
X13390880Y-4528180D01*
X13350880Y-4488180D02*
X13430880Y-4488180D01*
X13390880Y-5972180D02*
X13390880Y-6052180D01*
X13350880Y-6012180D02*
X13430880Y-6012180D01*
X13614400Y-6500500D02*
X13614400Y-6580500D01*
X13574400Y-6540500D02*
X13654400Y-6540500D01*
X13614400Y-7262500D02*
X13614400Y-7342500D01*
X13574400Y-7302500D02*
X13654400Y-7302500D01*
X13809980Y-4448180D02*
X13809980Y-4528180D01*
X13769980Y-4488180D02*
X13849980Y-4488180D01*
X13809980Y-5972180D02*
X13809980Y-6052180D01*
X13769980Y-6012180D02*
X13849980Y-6012180D01*
X13995400Y-6500500D02*
X13995400Y-6580500D01*
X13955400Y-6540500D02*
X14035400Y-6540500D01*
X13995400Y-7262500D02*
X13995400Y-7342500D01*
X13955400Y-7302500D02*
X14035400Y-7302500D01*
X14063980Y-4448180D02*
X14063980Y-4528180D01*
X14023980Y-4488180D02*
X14103980Y-4488180D01*
X14063980Y-5972180D02*
X14063980Y-6052180D01*
X14023980Y-6012180D02*
X14103980Y-6012180D01*
X14317980Y-4448180D02*
X14317980Y-4528180D01*
X14277980Y-4488180D02*
X14357980Y-4488180D01*
X14317980Y-5972180D02*
X14317980Y-6052180D01*
X14277980Y-6012180D02*
X14357980Y-6012180D01*
X14376400Y-6500500D02*
X14376400Y-6580500D01*
X14336400Y-6540500D02*
X14416400Y-6540500D01*
X14376400Y-7262500D02*
X14376400Y-7342500D01*
X14336400Y-7302500D02*
X14416400Y-7302500D01*
X14571980Y-4448180D02*
X14571980Y-4528180D01*
X14531980Y-4488180D02*
X14611980Y-4488180D01*
X14571980Y-5972180D02*
X14571980Y-6052180D01*
X14531980Y-6012180D02*
X14611980Y-6012180D01*
X14757400Y-6500500D02*
X14757400Y-6580500D01*
X14717400Y-6540500D02*
X14797400Y-6540500D01*
X14757400Y-7262500D02*
X14757400Y-7342500D01*
X14717400Y-7302500D02*
X14797400Y-7302500D01*
X14825980Y-4448180D02*
X14825980Y-4528180D01*
X14785980Y-4488180D02*
X14865980Y-4488180D01*
X14825980Y-5972180D02*
X14825980Y-6052180D01*
X14785980Y-6012180D02*
X14865980Y-6012180D01*
X15138400Y-6500500D02*
X15138400Y-6580500D01*
X15098400Y-6540500D02*
X15178400Y-6540500D01*
X15138400Y-7262500D02*
X15138400Y-7342500D01*
X15098400Y-7302500D02*
X15178400Y-7302500D01*
X15242540Y-4448180D02*
X15242540Y-4528180D01*
X15202540Y-4488180D02*
X15282540Y-4488180D01*
X15242540Y-5972180D02*
X15242540Y-6052180D01*
X15202540Y-6012180D02*
X15282540Y-6012180D01*
X15319800Y-9818800D02*
X15319800Y-9898800D01*
X15279800Y-9858800D02*
X15359800Y-9858800D01*
X15496540Y-4448180D02*
X15496540Y-4528180D01*
X15456540Y-4488180D02*
X15536540Y-4488180D01*
X15496540Y-5972180D02*
X15496540Y-6052180D01*
X15456540Y-6012180D02*
X15536540Y-6012180D01*
X15519400Y-6500500D02*
X15519400Y-6580500D01*
X15479400Y-6540500D02*
X15559400Y-6540500D01*
X15519400Y-7262500D02*
X15519400Y-7342500D01*
X15479400Y-7302500D02*
X15559400Y-7302500D01*
X15750540Y-4448180D02*
X15750540Y-4528180D01*
X15710540Y-4488180D02*
X15790540Y-4488180D01*
X15750540Y-5972180D02*
X15750540Y-6052180D01*
X15710540Y-6012180D02*
X15790540Y-6012180D01*
X15807800Y-9818800D02*
X15807800Y-9898800D01*
X15767800Y-9858800D02*
X15847800Y-9858800D01*
X15900400Y-6500500D02*
X15900400Y-6580500D01*
X15860400Y-6540500D02*
X15940400Y-6540500D01*
X15900400Y-7262500D02*
X15900400Y-7342500D01*
X15860400Y-7302500D02*
X15940400Y-7302500D01*
X16004540Y-4448180D02*
X16004540Y-4528180D01*
X15964540Y-4488180D02*
X16044540Y-4488180D01*
X16004540Y-5972180D02*
X16004540Y-6052180D01*
X15964540Y-6012180D02*
X16044540Y-6012180D01*
X16258540Y-4448180D02*
X16258540Y-4528180D01*
X16218540Y-4488180D02*
X16298540Y-4488180D01*
X16258540Y-5972180D02*
X16258540Y-6052180D01*
X16218540Y-6012180D02*
X16298540Y-6012180D01*
X16675100Y-4448180D02*
X16675100Y-4528180D01*
X16635100Y-4488180D02*
X16715100Y-4488180D01*
X16675100Y-5972180D02*
X16675100Y-6052180D01*
X16635100Y-6012180D02*
X16715100Y-6012180D01*
X16929100Y-4448180D02*
X16929100Y-4528180D01*
X16889100Y-4488180D02*
X16969100Y-4488180D01*
X16929100Y-5972180D02*
X16929100Y-6052180D01*
X16889100Y-6012180D02*
X16969100Y-6012180D01*
X17183100Y-4448180D02*
X17183100Y-4528180D01*
X17143100Y-4488180D02*
X17223100Y-4488180D01*
X17183100Y-5972180D02*
X17183100Y-6052180D01*
X17143100Y-6012180D02*
X17223100Y-6012180D01*
X17437100Y-4448180D02*
X17437100Y-4528180D01*
X17397100Y-4488180D02*
X17477100Y-4488180D01*
X17437100Y-5972180D02*
X17437100Y-6052180D01*
X17397100Y-6012180D02*
X17477100Y-6012180D01*
X17691100Y-4448180D02*
X17691100Y-4528180D01*
X17651100Y-4488180D02*
X17731100Y-4488180D01*
X17691100Y-5972180D02*
X17691100Y-6052180D01*
X17651100Y-6012180D02*
X17731100Y-6012180D01*
X18107660Y-4448180D02*
X18107660Y-4528180D01*
X18067660Y-4488180D02*
X18147660Y-4488180D01*
X18107660Y-5972180D02*
X18107660Y-6052180D01*
X18067660Y-6012180D02*
X18147660Y-6012180D01*
X18361660Y-4448180D02*
X18361660Y-4528180D01*
X18321660Y-4488180D02*
X18401660Y-4488180D01*
X18361660Y-5972180D02*
X18361660Y-6052180D01*
X18321660Y-6012180D02*
X18401660Y-6012180D01*
X18615660Y-4448180D02*
X18615660Y-4528180D01*
X18575660Y-4488180D02*
X18655660Y-4488180D01*
X18615660Y-5972180D02*
X18615660Y-6052180D01*
X18575660Y-6012180D02*
X18655660Y-6012180D01*
X18869660Y-4448180D02*
X18869660Y-4528180D01*
X18829660Y-4488180D02*
X18909660Y-4488180D01*
X18869660Y-5972180D02*
X18869660Y-6052180D01*
X18829660Y-6012180D02*
X18909660Y-6012180D01*
X19123660Y-4448180D02*
X19123660Y-4528180D01*
X19083660Y-4488180D02*
X19163660Y-4488180D01*
X19123660Y-5972180D02*
X19123660Y-6052180D01*
X19083660Y-6012180D02*
X19163660Y-6012180D01*
D10*
X9866156Y-8417356D02*
X9866156Y-8346644D01*
X9795444Y-8346644D01*
X9795444Y-8417356D01*
X9866156Y-8417356D01*
X10626156Y-8417356D02*
X10626156Y-8346644D01*
X10555444Y-8346644D01*
X10555444Y-8417356D01*
X10626156Y-8417356D01*
X11160556Y-7756956D02*
X11160556Y-7686244D01*
X11089844Y-7686244D01*
X11089844Y-7756956D01*
X11160556Y-7756956D01*
X11160556Y-9280956D02*
X11160556Y-9210244D01*
X11089844Y-9210244D01*
X11089844Y-9280956D01*
X11160556Y-9280956D01*
X11414556Y-7756956D02*
X11414556Y-7686244D01*
X11343844Y-7686244D01*
X11343844Y-7756956D01*
X11414556Y-7756956D01*
X11414556Y-9280956D02*
X11414556Y-9210244D01*
X11343844Y-9210244D01*
X11343844Y-9280956D01*
X11414556Y-9280956D01*
X11668556Y-7756956D02*
X11668556Y-7686244D01*
X11597844Y-7686244D01*
X11597844Y-7756956D01*
X11668556Y-7756956D01*
X11668556Y-9280956D02*
X11668556Y-9210244D01*
X11597844Y-9210244D01*
X11597844Y-9280956D01*
X11668556Y-9280956D01*
X11922556Y-7756956D02*
X11922556Y-7686244D01*
X11851844Y-7686244D01*
X11851844Y-7756956D01*
X11922556Y-7756956D01*
X11922556Y-9280956D02*
X11922556Y-9210244D01*
X11851844Y-9210244D01*
X11851844Y-9280956D01*
X11922556Y-9280956D01*
X12176556Y-7756956D02*
X12176556Y-7686244D01*
X12105844Y-7686244D01*
X12105844Y-7756956D01*
X12176556Y-7756956D01*
X12176556Y-9280956D02*
X12176556Y-9210244D01*
X12105844Y-9210244D01*
X12105844Y-9280956D01*
X12176556Y-9280956D01*
X12430556Y-7756956D02*
X12430556Y-7686244D01*
X12359844Y-7686244D01*
X12359844Y-7756956D01*
X12430556Y-7756956D01*
X12430556Y-9280956D02*
X12430556Y-9210244D01*
X12359844Y-9210244D01*
X12359844Y-9280956D01*
X12430556Y-9280956D01*
X12684556Y-7756956D02*
X12684556Y-7686244D01*
X12613844Y-7686244D01*
X12613844Y-7756956D01*
X12684556Y-7756956D01*
X12684556Y-9280956D02*
X12684556Y-9210244D01*
X12613844Y-9210244D01*
X12613844Y-9280956D01*
X12684556Y-9280956D01*
X12938556Y-7756956D02*
X12938556Y-7686244D01*
X12867844Y-7686244D01*
X12867844Y-7756956D01*
X12938556Y-7756956D01*
X12938556Y-9280956D02*
X12938556Y-9210244D01*
X12867844Y-9210244D01*
X12867844Y-9280956D01*
X12938556Y-9280956D01*
X13192556Y-7756956D02*
X13192556Y-7686244D01*
X13121844Y-7686244D01*
X13121844Y-7756956D01*
X13192556Y-7756956D01*
X13192556Y-9280956D02*
X13192556Y-9210244D01*
X13121844Y-9210244D01*
X13121844Y-9280956D01*
X13192556Y-9280956D01*
X13446556Y-7756956D02*
X13446556Y-7686244D01*
X13375844Y-7686244D01*
X13375844Y-7756956D01*
X13446556Y-7756956D01*
X13446556Y-9280956D02*
X13446556Y-9210244D01*
X13375844Y-9210244D01*
X13375844Y-9280956D01*
X13446556Y-9280956D01*
X13700556Y-7756956D02*
X13700556Y-7686244D01*
X13629844Y-7686244D01*
X13629844Y-7756956D01*
X13700556Y-7756956D01*
X13700556Y-9280956D02*
X13700556Y-9210244D01*
X13629844Y-9210244D01*
X13629844Y-9280956D01*
X13700556Y-9280956D01*
X13954556Y-7756956D02*
X13954556Y-7686244D01*
X13883844Y-7686244D01*
X13883844Y-7756956D01*
X13954556Y-7756956D01*
X13954556Y-9280956D02*
X13954556Y-9210244D01*
X13883844Y-9210244D01*
X13883844Y-9280956D01*
X13954556Y-9280956D01*
X14208556Y-7756956D02*
X14208556Y-7686244D01*
X14137844Y-7686244D01*
X14137844Y-7756956D01*
X14208556Y-7756956D01*
X14208556Y-9280956D02*
X14208556Y-9210244D01*
X14137844Y-9210244D01*
X14137844Y-9280956D01*
X14208556Y-9280956D01*
X14462556Y-7756956D02*
X14462556Y-7686244D01*
X14391844Y-7686244D01*
X14391844Y-7756956D01*
X14462556Y-7756956D01*
X14462556Y-9280956D02*
X14462556Y-9210244D01*
X14391844Y-9210244D01*
X14391844Y-9280956D01*
X14462556Y-9280956D01*
X14716556Y-7756956D02*
X14716556Y-7686244D01*
X14645844Y-7686244D01*
X14645844Y-7756956D01*
X14716556Y-7756956D01*
X14716556Y-9280956D02*
X14716556Y-9210244D01*
X14645844Y-9210244D01*
X14645844Y-9280956D01*
X14716556Y-9280956D01*
X14970556Y-7756956D02*
X14970556Y-7686244D01*
X14899844Y-7686244D01*
X14899844Y-7756956D01*
X14970556Y-7756956D01*
X14970556Y-9280956D02*
X14970556Y-9210244D01*
X14899844Y-9210244D01*
X14899844Y-9280956D01*
X14970556Y-9280956D01*
X15224556Y-7756956D02*
X15224556Y-7686244D01*
X15153844Y-7686244D01*
X15153844Y-7756956D01*
X15224556Y-7756956D01*
X15224556Y-9280956D02*
X15224556Y-9210244D01*
X15153844Y-9210244D01*
X15153844Y-9280956D01*
X15224556Y-9280956D01*
X15478556Y-7756956D02*
X15478556Y-7686244D01*
X15407844Y-7686244D01*
X15407844Y-7756956D01*
X15478556Y-7756956D01*
X15478556Y-9280956D02*
X15478556Y-9210244D01*
X15407844Y-9210244D01*
X15407844Y-9280956D01*
X15478556Y-9280956D01*
X15732556Y-7756956D02*
X15732556Y-7686244D01*
X15661844Y-7686244D01*
X15661844Y-7756956D01*
X15732556Y-7756956D01*
X15732556Y-9280956D02*
X15732556Y-9210244D01*
X15661844Y-9210244D01*
X15661844Y-9280956D01*
X15732556Y-9280956D01*
X15986556Y-7756956D02*
X15986556Y-7686244D01*
X15915844Y-7686244D01*
X15915844Y-7756956D01*
X15986556Y-7756956D01*
X15986556Y-9280956D02*
X15986556Y-9210244D01*
X15915844Y-9210244D01*
X15915844Y-9280956D01*
X15986556Y-9280956D01*
D15*
X9842500Y-4423800D02*
X9897500Y-4368800D01*
X9842500Y-4313800D01*
X9787500Y-4368800D01*
X9842500Y-4423800D01*
X10096500Y-4423800D02*
X10151500Y-4368800D01*
X10096500Y-4313800D01*
X10041500Y-4368800D01*
X10096500Y-4423800D01*
X10350500Y-4423800D02*
X10405500Y-4368800D01*
X10350500Y-4313800D01*
X10295500Y-4368800D01*
X10350500Y-4423800D01*
X10901900Y-9799500D02*
X10956900Y-9744500D01*
X10901900Y-9689500D01*
X10846900Y-9744500D01*
X10901900Y-9799500D01*
X10901900Y-10249500D02*
X10956900Y-10194500D01*
X10901900Y-10139500D01*
X10846900Y-10194500D01*
X10901900Y-10249500D01*
X11551900Y-9799500D02*
X11606900Y-9744500D01*
X11551900Y-9689500D01*
X11496900Y-9744500D01*
X11551900Y-9799500D01*
X11551900Y-10249500D02*
X11606900Y-10194500D01*
X11551900Y-10139500D01*
X11496900Y-10194500D01*
X11551900Y-10249500D01*
X13518100Y-9786800D02*
X13573100Y-9731800D01*
X13518100Y-9676800D01*
X13463100Y-9731800D01*
X13518100Y-9786800D01*
X13518100Y-10236800D02*
X13573100Y-10181800D01*
X13518100Y-10126800D01*
X13463100Y-10181800D01*
X13518100Y-10236800D01*
X14168100Y-9786800D02*
X14223100Y-9731800D01*
X14168100Y-9676800D01*
X14113100Y-9731800D01*
X14168100Y-9786800D01*
X14168100Y-10236800D02*
X14223100Y-10181800D01*
X14168100Y-10126800D01*
X14113100Y-10181800D01*
X14168100Y-10236800D01*
X16872800Y-8559400D02*
X16927800Y-8504400D01*
X16872800Y-8449400D01*
X16817800Y-8504400D01*
X16872800Y-8559400D01*
X16872800Y-9209400D02*
X16927800Y-9154400D01*
X16872800Y-9099400D01*
X16817800Y-9154400D01*
X16872800Y-9209400D01*
X16878300Y-6842000D02*
X16933300Y-6787000D01*
X16878300Y-6732000D01*
X16823300Y-6787000D01*
X16878300Y-6842000D01*
X16878300Y-7492000D02*
X16933300Y-7437000D01*
X16878300Y-7382000D01*
X16823300Y-7437000D01*
X16878300Y-7492000D01*
X17322800Y-8559400D02*
X17377800Y-8504400D01*
X17322800Y-8449400D01*
X17267800Y-8504400D01*
X17322800Y-8559400D01*
X17322800Y-9209400D02*
X17377800Y-9154400D01*
X17322800Y-9099400D01*
X17267800Y-9154400D01*
X17322800Y-9209400D01*
X17328300Y-6842000D02*
X17383300Y-6787000D01*
X17328300Y-6732000D01*
X17273300Y-6787000D01*
X17328300Y-6842000D01*
X17328300Y-7492000D02*
X17383300Y-7437000D01*
X17328300Y-7382000D01*
X17273300Y-7437000D01*
X17328300Y-7492000D01*
X17729200Y-6842000D02*
X17784200Y-6787000D01*
X17729200Y-6732000D01*
X17674200Y-6787000D01*
X17729200Y-6842000D01*
X17729200Y-7492000D02*
X17784200Y-7437000D01*
X17729200Y-7382000D01*
X17674200Y-7437000D01*
X17729200Y-7492000D01*
X17736400Y-7990200D02*
X17791400Y-7935200D01*
X17736400Y-7880200D01*
X17681400Y-7935200D01*
X17736400Y-7990200D01*
X17736400Y-8640200D02*
X17791400Y-8585200D01*
X17736400Y-8530200D01*
X17681400Y-8585200D01*
X17736400Y-8640200D01*
X17736400Y-9067400D02*
X17791400Y-9012400D01*
X17736400Y-8957400D01*
X17681400Y-9012400D01*
X17736400Y-9067400D01*
X17736400Y-9717400D02*
X17791400Y-9662400D01*
X17736400Y-9607400D01*
X17681400Y-9662400D01*
X17736400Y-9717400D01*
X18179200Y-6842000D02*
X18234200Y-6787000D01*
X18179200Y-6732000D01*
X18124200Y-6787000D01*
X18179200Y-6842000D01*
X18179200Y-7492000D02*
X18234200Y-7437000D01*
X18179200Y-7382000D01*
X18124200Y-7437000D01*
X18179200Y-7492000D01*
X18186400Y-7990200D02*
X18241400Y-7935200D01*
X18186400Y-7880200D01*
X18131400Y-7935200D01*
X18186400Y-7990200D01*
X18186400Y-8640200D02*
X18241400Y-8585200D01*
X18186400Y-8530200D01*
X18131400Y-8585200D01*
X18186400Y-8640200D01*
X18186400Y-9067400D02*
X18241400Y-9012400D01*
X18186400Y-8957400D01*
X18131400Y-9012400D01*
X18186400Y-9067400D01*
X18186400Y-9717400D02*
X18241400Y-9662400D01*
X18186400Y-9607400D01*
X18131400Y-9662400D01*
X18186400Y-9717400D01*
X18600000Y-8559400D02*
X18655000Y-8504400D01*
X18600000Y-8449400D01*
X18545000Y-8504400D01*
X18600000Y-8559400D01*
X18600000Y-9209400D02*
X18655000Y-9154400D01*
X18600000Y-9099400D01*
X18545000Y-9154400D01*
X18600000Y-9209400D01*
X19050000Y-8559400D02*
X19105000Y-8504400D01*
X19050000Y-8449400D01*
X18995000Y-8504400D01*
X19050000Y-8559400D01*
X19050000Y-9209400D02*
X19105000Y-9154400D01*
X19050000Y-9099400D01*
X18995000Y-9154400D01*
X19050000Y-9209400D01*
D11*
X9752619Y-10765476D02*
X9752619Y-10565476D01*
X9800238Y-10565476D01*
X9828810Y-10575000D01*
X9847857Y-10594048D01*
X9857381Y-10613095D01*
X9866905Y-10651190D01*
X9866905Y-10679762D01*
X9857381Y-10717857D01*
X9847857Y-10736905D01*
X9828810Y-10755952D01*
X9800238Y-10765476D01*
X9752619Y-10765476D01*
X9952619Y-10765476D02*
X9952619Y-10632143D01*
X9952619Y-10670238D02*
X9962143Y-10651190D01*
X9971667Y-10641667D01*
X9990714Y-10632143D01*
X10009762Y-10632143D01*
X10076429Y-10765476D02*
X10076429Y-10632143D01*
X10076429Y-10565476D02*
X10066905Y-10575000D01*
X10076429Y-10584524D01*
X10085952Y-10575000D01*
X10076429Y-10565476D01*
X10076429Y-10584524D01*
X10200238Y-10765476D02*
X10181190Y-10755952D01*
X10171667Y-10736905D01*
X10171667Y-10565476D01*
X10305000Y-10765476D02*
X10285952Y-10755952D01*
X10276429Y-10736905D01*
X10276429Y-10565476D01*
X10533571Y-10765476D02*
X10533571Y-10565476D01*
X10600238Y-10708333D01*
X10666905Y-10565476D01*
X10666905Y-10765476D01*
X10847857Y-10765476D02*
X10847857Y-10660714D01*
X10838333Y-10641667D01*
X10819286Y-10632143D01*
X10781190Y-10632143D01*
X10762143Y-10641667D01*
X10847857Y-10755952D02*
X10828810Y-10765476D01*
X10781190Y-10765476D01*
X10762143Y-10755952D01*
X10752619Y-10736905D01*
X10752619Y-10717857D01*
X10762143Y-10698810D01*
X10781190Y-10689286D01*
X10828810Y-10689286D01*
X10847857Y-10679762D01*
X10943095Y-10632143D02*
X10943095Y-10832143D01*
X10943095Y-10641667D02*
X10962143Y-10632143D01*
X11000238Y-10632143D01*
X11019286Y-10641667D01*
X11028810Y-10651190D01*
X11038333Y-10670238D01*
X11038333Y-10727381D01*
X11028810Y-10746429D01*
X11019286Y-10755952D01*
X11000238Y-10765476D01*
X10962143Y-10765476D01*
X10943095Y-10755952D01*
X11124048Y-10746429D02*
X11133571Y-10755952D01*
X11124048Y-10765476D01*
X11114524Y-10755952D01*
X11124048Y-10746429D01*
X11124048Y-10765476D01*
X11124048Y-10641667D02*
X11133571Y-10651190D01*
X11124048Y-10660714D01*
X11114524Y-10651190D01*
X11124048Y-10641667D01*
X11124048Y-10660714D01*
D12*
X9435000Y-11065000D02*
X9495000Y-11125000D01*
X9495000Y-11065000D02*
X9435000Y-11125000D01*
D11*
X9790714Y-10985476D02*
X9809762Y-10985476D01*
X9828810Y-10995000D01*
X9838333Y-11004524D01*
X9847857Y-11023571D01*
X9857381Y-11061667D01*
X9857381Y-11109286D01*
X9847857Y-11147381D01*
X9838333Y-11166429D01*
X9828810Y-11175952D01*
X9809762Y-11185476D01*
X9790714Y-11185476D01*
X9771667Y-11175952D01*
X9762143Y-11166429D01*
X9752619Y-11147381D01*
X9743095Y-11109286D01*
X9743095Y-11061667D01*
X9752619Y-11023571D01*
X9762143Y-11004524D01*
X9771667Y-10995000D01*
X9790714Y-10985476D01*
X9943095Y-11166429D02*
X9952619Y-11175952D01*
X9943095Y-11185476D01*
X9933571Y-11175952D01*
X9943095Y-11166429D01*
X9943095Y-11185476D01*
X10124048Y-10985476D02*
X10085952Y-10985476D01*
X10066905Y-10995000D01*
X10057381Y-11004524D01*
X10038333Y-11033095D01*
X10028810Y-11071190D01*
X10028810Y-11147381D01*
X10038333Y-11166429D01*
X10047857Y-11175952D01*
X10066905Y-11185476D01*
X10105000Y-11185476D01*
X10124048Y-11175952D01*
X10133571Y-11166429D01*
X10143095Y-11147381D01*
X10143095Y-11099762D01*
X10133571Y-11080714D01*
X10124048Y-11071190D01*
X10105000Y-11061667D01*
X10066905Y-11061667D01*
X10047857Y-11071190D01*
X10038333Y-11080714D01*
X10028810Y-11099762D01*
X10266905Y-10985476D02*
X10285952Y-10985476D01*
X10305000Y-10995000D01*
X10314524Y-11004524D01*
X10324048Y-11023571D01*
X10333571Y-11061667D01*
X10333571Y-11109286D01*
X10324048Y-11147381D01*
X10314524Y-11166429D01*
X10305000Y-11175952D01*
X10285952Y-11185476D01*
X10266905Y-11185476D01*
X10247857Y-11175952D01*
X10238333Y-11166429D01*
X10228810Y-11147381D01*
X10219286Y-11109286D01*
X10219286Y-11061667D01*
X10228810Y-11023571D01*
X10238333Y-11004524D01*
X10247857Y-10995000D01*
X10266905Y-10985476D01*
X10457381Y-10985476D02*
X10476429Y-10985476D01*
X10495476Y-10995000D01*
X10505000Y-11004524D01*
X10514524Y-11023571D01*
X10524048Y-11061667D01*
X10524048Y-11109286D01*
X10514524Y-11147381D01*
X10505000Y-11166429D01*
X10495476Y-11175952D01*
X10476429Y-11185476D01*
X10457381Y-11185476D01*
X10438333Y-11175952D01*
X10428810Y-11166429D01*
X10419286Y-11147381D01*
X10409762Y-11109286D01*
X10409762Y-11061667D01*
X10419286Y-11023571D01*
X10428810Y-11004524D01*
X10438333Y-10995000D01*
X10457381Y-10985476D01*
X10609762Y-11185476D02*
X10609762Y-11052143D01*
X10609762Y-11071190D02*
X10619286Y-11061667D01*
X10638333Y-11052143D01*
X10666905Y-11052143D01*
X10685952Y-11061667D01*
X10695476Y-11080714D01*
X10695476Y-11185476D01*
X10695476Y-11080714D02*
X10705000Y-11061667D01*
X10724048Y-11052143D01*
X10752619Y-11052143D01*
X10771667Y-11061667D01*
X10781190Y-11080714D01*
X10781190Y-11185476D01*
X10876429Y-11185476D02*
X10876429Y-11052143D01*
X10876429Y-11071190D02*
X10885952Y-11061667D01*
X10905000Y-11052143D01*
X10933571Y-11052143D01*
X10952619Y-11061667D01*
X10962143Y-11080714D01*
X10962143Y-11185476D01*
X10962143Y-11080714D02*
X10971667Y-11061667D01*
X10990714Y-11052143D01*
X11019286Y-11052143D01*
X11038333Y-11061667D01*
X11047857Y-11080714D01*
X11047857Y-11185476D01*
X11438333Y-10975952D02*
X11266905Y-11233095D01*
X11695476Y-10985476D02*
X11714524Y-10985476D01*
X11733571Y-10995000D01*
X11743095Y-11004524D01*
X11752619Y-11023571D01*
X11762143Y-11061667D01*
X11762143Y-11109286D01*
X11752619Y-11147381D01*
X11743095Y-11166429D01*
X11733571Y-11175952D01*
X11714524Y-11185476D01*
X11695476Y-11185476D01*
X11676428Y-11175952D01*
X11666905Y-11166429D01*
X11657381Y-11147381D01*
X11647857Y-11109286D01*
X11647857Y-11061667D01*
X11657381Y-11023571D01*
X11666905Y-11004524D01*
X11676428Y-10995000D01*
X11695476Y-10985476D01*
X11847857Y-11166429D02*
X11857381Y-11175952D01*
X11847857Y-11185476D01*
X11838333Y-11175952D01*
X11847857Y-11166429D01*
X11847857Y-11185476D01*
X11981190Y-10985476D02*
X12000238Y-10985476D01*
X12019286Y-10995000D01*
X12028809Y-11004524D01*
X12038333Y-11023571D01*
X12047857Y-11061667D01*
X12047857Y-11109286D01*
X12038333Y-11147381D01*
X12028809Y-11166429D01*
X12019286Y-11175952D01*
X12000238Y-11185476D01*
X11981190Y-11185476D01*
X11962143Y-11175952D01*
X11952619Y-11166429D01*
X11943095Y-11147381D01*
X11933571Y-11109286D01*
X11933571Y-11061667D01*
X11943095Y-11023571D01*
X11952619Y-11004524D01*
X11962143Y-10995000D01*
X11981190Y-10985476D01*
X12124048Y-11004524D02*
X12133571Y-10995000D01*
X12152619Y-10985476D01*
X12200238Y-10985476D01*
X12219286Y-10995000D01*
X12228809Y-11004524D01*
X12238333Y-11023571D01*
X12238333Y-11042619D01*
X12228809Y-11071190D01*
X12114524Y-11185476D01*
X12238333Y-11185476D01*
X12305000Y-10985476D02*
X12428809Y-10985476D01*
X12362143Y-11061667D01*
X12390714Y-11061667D01*
X12409762Y-11071190D01*
X12419286Y-11080714D01*
X12428809Y-11099762D01*
X12428809Y-11147381D01*
X12419286Y-11166429D01*
X12409762Y-11175952D01*
X12390714Y-11185476D01*
X12333571Y-11185476D01*
X12314524Y-11175952D01*
X12305000Y-11166429D01*
X12600238Y-10985476D02*
X12562143Y-10985476D01*
X12543095Y-10995000D01*
X12533571Y-11004524D01*
X12514524Y-11033095D01*
X12505000Y-11071190D01*
X12505000Y-11147381D01*
X12514524Y-11166429D01*
X12524048Y-11175952D01*
X12543095Y-11185476D01*
X12581190Y-11185476D01*
X12600238Y-11175952D01*
X12609762Y-11166429D01*
X12619286Y-11147381D01*
X12619286Y-11099762D01*
X12609762Y-11080714D01*
X12600238Y-11071190D01*
X12581190Y-11061667D01*
X12543095Y-11061667D01*
X12524048Y-11071190D01*
X12514524Y-11080714D01*
X12505000Y-11099762D01*
X12695476Y-10985476D02*
X12695476Y-11023571D01*
X12771667Y-10985476D02*
X12771667Y-11023571D01*
X13066905Y-11261667D02*
X13057381Y-11252143D01*
X13038333Y-11223571D01*
X13028809Y-11204524D01*
X13019286Y-11175952D01*
X13009762Y-11128333D01*
X13009762Y-11090238D01*
X13019286Y-11042619D01*
X13028809Y-11014048D01*
X13038333Y-10995000D01*
X13057381Y-10966429D01*
X13066905Y-10956905D01*
X13228809Y-11052143D02*
X13228809Y-11185476D01*
X13181190Y-10975952D02*
X13133571Y-11118810D01*
X13257381Y-11118810D01*
X13485952Y-11185476D02*
X13485952Y-10985476D01*
X13571667Y-11185476D02*
X13571667Y-11080714D01*
X13562143Y-11061667D01*
X13543095Y-11052143D01*
X13514524Y-11052143D01*
X13495476Y-11061667D01*
X13485952Y-11071190D01*
X13695476Y-11185476D02*
X13676428Y-11175952D01*
X13666905Y-11166429D01*
X13657381Y-11147381D01*
X13657381Y-11090238D01*
X13666905Y-11071190D01*
X13676428Y-11061667D01*
X13695476Y-11052143D01*
X13724048Y-11052143D01*
X13743095Y-11061667D01*
X13752619Y-11071190D01*
X13762143Y-11090238D01*
X13762143Y-11147381D01*
X13752619Y-11166429D01*
X13743095Y-11175952D01*
X13724048Y-11185476D01*
X13695476Y-11185476D01*
X13876428Y-11185476D02*
X13857381Y-11175952D01*
X13847857Y-11156905D01*
X13847857Y-10985476D01*
X14028809Y-11175952D02*
X14009762Y-11185476D01*
X13971667Y-11185476D01*
X13952619Y-11175952D01*
X13943095Y-11156905D01*
X13943095Y-11080714D01*
X13952619Y-11061667D01*
X13971667Y-11052143D01*
X14009762Y-11052143D01*
X14028809Y-11061667D01*
X14038333Y-11080714D01*
X14038333Y-11099762D01*
X13943095Y-11118810D01*
X14114524Y-11175952D02*
X14133571Y-11185476D01*
X14171667Y-11185476D01*
X14190714Y-11175952D01*
X14200238Y-11156905D01*
X14200238Y-11147381D01*
X14190714Y-11128333D01*
X14171667Y-11118810D01*
X14143095Y-11118810D01*
X14124048Y-11109286D01*
X14114524Y-11090238D01*
X14114524Y-11080714D01*
X14124048Y-11061667D01*
X14143095Y-11052143D01*
X14171667Y-11052143D01*
X14190714Y-11061667D01*
X14266905Y-11261667D02*
X14276428Y-11252143D01*
X14295476Y-11223571D01*
X14305000Y-11204524D01*
X14314524Y-11175952D01*
X14324048Y-11128333D01*
X14324048Y-11090238D01*
X14314524Y-11042619D01*
X14305000Y-11014048D01*
X14295476Y-10995000D01*
X14276428Y-10966429D01*
X14266905Y-10956905D01*
D13*
X9495000Y-11359000D02*
G75*
G03*
X9495000Y-11359000I-37500J0D01*
G01*
D11*
X9790714Y-11249476D02*
X9809762Y-11249476D01*
X9828810Y-11259000D01*
X9838333Y-11268524D01*
X9847857Y-11287571D01*
X9857381Y-11325667D01*
X9857381Y-11373286D01*
X9847857Y-11411381D01*
X9838333Y-11430428D01*
X9828810Y-11439952D01*
X9809762Y-11449476D01*
X9790714Y-11449476D01*
X9771667Y-11439952D01*
X9762143Y-11430428D01*
X9752619Y-11411381D01*
X9743095Y-11373286D01*
X9743095Y-11325667D01*
X9752619Y-11287571D01*
X9762143Y-11268524D01*
X9771667Y-11259000D01*
X9790714Y-11249476D01*
X9943095Y-11430428D02*
X9952619Y-11439952D01*
X9943095Y-11449476D01*
X9933571Y-11439952D01*
X9943095Y-11430428D01*
X9943095Y-11449476D01*
X10019286Y-11249476D02*
X10152619Y-11249476D01*
X10066905Y-11449476D01*
X10324048Y-11249476D02*
X10228810Y-11249476D01*
X10219286Y-11344714D01*
X10228810Y-11335190D01*
X10247857Y-11325667D01*
X10295476Y-11325667D01*
X10314524Y-11335190D01*
X10324048Y-11344714D01*
X10333571Y-11363762D01*
X10333571Y-11411381D01*
X10324048Y-11430428D01*
X10314524Y-11439952D01*
X10295476Y-11449476D01*
X10247857Y-11449476D01*
X10228810Y-11439952D01*
X10219286Y-11430428D01*
X10457381Y-11249476D02*
X10476429Y-11249476D01*
X10495476Y-11259000D01*
X10505000Y-11268524D01*
X10514524Y-11287571D01*
X10524048Y-11325667D01*
X10524048Y-11373286D01*
X10514524Y-11411381D01*
X10505000Y-11430428D01*
X10495476Y-11439952D01*
X10476429Y-11449476D01*
X10457381Y-11449476D01*
X10438333Y-11439952D01*
X10428810Y-11430428D01*
X10419286Y-11411381D01*
X10409762Y-11373286D01*
X10409762Y-11325667D01*
X10419286Y-11287571D01*
X10428810Y-11268524D01*
X10438333Y-11259000D01*
X10457381Y-11249476D01*
X10609762Y-11449476D02*
X10609762Y-11316143D01*
X10609762Y-11335190D02*
X10619286Y-11325667D01*
X10638333Y-11316143D01*
X10666905Y-11316143D01*
X10685952Y-11325667D01*
X10695476Y-11344714D01*
X10695476Y-11449476D01*
X10695476Y-11344714D02*
X10705000Y-11325667D01*
X10724048Y-11316143D01*
X10752619Y-11316143D01*
X10771667Y-11325667D01*
X10781190Y-11344714D01*
X10781190Y-11449476D01*
X10876429Y-11449476D02*
X10876429Y-11316143D01*
X10876429Y-11335190D02*
X10885952Y-11325667D01*
X10905000Y-11316143D01*
X10933571Y-11316143D01*
X10952619Y-11325667D01*
X10962143Y-11344714D01*
X10962143Y-11449476D01*
X10962143Y-11344714D02*
X10971667Y-11325667D01*
X10990714Y-11316143D01*
X11019286Y-11316143D01*
X11038333Y-11325667D01*
X11047857Y-11344714D01*
X11047857Y-11449476D01*
X11438333Y-11239952D02*
X11266905Y-11497095D01*
X11695476Y-11249476D02*
X11714524Y-11249476D01*
X11733571Y-11259000D01*
X11743095Y-11268524D01*
X11752619Y-11287571D01*
X11762143Y-11325667D01*
X11762143Y-11373286D01*
X11752619Y-11411381D01*
X11743095Y-11430428D01*
X11733571Y-11439952D01*
X11714524Y-11449476D01*
X11695476Y-11449476D01*
X11676428Y-11439952D01*
X11666905Y-11430428D01*
X11657381Y-11411381D01*
X11647857Y-11373286D01*
X11647857Y-11325667D01*
X11657381Y-11287571D01*
X11666905Y-11268524D01*
X11676428Y-11259000D01*
X11695476Y-11249476D01*
X11847857Y-11430428D02*
X11857381Y-11439952D01*
X11847857Y-11449476D01*
X11838333Y-11439952D01*
X11847857Y-11430428D01*
X11847857Y-11449476D01*
X11981190Y-11249476D02*
X12000238Y-11249476D01*
X12019286Y-11259000D01*
X12028809Y-11268524D01*
X12038333Y-11287571D01*
X12047857Y-11325667D01*
X12047857Y-11373286D01*
X12038333Y-11411381D01*
X12028809Y-11430428D01*
X12019286Y-11439952D01*
X12000238Y-11449476D01*
X11981190Y-11449476D01*
X11962143Y-11439952D01*
X11952619Y-11430428D01*
X11943095Y-11411381D01*
X11933571Y-11373286D01*
X11933571Y-11325667D01*
X11943095Y-11287571D01*
X11952619Y-11268524D01*
X11962143Y-11259000D01*
X11981190Y-11249476D01*
X12124048Y-11268524D02*
X12133571Y-11259000D01*
X12152619Y-11249476D01*
X12200238Y-11249476D01*
X12219286Y-11259000D01*
X12228809Y-11268524D01*
X12238333Y-11287571D01*
X12238333Y-11306619D01*
X12228809Y-11335190D01*
X12114524Y-11449476D01*
X12238333Y-11449476D01*
X12333571Y-11449476D02*
X12371667Y-11449476D01*
X12390714Y-11439952D01*
X12400238Y-11430428D01*
X12419286Y-11401857D01*
X12428809Y-11363762D01*
X12428809Y-11287571D01*
X12419286Y-11268524D01*
X12409762Y-11259000D01*
X12390714Y-11249476D01*
X12352619Y-11249476D01*
X12333571Y-11259000D01*
X12324048Y-11268524D01*
X12314524Y-11287571D01*
X12314524Y-11335190D01*
X12324048Y-11354238D01*
X12333571Y-11363762D01*
X12352619Y-11373286D01*
X12390714Y-11373286D01*
X12409762Y-11363762D01*
X12419286Y-11354238D01*
X12428809Y-11335190D01*
X12609762Y-11249476D02*
X12514524Y-11249476D01*
X12505000Y-11344714D01*
X12514524Y-11335190D01*
X12533571Y-11325667D01*
X12581190Y-11325667D01*
X12600238Y-11335190D01*
X12609762Y-11344714D01*
X12619286Y-11363762D01*
X12619286Y-11411381D01*
X12609762Y-11430428D01*
X12600238Y-11439952D01*
X12581190Y-11449476D01*
X12533571Y-11449476D01*
X12514524Y-11439952D01*
X12505000Y-11430428D01*
X12695476Y-11249476D02*
X12695476Y-11287571D01*
X12771667Y-11249476D02*
X12771667Y-11287571D01*
X13066905Y-11525667D02*
X13057381Y-11516143D01*
X13038333Y-11487571D01*
X13028809Y-11468524D01*
X13019286Y-11439952D01*
X13009762Y-11392333D01*
X13009762Y-11354238D01*
X13019286Y-11306619D01*
X13028809Y-11278048D01*
X13038333Y-11259000D01*
X13057381Y-11230428D01*
X13066905Y-11220905D01*
X13247857Y-11449476D02*
X13133571Y-11449476D01*
X13190714Y-11449476D02*
X13190714Y-11249476D01*
X13171667Y-11278048D01*
X13152619Y-11297095D01*
X13133571Y-11306619D01*
X13362143Y-11335190D02*
X13343095Y-11325667D01*
X13333571Y-11316143D01*
X13324048Y-11297095D01*
X13324048Y-11287571D01*
X13333571Y-11268524D01*
X13343095Y-11259000D01*
X13362143Y-11249476D01*
X13400238Y-11249476D01*
X13419286Y-11259000D01*
X13428809Y-11268524D01*
X13438333Y-11287571D01*
X13438333Y-11297095D01*
X13428809Y-11316143D01*
X13419286Y-11325667D01*
X13400238Y-11335190D01*
X13362143Y-11335190D01*
X13343095Y-11344714D01*
X13333571Y-11354238D01*
X13324048Y-11373286D01*
X13324048Y-11411381D01*
X13333571Y-11430428D01*
X13343095Y-11439952D01*
X13362143Y-11449476D01*
X13400238Y-11449476D01*
X13419286Y-11439952D01*
X13428809Y-11430428D01*
X13438333Y-11411381D01*
X13438333Y-11373286D01*
X13428809Y-11354238D01*
X13419286Y-11344714D01*
X13400238Y-11335190D01*
X13676428Y-11449476D02*
X13676428Y-11249476D01*
X13762143Y-11449476D02*
X13762143Y-11344714D01*
X13752619Y-11325667D01*
X13733571Y-11316143D01*
X13705000Y-11316143D01*
X13685952Y-11325667D01*
X13676428Y-11335190D01*
X13885952Y-11449476D02*
X13866905Y-11439952D01*
X13857381Y-11430428D01*
X13847857Y-11411381D01*
X13847857Y-11354238D01*
X13857381Y-11335190D01*
X13866905Y-11325667D01*
X13885952Y-11316143D01*
X13914524Y-11316143D01*
X13933571Y-11325667D01*
X13943095Y-11335190D01*
X13952619Y-11354238D01*
X13952619Y-11411381D01*
X13943095Y-11430428D01*
X13933571Y-11439952D01*
X13914524Y-11449476D01*
X13885952Y-11449476D01*
X14066905Y-11449476D02*
X14047857Y-11439952D01*
X14038333Y-11420905D01*
X14038333Y-11249476D01*
X14219286Y-11439952D02*
X14200238Y-11449476D01*
X14162143Y-11449476D01*
X14143095Y-11439952D01*
X14133571Y-11420905D01*
X14133571Y-11344714D01*
X14143095Y-11325667D01*
X14162143Y-11316143D01*
X14200238Y-11316143D01*
X14219286Y-11325667D01*
X14228809Y-11344714D01*
X14228809Y-11363762D01*
X14133571Y-11382809D01*
X14305000Y-11439952D02*
X14324048Y-11449476D01*
X14362143Y-11449476D01*
X14381190Y-11439952D01*
X14390714Y-11420905D01*
X14390714Y-11411381D01*
X14381190Y-11392333D01*
X14362143Y-11382809D01*
X14333571Y-11382809D01*
X14314524Y-11373286D01*
X14305000Y-11354238D01*
X14305000Y-11344714D01*
X14314524Y-11325667D01*
X14333571Y-11316143D01*
X14362143Y-11316143D01*
X14381190Y-11325667D01*
X14457381Y-11525667D02*
X14466905Y-11516143D01*
X14485952Y-11487571D01*
X14495476Y-11468524D01*
X14505000Y-11439952D01*
X14514524Y-11392333D01*
X14514524Y-11354238D01*
X14505000Y-11306619D01*
X14495476Y-11278048D01*
X14485952Y-11259000D01*
X14466905Y-11230428D01*
X14457381Y-11220905D01*
D14*
X9455000Y-11583000D02*
X9455000Y-11663000D01*
X9415000Y-11623000D02*
X9495000Y-11623000D01*
D11*
X9790714Y-11513476D02*
X9809762Y-11513476D01*
X9828810Y-11523000D01*
X9838333Y-11532524D01*
X9847857Y-11551571D01*
X9857381Y-11589667D01*
X9857381Y-11637286D01*
X9847857Y-11675381D01*
X9838333Y-11694428D01*
X9828810Y-11703952D01*
X9809762Y-11713476D01*
X9790714Y-11713476D01*
X9771667Y-11703952D01*
X9762143Y-11694428D01*
X9752619Y-11675381D01*
X9743095Y-11637286D01*
X9743095Y-11589667D01*
X9752619Y-11551571D01*
X9762143Y-11532524D01*
X9771667Y-11523000D01*
X9790714Y-11513476D01*
X9943095Y-11694428D02*
X9952619Y-11703952D01*
X9943095Y-11713476D01*
X9933571Y-11703952D01*
X9943095Y-11694428D01*
X9943095Y-11713476D01*
X10066905Y-11599190D02*
X10047857Y-11589667D01*
X10038333Y-11580143D01*
X10028810Y-11561095D01*
X10028810Y-11551571D01*
X10038333Y-11532524D01*
X10047857Y-11523000D01*
X10066905Y-11513476D01*
X10105000Y-11513476D01*
X10124048Y-11523000D01*
X10133571Y-11532524D01*
X10143095Y-11551571D01*
X10143095Y-11561095D01*
X10133571Y-11580143D01*
X10124048Y-11589667D01*
X10105000Y-11599190D01*
X10066905Y-11599190D01*
X10047857Y-11608714D01*
X10038333Y-11618238D01*
X10028810Y-11637286D01*
X10028810Y-11675381D01*
X10038333Y-11694428D01*
X10047857Y-11703952D01*
X10066905Y-11713476D01*
X10105000Y-11713476D01*
X10124048Y-11703952D01*
X10133571Y-11694428D01*
X10143095Y-11675381D01*
X10143095Y-11637286D01*
X10133571Y-11618238D01*
X10124048Y-11608714D01*
X10105000Y-11599190D01*
X10266905Y-11513476D02*
X10285952Y-11513476D01*
X10305000Y-11523000D01*
X10314524Y-11532524D01*
X10324048Y-11551571D01*
X10333571Y-11589667D01*
X10333571Y-11637286D01*
X10324048Y-11675381D01*
X10314524Y-11694428D01*
X10305000Y-11703952D01*
X10285952Y-11713476D01*
X10266905Y-11713476D01*
X10247857Y-11703952D01*
X10238333Y-11694428D01*
X10228810Y-11675381D01*
X10219286Y-11637286D01*
X10219286Y-11589667D01*
X10228810Y-11551571D01*
X10238333Y-11532524D01*
X10247857Y-11523000D01*
X10266905Y-11513476D01*
X10457381Y-11513476D02*
X10476429Y-11513476D01*
X10495476Y-11523000D01*
X10505000Y-11532524D01*
X10514524Y-11551571D01*
X10524048Y-11589667D01*
X10524048Y-11637286D01*
X10514524Y-11675381D01*
X10505000Y-11694428D01*
X10495476Y-11703952D01*
X10476429Y-11713476D01*
X10457381Y-11713476D01*
X10438333Y-11703952D01*
X10428810Y-11694428D01*
X10419286Y-11675381D01*
X10409762Y-11637286D01*
X10409762Y-11589667D01*
X10419286Y-11551571D01*
X10428810Y-11532524D01*
X10438333Y-11523000D01*
X10457381Y-11513476D01*
X10609762Y-11713476D02*
X10609762Y-11580143D01*
X10609762Y-11599190D02*
X10619286Y-11589667D01*
X10638333Y-11580143D01*
X10666905Y-11580143D01*
X10685952Y-11589667D01*
X10695476Y-11608714D01*
X10695476Y-11713476D01*
X10695476Y-11608714D02*
X10705000Y-11589667D01*
X10724048Y-11580143D01*
X10752619Y-11580143D01*
X10771667Y-11589667D01*
X10781190Y-11608714D01*
X10781190Y-11713476D01*
X10876429Y-11713476D02*
X10876429Y-11580143D01*
X10876429Y-11599190D02*
X10885952Y-11589667D01*
X10905000Y-11580143D01*
X10933571Y-11580143D01*
X10952619Y-11589667D01*
X10962143Y-11608714D01*
X10962143Y-11713476D01*
X10962143Y-11608714D02*
X10971667Y-11589667D01*
X10990714Y-11580143D01*
X11019286Y-11580143D01*
X11038333Y-11589667D01*
X11047857Y-11608714D01*
X11047857Y-11713476D01*
X11438333Y-11503952D02*
X11266905Y-11761095D01*
X11695476Y-11513476D02*
X11714524Y-11513476D01*
X11733571Y-11523000D01*
X11743095Y-11532524D01*
X11752619Y-11551571D01*
X11762143Y-11589667D01*
X11762143Y-11637286D01*
X11752619Y-11675381D01*
X11743095Y-11694428D01*
X11733571Y-11703952D01*
X11714524Y-11713476D01*
X11695476Y-11713476D01*
X11676428Y-11703952D01*
X11666905Y-11694428D01*
X11657381Y-11675381D01*
X11647857Y-11637286D01*
X11647857Y-11589667D01*
X11657381Y-11551571D01*
X11666905Y-11532524D01*
X11676428Y-11523000D01*
X11695476Y-11513476D01*
X11847857Y-11694428D02*
X11857381Y-11703952D01*
X11847857Y-11713476D01*
X11838333Y-11703952D01*
X11847857Y-11694428D01*
X11847857Y-11713476D01*
X11981190Y-11513476D02*
X12000238Y-11513476D01*
X12019286Y-11523000D01*
X12028809Y-11532524D01*
X12038333Y-11551571D01*
X12047857Y-11589667D01*
X12047857Y-11637286D01*
X12038333Y-11675381D01*
X12028809Y-11694428D01*
X12019286Y-11703952D01*
X12000238Y-11713476D01*
X11981190Y-11713476D01*
X11962143Y-11703952D01*
X11952619Y-11694428D01*
X11943095Y-11675381D01*
X11933571Y-11637286D01*
X11933571Y-11589667D01*
X11943095Y-11551571D01*
X11952619Y-11532524D01*
X11962143Y-11523000D01*
X11981190Y-11513476D01*
X12114524Y-11513476D02*
X12238333Y-11513476D01*
X12171667Y-11589667D01*
X12200238Y-11589667D01*
X12219286Y-11599190D01*
X12228809Y-11608714D01*
X12238333Y-11627762D01*
X12238333Y-11675381D01*
X12228809Y-11694428D01*
X12219286Y-11703952D01*
X12200238Y-11713476D01*
X12143095Y-11713476D01*
X12124048Y-11703952D01*
X12114524Y-11694428D01*
X12428809Y-11713476D02*
X12314524Y-11713476D01*
X12371667Y-11713476D02*
X12371667Y-11513476D01*
X12352619Y-11542048D01*
X12333571Y-11561095D01*
X12314524Y-11570619D01*
X12609762Y-11513476D02*
X12514524Y-11513476D01*
X12505000Y-11608714D01*
X12514524Y-11599190D01*
X12533571Y-11589667D01*
X12581190Y-11589667D01*
X12600238Y-11599190D01*
X12609762Y-11608714D01*
X12619286Y-11627762D01*
X12619286Y-11675381D01*
X12609762Y-11694428D01*
X12600238Y-11703952D01*
X12581190Y-11713476D01*
X12533571Y-11713476D01*
X12514524Y-11703952D01*
X12505000Y-11694428D01*
X12695476Y-11513476D02*
X12695476Y-11551571D01*
X12771667Y-11513476D02*
X12771667Y-11551571D01*
X13066905Y-11789667D02*
X13057381Y-11780143D01*
X13038333Y-11751571D01*
X13028809Y-11732524D01*
X13019286Y-11703952D01*
X13009762Y-11656333D01*
X13009762Y-11618238D01*
X13019286Y-11570619D01*
X13028809Y-11542048D01*
X13038333Y-11523000D01*
X13057381Y-11494428D01*
X13066905Y-11484905D01*
X13247857Y-11713476D02*
X13133571Y-11713476D01*
X13190714Y-11713476D02*
X13190714Y-11513476D01*
X13171667Y-11542048D01*
X13152619Y-11561095D01*
X13133571Y-11570619D01*
X13438333Y-11713476D02*
X13324048Y-11713476D01*
X13381190Y-11713476D02*
X13381190Y-11513476D01*
X13362143Y-11542048D01*
X13343095Y-11561095D01*
X13324048Y-11570619D01*
X13514524Y-11532524D02*
X13524048Y-11523000D01*
X13543095Y-11513476D01*
X13590714Y-11513476D01*
X13609762Y-11523000D01*
X13619286Y-11532524D01*
X13628809Y-11551571D01*
X13628809Y-11570619D01*
X13619286Y-11599190D01*
X13505000Y-11713476D01*
X13628809Y-11713476D01*
X13866905Y-11713476D02*
X13866905Y-11513476D01*
X13952619Y-11713476D02*
X13952619Y-11608714D01*
X13943095Y-11589667D01*
X13924048Y-11580143D01*
X13895476Y-11580143D01*
X13876428Y-11589667D01*
X13866905Y-11599190D01*
X14076428Y-11713476D02*
X14057381Y-11703952D01*
X14047857Y-11694428D01*
X14038333Y-11675381D01*
X14038333Y-11618238D01*
X14047857Y-11599190D01*
X14057381Y-11589667D01*
X14076428Y-11580143D01*
X14105000Y-11580143D01*
X14124048Y-11589667D01*
X14133571Y-11599190D01*
X14143095Y-11618238D01*
X14143095Y-11675381D01*
X14133571Y-11694428D01*
X14124048Y-11703952D01*
X14105000Y-11713476D01*
X14076428Y-11713476D01*
X14257381Y-11713476D02*
X14238333Y-11703952D01*
X14228809Y-11684905D01*
X14228809Y-11513476D01*
X14409762Y-11703952D02*
X14390714Y-11713476D01*
X14352619Y-11713476D01*
X14333571Y-11703952D01*
X14324048Y-11684905D01*
X14324048Y-11608714D01*
X14333571Y-11589667D01*
X14352619Y-11580143D01*
X14390714Y-11580143D01*
X14409762Y-11589667D01*
X14419286Y-11608714D01*
X14419286Y-11627762D01*
X14324048Y-11646809D01*
X14495476Y-11703952D02*
X14514524Y-11713476D01*
X14552619Y-11713476D01*
X14571667Y-11703952D01*
X14581190Y-11684905D01*
X14581190Y-11675381D01*
X14571667Y-11656333D01*
X14552619Y-11646809D01*
X14524048Y-11646809D01*
X14505000Y-11637286D01*
X14495476Y-11618238D01*
X14495476Y-11608714D01*
X14505000Y-11589667D01*
X14524048Y-11580143D01*
X14552619Y-11580143D01*
X14571667Y-11589667D01*
X14647857Y-11789667D02*
X14657381Y-11780143D01*
X14676428Y-11751571D01*
X14685952Y-11732524D01*
X14695476Y-11703952D01*
X14705000Y-11656333D01*
X14705000Y-11618238D01*
X14695476Y-11570619D01*
X14685952Y-11542048D01*
X14676428Y-11523000D01*
X14657381Y-11494428D01*
X14647857Y-11484905D01*
D10*
X9480356Y-11922356D02*
X9480356Y-11851644D01*
X9409644Y-11851644D01*
X9409644Y-11922356D01*
X9480356Y-11922356D01*
D11*
X9857381Y-11977476D02*
X9743095Y-11977476D01*
X9800238Y-11977476D02*
X9800238Y-11777476D01*
X9781190Y-11806048D01*
X9762143Y-11825095D01*
X9743095Y-11834619D01*
X9943095Y-11958428D02*
X9952619Y-11967952D01*
X9943095Y-11977476D01*
X9933571Y-11967952D01*
X9943095Y-11958428D01*
X9943095Y-11977476D01*
X10076429Y-11777476D02*
X10095476Y-11777476D01*
X10114524Y-11787000D01*
X10124048Y-11796524D01*
X10133571Y-11815571D01*
X10143095Y-11853667D01*
X10143095Y-11901286D01*
X10133571Y-11939381D01*
X10124048Y-11958428D01*
X10114524Y-11967952D01*
X10095476Y-11977476D01*
X10076429Y-11977476D01*
X10057381Y-11967952D01*
X10047857Y-11958428D01*
X10038333Y-11939381D01*
X10028810Y-11901286D01*
X10028810Y-11853667D01*
X10038333Y-11815571D01*
X10047857Y-11796524D01*
X10057381Y-11787000D01*
X10076429Y-11777476D01*
X10266905Y-11777476D02*
X10285952Y-11777476D01*
X10305000Y-11787000D01*
X10314524Y-11796524D01*
X10324048Y-11815571D01*
X10333571Y-11853667D01*
X10333571Y-11901286D01*
X10324048Y-11939381D01*
X10314524Y-11958428D01*
X10305000Y-11967952D01*
X10285952Y-11977476D01*
X10266905Y-11977476D01*
X10247857Y-11967952D01*
X10238333Y-11958428D01*
X10228810Y-11939381D01*
X10219286Y-11901286D01*
X10219286Y-11853667D01*
X10228810Y-11815571D01*
X10238333Y-11796524D01*
X10247857Y-11787000D01*
X10266905Y-11777476D01*
X10457381Y-11777476D02*
X10476429Y-11777476D01*
X10495476Y-11787000D01*
X10505000Y-11796524D01*
X10514524Y-11815571D01*
X10524048Y-11853667D01*
X10524048Y-11901286D01*
X10514524Y-11939381D01*
X10505000Y-11958428D01*
X10495476Y-11967952D01*
X10476429Y-11977476D01*
X10457381Y-11977476D01*
X10438333Y-11967952D01*
X10428810Y-11958428D01*
X10419286Y-11939381D01*
X10409762Y-11901286D01*
X10409762Y-11853667D01*
X10419286Y-11815571D01*
X10428810Y-11796524D01*
X10438333Y-11787000D01*
X10457381Y-11777476D01*
X10609762Y-11977476D02*
X10609762Y-11844143D01*
X10609762Y-11863190D02*
X10619286Y-11853667D01*
X10638333Y-11844143D01*
X10666905Y-11844143D01*
X10685952Y-11853667D01*
X10695476Y-11872714D01*
X10695476Y-11977476D01*
X10695476Y-11872714D02*
X10705000Y-11853667D01*
X10724048Y-11844143D01*
X10752619Y-11844143D01*
X10771667Y-11853667D01*
X10781190Y-11872714D01*
X10781190Y-11977476D01*
X10876429Y-11977476D02*
X10876429Y-11844143D01*
X10876429Y-11863190D02*
X10885952Y-11853667D01*
X10905000Y-11844143D01*
X10933571Y-11844143D01*
X10952619Y-11853667D01*
X10962143Y-11872714D01*
X10962143Y-11977476D01*
X10962143Y-11872714D02*
X10971667Y-11853667D01*
X10990714Y-11844143D01*
X11019286Y-11844143D01*
X11038333Y-11853667D01*
X11047857Y-11872714D01*
X11047857Y-11977476D01*
X11438333Y-11767952D02*
X11266905Y-12025095D01*
X11695476Y-11777476D02*
X11714524Y-11777476D01*
X11733571Y-11787000D01*
X11743095Y-11796524D01*
X11752619Y-11815571D01*
X11762143Y-11853667D01*
X11762143Y-11901286D01*
X11752619Y-11939381D01*
X11743095Y-11958428D01*
X11733571Y-11967952D01*
X11714524Y-11977476D01*
X11695476Y-11977476D01*
X11676428Y-11967952D01*
X11666905Y-11958428D01*
X11657381Y-11939381D01*
X11647857Y-11901286D01*
X11647857Y-11853667D01*
X11657381Y-11815571D01*
X11666905Y-11796524D01*
X11676428Y-11787000D01*
X11695476Y-11777476D01*
X11847857Y-11958428D02*
X11857381Y-11967952D01*
X11847857Y-11977476D01*
X11838333Y-11967952D01*
X11847857Y-11958428D01*
X11847857Y-11977476D01*
X11981190Y-11777476D02*
X12000238Y-11777476D01*
X12019286Y-11787000D01*
X12028809Y-11796524D01*
X12038333Y-11815571D01*
X12047857Y-11853667D01*
X12047857Y-11901286D01*
X12038333Y-11939381D01*
X12028809Y-11958428D01*
X12019286Y-11967952D01*
X12000238Y-11977476D01*
X11981190Y-11977476D01*
X11962143Y-11967952D01*
X11952619Y-11958428D01*
X11943095Y-11939381D01*
X11933571Y-11901286D01*
X11933571Y-11853667D01*
X11943095Y-11815571D01*
X11952619Y-11796524D01*
X11962143Y-11787000D01*
X11981190Y-11777476D01*
X12114524Y-11777476D02*
X12238333Y-11777476D01*
X12171667Y-11853667D01*
X12200238Y-11853667D01*
X12219286Y-11863190D01*
X12228809Y-11872714D01*
X12238333Y-11891762D01*
X12238333Y-11939381D01*
X12228809Y-11958428D01*
X12219286Y-11967952D01*
X12200238Y-11977476D01*
X12143095Y-11977476D01*
X12124048Y-11967952D01*
X12114524Y-11958428D01*
X12333571Y-11977476D02*
X12371667Y-11977476D01*
X12390714Y-11967952D01*
X12400238Y-11958428D01*
X12419286Y-11929857D01*
X12428809Y-11891762D01*
X12428809Y-11815571D01*
X12419286Y-11796524D01*
X12409762Y-11787000D01*
X12390714Y-11777476D01*
X12352619Y-11777476D01*
X12333571Y-11787000D01*
X12324048Y-11796524D01*
X12314524Y-11815571D01*
X12314524Y-11863190D01*
X12324048Y-11882238D01*
X12333571Y-11891762D01*
X12352619Y-11901286D01*
X12390714Y-11901286D01*
X12409762Y-11891762D01*
X12419286Y-11882238D01*
X12428809Y-11863190D01*
X12600238Y-11844143D02*
X12600238Y-11977476D01*
X12552619Y-11767952D02*
X12505000Y-11910809D01*
X12628809Y-11910809D01*
X12695476Y-11777476D02*
X12695476Y-11815571D01*
X12771667Y-11777476D02*
X12771667Y-11815571D01*
X13066905Y-12053667D02*
X13057381Y-12044143D01*
X13038333Y-12015571D01*
X13028809Y-11996524D01*
X13019286Y-11967952D01*
X13009762Y-11920333D01*
X13009762Y-11882238D01*
X13019286Y-11834619D01*
X13028809Y-11806048D01*
X13038333Y-11787000D01*
X13057381Y-11758428D01*
X13066905Y-11748905D01*
X13228809Y-11844143D02*
X13228809Y-11977476D01*
X13181190Y-11767952D02*
X13133571Y-11910809D01*
X13257381Y-11910809D01*
X13324048Y-11796524D02*
X13333571Y-11787000D01*
X13352619Y-11777476D01*
X13400238Y-11777476D01*
X13419286Y-11787000D01*
X13428809Y-11796524D01*
X13438333Y-11815571D01*
X13438333Y-11834619D01*
X13428809Y-11863190D01*
X13314524Y-11977476D01*
X13438333Y-11977476D01*
X13676428Y-11977476D02*
X13676428Y-11777476D01*
X13762143Y-11977476D02*
X13762143Y-11872714D01*
X13752619Y-11853667D01*
X13733571Y-11844143D01*
X13705000Y-11844143D01*
X13685952Y-11853667D01*
X13676428Y-11863190D01*
X13885952Y-11977476D02*
X13866905Y-11967952D01*
X13857381Y-11958428D01*
X13847857Y-11939381D01*
X13847857Y-11882238D01*
X13857381Y-11863190D01*
X13866905Y-11853667D01*
X13885952Y-11844143D01*
X13914524Y-11844143D01*
X13933571Y-11853667D01*
X13943095Y-11863190D01*
X13952619Y-11882238D01*
X13952619Y-11939381D01*
X13943095Y-11958428D01*
X13933571Y-11967952D01*
X13914524Y-11977476D01*
X13885952Y-11977476D01*
X14066905Y-11977476D02*
X14047857Y-11967952D01*
X14038333Y-11948905D01*
X14038333Y-11777476D01*
X14219286Y-11967952D02*
X14200238Y-11977476D01*
X14162143Y-11977476D01*
X14143095Y-11967952D01*
X14133571Y-11948905D01*
X14133571Y-11872714D01*
X14143095Y-11853667D01*
X14162143Y-11844143D01*
X14200238Y-11844143D01*
X14219286Y-11853667D01*
X14228809Y-11872714D01*
X14228809Y-11891762D01*
X14133571Y-11910809D01*
X14305000Y-11967952D02*
X14324048Y-11977476D01*
X14362143Y-11977476D01*
X14381190Y-11967952D01*
X14390714Y-11948905D01*
X14390714Y-11939381D01*
X14381190Y-11920333D01*
X14362143Y-11910809D01*
X14333571Y-11910809D01*
X14314524Y-11901286D01*
X14305000Y-11882238D01*
X14305000Y-11872714D01*
X14314524Y-11853667D01*
X14333571Y-11844143D01*
X14362143Y-11844143D01*
X14381190Y-11853667D01*
X14457381Y-12053667D02*
X14466905Y-12044143D01*
X14485952Y-12015571D01*
X14495476Y-11996524D01*
X14505000Y-11967952D01*
X14514524Y-11920333D01*
X14514524Y-11882238D01*
X14505000Y-11834619D01*
X14495476Y-11806048D01*
X14485952Y-11787000D01*
X14466905Y-11758428D01*
X14457381Y-11748905D01*
D15*
X9440000Y-12206000D02*
X9495000Y-12151000D01*
X9440000Y-12096000D01*
X9385000Y-12151000D01*
X9440000Y-12206000D01*
D11*
X9857381Y-12241476D02*
X9743095Y-12241476D01*
X9800238Y-12241476D02*
X9800238Y-12041476D01*
X9781190Y-12070048D01*
X9762143Y-12089095D01*
X9743095Y-12098619D01*
X9943095Y-12222428D02*
X9952619Y-12231952D01*
X9943095Y-12241476D01*
X9933571Y-12231952D01*
X9943095Y-12222428D01*
X9943095Y-12241476D01*
X10143095Y-12241476D02*
X10028810Y-12241476D01*
X10085952Y-12241476D02*
X10085952Y-12041476D01*
X10066905Y-12070048D01*
X10047857Y-12089095D01*
X10028810Y-12098619D01*
X10266905Y-12041476D02*
X10285952Y-12041476D01*
X10305000Y-12051000D01*
X10314524Y-12060524D01*
X10324048Y-12079571D01*
X10333571Y-12117667D01*
X10333571Y-12165286D01*
X10324048Y-12203381D01*
X10314524Y-12222428D01*
X10305000Y-12231952D01*
X10285952Y-12241476D01*
X10266905Y-12241476D01*
X10247857Y-12231952D01*
X10238333Y-12222428D01*
X10228810Y-12203381D01*
X10219286Y-12165286D01*
X10219286Y-12117667D01*
X10228810Y-12079571D01*
X10238333Y-12060524D01*
X10247857Y-12051000D01*
X10266905Y-12041476D01*
X10457381Y-12041476D02*
X10476429Y-12041476D01*
X10495476Y-12051000D01*
X10505000Y-12060524D01*
X10514524Y-12079571D01*
X10524048Y-12117667D01*
X10524048Y-12165286D01*
X10514524Y-12203381D01*
X10505000Y-12222428D01*
X10495476Y-12231952D01*
X10476429Y-12241476D01*
X10457381Y-12241476D01*
X10438333Y-12231952D01*
X10428810Y-12222428D01*
X10419286Y-12203381D01*
X10409762Y-12165286D01*
X10409762Y-12117667D01*
X10419286Y-12079571D01*
X10428810Y-12060524D01*
X10438333Y-12051000D01*
X10457381Y-12041476D01*
X10609762Y-12241476D02*
X10609762Y-12108143D01*
X10609762Y-12127190D02*
X10619286Y-12117667D01*
X10638333Y-12108143D01*
X10666905Y-12108143D01*
X10685952Y-12117667D01*
X10695476Y-12136714D01*
X10695476Y-12241476D01*
X10695476Y-12136714D02*
X10705000Y-12117667D01*
X10724048Y-12108143D01*
X10752619Y-12108143D01*
X10771667Y-12117667D01*
X10781190Y-12136714D01*
X10781190Y-12241476D01*
X10876429Y-12241476D02*
X10876429Y-12108143D01*
X10876429Y-12127190D02*
X10885952Y-12117667D01*
X10905000Y-12108143D01*
X10933571Y-12108143D01*
X10952619Y-12117667D01*
X10962143Y-12136714D01*
X10962143Y-12241476D01*
X10962143Y-12136714D02*
X10971667Y-12117667D01*
X10990714Y-12108143D01*
X11019286Y-12108143D01*
X11038333Y-12117667D01*
X11047857Y-12136714D01*
X11047857Y-12241476D01*
X11438333Y-12031952D02*
X11266905Y-12289095D01*
X11695476Y-12041476D02*
X11714524Y-12041476D01*
X11733571Y-12051000D01*
X11743095Y-12060524D01*
X11752619Y-12079571D01*
X11762143Y-12117667D01*
X11762143Y-12165286D01*
X11752619Y-12203381D01*
X11743095Y-12222428D01*
X11733571Y-12231952D01*
X11714524Y-12241476D01*
X11695476Y-12241476D01*
X11676428Y-12231952D01*
X11666905Y-12222428D01*
X11657381Y-12203381D01*
X11647857Y-12165286D01*
X11647857Y-12117667D01*
X11657381Y-12079571D01*
X11666905Y-12060524D01*
X11676428Y-12051000D01*
X11695476Y-12041476D01*
X11847857Y-12222428D02*
X11857381Y-12231952D01*
X11847857Y-12241476D01*
X11838333Y-12231952D01*
X11847857Y-12222428D01*
X11847857Y-12241476D01*
X11981190Y-12041476D02*
X12000238Y-12041476D01*
X12019286Y-12051000D01*
X12028809Y-12060524D01*
X12038333Y-12079571D01*
X12047857Y-12117667D01*
X12047857Y-12165286D01*
X12038333Y-12203381D01*
X12028809Y-12222428D01*
X12019286Y-12231952D01*
X12000238Y-12241476D01*
X11981190Y-12241476D01*
X11962143Y-12231952D01*
X11952619Y-12222428D01*
X11943095Y-12203381D01*
X11933571Y-12165286D01*
X11933571Y-12117667D01*
X11943095Y-12079571D01*
X11952619Y-12060524D01*
X11962143Y-12051000D01*
X11981190Y-12041476D01*
X12219286Y-12108143D02*
X12219286Y-12241476D01*
X12171667Y-12031952D02*
X12124048Y-12174809D01*
X12247857Y-12174809D01*
X12305000Y-12041476D02*
X12428809Y-12041476D01*
X12362143Y-12117667D01*
X12390714Y-12117667D01*
X12409762Y-12127190D01*
X12419286Y-12136714D01*
X12428809Y-12155762D01*
X12428809Y-12203381D01*
X12419286Y-12222428D01*
X12409762Y-12231952D01*
X12390714Y-12241476D01*
X12333571Y-12241476D01*
X12314524Y-12231952D01*
X12305000Y-12222428D01*
X12495476Y-12041476D02*
X12619286Y-12041476D01*
X12552619Y-12117667D01*
X12581190Y-12117667D01*
X12600238Y-12127190D01*
X12609762Y-12136714D01*
X12619286Y-12155762D01*
X12619286Y-12203381D01*
X12609762Y-12222428D01*
X12600238Y-12231952D01*
X12581190Y-12241476D01*
X12524048Y-12241476D01*
X12505000Y-12231952D01*
X12495476Y-12222428D01*
X12695476Y-12041476D02*
X12695476Y-12079571D01*
X12771667Y-12041476D02*
X12771667Y-12079571D01*
X13066905Y-12317667D02*
X13057381Y-12308143D01*
X13038333Y-12279571D01*
X13028809Y-12260524D01*
X13019286Y-12231952D01*
X13009762Y-12184333D01*
X13009762Y-12146238D01*
X13019286Y-12098619D01*
X13028809Y-12070048D01*
X13038333Y-12051000D01*
X13057381Y-12022428D01*
X13066905Y-12012905D01*
X13124048Y-12041476D02*
X13247857Y-12041476D01*
X13181190Y-12117667D01*
X13209762Y-12117667D01*
X13228809Y-12127190D01*
X13238333Y-12136714D01*
X13247857Y-12155762D01*
X13247857Y-12203381D01*
X13238333Y-12222428D01*
X13228809Y-12231952D01*
X13209762Y-12241476D01*
X13152619Y-12241476D01*
X13133571Y-12231952D01*
X13124048Y-12222428D01*
X13428809Y-12041476D02*
X13333571Y-12041476D01*
X13324048Y-12136714D01*
X13333571Y-12127190D01*
X13352619Y-12117667D01*
X13400238Y-12117667D01*
X13419286Y-12127190D01*
X13428809Y-12136714D01*
X13438333Y-12155762D01*
X13438333Y-12203381D01*
X13428809Y-12222428D01*
X13419286Y-12231952D01*
X13400238Y-12241476D01*
X13352619Y-12241476D01*
X13333571Y-12231952D01*
X13324048Y-12222428D01*
X13676428Y-12241476D02*
X13676428Y-12041476D01*
X13762143Y-12241476D02*
X13762143Y-12136714D01*
X13752619Y-12117667D01*
X13733571Y-12108143D01*
X13705000Y-12108143D01*
X13685952Y-12117667D01*
X13676428Y-12127190D01*
X13885952Y-12241476D02*
X13866905Y-12231952D01*
X13857381Y-12222428D01*
X13847857Y-12203381D01*
X13847857Y-12146238D01*
X13857381Y-12127190D01*
X13866905Y-12117667D01*
X13885952Y-12108143D01*
X13914524Y-12108143D01*
X13933571Y-12117667D01*
X13943095Y-12127190D01*
X13952619Y-12146238D01*
X13952619Y-12203381D01*
X13943095Y-12222428D01*
X13933571Y-12231952D01*
X13914524Y-12241476D01*
X13885952Y-12241476D01*
X14066905Y-12241476D02*
X14047857Y-12231952D01*
X14038333Y-12212905D01*
X14038333Y-12041476D01*
X14219286Y-12231952D02*
X14200238Y-12241476D01*
X14162143Y-12241476D01*
X14143095Y-12231952D01*
X14133571Y-12212905D01*
X14133571Y-12136714D01*
X14143095Y-12117667D01*
X14162143Y-12108143D01*
X14200238Y-12108143D01*
X14219286Y-12117667D01*
X14228809Y-12136714D01*
X14228809Y-12155762D01*
X14133571Y-12174809D01*
X14305000Y-12231952D02*
X14324048Y-12241476D01*
X14362143Y-12241476D01*
X14381190Y-12231952D01*
X14390714Y-12212905D01*
X14390714Y-12203381D01*
X14381190Y-12184333D01*
X14362143Y-12174809D01*
X14333571Y-12174809D01*
X14314524Y-12165286D01*
X14305000Y-12146238D01*
X14305000Y-12136714D01*
X14314524Y-12117667D01*
X14333571Y-12108143D01*
X14362143Y-12108143D01*
X14381190Y-12117667D01*
X14457381Y-12317667D02*
X14466905Y-12308143D01*
X14485952Y-12279571D01*
X14495476Y-12260524D01*
X14505000Y-12231952D01*
X14514524Y-12184333D01*
X14514524Y-12146238D01*
X14505000Y-12098619D01*
X14495476Y-12070048D01*
X14485952Y-12051000D01*
X14466905Y-12022428D01*
X14457381Y-12012905D01*
M02*
