G04 #@! TF.GenerationSoftware,KiCad,Pcbnew,(6.0.8)*
G04 #@! TF.CreationDate,2022-12-10T22:33:41+05:30*
G04 #@! TF.ProjectId,digclock,64696763-6c6f-4636-9b2e-6b696361645f,rev?*
G04 #@! TF.SameCoordinates,Original*
G04 #@! TF.FileFunction,Copper,L2,Bot*
G04 #@! TF.FilePolarity,Positive*
%FSLAX46Y46*%
G04 Gerber Fmt 4.6, Leading zero omitted, Abs format (unit mm)*
G04 Created by KiCad (PCBNEW (6.0.8)) date 2022-12-10 22:33:41*
%MOMM*%
%LPD*%
G01*
G04 APERTURE LIST*
G04 #@! TA.AperFunction,ComponentPad*
%ADD10R,1.050000X1.500000*%
G04 #@! TD*
G04 #@! TA.AperFunction,ComponentPad*
%ADD11O,1.050000X1.500000*%
G04 #@! TD*
G04 #@! TA.AperFunction,ComponentPad*
%ADD12R,1.905000X2.000000*%
G04 #@! TD*
G04 #@! TA.AperFunction,ComponentPad*
%ADD13O,1.905000X2.000000*%
G04 #@! TD*
G04 #@! TA.AperFunction,ComponentPad*
%ADD14R,2.000000X2.000000*%
G04 #@! TD*
G04 #@! TA.AperFunction,ComponentPad*
%ADD15C,2.000000*%
G04 #@! TD*
G04 #@! TA.AperFunction,ComponentPad*
%ADD16C,1.600000*%
G04 #@! TD*
G04 #@! TA.AperFunction,ComponentPad*
%ADD17O,1.600000X1.600000*%
G04 #@! TD*
G04 #@! TA.AperFunction,ComponentPad*
%ADD18C,1.200000*%
G04 #@! TD*
G04 #@! TA.AperFunction,ComponentPad*
%ADD19R,1.600000X1.600000*%
G04 #@! TD*
G04 #@! TA.AperFunction,ComponentPad*
%ADD20C,1.500000*%
G04 #@! TD*
G04 #@! TA.AperFunction,Conductor*
%ADD21C,0.200000*%
G04 #@! TD*
G04 #@! TA.AperFunction,Conductor*
%ADD22C,0.250000*%
G04 #@! TD*
G04 APERTURE END LIST*
D10*
X109601000Y-41508000D03*
D11*
X110871000Y-41508000D03*
X112141000Y-41508000D03*
D12*
X95758000Y-41910000D03*
D13*
X98298000Y-41910000D03*
X100838000Y-41910000D03*
D14*
X93736000Y-88265000D03*
D15*
X101336000Y-88265000D03*
D10*
X122936000Y-41529000D03*
D11*
X124206000Y-41529000D03*
X125476000Y-41529000D03*
D16*
X93599000Y-54102000D03*
D17*
X101219000Y-54102000D03*
D16*
X106426000Y-91059000D03*
X108966000Y-91059000D03*
X111506000Y-91059000D03*
X114046000Y-91059000D03*
X116586000Y-91059000D03*
X119126000Y-91059000D03*
X121666000Y-91059000D03*
X124206000Y-91059000D03*
X126746000Y-91059000D03*
X129286000Y-91059000D03*
X131826000Y-91059000D03*
X134366000Y-91059000D03*
X136906000Y-91059000D03*
X139446000Y-91059000D03*
X141986000Y-91059000D03*
X144526000Y-91059000D03*
X147066000Y-91059000D03*
X149606000Y-91059000D03*
X152146000Y-91059000D03*
X154686000Y-91059000D03*
X154686000Y-75819000D03*
X152146000Y-75819000D03*
X149606000Y-75819000D03*
X147066000Y-75819000D03*
X144526000Y-75819000D03*
X141986000Y-75819000D03*
X139446000Y-75819000D03*
X136906000Y-75819000D03*
X134366000Y-75819000D03*
X131826000Y-75819000D03*
X129286000Y-75819000D03*
X126746000Y-75819000D03*
X124206000Y-75819000D03*
X121666000Y-75819000D03*
X119126000Y-75819000D03*
X116586000Y-75819000D03*
X114046000Y-75819000D03*
X111506000Y-75819000D03*
X108966000Y-75819000D03*
X106426000Y-75819000D03*
X93599000Y-73152000D03*
D17*
X101219000Y-73152000D03*
D16*
X117221000Y-72136000D03*
D17*
X117221000Y-64516000D03*
D16*
X140081000Y-72136000D03*
D17*
X140081000Y-64516000D03*
D10*
X136271000Y-41508000D03*
D11*
X137541000Y-41508000D03*
X138811000Y-41508000D03*
D15*
X110767000Y-100385000D03*
X104267000Y-100385000D03*
X110767000Y-95885000D03*
X104267000Y-95885000D03*
D16*
X105791000Y-72136000D03*
D17*
X105791000Y-64516000D03*
D15*
X168184000Y-72084000D03*
X168184000Y-65584000D03*
X172684000Y-72084000D03*
X172684000Y-65584000D03*
D16*
X93599000Y-76962000D03*
D17*
X101219000Y-76962000D03*
D16*
X93599000Y-69342000D03*
D17*
X101219000Y-69342000D03*
D10*
X162941000Y-41508000D03*
D11*
X164211000Y-41508000D03*
X165481000Y-41508000D03*
D16*
X136271000Y-72136000D03*
D17*
X136271000Y-64516000D03*
D18*
X140859000Y-97155000D03*
X142859000Y-97155000D03*
D15*
X177328000Y-80570000D03*
X177328000Y-87070000D03*
X181828000Y-87070000D03*
X181828000Y-80570000D03*
D10*
X149606000Y-41508000D03*
D11*
X150876000Y-41508000D03*
X152146000Y-41508000D03*
D19*
X117856000Y-60960000D03*
D16*
X120396000Y-60960000D03*
X122936000Y-60960000D03*
X125476000Y-60960000D03*
X128016000Y-60960000D03*
X128016000Y-45720000D03*
X125476000Y-45720000D03*
X122936000Y-45720000D03*
X120396000Y-45720000D03*
X117856000Y-45720000D03*
X113411000Y-72136000D03*
D17*
X113411000Y-64516000D03*
D19*
X131191000Y-60960000D03*
D16*
X133731000Y-60960000D03*
X136271000Y-60960000D03*
X138811000Y-60960000D03*
X141351000Y-60960000D03*
X141351000Y-45720000D03*
X138811000Y-45720000D03*
X136271000Y-45720000D03*
X133731000Y-45720000D03*
X131191000Y-45720000D03*
X93599000Y-65532000D03*
D17*
X101219000Y-65532000D03*
D19*
X171196000Y-60964500D03*
D16*
X173736000Y-60964500D03*
X176276000Y-60964500D03*
X178816000Y-60964500D03*
X181356000Y-60964500D03*
X181356000Y-45724500D03*
X178816000Y-45724500D03*
X176276000Y-45724500D03*
X173736000Y-45724500D03*
X171196000Y-45724500D03*
X124841000Y-72136000D03*
D17*
X124841000Y-64516000D03*
D10*
X176276000Y-41529000D03*
D11*
X177546000Y-41529000D03*
X178816000Y-41529000D03*
D15*
X159675000Y-72084000D03*
X159675000Y-65584000D03*
X164175000Y-65584000D03*
X164175000Y-72084000D03*
D19*
X96961888Y-99187000D03*
D16*
X98961888Y-99187000D03*
X93599000Y-57912000D03*
D17*
X101219000Y-57912000D03*
D16*
X132461000Y-72136000D03*
D17*
X132461000Y-64516000D03*
D15*
X168438000Y-82498000D03*
X168438000Y-75998000D03*
X172938000Y-75998000D03*
X172938000Y-82498000D03*
D16*
X147701000Y-72136000D03*
D17*
X147701000Y-64516000D03*
D16*
X151511000Y-72136000D03*
D17*
X151511000Y-64516000D03*
D19*
X114487888Y-97126112D03*
D16*
X116487888Y-97126112D03*
D20*
X153326000Y-97028000D03*
X148446000Y-97028000D03*
D16*
X93599000Y-50292000D03*
D17*
X101219000Y-50292000D03*
D15*
X130429000Y-100258000D03*
X136929000Y-100258000D03*
X136929000Y-95758000D03*
X130429000Y-95758000D03*
D16*
X109601000Y-72136000D03*
D17*
X109601000Y-64516000D03*
D15*
X164556000Y-86943000D03*
X164556000Y-80443000D03*
X160056000Y-80443000D03*
X160056000Y-86943000D03*
D18*
X160782000Y-97028000D03*
X158782000Y-97028000D03*
D16*
X143891000Y-72136000D03*
D17*
X143891000Y-64516000D03*
D16*
X128651000Y-72136000D03*
D17*
X128651000Y-64516000D03*
D19*
X144526000Y-60960000D03*
D16*
X147066000Y-60960000D03*
X149606000Y-60960000D03*
X152146000Y-60960000D03*
X154686000Y-60960000D03*
X154686000Y-45720000D03*
X152146000Y-45720000D03*
X149606000Y-45720000D03*
X147066000Y-45720000D03*
X144526000Y-45720000D03*
X155321000Y-72136000D03*
D17*
X155321000Y-64516000D03*
D16*
X127254000Y-97126112D03*
D17*
X119634000Y-97126112D03*
D19*
X157861000Y-60960000D03*
D16*
X160401000Y-60960000D03*
X162941000Y-60960000D03*
X165481000Y-60960000D03*
X168021000Y-60960000D03*
X168021000Y-45720000D03*
X165481000Y-45720000D03*
X162941000Y-45720000D03*
X160401000Y-45720000D03*
X157861000Y-45720000D03*
X121031000Y-72136000D03*
D17*
X121031000Y-64516000D03*
D16*
X93599000Y-61722000D03*
D17*
X101219000Y-61722000D03*
D15*
X168565000Y-86031000D03*
X168565000Y-92531000D03*
X173065000Y-92531000D03*
X173065000Y-86031000D03*
D19*
X104521000Y-60964500D03*
D16*
X107061000Y-60964500D03*
X109601000Y-60964500D03*
X112141000Y-60964500D03*
X114681000Y-60964500D03*
X114681000Y-45724500D03*
X112141000Y-45724500D03*
X109601000Y-45724500D03*
X107061000Y-45724500D03*
X104521000Y-45724500D03*
D21*
X136929000Y-100258000D02*
X130429000Y-100258000D01*
X172684000Y-65584000D02*
X172684000Y-72084000D01*
X127254000Y-97126112D02*
X124615888Y-94488000D01*
X181828000Y-80570000D02*
X181828000Y-87070000D01*
X172938000Y-75998000D02*
X172938000Y-82498000D01*
X95631000Y-94488000D02*
X91440000Y-90297000D01*
X91567000Y-86614000D02*
X101346000Y-86614000D01*
X91440000Y-90297000D02*
X91440000Y-86741000D01*
X91440000Y-86741000D02*
X91567000Y-86614000D01*
X173065000Y-86031000D02*
X173065000Y-92531000D01*
X101346000Y-86614000D02*
X101336000Y-86624000D01*
X164175000Y-65584000D02*
X164175000Y-72084000D01*
X124615888Y-94488000D02*
X95631000Y-94488000D01*
X164556000Y-80443000D02*
X164556000Y-86943000D01*
X101336000Y-86624000D02*
X101336000Y-88265000D01*
X93736000Y-88265000D02*
X97630000Y-92159000D01*
X97630000Y-92159000D02*
X115486000Y-92159000D01*
X115486000Y-92159000D02*
X116586000Y-91059000D01*
X110767000Y-95885000D02*
X104267000Y-95885000D01*
D22*
X93599000Y-50292000D02*
X93599000Y-54102000D01*
X93599000Y-65532000D02*
X93599000Y-69342000D01*
D21*
X93599000Y-76962000D02*
X94742000Y-78105000D01*
D22*
X93599000Y-49149000D02*
X93599000Y-50292000D01*
X93599000Y-69342000D02*
X93599000Y-73152000D01*
D21*
X94742000Y-78105000D02*
X104140000Y-78105000D01*
D22*
X93599000Y-54102000D02*
X93599000Y-57912000D01*
X93599000Y-57912000D02*
X93599000Y-61722000D01*
X93599000Y-61722000D02*
X93599000Y-65532000D01*
D21*
X104140000Y-78105000D02*
X106426000Y-75819000D01*
D22*
X93599000Y-73152000D02*
X93599000Y-76962000D01*
X100838000Y-41910000D02*
X93599000Y-49149000D01*
D21*
X110767000Y-100385000D02*
X104267000Y-100385000D01*
X176276000Y-41529000D02*
X176276000Y-45724500D01*
X177546000Y-46990000D02*
X142748000Y-46990000D01*
X177546000Y-41529000D02*
X177546000Y-46990000D01*
X142348000Y-62503000D02*
X136398000Y-62503000D01*
X136271000Y-62630000D02*
X136271000Y-64516000D01*
X142494000Y-62357000D02*
X142348000Y-62503000D01*
X142748000Y-46990000D02*
X142494000Y-47244000D01*
X142494000Y-47244000D02*
X142494000Y-62357000D01*
X136398000Y-62503000D02*
X136271000Y-62630000D01*
X162941000Y-41508000D02*
X162941000Y-45720000D01*
X179916000Y-47160000D02*
X179686000Y-47390000D01*
X164211000Y-40513000D02*
X164266000Y-40458000D01*
X142837000Y-62903000D02*
X140208000Y-62903000D01*
X179523000Y-40458000D02*
X179916000Y-40851000D01*
X140081000Y-63030000D02*
X140081000Y-64516000D01*
X179916000Y-40851000D02*
X179916000Y-47160000D01*
X179686000Y-47390000D02*
X143002000Y-47390000D01*
X164211000Y-41508000D02*
X164211000Y-40513000D01*
X143002000Y-47390000D02*
X143002000Y-62738000D01*
X140208000Y-62903000D02*
X140081000Y-63030000D01*
X143002000Y-62738000D02*
X142837000Y-62903000D01*
X164266000Y-40458000D02*
X179523000Y-40458000D01*
X149606000Y-41508000D02*
X149606000Y-45720000D01*
X181737000Y-48260000D02*
X146177000Y-48260000D01*
X150950000Y-40058000D02*
X182425000Y-40058000D01*
X182499000Y-40132000D02*
X182499000Y-47498000D01*
X150876000Y-41508000D02*
X150876000Y-40132000D01*
X146177000Y-48260000D02*
X145796000Y-48641000D01*
X150876000Y-40132000D02*
X150950000Y-40058000D01*
X182425000Y-40058000D02*
X182499000Y-40132000D01*
X182499000Y-47498000D02*
X181737000Y-48260000D01*
X145796000Y-62865000D02*
X143891000Y-62865000D01*
X145796000Y-48641000D02*
X145796000Y-62865000D01*
X143891000Y-62865000D02*
X143891000Y-64516000D01*
X136271000Y-41508000D02*
X136271000Y-45720000D01*
X182753000Y-48895000D02*
X148336000Y-48895000D01*
X148336000Y-48895000D02*
X148209000Y-49022000D01*
X183007000Y-48641000D02*
X182753000Y-48895000D01*
X183007000Y-40074314D02*
X183007000Y-48641000D01*
X182590686Y-39658000D02*
X183007000Y-40074314D01*
X148209000Y-49022000D02*
X148209000Y-64008000D01*
X137541000Y-41508000D02*
X137541000Y-39751000D01*
X148209000Y-64008000D02*
X147701000Y-64516000D01*
X137541000Y-39751000D02*
X137634000Y-39658000D01*
X137634000Y-39658000D02*
X182590686Y-39658000D01*
X122936000Y-41529000D02*
X122936000Y-45720000D01*
X183515000Y-39116000D02*
X183515000Y-49530000D01*
X150749000Y-63754000D02*
X151511000Y-64516000D01*
X124333000Y-39116000D02*
X183515000Y-39116000D01*
X124206000Y-41529000D02*
X124206000Y-39243000D01*
X124206000Y-39243000D02*
X124333000Y-39116000D01*
X150749000Y-49530000D02*
X150749000Y-63754000D01*
X183515000Y-49530000D02*
X150749000Y-49530000D01*
X109601000Y-41508000D02*
X109601000Y-45724500D01*
X101219000Y-73152000D02*
X103759000Y-73152000D01*
X103759000Y-73152000D02*
X103886000Y-73025000D01*
X103886000Y-65786000D02*
X109601000Y-65786000D01*
X103886000Y-73025000D02*
X103886000Y-65786000D01*
X109601000Y-65786000D02*
X109601000Y-64516000D01*
X112141000Y-62992000D02*
X113411000Y-62992000D01*
X113411000Y-62992000D02*
X113411000Y-64516000D01*
X103378000Y-69342000D02*
X101219000Y-69342000D01*
X112141000Y-62992000D02*
X103378000Y-62992000D01*
X103378000Y-62992000D02*
X103378000Y-69342000D01*
X112141000Y-60964500D02*
X112141000Y-62992000D01*
X102870000Y-62611000D02*
X102870000Y-65532000D01*
X107061000Y-60964500D02*
X107061000Y-62484000D01*
X107061000Y-62484000D02*
X102997000Y-62484000D01*
X102870000Y-65532000D02*
X101219000Y-65532000D01*
X120396000Y-60960000D02*
X120396000Y-62484000D01*
X120396000Y-62484000D02*
X117221000Y-62484000D01*
X117221000Y-62484000D02*
X117221000Y-64516000D01*
X102997000Y-62484000D02*
X102870000Y-62611000D01*
X104521000Y-61976000D02*
X102489000Y-61976000D01*
X102235000Y-61722000D02*
X101219000Y-61722000D01*
X104521000Y-60964500D02*
X104521000Y-61976000D01*
X102489000Y-61976000D02*
X102235000Y-61722000D01*
X107061000Y-45724500D02*
X107061000Y-46863000D01*
X124841000Y-62103000D02*
X124841000Y-64516000D01*
X103251000Y-57912000D02*
X101219000Y-57912000D01*
X107061000Y-46863000D02*
X103143000Y-46863000D01*
X120396000Y-59817000D02*
X129159000Y-59817000D01*
X103251000Y-46971000D02*
X103251000Y-57912000D01*
X103143000Y-46863000D02*
X103251000Y-46971000D01*
X120396000Y-45720000D02*
X120396000Y-59817000D01*
X129159000Y-59817000D02*
X129159000Y-62103000D01*
X129159000Y-62103000D02*
X124841000Y-62103000D01*
X128993315Y-62503000D02*
X128651000Y-62845315D01*
X129921000Y-59817000D02*
X129921000Y-62484000D01*
X128651000Y-62845315D02*
X128651000Y-64516000D01*
X102743000Y-45720000D02*
X102743000Y-54102000D01*
X102743000Y-54102000D02*
X101219000Y-54102000D01*
X129902000Y-62503000D02*
X128993315Y-62503000D01*
X102747500Y-45724500D02*
X102743000Y-45720000D01*
X129921000Y-62484000D02*
X129902000Y-62503000D01*
X131191000Y-59690000D02*
X130048000Y-59690000D01*
X131191000Y-45720000D02*
X131191000Y-59690000D01*
X130048000Y-59690000D02*
X129921000Y-59817000D01*
X104521000Y-45724500D02*
X102747500Y-45724500D01*
X130048000Y-59690000D02*
X129921000Y-59690000D01*
X102343000Y-50292000D02*
X101219000Y-50292000D01*
X116332000Y-60833000D02*
X116332000Y-43307000D01*
X113030000Y-43307000D02*
X116332000Y-43307000D01*
X102362000Y-43434000D02*
X107696000Y-43434000D01*
X141351000Y-62103000D02*
X132461000Y-62103000D01*
X107696000Y-43434000D02*
X107696000Y-40386000D01*
X102343000Y-43453000D02*
X102343000Y-50292000D01*
X102343000Y-43453000D02*
X102362000Y-43434000D01*
X141351000Y-60960000D02*
X141351000Y-62103000D01*
X116200500Y-60964500D02*
X116332000Y-60833000D01*
X132461000Y-62103000D02*
X132461000Y-64516000D01*
X114681000Y-60964500D02*
X116200500Y-60964500D01*
X107696000Y-40386000D02*
X113030000Y-40386000D01*
X113030000Y-40386000D02*
X113030000Y-43307000D01*
X160056000Y-80443000D02*
X160056000Y-86943000D01*
X177328000Y-80570000D02*
X177328000Y-87070000D01*
X157809000Y-75998000D02*
X148336000Y-85471000D01*
X148336000Y-85471000D02*
X117094000Y-85471000D01*
X117094000Y-85471000D02*
X111506000Y-91059000D01*
X168438000Y-75998000D02*
X168438000Y-82498000D01*
X168438000Y-75998000D02*
X157809000Y-75998000D01*
X168565000Y-92531000D02*
X160476000Y-92531000D01*
X156845000Y-88900000D02*
X116205000Y-88900000D01*
X116205000Y-88900000D02*
X114046000Y-91059000D01*
X160476000Y-92531000D02*
X156845000Y-88900000D01*
X168565000Y-86031000D02*
X168565000Y-92531000D01*
X136929000Y-95758000D02*
X130429000Y-95758000D01*
X159675000Y-65584000D02*
X159675000Y-72084000D01*
X168184000Y-65584000D02*
X168184000Y-72084000D01*
M02*
