M48
; DRILL file {KiCad (6.0.8)} date Sat Dec 10 22:34:51 2022
; FORMAT={-:-/ absolute / metric / decimal}
; #@! TF.CreationDate,2022-12-10T22:34:51+05:30
; #@! TF.GenerationSoftware,Kicad,Pcbnew,(6.0.8)
; #@! TF.FileFunction,Plated,1,2,PTH
FMAT,2
METRIC
; #@! TA.AperFunction,Plated,PTH,ComponentDrill
T1C0.600
; #@! TA.AperFunction,Plated,PTH,ComponentDrill
T2C0.750
; #@! TA.AperFunction,Plated,PTH,ComponentDrill
T3C0.800
; #@! TA.AperFunction,Plated,PTH,ComponentDrill
T4C1.000
; #@! TA.AperFunction,Plated,PTH,ComponentDrill
T5C1.100
%
G90
G05
T1
X140.859Y-97.155
X142.859Y-97.155
X158.782Y-97.028
X160.782Y-97.028
T2
X109.601Y-41.508
X110.871Y-41.508
X112.141Y-41.508
X122.936Y-41.529
X124.206Y-41.529
X125.476Y-41.529
X136.271Y-41.508
X137.541Y-41.508
X138.811Y-41.508
X149.606Y-41.508
X150.876Y-41.508
X152.146Y-41.508
X162.941Y-41.508
X164.211Y-41.508
X165.481Y-41.508
X176.276Y-41.529
X177.546Y-41.529
X178.816Y-41.529
T3
X93.599Y-50.292
X93.599Y-54.102
X93.599Y-57.912
X93.599Y-61.722
X93.599Y-65.532
X93.599Y-69.342
X93.599Y-73.152
X93.599Y-76.962
X96.962Y-99.187
X98.962Y-99.187
X101.219Y-50.292
X101.219Y-54.102
X101.219Y-57.912
X101.219Y-61.722
X101.219Y-65.532
X101.219Y-69.342
X101.219Y-73.152
X101.219Y-76.962
X104.521Y-45.724
X104.521Y-60.964
X105.791Y-64.516
X105.791Y-72.136
X107.061Y-45.724
X107.061Y-60.964
X109.601Y-45.724
X109.601Y-60.964
X109.601Y-64.516
X109.601Y-72.136
X112.141Y-45.724
X112.141Y-60.964
X113.411Y-64.516
X113.411Y-72.136
X114.488Y-97.126
X114.681Y-45.724
X114.681Y-60.964
X116.488Y-97.126
X117.221Y-64.516
X117.221Y-72.136
X117.856Y-45.72
X117.856Y-60.96
X119.634Y-97.126
X120.396Y-45.72
X120.396Y-60.96
X121.031Y-64.516
X121.031Y-72.136
X122.936Y-45.72
X122.936Y-60.96
X124.841Y-64.516
X124.841Y-72.136
X125.476Y-45.72
X125.476Y-60.96
X127.254Y-97.126
X128.016Y-45.72
X128.016Y-60.96
X128.651Y-64.516
X128.651Y-72.136
X131.191Y-45.72
X131.191Y-60.96
X132.461Y-64.516
X132.461Y-72.136
X133.731Y-45.72
X133.731Y-60.96
X136.271Y-45.72
X136.271Y-60.96
X136.271Y-64.516
X136.271Y-72.136
X138.811Y-45.72
X138.811Y-60.96
X140.081Y-64.516
X140.081Y-72.136
X141.351Y-45.72
X141.351Y-60.96
X143.891Y-64.516
X143.891Y-72.136
X144.526Y-45.72
X144.526Y-60.96
X147.066Y-45.72
X147.066Y-60.96
X147.701Y-64.516
X147.701Y-72.136
X148.446Y-97.028
X149.606Y-45.72
X149.606Y-60.96
X151.511Y-64.516
X151.511Y-72.136
X152.146Y-45.72
X152.146Y-60.96
X153.326Y-97.028
X154.686Y-45.72
X154.686Y-60.96
X155.321Y-64.516
X155.321Y-72.136
X157.861Y-45.72
X157.861Y-60.96
X160.401Y-45.72
X160.401Y-60.96
X162.941Y-45.72
X162.941Y-60.96
X165.481Y-45.72
X165.481Y-60.96
X168.021Y-45.72
X168.021Y-60.96
X171.196Y-45.724
X171.196Y-60.964
X173.736Y-45.724
X173.736Y-60.964
X176.276Y-45.724
X176.276Y-60.964
X178.816Y-45.724
X178.816Y-60.964
X181.356Y-45.724
X181.356Y-60.964
T4
X93.736Y-88.265
X101.336Y-88.265
X106.426Y-75.819
X106.426Y-91.059
X108.966Y-75.819
X108.966Y-91.059
X111.506Y-75.819
X111.506Y-91.059
X114.046Y-75.819
X114.046Y-91.059
X116.586Y-75.819
X116.586Y-91.059
X119.126Y-75.819
X119.126Y-91.059
X121.666Y-75.819
X121.666Y-91.059
X124.206Y-75.819
X124.206Y-91.059
X126.746Y-75.819
X126.746Y-91.059
X129.286Y-75.819
X129.286Y-91.059
X131.826Y-75.819
X131.826Y-91.059
X134.366Y-75.819
X134.366Y-91.059
X136.906Y-75.819
X136.906Y-91.059
X139.446Y-75.819
X139.446Y-91.059
X141.986Y-75.819
X141.986Y-91.059
X144.526Y-75.819
X144.526Y-91.059
X147.066Y-75.819
X147.066Y-91.059
X149.606Y-75.819
X149.606Y-91.059
X152.146Y-75.819
X152.146Y-91.059
X154.686Y-75.819
X154.686Y-91.059
T5
X95.758Y-41.91
X98.298Y-41.91
X100.838Y-41.91
X104.267Y-95.885
X104.267Y-100.385
X110.767Y-95.885
X110.767Y-100.385
X130.429Y-95.758
X130.429Y-100.258
X136.929Y-95.758
X136.929Y-100.258
X159.675Y-65.584
X159.675Y-72.084
X160.056Y-80.443
X160.056Y-86.943
X164.175Y-65.584
X164.175Y-72.084
X164.556Y-80.443
X164.556Y-86.943
X168.184Y-65.584
X168.184Y-72.084
X168.438Y-75.998
X168.438Y-82.498
X168.565Y-86.031
X168.565Y-92.531
X172.684Y-65.584
X172.684Y-72.084
X172.938Y-75.998
X172.938Y-82.498
X173.065Y-86.031
X173.065Y-92.531
X177.328Y-80.57
X177.328Y-87.07
X181.828Y-80.57
X181.828Y-87.07
T0
M30
