G04 #@! TF.GenerationSoftware,KiCad,Pcbnew,(6.0.8)*
G04 #@! TF.CreationDate,2022-12-10T22:33:41+05:30*
G04 #@! TF.ProjectId,digclock,64696763-6c6f-4636-9b2e-6b696361645f,rev?*
G04 #@! TF.SameCoordinates,Original*
G04 #@! TF.FileFunction,Legend,Top*
G04 #@! TF.FilePolarity,Positive*
%FSLAX46Y46*%
G04 Gerber Fmt 4.6, Leading zero omitted, Abs format (unit mm)*
G04 Created by KiCad (PCBNEW (6.0.8)) date 2022-12-10 22:33:41*
%MOMM*%
%LPD*%
G01*
G04 APERTURE LIST*
%ADD10C,0.150000*%
%ADD11C,0.120000*%
%ADD12C,0.100000*%
%ADD13R,1.050000X1.500000*%
%ADD14O,1.050000X1.500000*%
%ADD15R,1.905000X2.000000*%
%ADD16O,1.905000X2.000000*%
%ADD17R,2.000000X2.000000*%
%ADD18C,2.000000*%
%ADD19C,1.600000*%
%ADD20O,1.600000X1.600000*%
%ADD21C,1.200000*%
%ADD22R,1.600000X1.600000*%
%ADD23C,1.500000*%
G04 APERTURE END LIST*
D10*
X110775761Y-38495619D02*
X110680523Y-38448000D01*
X110585285Y-38352761D01*
X110442428Y-38209904D01*
X110347190Y-38162285D01*
X110251952Y-38162285D01*
X110299571Y-38400380D02*
X110204333Y-38352761D01*
X110109095Y-38257523D01*
X110061476Y-38067047D01*
X110061476Y-37733714D01*
X110109095Y-37543238D01*
X110204333Y-37448000D01*
X110299571Y-37400380D01*
X110490047Y-37400380D01*
X110585285Y-37448000D01*
X110680523Y-37543238D01*
X110728142Y-37733714D01*
X110728142Y-38067047D01*
X110680523Y-38257523D01*
X110585285Y-38352761D01*
X110490047Y-38400380D01*
X110299571Y-38400380D01*
X111585285Y-37400380D02*
X111394809Y-37400380D01*
X111299571Y-37448000D01*
X111251952Y-37495619D01*
X111156714Y-37638476D01*
X111109095Y-37828952D01*
X111109095Y-38209904D01*
X111156714Y-38305142D01*
X111204333Y-38352761D01*
X111299571Y-38400380D01*
X111490047Y-38400380D01*
X111585285Y-38352761D01*
X111632904Y-38305142D01*
X111680523Y-38209904D01*
X111680523Y-37971809D01*
X111632904Y-37876571D01*
X111585285Y-37828952D01*
X111490047Y-37781333D01*
X111299571Y-37781333D01*
X111204333Y-37828952D01*
X111156714Y-37876571D01*
X111109095Y-37971809D01*
X104267095Y-40417380D02*
X104267095Y-41226904D01*
X104314714Y-41322142D01*
X104362333Y-41369761D01*
X104457571Y-41417380D01*
X104648047Y-41417380D01*
X104743285Y-41369761D01*
X104790904Y-41322142D01*
X104838523Y-41226904D01*
X104838523Y-40417380D01*
X105457571Y-40845952D02*
X105362333Y-40798333D01*
X105314714Y-40750714D01*
X105267095Y-40655476D01*
X105267095Y-40607857D01*
X105314714Y-40512619D01*
X105362333Y-40465000D01*
X105457571Y-40417380D01*
X105648047Y-40417380D01*
X105743285Y-40465000D01*
X105790904Y-40512619D01*
X105838523Y-40607857D01*
X105838523Y-40655476D01*
X105790904Y-40750714D01*
X105743285Y-40798333D01*
X105648047Y-40845952D01*
X105457571Y-40845952D01*
X105362333Y-40893571D01*
X105314714Y-40941190D01*
X105267095Y-41036428D01*
X105267095Y-41226904D01*
X105314714Y-41322142D01*
X105362333Y-41369761D01*
X105457571Y-41417380D01*
X105648047Y-41417380D01*
X105743285Y-41369761D01*
X105790904Y-41322142D01*
X105838523Y-41226904D01*
X105838523Y-41036428D01*
X105790904Y-40941190D01*
X105743285Y-40893571D01*
X105648047Y-40845952D01*
X96655047Y-80993571D02*
X96797904Y-81041190D01*
X96845523Y-81088809D01*
X96893142Y-81184047D01*
X96893142Y-81326904D01*
X96845523Y-81422142D01*
X96797904Y-81469761D01*
X96702666Y-81517380D01*
X96321714Y-81517380D01*
X96321714Y-80517380D01*
X96655047Y-80517380D01*
X96750285Y-80565000D01*
X96797904Y-80612619D01*
X96845523Y-80707857D01*
X96845523Y-80803095D01*
X96797904Y-80898333D01*
X96750285Y-80945952D01*
X96655047Y-80993571D01*
X96321714Y-80993571D01*
X97226476Y-80517380D02*
X97893142Y-80517380D01*
X97226476Y-81517380D01*
X97893142Y-81517380D01*
X98797904Y-81517380D02*
X98226476Y-81517380D01*
X98512190Y-81517380D02*
X98512190Y-80517380D01*
X98416952Y-80660238D01*
X98321714Y-80755476D01*
X98226476Y-80803095D01*
X93345047Y-85796428D02*
X94106952Y-85796428D01*
X93726000Y-86177380D02*
X93726000Y-85415476D01*
X124110761Y-38516619D02*
X124015523Y-38469000D01*
X123920285Y-38373761D01*
X123777428Y-38230904D01*
X123682190Y-38183285D01*
X123586952Y-38183285D01*
X123634571Y-38421380D02*
X123539333Y-38373761D01*
X123444095Y-38278523D01*
X123396476Y-38088047D01*
X123396476Y-37754714D01*
X123444095Y-37564238D01*
X123539333Y-37469000D01*
X123634571Y-37421380D01*
X123825047Y-37421380D01*
X123920285Y-37469000D01*
X124015523Y-37564238D01*
X124063142Y-37754714D01*
X124063142Y-38088047D01*
X124015523Y-38278523D01*
X123920285Y-38373761D01*
X123825047Y-38421380D01*
X123634571Y-38421380D01*
X124967904Y-37421380D02*
X124491714Y-37421380D01*
X124444095Y-37897571D01*
X124491714Y-37849952D01*
X124586952Y-37802333D01*
X124825047Y-37802333D01*
X124920285Y-37849952D01*
X124967904Y-37897571D01*
X125015523Y-37992809D01*
X125015523Y-38230904D01*
X124967904Y-38326142D01*
X124920285Y-38373761D01*
X124825047Y-38421380D01*
X124586952Y-38421380D01*
X124491714Y-38373761D01*
X124444095Y-38326142D01*
X96789952Y-52184380D02*
X96456619Y-51708190D01*
X96218523Y-52184380D02*
X96218523Y-51184380D01*
X96599476Y-51184380D01*
X96694714Y-51232000D01*
X96742333Y-51279619D01*
X96789952Y-51374857D01*
X96789952Y-51517714D01*
X96742333Y-51612952D01*
X96694714Y-51660571D01*
X96599476Y-51708190D01*
X96218523Y-51708190D01*
X97218523Y-51517714D02*
X97218523Y-52517714D01*
X97218523Y-51565333D02*
X97313761Y-51517714D01*
X97504238Y-51517714D01*
X97599476Y-51565333D01*
X97647095Y-51612952D01*
X97694714Y-51708190D01*
X97694714Y-51993904D01*
X97647095Y-52089142D01*
X97599476Y-52136761D01*
X97504238Y-52184380D01*
X97313761Y-52184380D01*
X97218523Y-52136761D01*
X98028047Y-51184380D02*
X98694714Y-51184380D01*
X98266142Y-52184380D01*
X102788380Y-84020904D02*
X103597904Y-84020904D01*
X103693142Y-83973285D01*
X103740761Y-83925666D01*
X103788380Y-83830428D01*
X103788380Y-83639952D01*
X103740761Y-83544714D01*
X103693142Y-83497095D01*
X103597904Y-83449476D01*
X102788380Y-83449476D01*
X102788380Y-83068523D02*
X102788380Y-82401857D01*
X103788380Y-82830428D01*
X96789952Y-71234380D02*
X96456619Y-70758190D01*
X96218523Y-71234380D02*
X96218523Y-70234380D01*
X96599476Y-70234380D01*
X96694714Y-70282000D01*
X96742333Y-70329619D01*
X96789952Y-70424857D01*
X96789952Y-70567714D01*
X96742333Y-70662952D01*
X96694714Y-70710571D01*
X96599476Y-70758190D01*
X96218523Y-70758190D01*
X97218523Y-70567714D02*
X97218523Y-71567714D01*
X97218523Y-70615333D02*
X97313761Y-70567714D01*
X97504238Y-70567714D01*
X97599476Y-70615333D01*
X97647095Y-70662952D01*
X97694714Y-70758190D01*
X97694714Y-71043904D01*
X97647095Y-71139142D01*
X97599476Y-71186761D01*
X97504238Y-71234380D01*
X97313761Y-71234380D01*
X97218523Y-71186761D01*
X98075666Y-70329619D02*
X98123285Y-70282000D01*
X98218523Y-70234380D01*
X98456619Y-70234380D01*
X98551857Y-70282000D01*
X98599476Y-70329619D01*
X98647095Y-70424857D01*
X98647095Y-70520095D01*
X98599476Y-70662952D01*
X98028047Y-71234380D01*
X98647095Y-71234380D01*
X115303380Y-68921238D02*
X114827190Y-69254571D01*
X115303380Y-69492666D02*
X114303380Y-69492666D01*
X114303380Y-69111714D01*
X114351000Y-69016476D01*
X114398619Y-68968857D01*
X114493857Y-68921238D01*
X114636714Y-68921238D01*
X114731952Y-68968857D01*
X114779571Y-69016476D01*
X114827190Y-69111714D01*
X114827190Y-69492666D01*
X115255761Y-68064095D02*
X115303380Y-68159333D01*
X115303380Y-68349809D01*
X115255761Y-68445047D01*
X115208142Y-68492666D01*
X115112904Y-68540285D01*
X114827190Y-68540285D01*
X114731952Y-68492666D01*
X114684333Y-68445047D01*
X114636714Y-68349809D01*
X114636714Y-68159333D01*
X114684333Y-68064095D01*
X114636714Y-67206952D02*
X115303380Y-67206952D01*
X114255761Y-67445047D02*
X114970047Y-67683142D01*
X114970047Y-67064095D01*
X138163380Y-68945047D02*
X137687190Y-69278380D01*
X138163380Y-69516476D02*
X137163380Y-69516476D01*
X137163380Y-69135523D01*
X137211000Y-69040285D01*
X137258619Y-68992666D01*
X137353857Y-68945047D01*
X137496714Y-68945047D01*
X137591952Y-68992666D01*
X137639571Y-69040285D01*
X137687190Y-69135523D01*
X137687190Y-69516476D01*
X138163380Y-68516476D02*
X137163380Y-68516476D01*
X137544333Y-68516476D02*
X137496714Y-68421238D01*
X137496714Y-68230761D01*
X137544333Y-68135523D01*
X137591952Y-68087904D01*
X137687190Y-68040285D01*
X137972904Y-68040285D01*
X138068142Y-68087904D01*
X138115761Y-68135523D01*
X138163380Y-68230761D01*
X138163380Y-68421238D01*
X138115761Y-68516476D01*
X137258619Y-67659333D02*
X137211000Y-67611714D01*
X137163380Y-67516476D01*
X137163380Y-67278380D01*
X137211000Y-67183142D01*
X137258619Y-67135523D01*
X137353857Y-67087904D01*
X137449095Y-67087904D01*
X137591952Y-67135523D01*
X138163380Y-67706952D01*
X138163380Y-67087904D01*
X137445761Y-38495619D02*
X137350523Y-38448000D01*
X137255285Y-38352761D01*
X137112428Y-38209904D01*
X137017190Y-38162285D01*
X136921952Y-38162285D01*
X136969571Y-38400380D02*
X136874333Y-38352761D01*
X136779095Y-38257523D01*
X136731476Y-38067047D01*
X136731476Y-37733714D01*
X136779095Y-37543238D01*
X136874333Y-37448000D01*
X136969571Y-37400380D01*
X137160047Y-37400380D01*
X137255285Y-37448000D01*
X137350523Y-37543238D01*
X137398142Y-37733714D01*
X137398142Y-38067047D01*
X137350523Y-38257523D01*
X137255285Y-38352761D01*
X137160047Y-38400380D01*
X136969571Y-38400380D01*
X138255285Y-37733714D02*
X138255285Y-38400380D01*
X138017190Y-37352761D02*
X137779095Y-38067047D01*
X138398142Y-38067047D01*
X106183666Y-102789761D02*
X106326523Y-102837380D01*
X106564619Y-102837380D01*
X106659857Y-102789761D01*
X106707476Y-102742142D01*
X106755095Y-102646904D01*
X106755095Y-102551666D01*
X106707476Y-102456428D01*
X106659857Y-102408809D01*
X106564619Y-102361190D01*
X106374142Y-102313571D01*
X106278904Y-102265952D01*
X106231285Y-102218333D01*
X106183666Y-102123095D01*
X106183666Y-102027857D01*
X106231285Y-101932619D01*
X106278904Y-101885000D01*
X106374142Y-101837380D01*
X106612238Y-101837380D01*
X106755095Y-101885000D01*
X107088428Y-101837380D02*
X107326523Y-102837380D01*
X107517000Y-102123095D01*
X107707476Y-102837380D01*
X107945571Y-101837380D01*
X108469380Y-102265952D02*
X108374142Y-102218333D01*
X108326523Y-102170714D01*
X108278904Y-102075476D01*
X108278904Y-102027857D01*
X108326523Y-101932619D01*
X108374142Y-101885000D01*
X108469380Y-101837380D01*
X108659857Y-101837380D01*
X108755095Y-101885000D01*
X108802714Y-101932619D01*
X108850333Y-102027857D01*
X108850333Y-102075476D01*
X108802714Y-102170714D01*
X108755095Y-102218333D01*
X108659857Y-102265952D01*
X108469380Y-102265952D01*
X108374142Y-102313571D01*
X108326523Y-102361190D01*
X108278904Y-102456428D01*
X108278904Y-102646904D01*
X108326523Y-102742142D01*
X108374142Y-102789761D01*
X108469380Y-102837380D01*
X108659857Y-102837380D01*
X108755095Y-102789761D01*
X108802714Y-102742142D01*
X108850333Y-102646904D01*
X108850333Y-102456428D01*
X108802714Y-102361190D01*
X108755095Y-102313571D01*
X108659857Y-102265952D01*
X103873380Y-68921238D02*
X103397190Y-69254571D01*
X103873380Y-69492666D02*
X102873380Y-69492666D01*
X102873380Y-69111714D01*
X102921000Y-69016476D01*
X102968619Y-68968857D01*
X103063857Y-68921238D01*
X103206714Y-68921238D01*
X103301952Y-68968857D01*
X103349571Y-69016476D01*
X103397190Y-69111714D01*
X103397190Y-69492666D01*
X103825761Y-68064095D02*
X103873380Y-68159333D01*
X103873380Y-68349809D01*
X103825761Y-68445047D01*
X103778142Y-68492666D01*
X103682904Y-68540285D01*
X103397190Y-68540285D01*
X103301952Y-68492666D01*
X103254333Y-68445047D01*
X103206714Y-68349809D01*
X103206714Y-68159333D01*
X103254333Y-68064095D01*
X103873380Y-67111714D02*
X103873380Y-67683142D01*
X103873380Y-67397428D02*
X102873380Y-67397428D01*
X103016238Y-67492666D01*
X103111476Y-67587904D01*
X103159095Y-67683142D01*
X166588761Y-70167333D02*
X166636380Y-70024476D01*
X166636380Y-69786380D01*
X166588761Y-69691142D01*
X166541142Y-69643523D01*
X166445904Y-69595904D01*
X166350666Y-69595904D01*
X166255428Y-69643523D01*
X166207809Y-69691142D01*
X166160190Y-69786380D01*
X166112571Y-69976857D01*
X166064952Y-70072095D01*
X166017333Y-70119714D01*
X165922095Y-70167333D01*
X165826857Y-70167333D01*
X165731619Y-70119714D01*
X165684000Y-70072095D01*
X165636380Y-69976857D01*
X165636380Y-69738761D01*
X165684000Y-69595904D01*
X165636380Y-69262571D02*
X166636380Y-69024476D01*
X165922095Y-68834000D01*
X166636380Y-68643523D01*
X165636380Y-68405428D01*
X165636380Y-68119714D02*
X165636380Y-67453047D01*
X166636380Y-67881619D01*
X96789952Y-75044380D02*
X96456619Y-74568190D01*
X96218523Y-75044380D02*
X96218523Y-74044380D01*
X96599476Y-74044380D01*
X96694714Y-74092000D01*
X96742333Y-74139619D01*
X96789952Y-74234857D01*
X96789952Y-74377714D01*
X96742333Y-74472952D01*
X96694714Y-74520571D01*
X96599476Y-74568190D01*
X96218523Y-74568190D01*
X97218523Y-74377714D02*
X97218523Y-75377714D01*
X97218523Y-74425333D02*
X97313761Y-74377714D01*
X97504238Y-74377714D01*
X97599476Y-74425333D01*
X97647095Y-74472952D01*
X97694714Y-74568190D01*
X97694714Y-74853904D01*
X97647095Y-74949142D01*
X97599476Y-74996761D01*
X97504238Y-75044380D01*
X97313761Y-75044380D01*
X97218523Y-74996761D01*
X98647095Y-75044380D02*
X98075666Y-75044380D01*
X98361380Y-75044380D02*
X98361380Y-74044380D01*
X98266142Y-74187238D01*
X98170904Y-74282476D01*
X98075666Y-74330095D01*
X96789952Y-67424380D02*
X96456619Y-66948190D01*
X96218523Y-67424380D02*
X96218523Y-66424380D01*
X96599476Y-66424380D01*
X96694714Y-66472000D01*
X96742333Y-66519619D01*
X96789952Y-66614857D01*
X96789952Y-66757714D01*
X96742333Y-66852952D01*
X96694714Y-66900571D01*
X96599476Y-66948190D01*
X96218523Y-66948190D01*
X97218523Y-66757714D02*
X97218523Y-67757714D01*
X97218523Y-66805333D02*
X97313761Y-66757714D01*
X97504238Y-66757714D01*
X97599476Y-66805333D01*
X97647095Y-66852952D01*
X97694714Y-66948190D01*
X97694714Y-67233904D01*
X97647095Y-67329142D01*
X97599476Y-67376761D01*
X97504238Y-67424380D01*
X97313761Y-67424380D01*
X97218523Y-67376761D01*
X98028047Y-66424380D02*
X98647095Y-66424380D01*
X98313761Y-66805333D01*
X98456619Y-66805333D01*
X98551857Y-66852952D01*
X98599476Y-66900571D01*
X98647095Y-66995809D01*
X98647095Y-67233904D01*
X98599476Y-67329142D01*
X98551857Y-67376761D01*
X98456619Y-67424380D01*
X98170904Y-67424380D01*
X98075666Y-67376761D01*
X98028047Y-67329142D01*
X164115761Y-38495619D02*
X164020523Y-38448000D01*
X163925285Y-38352761D01*
X163782428Y-38209904D01*
X163687190Y-38162285D01*
X163591952Y-38162285D01*
X163639571Y-38400380D02*
X163544333Y-38352761D01*
X163449095Y-38257523D01*
X163401476Y-38067047D01*
X163401476Y-37733714D01*
X163449095Y-37543238D01*
X163544333Y-37448000D01*
X163639571Y-37400380D01*
X163830047Y-37400380D01*
X163925285Y-37448000D01*
X164020523Y-37543238D01*
X164068142Y-37733714D01*
X164068142Y-38067047D01*
X164020523Y-38257523D01*
X163925285Y-38352761D01*
X163830047Y-38400380D01*
X163639571Y-38400380D01*
X164449095Y-37495619D02*
X164496714Y-37448000D01*
X164591952Y-37400380D01*
X164830047Y-37400380D01*
X164925285Y-37448000D01*
X164972904Y-37495619D01*
X165020523Y-37590857D01*
X165020523Y-37686095D01*
X164972904Y-37828952D01*
X164401476Y-38400380D01*
X165020523Y-38400380D01*
X134353380Y-68945047D02*
X133877190Y-69278380D01*
X134353380Y-69516476D02*
X133353380Y-69516476D01*
X133353380Y-69135523D01*
X133401000Y-69040285D01*
X133448619Y-68992666D01*
X133543857Y-68945047D01*
X133686714Y-68945047D01*
X133781952Y-68992666D01*
X133829571Y-69040285D01*
X133877190Y-69135523D01*
X133877190Y-69516476D01*
X134353380Y-68516476D02*
X133353380Y-68516476D01*
X133734333Y-68516476D02*
X133686714Y-68421238D01*
X133686714Y-68230761D01*
X133734333Y-68135523D01*
X133781952Y-68087904D01*
X133877190Y-68040285D01*
X134162904Y-68040285D01*
X134258142Y-68087904D01*
X134305761Y-68135523D01*
X134353380Y-68230761D01*
X134353380Y-68421238D01*
X134305761Y-68516476D01*
X134353380Y-67087904D02*
X134353380Y-67659333D01*
X134353380Y-67373619D02*
X133353380Y-67373619D01*
X133496238Y-67468857D01*
X133591476Y-67564095D01*
X133639095Y-67659333D01*
X141692333Y-93762142D02*
X141644714Y-93809761D01*
X141501857Y-93857380D01*
X141406619Y-93857380D01*
X141263761Y-93809761D01*
X141168523Y-93714523D01*
X141120904Y-93619285D01*
X141073285Y-93428809D01*
X141073285Y-93285952D01*
X141120904Y-93095476D01*
X141168523Y-93000238D01*
X141263761Y-92905000D01*
X141406619Y-92857380D01*
X141501857Y-92857380D01*
X141644714Y-92905000D01*
X141692333Y-92952619D01*
X142644714Y-93857380D02*
X142073285Y-93857380D01*
X142359000Y-93857380D02*
X142359000Y-92857380D01*
X142263761Y-93000238D01*
X142168523Y-93095476D01*
X142073285Y-93143095D01*
X175732761Y-85153333D02*
X175780380Y-85010476D01*
X175780380Y-84772380D01*
X175732761Y-84677142D01*
X175685142Y-84629523D01*
X175589904Y-84581904D01*
X175494666Y-84581904D01*
X175399428Y-84629523D01*
X175351809Y-84677142D01*
X175304190Y-84772380D01*
X175256571Y-84962857D01*
X175208952Y-85058095D01*
X175161333Y-85105714D01*
X175066095Y-85153333D01*
X174970857Y-85153333D01*
X174875619Y-85105714D01*
X174828000Y-85058095D01*
X174780380Y-84962857D01*
X174780380Y-84724761D01*
X174828000Y-84581904D01*
X174780380Y-84248571D02*
X175780380Y-84010476D01*
X175066095Y-83820000D01*
X175780380Y-83629523D01*
X174780380Y-83391428D01*
X174875619Y-83058095D02*
X174828000Y-83010476D01*
X174780380Y-82915238D01*
X174780380Y-82677142D01*
X174828000Y-82581904D01*
X174875619Y-82534285D01*
X174970857Y-82486666D01*
X175066095Y-82486666D01*
X175208952Y-82534285D01*
X175780380Y-83105714D01*
X175780380Y-82486666D01*
X150780761Y-38495619D02*
X150685523Y-38448000D01*
X150590285Y-38352761D01*
X150447428Y-38209904D01*
X150352190Y-38162285D01*
X150256952Y-38162285D01*
X150304571Y-38400380D02*
X150209333Y-38352761D01*
X150114095Y-38257523D01*
X150066476Y-38067047D01*
X150066476Y-37733714D01*
X150114095Y-37543238D01*
X150209333Y-37448000D01*
X150304571Y-37400380D01*
X150495047Y-37400380D01*
X150590285Y-37448000D01*
X150685523Y-37543238D01*
X150733142Y-37733714D01*
X150733142Y-38067047D01*
X150685523Y-38257523D01*
X150590285Y-38352761D01*
X150495047Y-38400380D01*
X150304571Y-38400380D01*
X151066476Y-37400380D02*
X151685523Y-37400380D01*
X151352190Y-37781333D01*
X151495047Y-37781333D01*
X151590285Y-37828952D01*
X151637904Y-37876571D01*
X151685523Y-37971809D01*
X151685523Y-38209904D01*
X151637904Y-38305142D01*
X151590285Y-38352761D01*
X151495047Y-38400380D01*
X151209333Y-38400380D01*
X151114095Y-38352761D01*
X151066476Y-38305142D01*
X117689380Y-84581904D02*
X118498904Y-84581904D01*
X118594142Y-84534285D01*
X118641761Y-84486666D01*
X118689380Y-84391428D01*
X118689380Y-84200952D01*
X118641761Y-84105714D01*
X118594142Y-84058095D01*
X118498904Y-84010476D01*
X117689380Y-84010476D01*
X117689380Y-83058095D02*
X117689380Y-83534285D01*
X118165571Y-83581904D01*
X118117952Y-83534285D01*
X118070333Y-83439047D01*
X118070333Y-83200952D01*
X118117952Y-83105714D01*
X118165571Y-83058095D01*
X118260809Y-83010476D01*
X118498904Y-83010476D01*
X118594142Y-83058095D01*
X118641761Y-83105714D01*
X118689380Y-83200952D01*
X118689380Y-83439047D01*
X118641761Y-83534285D01*
X118594142Y-83581904D01*
X111493380Y-68921238D02*
X111017190Y-69254571D01*
X111493380Y-69492666D02*
X110493380Y-69492666D01*
X110493380Y-69111714D01*
X110541000Y-69016476D01*
X110588619Y-68968857D01*
X110683857Y-68921238D01*
X110826714Y-68921238D01*
X110921952Y-68968857D01*
X110969571Y-69016476D01*
X111017190Y-69111714D01*
X111017190Y-69492666D01*
X111445761Y-68064095D02*
X111493380Y-68159333D01*
X111493380Y-68349809D01*
X111445761Y-68445047D01*
X111398142Y-68492666D01*
X111302904Y-68540285D01*
X111017190Y-68540285D01*
X110921952Y-68492666D01*
X110874333Y-68445047D01*
X110826714Y-68349809D01*
X110826714Y-68159333D01*
X110874333Y-68064095D01*
X110493380Y-67730761D02*
X110493380Y-67111714D01*
X110874333Y-67445047D01*
X110874333Y-67302190D01*
X110921952Y-67206952D01*
X110969571Y-67159333D01*
X111064809Y-67111714D01*
X111302904Y-67111714D01*
X111398142Y-67159333D01*
X111445761Y-67206952D01*
X111493380Y-67302190D01*
X111493380Y-67587904D01*
X111445761Y-67683142D01*
X111398142Y-67730761D01*
X119721380Y-84581904D02*
X120530904Y-84581904D01*
X120626142Y-84534285D01*
X120673761Y-84486666D01*
X120721380Y-84391428D01*
X120721380Y-84200952D01*
X120673761Y-84105714D01*
X120626142Y-84058095D01*
X120530904Y-84010476D01*
X119721380Y-84010476D01*
X120054714Y-83105714D02*
X120721380Y-83105714D01*
X119673761Y-83343809D02*
X120388047Y-83581904D01*
X120388047Y-82962857D01*
X96789952Y-63614380D02*
X96456619Y-63138190D01*
X96218523Y-63614380D02*
X96218523Y-62614380D01*
X96599476Y-62614380D01*
X96694714Y-62662000D01*
X96742333Y-62709619D01*
X96789952Y-62804857D01*
X96789952Y-62947714D01*
X96742333Y-63042952D01*
X96694714Y-63090571D01*
X96599476Y-63138190D01*
X96218523Y-63138190D01*
X97218523Y-62947714D02*
X97218523Y-63947714D01*
X97218523Y-62995333D02*
X97313761Y-62947714D01*
X97504238Y-62947714D01*
X97599476Y-62995333D01*
X97647095Y-63042952D01*
X97694714Y-63138190D01*
X97694714Y-63423904D01*
X97647095Y-63519142D01*
X97599476Y-63566761D01*
X97504238Y-63614380D01*
X97313761Y-63614380D01*
X97218523Y-63566761D01*
X98551857Y-62947714D02*
X98551857Y-63614380D01*
X98313761Y-62566761D02*
X98075666Y-63281047D01*
X98694714Y-63281047D01*
X124674380Y-84581904D02*
X125483904Y-84581904D01*
X125579142Y-84534285D01*
X125626761Y-84486666D01*
X125674380Y-84391428D01*
X125674380Y-84200952D01*
X125626761Y-84105714D01*
X125579142Y-84058095D01*
X125483904Y-84010476D01*
X124674380Y-84010476D01*
X125674380Y-83010476D02*
X125674380Y-83581904D01*
X125674380Y-83296190D02*
X124674380Y-83296190D01*
X124817238Y-83391428D01*
X124912476Y-83486666D01*
X124960095Y-83581904D01*
X122923380Y-68921238D02*
X122447190Y-69254571D01*
X122923380Y-69492666D02*
X121923380Y-69492666D01*
X121923380Y-69111714D01*
X121971000Y-69016476D01*
X122018619Y-68968857D01*
X122113857Y-68921238D01*
X122256714Y-68921238D01*
X122351952Y-68968857D01*
X122399571Y-69016476D01*
X122447190Y-69111714D01*
X122447190Y-69492666D01*
X122875761Y-68064095D02*
X122923380Y-68159333D01*
X122923380Y-68349809D01*
X122875761Y-68445047D01*
X122828142Y-68492666D01*
X122732904Y-68540285D01*
X122447190Y-68540285D01*
X122351952Y-68492666D01*
X122304333Y-68445047D01*
X122256714Y-68349809D01*
X122256714Y-68159333D01*
X122304333Y-68064095D01*
X121923380Y-67206952D02*
X121923380Y-67397428D01*
X121971000Y-67492666D01*
X122018619Y-67540285D01*
X122161476Y-67635523D01*
X122351952Y-67683142D01*
X122732904Y-67683142D01*
X122828142Y-67635523D01*
X122875761Y-67587904D01*
X122923380Y-67492666D01*
X122923380Y-67302190D01*
X122875761Y-67206952D01*
X122828142Y-67159333D01*
X122732904Y-67111714D01*
X122494809Y-67111714D01*
X122399571Y-67159333D01*
X122351952Y-67206952D01*
X122304333Y-67302190D01*
X122304333Y-67492666D01*
X122351952Y-67587904D01*
X122399571Y-67635523D01*
X122494809Y-67683142D01*
X177450761Y-38516619D02*
X177355523Y-38469000D01*
X177260285Y-38373761D01*
X177117428Y-38230904D01*
X177022190Y-38183285D01*
X176926952Y-38183285D01*
X176974571Y-38421380D02*
X176879333Y-38373761D01*
X176784095Y-38278523D01*
X176736476Y-38088047D01*
X176736476Y-37754714D01*
X176784095Y-37564238D01*
X176879333Y-37469000D01*
X176974571Y-37421380D01*
X177165047Y-37421380D01*
X177260285Y-37469000D01*
X177355523Y-37564238D01*
X177403142Y-37754714D01*
X177403142Y-38088047D01*
X177355523Y-38278523D01*
X177260285Y-38373761D01*
X177165047Y-38421380D01*
X176974571Y-38421380D01*
X178355523Y-38421380D02*
X177784095Y-38421380D01*
X178069809Y-38421380D02*
X178069809Y-37421380D01*
X177974571Y-37564238D01*
X177879333Y-37659476D01*
X177784095Y-37707095D01*
X158079761Y-70167333D02*
X158127380Y-70024476D01*
X158127380Y-69786380D01*
X158079761Y-69691142D01*
X158032142Y-69643523D01*
X157936904Y-69595904D01*
X157841666Y-69595904D01*
X157746428Y-69643523D01*
X157698809Y-69691142D01*
X157651190Y-69786380D01*
X157603571Y-69976857D01*
X157555952Y-70072095D01*
X157508333Y-70119714D01*
X157413095Y-70167333D01*
X157317857Y-70167333D01*
X157222619Y-70119714D01*
X157175000Y-70072095D01*
X157127380Y-69976857D01*
X157127380Y-69738761D01*
X157175000Y-69595904D01*
X157127380Y-69262571D02*
X158127380Y-69024476D01*
X157413095Y-68834000D01*
X158127380Y-68643523D01*
X157127380Y-68405428D01*
X157127380Y-67595904D02*
X157127380Y-67786380D01*
X157175000Y-67881619D01*
X157222619Y-67929238D01*
X157365476Y-68024476D01*
X157555952Y-68072095D01*
X157936904Y-68072095D01*
X158032142Y-68024476D01*
X158079761Y-67976857D01*
X158127380Y-67881619D01*
X158127380Y-67691142D01*
X158079761Y-67595904D01*
X158032142Y-67548285D01*
X157936904Y-67500666D01*
X157698809Y-67500666D01*
X157603571Y-67548285D01*
X157555952Y-67595904D01*
X157508333Y-67691142D01*
X157508333Y-67881619D01*
X157555952Y-67976857D01*
X157603571Y-68024476D01*
X157698809Y-68072095D01*
X92813285Y-97718571D02*
X92956142Y-97766190D01*
X93003761Y-97813809D01*
X93051380Y-97909047D01*
X93051380Y-98051904D01*
X93003761Y-98147142D01*
X92956142Y-98194761D01*
X92860904Y-98242380D01*
X92479952Y-98242380D01*
X92479952Y-97242380D01*
X92813285Y-97242380D01*
X92908523Y-97290000D01*
X92956142Y-97337619D01*
X93003761Y-97432857D01*
X93003761Y-97528095D01*
X92956142Y-97623333D01*
X92908523Y-97670952D01*
X92813285Y-97718571D01*
X92479952Y-97718571D01*
X93337095Y-97242380D02*
X93908523Y-97242380D01*
X93622809Y-98242380D02*
X93622809Y-97242380D01*
X94765666Y-98242380D02*
X94194238Y-98242380D01*
X94479952Y-98242380D02*
X94479952Y-97242380D01*
X94384714Y-97385238D01*
X94289476Y-97480476D01*
X94194238Y-97528095D01*
X96789952Y-55994380D02*
X96456619Y-55518190D01*
X96218523Y-55994380D02*
X96218523Y-54994380D01*
X96599476Y-54994380D01*
X96694714Y-55042000D01*
X96742333Y-55089619D01*
X96789952Y-55184857D01*
X96789952Y-55327714D01*
X96742333Y-55422952D01*
X96694714Y-55470571D01*
X96599476Y-55518190D01*
X96218523Y-55518190D01*
X97218523Y-55327714D02*
X97218523Y-56327714D01*
X97218523Y-55375333D02*
X97313761Y-55327714D01*
X97504238Y-55327714D01*
X97599476Y-55375333D01*
X97647095Y-55422952D01*
X97694714Y-55518190D01*
X97694714Y-55803904D01*
X97647095Y-55899142D01*
X97599476Y-55946761D01*
X97504238Y-55994380D01*
X97313761Y-55994380D01*
X97218523Y-55946761D01*
X98551857Y-54994380D02*
X98361380Y-54994380D01*
X98266142Y-55042000D01*
X98218523Y-55089619D01*
X98123285Y-55232476D01*
X98075666Y-55422952D01*
X98075666Y-55803904D01*
X98123285Y-55899142D01*
X98170904Y-55946761D01*
X98266142Y-55994380D01*
X98456619Y-55994380D01*
X98551857Y-55946761D01*
X98599476Y-55899142D01*
X98647095Y-55803904D01*
X98647095Y-55565809D01*
X98599476Y-55470571D01*
X98551857Y-55422952D01*
X98456619Y-55375333D01*
X98266142Y-55375333D01*
X98170904Y-55422952D01*
X98123285Y-55470571D01*
X98075666Y-55565809D01*
X130543380Y-68921238D02*
X130067190Y-69254571D01*
X130543380Y-69492666D02*
X129543380Y-69492666D01*
X129543380Y-69111714D01*
X129591000Y-69016476D01*
X129638619Y-68968857D01*
X129733857Y-68921238D01*
X129876714Y-68921238D01*
X129971952Y-68968857D01*
X130019571Y-69016476D01*
X130067190Y-69111714D01*
X130067190Y-69492666D01*
X130495761Y-68064095D02*
X130543380Y-68159333D01*
X130543380Y-68349809D01*
X130495761Y-68445047D01*
X130448142Y-68492666D01*
X130352904Y-68540285D01*
X130067190Y-68540285D01*
X129971952Y-68492666D01*
X129924333Y-68445047D01*
X129876714Y-68349809D01*
X129876714Y-68159333D01*
X129924333Y-68064095D01*
X129971952Y-67492666D02*
X129924333Y-67587904D01*
X129876714Y-67635523D01*
X129781476Y-67683142D01*
X129733857Y-67683142D01*
X129638619Y-67635523D01*
X129591000Y-67587904D01*
X129543380Y-67492666D01*
X129543380Y-67302190D01*
X129591000Y-67206952D01*
X129638619Y-67159333D01*
X129733857Y-67111714D01*
X129781476Y-67111714D01*
X129876714Y-67159333D01*
X129924333Y-67206952D01*
X129971952Y-67302190D01*
X129971952Y-67492666D01*
X130019571Y-67587904D01*
X130067190Y-67635523D01*
X130162428Y-67683142D01*
X130352904Y-67683142D01*
X130448142Y-67635523D01*
X130495761Y-67587904D01*
X130543380Y-67492666D01*
X130543380Y-67302190D01*
X130495761Y-67206952D01*
X130448142Y-67159333D01*
X130352904Y-67111714D01*
X130162428Y-67111714D01*
X130067190Y-67159333D01*
X130019571Y-67206952D01*
X129971952Y-67302190D01*
X166842761Y-80581333D02*
X166890380Y-80438476D01*
X166890380Y-80200380D01*
X166842761Y-80105142D01*
X166795142Y-80057523D01*
X166699904Y-80009904D01*
X166604666Y-80009904D01*
X166509428Y-80057523D01*
X166461809Y-80105142D01*
X166414190Y-80200380D01*
X166366571Y-80390857D01*
X166318952Y-80486095D01*
X166271333Y-80533714D01*
X166176095Y-80581333D01*
X166080857Y-80581333D01*
X165985619Y-80533714D01*
X165938000Y-80486095D01*
X165890380Y-80390857D01*
X165890380Y-80152761D01*
X165938000Y-80009904D01*
X165890380Y-79676571D02*
X166890380Y-79438476D01*
X166176095Y-79248000D01*
X166890380Y-79057523D01*
X165890380Y-78819428D01*
X165890380Y-78533714D02*
X165890380Y-77914666D01*
X166271333Y-78248000D01*
X166271333Y-78105142D01*
X166318952Y-78009904D01*
X166366571Y-77962285D01*
X166461809Y-77914666D01*
X166699904Y-77914666D01*
X166795142Y-77962285D01*
X166842761Y-78009904D01*
X166890380Y-78105142D01*
X166890380Y-78390857D01*
X166842761Y-78486095D01*
X166795142Y-78533714D01*
X145713380Y-68945047D02*
X145237190Y-69278380D01*
X145713380Y-69516476D02*
X144713380Y-69516476D01*
X144713380Y-69135523D01*
X144761000Y-69040285D01*
X144808619Y-68992666D01*
X144903857Y-68945047D01*
X145046714Y-68945047D01*
X145141952Y-68992666D01*
X145189571Y-69040285D01*
X145237190Y-69135523D01*
X145237190Y-69516476D01*
X145713380Y-68516476D02*
X144713380Y-68516476D01*
X145094333Y-68516476D02*
X145046714Y-68421238D01*
X145046714Y-68230761D01*
X145094333Y-68135523D01*
X145141952Y-68087904D01*
X145237190Y-68040285D01*
X145522904Y-68040285D01*
X145618142Y-68087904D01*
X145665761Y-68135523D01*
X145713380Y-68230761D01*
X145713380Y-68421238D01*
X145665761Y-68516476D01*
X145046714Y-67183142D02*
X145713380Y-67183142D01*
X144665761Y-67421238D02*
X145380047Y-67659333D01*
X145380047Y-67040285D01*
X149593380Y-68945047D02*
X149117190Y-69278380D01*
X149593380Y-69516476D02*
X148593380Y-69516476D01*
X148593380Y-69135523D01*
X148641000Y-69040285D01*
X148688619Y-68992666D01*
X148783857Y-68945047D01*
X148926714Y-68945047D01*
X149021952Y-68992666D01*
X149069571Y-69040285D01*
X149117190Y-69135523D01*
X149117190Y-69516476D01*
X149593380Y-68516476D02*
X148593380Y-68516476D01*
X148974333Y-68516476D02*
X148926714Y-68421238D01*
X148926714Y-68230761D01*
X148974333Y-68135523D01*
X149021952Y-68087904D01*
X149117190Y-68040285D01*
X149402904Y-68040285D01*
X149498142Y-68087904D01*
X149545761Y-68135523D01*
X149593380Y-68230761D01*
X149593380Y-68421238D01*
X149545761Y-68516476D01*
X148593380Y-67135523D02*
X148593380Y-67611714D01*
X149069571Y-67659333D01*
X149021952Y-67611714D01*
X148974333Y-67516476D01*
X148974333Y-67278380D01*
X149021952Y-67183142D01*
X149069571Y-67135523D01*
X149164809Y-67087904D01*
X149402904Y-67087904D01*
X149498142Y-67135523D01*
X149545761Y-67183142D01*
X149593380Y-67278380D01*
X149593380Y-67516476D01*
X149545761Y-67611714D01*
X149498142Y-67659333D01*
X115321221Y-93733254D02*
X115273602Y-93780873D01*
X115130745Y-93828492D01*
X115035507Y-93828492D01*
X114892649Y-93780873D01*
X114797411Y-93685635D01*
X114749792Y-93590397D01*
X114702173Y-93399921D01*
X114702173Y-93257064D01*
X114749792Y-93066588D01*
X114797411Y-92971350D01*
X114892649Y-92876112D01*
X115035507Y-92828492D01*
X115130745Y-92828492D01*
X115273602Y-92876112D01*
X115321221Y-92923731D01*
X115654554Y-92828492D02*
X116273602Y-92828492D01*
X115940268Y-93209445D01*
X116083126Y-93209445D01*
X116178364Y-93257064D01*
X116225983Y-93304683D01*
X116273602Y-93399921D01*
X116273602Y-93638016D01*
X116225983Y-93733254D01*
X116178364Y-93780873D01*
X116083126Y-93828492D01*
X115797411Y-93828492D01*
X115702173Y-93780873D01*
X115654554Y-93733254D01*
X150409809Y-100529190D02*
X150409809Y-101005380D01*
X150076476Y-100005380D02*
X150409809Y-100529190D01*
X150743142Y-100005380D01*
X151600285Y-101005380D02*
X151028857Y-101005380D01*
X151314571Y-101005380D02*
X151314571Y-100005380D01*
X151219333Y-100148238D01*
X151124095Y-100243476D01*
X151028857Y-100291095D01*
X96789952Y-48374380D02*
X96456619Y-47898190D01*
X96218523Y-48374380D02*
X96218523Y-47374380D01*
X96599476Y-47374380D01*
X96694714Y-47422000D01*
X96742333Y-47469619D01*
X96789952Y-47564857D01*
X96789952Y-47707714D01*
X96742333Y-47802952D01*
X96694714Y-47850571D01*
X96599476Y-47898190D01*
X96218523Y-47898190D01*
X97218523Y-47707714D02*
X97218523Y-48707714D01*
X97218523Y-47755333D02*
X97313761Y-47707714D01*
X97504238Y-47707714D01*
X97599476Y-47755333D01*
X97647095Y-47802952D01*
X97694714Y-47898190D01*
X97694714Y-48183904D01*
X97647095Y-48279142D01*
X97599476Y-48326761D01*
X97504238Y-48374380D01*
X97313761Y-48374380D01*
X97218523Y-48326761D01*
X98266142Y-47802952D02*
X98170904Y-47755333D01*
X98123285Y-47707714D01*
X98075666Y-47612476D01*
X98075666Y-47564857D01*
X98123285Y-47469619D01*
X98170904Y-47422000D01*
X98266142Y-47374380D01*
X98456619Y-47374380D01*
X98551857Y-47422000D01*
X98599476Y-47469619D01*
X98647095Y-47564857D01*
X98647095Y-47612476D01*
X98599476Y-47707714D01*
X98551857Y-47755333D01*
X98456619Y-47802952D01*
X98266142Y-47802952D01*
X98170904Y-47850571D01*
X98123285Y-47898190D01*
X98075666Y-47993428D01*
X98075666Y-48183904D01*
X98123285Y-48279142D01*
X98170904Y-48326761D01*
X98266142Y-48374380D01*
X98456619Y-48374380D01*
X98551857Y-48326761D01*
X98599476Y-48279142D01*
X98647095Y-48183904D01*
X98647095Y-47993428D01*
X98599476Y-47898190D01*
X98551857Y-47850571D01*
X98456619Y-47802952D01*
X132345666Y-102662761D02*
X132488523Y-102710380D01*
X132726619Y-102710380D01*
X132821857Y-102662761D01*
X132869476Y-102615142D01*
X132917095Y-102519904D01*
X132917095Y-102424666D01*
X132869476Y-102329428D01*
X132821857Y-102281809D01*
X132726619Y-102234190D01*
X132536142Y-102186571D01*
X132440904Y-102138952D01*
X132393285Y-102091333D01*
X132345666Y-101996095D01*
X132345666Y-101900857D01*
X132393285Y-101805619D01*
X132440904Y-101758000D01*
X132536142Y-101710380D01*
X132774238Y-101710380D01*
X132917095Y-101758000D01*
X133250428Y-101710380D02*
X133488523Y-102710380D01*
X133679000Y-101996095D01*
X133869476Y-102710380D01*
X134107571Y-101710380D01*
X134964714Y-101710380D02*
X134488523Y-101710380D01*
X134440904Y-102186571D01*
X134488523Y-102138952D01*
X134583761Y-102091333D01*
X134821857Y-102091333D01*
X134917095Y-102138952D01*
X134964714Y-102186571D01*
X135012333Y-102281809D01*
X135012333Y-102519904D01*
X134964714Y-102615142D01*
X134917095Y-102662761D01*
X134821857Y-102710380D01*
X134583761Y-102710380D01*
X134488523Y-102662761D01*
X134440904Y-102615142D01*
X107683380Y-68921238D02*
X107207190Y-69254571D01*
X107683380Y-69492666D02*
X106683380Y-69492666D01*
X106683380Y-69111714D01*
X106731000Y-69016476D01*
X106778619Y-68968857D01*
X106873857Y-68921238D01*
X107016714Y-68921238D01*
X107111952Y-68968857D01*
X107159571Y-69016476D01*
X107207190Y-69111714D01*
X107207190Y-69492666D01*
X107635761Y-68064095D02*
X107683380Y-68159333D01*
X107683380Y-68349809D01*
X107635761Y-68445047D01*
X107588142Y-68492666D01*
X107492904Y-68540285D01*
X107207190Y-68540285D01*
X107111952Y-68492666D01*
X107064333Y-68445047D01*
X107016714Y-68349809D01*
X107016714Y-68159333D01*
X107064333Y-68064095D01*
X106778619Y-67683142D02*
X106731000Y-67635523D01*
X106683380Y-67540285D01*
X106683380Y-67302190D01*
X106731000Y-67206952D01*
X106778619Y-67159333D01*
X106873857Y-67111714D01*
X106969095Y-67111714D01*
X107111952Y-67159333D01*
X107683380Y-67730761D01*
X107683380Y-67111714D01*
X166960761Y-85026333D02*
X167008380Y-84883476D01*
X167008380Y-84645380D01*
X166960761Y-84550142D01*
X166913142Y-84502523D01*
X166817904Y-84454904D01*
X166722666Y-84454904D01*
X166627428Y-84502523D01*
X166579809Y-84550142D01*
X166532190Y-84645380D01*
X166484571Y-84835857D01*
X166436952Y-84931095D01*
X166389333Y-84978714D01*
X166294095Y-85026333D01*
X166198857Y-85026333D01*
X166103619Y-84978714D01*
X166056000Y-84931095D01*
X166008380Y-84835857D01*
X166008380Y-84597761D01*
X166056000Y-84454904D01*
X166008380Y-84121571D02*
X167008380Y-83883476D01*
X166294095Y-83693000D01*
X167008380Y-83502523D01*
X166008380Y-83264428D01*
X167008380Y-82359666D02*
X167008380Y-82931095D01*
X167008380Y-82645380D02*
X166008380Y-82645380D01*
X166151238Y-82740619D01*
X166246476Y-82835857D01*
X166294095Y-82931095D01*
X159615333Y-101135142D02*
X159567714Y-101182761D01*
X159424857Y-101230380D01*
X159329619Y-101230380D01*
X159186761Y-101182761D01*
X159091523Y-101087523D01*
X159043904Y-100992285D01*
X158996285Y-100801809D01*
X158996285Y-100658952D01*
X159043904Y-100468476D01*
X159091523Y-100373238D01*
X159186761Y-100278000D01*
X159329619Y-100230380D01*
X159424857Y-100230380D01*
X159567714Y-100278000D01*
X159615333Y-100325619D01*
X159996285Y-100325619D02*
X160043904Y-100278000D01*
X160139142Y-100230380D01*
X160377238Y-100230380D01*
X160472476Y-100278000D01*
X160520095Y-100325619D01*
X160567714Y-100420857D01*
X160567714Y-100516095D01*
X160520095Y-100658952D01*
X159948666Y-101230380D01*
X160567714Y-101230380D01*
X141973380Y-68945047D02*
X141497190Y-69278380D01*
X141973380Y-69516476D02*
X140973380Y-69516476D01*
X140973380Y-69135523D01*
X141021000Y-69040285D01*
X141068619Y-68992666D01*
X141163857Y-68945047D01*
X141306714Y-68945047D01*
X141401952Y-68992666D01*
X141449571Y-69040285D01*
X141497190Y-69135523D01*
X141497190Y-69516476D01*
X141973380Y-68516476D02*
X140973380Y-68516476D01*
X141354333Y-68516476D02*
X141306714Y-68421238D01*
X141306714Y-68230761D01*
X141354333Y-68135523D01*
X141401952Y-68087904D01*
X141497190Y-68040285D01*
X141782904Y-68040285D01*
X141878142Y-68087904D01*
X141925761Y-68135523D01*
X141973380Y-68230761D01*
X141973380Y-68421238D01*
X141925761Y-68516476D01*
X140973380Y-67706952D02*
X140973380Y-67087904D01*
X141354333Y-67421238D01*
X141354333Y-67278380D01*
X141401952Y-67183142D01*
X141449571Y-67135523D01*
X141544809Y-67087904D01*
X141782904Y-67087904D01*
X141878142Y-67135523D01*
X141925761Y-67183142D01*
X141973380Y-67278380D01*
X141973380Y-67564095D01*
X141925761Y-67659333D01*
X141878142Y-67706952D01*
X126733380Y-68921238D02*
X126257190Y-69254571D01*
X126733380Y-69492666D02*
X125733380Y-69492666D01*
X125733380Y-69111714D01*
X125781000Y-69016476D01*
X125828619Y-68968857D01*
X125923857Y-68921238D01*
X126066714Y-68921238D01*
X126161952Y-68968857D01*
X126209571Y-69016476D01*
X126257190Y-69111714D01*
X126257190Y-69492666D01*
X126685761Y-68064095D02*
X126733380Y-68159333D01*
X126733380Y-68349809D01*
X126685761Y-68445047D01*
X126638142Y-68492666D01*
X126542904Y-68540285D01*
X126257190Y-68540285D01*
X126161952Y-68492666D01*
X126114333Y-68445047D01*
X126066714Y-68349809D01*
X126066714Y-68159333D01*
X126114333Y-68064095D01*
X125733380Y-67730761D02*
X125733380Y-67064095D01*
X126733380Y-67492666D01*
X121499380Y-84581904D02*
X122308904Y-84581904D01*
X122404142Y-84534285D01*
X122451761Y-84486666D01*
X122499380Y-84391428D01*
X122499380Y-84200952D01*
X122451761Y-84105714D01*
X122404142Y-84058095D01*
X122308904Y-84010476D01*
X121499380Y-84010476D01*
X121499380Y-83629523D02*
X121499380Y-83010476D01*
X121880333Y-83343809D01*
X121880333Y-83200952D01*
X121927952Y-83105714D01*
X121975571Y-83058095D01*
X122070809Y-83010476D01*
X122308904Y-83010476D01*
X122404142Y-83058095D01*
X122451761Y-83105714D01*
X122499380Y-83200952D01*
X122499380Y-83486666D01*
X122451761Y-83581904D01*
X122404142Y-83629523D01*
X153403380Y-68945047D02*
X152927190Y-69278380D01*
X153403380Y-69516476D02*
X152403380Y-69516476D01*
X152403380Y-69135523D01*
X152451000Y-69040285D01*
X152498619Y-68992666D01*
X152593857Y-68945047D01*
X152736714Y-68945047D01*
X152831952Y-68992666D01*
X152879571Y-69040285D01*
X152927190Y-69135523D01*
X152927190Y-69516476D01*
X153403380Y-68516476D02*
X152403380Y-68516476D01*
X152784333Y-68516476D02*
X152736714Y-68421238D01*
X152736714Y-68230761D01*
X152784333Y-68135523D01*
X152831952Y-68087904D01*
X152927190Y-68040285D01*
X153212904Y-68040285D01*
X153308142Y-68087904D01*
X153355761Y-68135523D01*
X153403380Y-68230761D01*
X153403380Y-68421238D01*
X153355761Y-68516476D01*
X152403380Y-67183142D02*
X152403380Y-67373619D01*
X152451000Y-67468857D01*
X152498619Y-67516476D01*
X152641476Y-67611714D01*
X152831952Y-67659333D01*
X153212904Y-67659333D01*
X153308142Y-67611714D01*
X153355761Y-67564095D01*
X153403380Y-67468857D01*
X153403380Y-67278380D01*
X153355761Y-67183142D01*
X153308142Y-67135523D01*
X153212904Y-67087904D01*
X152974809Y-67087904D01*
X152879571Y-67135523D01*
X152831952Y-67183142D01*
X152784333Y-67278380D01*
X152784333Y-67468857D01*
X152831952Y-67564095D01*
X152879571Y-67611714D01*
X152974809Y-67659333D01*
X123277333Y-99948492D02*
X122944000Y-99472302D01*
X122705904Y-99948492D02*
X122705904Y-98948492D01*
X123086857Y-98948492D01*
X123182095Y-98996112D01*
X123229714Y-99043731D01*
X123277333Y-99138969D01*
X123277333Y-99281826D01*
X123229714Y-99377064D01*
X123182095Y-99424683D01*
X123086857Y-99472302D01*
X122705904Y-99472302D01*
X124229714Y-99948492D02*
X123658285Y-99948492D01*
X123944000Y-99948492D02*
X123944000Y-98948492D01*
X123848761Y-99091350D01*
X123753523Y-99186588D01*
X123658285Y-99234207D01*
X123150380Y-84581904D02*
X123959904Y-84581904D01*
X124055142Y-84534285D01*
X124102761Y-84486666D01*
X124150380Y-84391428D01*
X124150380Y-84200952D01*
X124102761Y-84105714D01*
X124055142Y-84058095D01*
X123959904Y-84010476D01*
X123150380Y-84010476D01*
X123245619Y-83581904D02*
X123198000Y-83534285D01*
X123150380Y-83439047D01*
X123150380Y-83200952D01*
X123198000Y-83105714D01*
X123245619Y-83058095D01*
X123340857Y-83010476D01*
X123436095Y-83010476D01*
X123578952Y-83058095D01*
X124150380Y-83629523D01*
X124150380Y-83010476D01*
X119113380Y-68921238D02*
X118637190Y-69254571D01*
X119113380Y-69492666D02*
X118113380Y-69492666D01*
X118113380Y-69111714D01*
X118161000Y-69016476D01*
X118208619Y-68968857D01*
X118303857Y-68921238D01*
X118446714Y-68921238D01*
X118541952Y-68968857D01*
X118589571Y-69016476D01*
X118637190Y-69111714D01*
X118637190Y-69492666D01*
X119065761Y-68064095D02*
X119113380Y-68159333D01*
X119113380Y-68349809D01*
X119065761Y-68445047D01*
X119018142Y-68492666D01*
X118922904Y-68540285D01*
X118637190Y-68540285D01*
X118541952Y-68492666D01*
X118494333Y-68445047D01*
X118446714Y-68349809D01*
X118446714Y-68159333D01*
X118494333Y-68064095D01*
X118113380Y-67159333D02*
X118113380Y-67635523D01*
X118589571Y-67683142D01*
X118541952Y-67635523D01*
X118494333Y-67540285D01*
X118494333Y-67302190D01*
X118541952Y-67206952D01*
X118589571Y-67159333D01*
X118684809Y-67111714D01*
X118922904Y-67111714D01*
X119018142Y-67159333D01*
X119065761Y-67206952D01*
X119113380Y-67302190D01*
X119113380Y-67540285D01*
X119065761Y-67635523D01*
X119018142Y-67683142D01*
X96789952Y-59804380D02*
X96456619Y-59328190D01*
X96218523Y-59804380D02*
X96218523Y-58804380D01*
X96599476Y-58804380D01*
X96694714Y-58852000D01*
X96742333Y-58899619D01*
X96789952Y-58994857D01*
X96789952Y-59137714D01*
X96742333Y-59232952D01*
X96694714Y-59280571D01*
X96599476Y-59328190D01*
X96218523Y-59328190D01*
X97218523Y-59137714D02*
X97218523Y-60137714D01*
X97218523Y-59185333D02*
X97313761Y-59137714D01*
X97504238Y-59137714D01*
X97599476Y-59185333D01*
X97647095Y-59232952D01*
X97694714Y-59328190D01*
X97694714Y-59613904D01*
X97647095Y-59709142D01*
X97599476Y-59756761D01*
X97504238Y-59804380D01*
X97313761Y-59804380D01*
X97218523Y-59756761D01*
X98599476Y-58804380D02*
X98123285Y-58804380D01*
X98075666Y-59280571D01*
X98123285Y-59232952D01*
X98218523Y-59185333D01*
X98456619Y-59185333D01*
X98551857Y-59232952D01*
X98599476Y-59280571D01*
X98647095Y-59375809D01*
X98647095Y-59613904D01*
X98599476Y-59709142D01*
X98551857Y-59756761D01*
X98456619Y-59804380D01*
X98218523Y-59804380D01*
X98123285Y-59756761D01*
X98075666Y-59709142D01*
X166969761Y-90614333D02*
X167017380Y-90471476D01*
X167017380Y-90233380D01*
X166969761Y-90138142D01*
X166922142Y-90090523D01*
X166826904Y-90042904D01*
X166731666Y-90042904D01*
X166636428Y-90090523D01*
X166588809Y-90138142D01*
X166541190Y-90233380D01*
X166493571Y-90423857D01*
X166445952Y-90519095D01*
X166398333Y-90566714D01*
X166303095Y-90614333D01*
X166207857Y-90614333D01*
X166112619Y-90566714D01*
X166065000Y-90519095D01*
X166017380Y-90423857D01*
X166017380Y-90185761D01*
X166065000Y-90042904D01*
X166017380Y-89709571D02*
X167017380Y-89471476D01*
X166303095Y-89281000D01*
X167017380Y-89090523D01*
X166017380Y-88852428D01*
X166350714Y-88042904D02*
X167017380Y-88042904D01*
X165969761Y-88281000D02*
X166684047Y-88519095D01*
X166684047Y-87900047D01*
X115530380Y-84708904D02*
X116339904Y-84708904D01*
X116435142Y-84661285D01*
X116482761Y-84613666D01*
X116530380Y-84518428D01*
X116530380Y-84327952D01*
X116482761Y-84232714D01*
X116435142Y-84185095D01*
X116339904Y-84137476D01*
X115530380Y-84137476D01*
X115530380Y-83232714D02*
X115530380Y-83423190D01*
X115578000Y-83518428D01*
X115625619Y-83566047D01*
X115768476Y-83661285D01*
X115958952Y-83708904D01*
X116339904Y-83708904D01*
X116435142Y-83661285D01*
X116482761Y-83613666D01*
X116530380Y-83518428D01*
X116530380Y-83327952D01*
X116482761Y-83232714D01*
X116435142Y-83185095D01*
X116339904Y-83137476D01*
X116101809Y-83137476D01*
X116006571Y-83185095D01*
X115958952Y-83232714D01*
X115911333Y-83327952D01*
X115911333Y-83518428D01*
X115958952Y-83613666D01*
X116006571Y-83661285D01*
X116101809Y-83708904D01*
D11*
X109071000Y-43358000D02*
X112671000Y-43358000D01*
X112709478Y-43346478D02*
G75*
G03*
X110871000Y-38908000I-1838478J1838478D01*
G01*
X110871000Y-38907999D02*
G75*
G03*
X109032522Y-43346478I0J-2600001D01*
G01*
X93178000Y-43281000D02*
X103418000Y-43281000D01*
X100149000Y-38640000D02*
X100149000Y-40150000D01*
X103418000Y-38640000D02*
X103418000Y-43281000D01*
X93178000Y-38640000D02*
X93178000Y-43281000D01*
X96448000Y-38640000D02*
X96448000Y-40150000D01*
X93178000Y-40150000D02*
X103418000Y-40150000D01*
X93178000Y-38640000D02*
X103418000Y-38640000D01*
X103636000Y-88265000D02*
G75*
G03*
X103636000Y-88265000I-6100000J0D01*
G01*
X122406000Y-43379000D02*
X126006000Y-43379000D01*
X124206000Y-38928999D02*
G75*
G03*
X122367522Y-43367478I0J-2600001D01*
G01*
X126044478Y-43367478D02*
G75*
G03*
X124206000Y-38929000I-1838478J1838478D01*
G01*
X100679000Y-55472000D02*
X100679000Y-55142000D01*
X94139000Y-53062000D02*
X94139000Y-52732000D01*
X94139000Y-55142000D02*
X94139000Y-55472000D01*
X94139000Y-55472000D02*
X100679000Y-55472000D01*
X100679000Y-52732000D02*
X100679000Y-53062000D01*
X94139000Y-52732000D02*
X100679000Y-52732000D01*
D12*
X156526000Y-89559000D02*
X156026000Y-89559000D01*
X156526000Y-89559000D02*
X156526000Y-89059000D01*
X104226000Y-78009000D02*
X104726000Y-78009000D01*
X105586000Y-89559000D02*
X105586000Y-90359000D01*
X105186000Y-89559000D02*
X104226000Y-88599000D01*
X105186000Y-89559000D02*
X105586000Y-89559000D01*
X104226000Y-78009000D02*
X104226000Y-78509000D01*
X156526000Y-78009000D02*
X156026000Y-78009000D01*
X156526000Y-78009000D02*
X156526000Y-78509000D01*
X104226000Y-88599000D02*
X104226000Y-88339000D01*
D11*
X94139000Y-72112000D02*
X94139000Y-71782000D01*
X94139000Y-71782000D02*
X100679000Y-71782000D01*
X100679000Y-74522000D02*
X100679000Y-74192000D01*
X94139000Y-74522000D02*
X100679000Y-74522000D01*
X100679000Y-71782000D02*
X100679000Y-72112000D01*
X94139000Y-74192000D02*
X94139000Y-74522000D01*
X118261000Y-71596000D02*
X118591000Y-71596000D01*
X118591000Y-65056000D02*
X118261000Y-65056000D01*
X115851000Y-71596000D02*
X115851000Y-65056000D01*
X116181000Y-71596000D02*
X115851000Y-71596000D01*
X115851000Y-65056000D02*
X116181000Y-65056000D01*
X118591000Y-71596000D02*
X118591000Y-65056000D01*
X138711000Y-65056000D02*
X139041000Y-65056000D01*
X138711000Y-71596000D02*
X138711000Y-65056000D01*
X139041000Y-71596000D02*
X138711000Y-71596000D01*
X141451000Y-71596000D02*
X141451000Y-65056000D01*
X141451000Y-65056000D02*
X141121000Y-65056000D01*
X141121000Y-71596000D02*
X141451000Y-71596000D01*
X135741000Y-43358000D02*
X139341000Y-43358000D01*
X139379478Y-43346478D02*
G75*
G03*
X137541000Y-38908000I-1838478J1838478D01*
G01*
X137541000Y-38907999D02*
G75*
G03*
X135702522Y-43346478I0J-2600001D01*
G01*
X104017000Y-97385000D02*
X104017000Y-98885000D01*
X111017000Y-98885000D02*
X111017000Y-97385000D01*
X105267000Y-101385000D02*
X109767000Y-101385000D01*
X109767000Y-94885000D02*
X105267000Y-94885000D01*
X107161000Y-71596000D02*
X107161000Y-65056000D01*
X104421000Y-71596000D02*
X104421000Y-65056000D01*
X104421000Y-65056000D02*
X104751000Y-65056000D01*
X104751000Y-71596000D02*
X104421000Y-71596000D01*
X107161000Y-65056000D02*
X106831000Y-65056000D01*
X106831000Y-71596000D02*
X107161000Y-71596000D01*
X169684000Y-72334000D02*
X171184000Y-72334000D01*
X173684000Y-71084000D02*
X173684000Y-66584000D01*
X167184000Y-66584000D02*
X167184000Y-71084000D01*
X171184000Y-65334000D02*
X169684000Y-65334000D01*
X94139000Y-78002000D02*
X94139000Y-78332000D01*
X94139000Y-78332000D02*
X100679000Y-78332000D01*
X94139000Y-75922000D02*
X94139000Y-75592000D01*
X100679000Y-75592000D02*
X100679000Y-75922000D01*
X100679000Y-78332000D02*
X100679000Y-78002000D01*
X94139000Y-75592000D02*
X100679000Y-75592000D01*
X94139000Y-68302000D02*
X94139000Y-67972000D01*
X94139000Y-70382000D02*
X94139000Y-70712000D01*
X94139000Y-70712000D02*
X100679000Y-70712000D01*
X100679000Y-70712000D02*
X100679000Y-70382000D01*
X100679000Y-67972000D02*
X100679000Y-68302000D01*
X94139000Y-67972000D02*
X100679000Y-67972000D01*
X162411000Y-43358000D02*
X166011000Y-43358000D01*
X166049478Y-43346478D02*
G75*
G03*
X164211000Y-38908000I-1838478J1838478D01*
G01*
X164211000Y-38907999D02*
G75*
G03*
X162372522Y-43346478I0J-2600001D01*
G01*
X135231000Y-71596000D02*
X134901000Y-71596000D01*
X134901000Y-65056000D02*
X135231000Y-65056000D01*
X137641000Y-71596000D02*
X137641000Y-65056000D01*
X137641000Y-65056000D02*
X137311000Y-65056000D01*
X134901000Y-71596000D02*
X134901000Y-65056000D01*
X137311000Y-71596000D02*
X137641000Y-71596000D01*
X144479000Y-97155000D02*
G75*
G03*
X144479000Y-97155000I-2620000J0D01*
G01*
X182828000Y-86070000D02*
X182828000Y-81570000D01*
X176328000Y-81570000D02*
X176328000Y-86070000D01*
X178828000Y-87320000D02*
X180328000Y-87320000D01*
X180328000Y-80320000D02*
X178828000Y-80320000D01*
X149076000Y-43358000D02*
X152676000Y-43358000D01*
X150876000Y-38907999D02*
G75*
G03*
X149037522Y-43346478I0J-2600001D01*
G01*
X152714478Y-43346478D02*
G75*
G03*
X150876000Y-38908000I-1838478J1838478D01*
G01*
X121015400Y-47776800D02*
X121015400Y-53136200D01*
X121015400Y-53314000D02*
X121015400Y-58216200D01*
X116576000Y-43730000D02*
X116576000Y-62950000D01*
X129296000Y-43730000D02*
X129296000Y-62950000D01*
X121193200Y-53212400D02*
X124876200Y-53212400D01*
X121193200Y-47751400D02*
X124876200Y-47751400D01*
X117056000Y-63300000D02*
X118666000Y-63300000D01*
X125054000Y-47776800D02*
X125054000Y-53136200D01*
X125054000Y-53314000D02*
X125054000Y-58216200D01*
X121193200Y-58216200D02*
X124876200Y-58216200D01*
X116576000Y-62950000D02*
X129296000Y-62950000D01*
X116576000Y-43730000D02*
X129296000Y-43730000D01*
X126398467Y-58402467D02*
G75*
G03*
X126398467Y-58402467I-472467J0D01*
G01*
X114451000Y-71596000D02*
X114781000Y-71596000D01*
X112041000Y-65056000D02*
X112371000Y-65056000D01*
X114781000Y-71596000D02*
X114781000Y-65056000D01*
X112371000Y-71596000D02*
X112041000Y-71596000D01*
X114781000Y-65056000D02*
X114451000Y-65056000D01*
X112041000Y-71596000D02*
X112041000Y-65056000D01*
X134350400Y-47776800D02*
X134350400Y-53136200D01*
X134350400Y-53314000D02*
X134350400Y-58216200D01*
X134528200Y-58216200D02*
X138211200Y-58216200D01*
X130391000Y-63300000D02*
X132001000Y-63300000D01*
X134528200Y-47751400D02*
X138211200Y-47751400D01*
X142631000Y-43730000D02*
X142631000Y-62950000D01*
X129911000Y-43730000D02*
X142631000Y-43730000D01*
X138389000Y-47776800D02*
X138389000Y-53136200D01*
X134528200Y-53212400D02*
X138211200Y-53212400D01*
X129911000Y-43730000D02*
X129911000Y-62950000D01*
X138389000Y-53314000D02*
X138389000Y-58216200D01*
X129911000Y-62950000D02*
X142631000Y-62950000D01*
X139733467Y-58402467D02*
G75*
G03*
X139733467Y-58402467I-472467J0D01*
G01*
X94139000Y-66572000D02*
X94139000Y-66902000D01*
X94139000Y-64162000D02*
X100679000Y-64162000D01*
X100679000Y-66902000D02*
X100679000Y-66572000D01*
X94139000Y-66902000D02*
X100679000Y-66902000D01*
X100679000Y-64162000D02*
X100679000Y-64492000D01*
X94139000Y-64492000D02*
X94139000Y-64162000D01*
X174533200Y-58220700D02*
X178216200Y-58220700D01*
X178394000Y-47781300D02*
X178394000Y-53140700D01*
X170396000Y-63304500D02*
X172006000Y-63304500D01*
X174533200Y-47755900D02*
X178216200Y-47755900D01*
X174355400Y-53318500D02*
X174355400Y-58220700D01*
X169916000Y-43734500D02*
X182636000Y-43734500D01*
X169916000Y-43734500D02*
X169916000Y-62954500D01*
X174355400Y-47781300D02*
X174355400Y-53140700D01*
X169916000Y-62954500D02*
X182636000Y-62954500D01*
X174533200Y-53216900D02*
X178216200Y-53216900D01*
X182636000Y-43734500D02*
X182636000Y-62954500D01*
X178394000Y-53318500D02*
X178394000Y-58220700D01*
X179738467Y-58406967D02*
G75*
G03*
X179738467Y-58406967I-472467J0D01*
G01*
X126211000Y-65056000D02*
X125881000Y-65056000D01*
X125881000Y-71596000D02*
X126211000Y-71596000D01*
X126211000Y-71596000D02*
X126211000Y-65056000D01*
X123471000Y-71596000D02*
X123471000Y-65056000D01*
X123471000Y-65056000D02*
X123801000Y-65056000D01*
X123801000Y-71596000D02*
X123471000Y-71596000D01*
X175746000Y-43379000D02*
X179346000Y-43379000D01*
X179384478Y-43367478D02*
G75*
G03*
X177546000Y-38929000I-1838478J1838478D01*
G01*
X177546000Y-38928999D02*
G75*
G03*
X175707522Y-43367478I0J-2600001D01*
G01*
X158675000Y-66584000D02*
X158675000Y-71084000D01*
X162675000Y-65334000D02*
X161175000Y-65334000D01*
X161175000Y-72334000D02*
X162675000Y-72334000D01*
X165175000Y-71084000D02*
X165175000Y-66584000D01*
X100482888Y-98510000D02*
X100482888Y-99864000D01*
X97961888Y-100227000D02*
X97961888Y-101767000D01*
X98762888Y-100227000D02*
X98762888Y-101642000D01*
X99282888Y-96963000D02*
X99282888Y-98147000D01*
X99242888Y-100227000D02*
X99242888Y-101434000D01*
X99922888Y-97488000D02*
X99922888Y-98147000D01*
X100082888Y-97687000D02*
X100082888Y-100687000D01*
X99842888Y-97402000D02*
X99842888Y-98147000D01*
X98201888Y-100227000D02*
X98201888Y-101756000D01*
X99642888Y-97216000D02*
X99642888Y-98147000D01*
X100402888Y-98272000D02*
X100402888Y-100102000D01*
X98842888Y-100227000D02*
X98842888Y-101615000D01*
X98882888Y-100227000D02*
X98882888Y-101601000D01*
X99882888Y-100227000D02*
X99882888Y-100930000D01*
X99282888Y-100227000D02*
X99282888Y-101411000D01*
X98922888Y-100227000D02*
X98922888Y-101585000D01*
X100202888Y-97868000D02*
X100202888Y-100506000D01*
X98001888Y-100227000D02*
X98001888Y-101767000D01*
X100442888Y-98382000D02*
X100442888Y-99992000D01*
X98081888Y-96609000D02*
X98081888Y-98147000D01*
X99602888Y-97183000D02*
X99602888Y-98147000D01*
X100122888Y-97744000D02*
X100122888Y-100630000D01*
X98361888Y-96637000D02*
X98361888Y-98147000D01*
X99362888Y-100227000D02*
X99362888Y-101362000D01*
X98722888Y-100227000D02*
X98722888Y-101655000D01*
X99242888Y-96940000D02*
X99242888Y-98147000D01*
X98201888Y-96618000D02*
X98201888Y-98147000D01*
X98882888Y-96773000D02*
X98882888Y-98147000D01*
X100162888Y-97804000D02*
X100162888Y-100570000D01*
X98962888Y-96805000D02*
X98962888Y-98147000D01*
X98762888Y-96732000D02*
X98762888Y-98147000D01*
X99642888Y-100227000D02*
X99642888Y-101158000D01*
X98401888Y-96644000D02*
X98401888Y-98147000D01*
X98722888Y-96719000D02*
X98722888Y-98147000D01*
X98081888Y-100227000D02*
X98081888Y-101765000D01*
X100042888Y-97633000D02*
X100042888Y-100741000D01*
X98041888Y-96608000D02*
X98041888Y-98147000D01*
X99082888Y-100227000D02*
X99082888Y-101516000D01*
X100362888Y-98176000D02*
X100362888Y-100198000D01*
X98521888Y-100227000D02*
X98521888Y-101707000D01*
X98922888Y-96789000D02*
X98922888Y-98147000D01*
X99962888Y-100227000D02*
X99962888Y-100840000D01*
X98601888Y-100227000D02*
X98601888Y-101688000D01*
X99162888Y-96897000D02*
X99162888Y-98147000D01*
X98441888Y-96651000D02*
X98441888Y-98147000D01*
X98241888Y-96622000D02*
X98241888Y-98147000D01*
X100322888Y-98089000D02*
X100322888Y-100285000D01*
X98561888Y-100227000D02*
X98561888Y-101698000D01*
X98441888Y-100227000D02*
X98441888Y-101723000D01*
X98281888Y-96626000D02*
X98281888Y-98147000D01*
X98321888Y-96631000D02*
X98321888Y-98147000D01*
X99482888Y-97092000D02*
X99482888Y-98147000D01*
X99882888Y-97444000D02*
X99882888Y-98147000D01*
X99002888Y-100227000D02*
X99002888Y-101552000D01*
X100562888Y-98903000D02*
X100562888Y-99471000D01*
X99202888Y-96919000D02*
X99202888Y-98147000D01*
X99722888Y-97286000D02*
X99722888Y-98147000D01*
X98641888Y-100227000D02*
X98641888Y-101678000D01*
X99482888Y-100227000D02*
X99482888Y-101282000D01*
X99722888Y-100227000D02*
X99722888Y-101088000D01*
X98962888Y-100227000D02*
X98962888Y-101569000D01*
X100002888Y-97582000D02*
X100002888Y-100792000D01*
X98401888Y-100227000D02*
X98401888Y-101730000D01*
X98521888Y-96667000D02*
X98521888Y-98147000D01*
X99002888Y-96822000D02*
X99002888Y-98147000D01*
X98361888Y-100227000D02*
X98361888Y-101737000D01*
X99402888Y-97038000D02*
X99402888Y-98147000D01*
X99122888Y-96877000D02*
X99122888Y-98147000D01*
X98802888Y-100227000D02*
X98802888Y-101629000D01*
X97961888Y-96607000D02*
X97961888Y-98147000D01*
X99602888Y-100227000D02*
X99602888Y-101191000D01*
X99322888Y-96987000D02*
X99322888Y-98147000D01*
X98121888Y-100227000D02*
X98121888Y-101763000D01*
X98802888Y-96745000D02*
X98802888Y-98147000D01*
X98601888Y-96686000D02*
X98601888Y-98147000D01*
X99762888Y-100227000D02*
X99762888Y-101051000D01*
X99322888Y-100227000D02*
X99322888Y-101387000D01*
X98561888Y-96676000D02*
X98561888Y-98147000D01*
X99202888Y-100227000D02*
X99202888Y-101455000D01*
X95407113Y-97462000D02*
X95407113Y-97962000D01*
X99402888Y-100227000D02*
X99402888Y-101336000D01*
X98682888Y-100227000D02*
X98682888Y-101667000D01*
X99682888Y-100227000D02*
X99682888Y-101124000D01*
X98001888Y-96607000D02*
X98001888Y-98147000D01*
X98481888Y-100227000D02*
X98481888Y-101715000D01*
X99562888Y-100227000D02*
X99562888Y-101222000D01*
X98241888Y-100227000D02*
X98241888Y-101752000D01*
X99042888Y-96839000D02*
X99042888Y-98147000D01*
X98041888Y-100227000D02*
X98041888Y-101766000D01*
X98281888Y-100227000D02*
X98281888Y-101748000D01*
X99122888Y-100227000D02*
X99122888Y-101497000D01*
X98682888Y-96707000D02*
X98682888Y-98147000D01*
X99802888Y-100227000D02*
X99802888Y-101013000D01*
X99922888Y-100227000D02*
X99922888Y-100886000D01*
X99842888Y-100227000D02*
X99842888Y-100972000D01*
X99562888Y-97152000D02*
X99562888Y-98147000D01*
X98321888Y-100227000D02*
X98321888Y-101743000D01*
X98842888Y-96759000D02*
X98842888Y-98147000D01*
X100522888Y-98669000D02*
X100522888Y-99705000D01*
X98121888Y-96611000D02*
X98121888Y-98147000D01*
X99962888Y-97534000D02*
X99962888Y-98147000D01*
X99442888Y-97065000D02*
X99442888Y-98147000D01*
X99522888Y-100227000D02*
X99522888Y-101252000D01*
X99362888Y-97012000D02*
X99362888Y-98147000D01*
X99442888Y-100227000D02*
X99442888Y-101309000D01*
X99042888Y-100227000D02*
X99042888Y-101535000D01*
X98481888Y-96659000D02*
X98481888Y-98147000D01*
X99162888Y-100227000D02*
X99162888Y-101477000D01*
X99082888Y-96858000D02*
X99082888Y-98147000D01*
X100282888Y-98009000D02*
X100282888Y-100365000D01*
X99762888Y-97323000D02*
X99762888Y-98147000D01*
X99802888Y-97361000D02*
X99802888Y-98147000D01*
X99522888Y-97122000D02*
X99522888Y-98147000D01*
X98161888Y-100227000D02*
X98161888Y-101760000D01*
X98161888Y-96614000D02*
X98161888Y-98147000D01*
X95157113Y-97712000D02*
X95657113Y-97712000D01*
X99682888Y-97250000D02*
X99682888Y-98147000D01*
X98641888Y-96696000D02*
X98641888Y-98147000D01*
X100242888Y-97936000D02*
X100242888Y-100438000D01*
X100581888Y-99187000D02*
G75*
G03*
X100581888Y-99187000I-2620000J0D01*
G01*
X94139000Y-56872000D02*
X94139000Y-56542000D01*
X94139000Y-59282000D02*
X100679000Y-59282000D01*
X100679000Y-59282000D02*
X100679000Y-58952000D01*
X94139000Y-56542000D02*
X100679000Y-56542000D01*
X94139000Y-58952000D02*
X94139000Y-59282000D01*
X100679000Y-56542000D02*
X100679000Y-56872000D01*
X131091000Y-71596000D02*
X131091000Y-65056000D01*
X133501000Y-71596000D02*
X133831000Y-71596000D01*
X133831000Y-65056000D02*
X133501000Y-65056000D01*
X131421000Y-71596000D02*
X131091000Y-71596000D01*
X131091000Y-65056000D02*
X131421000Y-65056000D01*
X133831000Y-71596000D02*
X133831000Y-65056000D01*
X173938000Y-81498000D02*
X173938000Y-76998000D01*
X169938000Y-82748000D02*
X171438000Y-82748000D01*
X171438000Y-75748000D02*
X169938000Y-75748000D01*
X167438000Y-76998000D02*
X167438000Y-81498000D01*
X146661000Y-71596000D02*
X146331000Y-71596000D01*
X148741000Y-71596000D02*
X149071000Y-71596000D01*
X146331000Y-71596000D02*
X146331000Y-65056000D01*
X149071000Y-65056000D02*
X148741000Y-65056000D01*
X149071000Y-71596000D02*
X149071000Y-65056000D01*
X146331000Y-65056000D02*
X146661000Y-65056000D01*
X150471000Y-71596000D02*
X150141000Y-71596000D01*
X150141000Y-65056000D02*
X150471000Y-65056000D01*
X152551000Y-71596000D02*
X152881000Y-71596000D01*
X152881000Y-65056000D02*
X152551000Y-65056000D01*
X152881000Y-71596000D02*
X152881000Y-65056000D01*
X150141000Y-71596000D02*
X150141000Y-65056000D01*
X117088888Y-95091112D02*
X117088888Y-96086112D01*
X112683113Y-95651112D02*
X113183113Y-95651112D01*
X116127888Y-98166112D02*
X116127888Y-99627112D01*
X117368888Y-95341112D02*
X117368888Y-96086112D01*
X117688888Y-95743112D02*
X117688888Y-98509112D01*
X115607888Y-94548112D02*
X115607888Y-96086112D01*
X116007888Y-94598112D02*
X116007888Y-96086112D01*
X117008888Y-98166112D02*
X117008888Y-99221112D01*
X117128888Y-95122112D02*
X117128888Y-96086112D01*
X115487888Y-94546112D02*
X115487888Y-96086112D01*
X116408888Y-98166112D02*
X116408888Y-99540112D01*
X115727888Y-98166112D02*
X115727888Y-99695112D01*
X116248888Y-98166112D02*
X116248888Y-99594112D01*
X116528888Y-98166112D02*
X116528888Y-99491112D01*
X116648888Y-98166112D02*
X116648888Y-99436112D01*
X117728888Y-95807112D02*
X117728888Y-98445112D01*
X115807888Y-94565112D02*
X115807888Y-96086112D01*
X116808888Y-94902112D02*
X116808888Y-96086112D01*
X115767888Y-98166112D02*
X115767888Y-99691112D01*
X116288888Y-98166112D02*
X116288888Y-99581112D01*
X117888888Y-96115112D02*
X117888888Y-98137112D01*
X117288888Y-98166112D02*
X117288888Y-98990112D01*
X115927888Y-98166112D02*
X115927888Y-99669112D01*
X116888888Y-94951112D02*
X116888888Y-96086112D01*
X116488888Y-94744112D02*
X116488888Y-96086112D01*
X115887888Y-94576112D02*
X115887888Y-96086112D01*
X117168888Y-98166112D02*
X117168888Y-99097112D01*
X115527888Y-94546112D02*
X115527888Y-96086112D01*
X116568888Y-94778112D02*
X116568888Y-96086112D01*
X116648888Y-94816112D02*
X116648888Y-96086112D01*
X115767888Y-94561112D02*
X115767888Y-96086112D01*
X116928888Y-98166112D02*
X116928888Y-99275112D01*
X115487888Y-98166112D02*
X115487888Y-99706112D01*
X116328888Y-94684112D02*
X116328888Y-96086112D01*
X116047888Y-98166112D02*
X116047888Y-99646112D01*
X117608888Y-95626112D02*
X117608888Y-98626112D01*
X117488888Y-98166112D02*
X117488888Y-98779112D01*
X115967888Y-94590112D02*
X115967888Y-96086112D01*
X116087888Y-94615112D02*
X116087888Y-96086112D01*
X115727888Y-94557112D02*
X115727888Y-96086112D01*
X116968888Y-95004112D02*
X116968888Y-96086112D01*
X112933113Y-95401112D02*
X112933113Y-95901112D01*
X116608888Y-98166112D02*
X116608888Y-99455112D01*
X115567888Y-98166112D02*
X115567888Y-99705112D01*
X116208888Y-94646112D02*
X116208888Y-96086112D01*
X116968888Y-98166112D02*
X116968888Y-99248112D01*
X115647888Y-94550112D02*
X115647888Y-96086112D01*
X117208888Y-98166112D02*
X117208888Y-99063112D01*
X118048888Y-96608112D02*
X118048888Y-97644112D01*
X117448888Y-98166112D02*
X117448888Y-98825112D01*
X117208888Y-95189112D02*
X117208888Y-96086112D01*
X117048888Y-98166112D02*
X117048888Y-99191112D01*
X117528888Y-95521112D02*
X117528888Y-98731112D01*
X115527888Y-98166112D02*
X115527888Y-99706112D01*
X116087888Y-98166112D02*
X116087888Y-99637112D01*
X117248888Y-98166112D02*
X117248888Y-99027112D01*
X115887888Y-98166112D02*
X115887888Y-99676112D01*
X117848888Y-96028112D02*
X117848888Y-98224112D01*
X115967888Y-98166112D02*
X115967888Y-99662112D01*
X117328888Y-95300112D02*
X117328888Y-96086112D01*
X116047888Y-94606112D02*
X116047888Y-96086112D01*
X117408888Y-95383112D02*
X117408888Y-96086112D01*
X117008888Y-95031112D02*
X117008888Y-96086112D01*
X116368888Y-94698112D02*
X116368888Y-96086112D01*
X117048888Y-95061112D02*
X117048888Y-96086112D01*
X116848888Y-98166112D02*
X116848888Y-99326112D01*
X116448888Y-98166112D02*
X116448888Y-99524112D01*
X117328888Y-98166112D02*
X117328888Y-98952112D01*
X115927888Y-94583112D02*
X115927888Y-96086112D01*
X116768888Y-94879112D02*
X116768888Y-96086112D01*
X116167888Y-98166112D02*
X116167888Y-99617112D01*
X116208888Y-98166112D02*
X116208888Y-99606112D01*
X116688888Y-94836112D02*
X116688888Y-96086112D01*
X117568888Y-95572112D02*
X117568888Y-98680112D01*
X116568888Y-98166112D02*
X116568888Y-99474112D01*
X117648888Y-95683112D02*
X117648888Y-98569112D01*
X117288888Y-95262112D02*
X117288888Y-96086112D01*
X116728888Y-94858112D02*
X116728888Y-96086112D01*
X115687888Y-98166112D02*
X115687888Y-99699112D01*
X117488888Y-95473112D02*
X117488888Y-96086112D01*
X116728888Y-98166112D02*
X116728888Y-99394112D01*
X115807888Y-98166112D02*
X115807888Y-99687112D01*
X116448888Y-94728112D02*
X116448888Y-96086112D01*
X116528888Y-94761112D02*
X116528888Y-96086112D01*
X118088888Y-96842112D02*
X118088888Y-97410112D01*
X116888888Y-98166112D02*
X116888888Y-99301112D01*
X117968888Y-96321112D02*
X117968888Y-97931112D01*
X116688888Y-98166112D02*
X116688888Y-99416112D01*
X116248888Y-94658112D02*
X116248888Y-96086112D01*
X117088888Y-98166112D02*
X117088888Y-99161112D01*
X116328888Y-98166112D02*
X116328888Y-99568112D01*
X116848888Y-94926112D02*
X116848888Y-96086112D01*
X118008888Y-96449112D02*
X118008888Y-97803112D01*
X115687888Y-94553112D02*
X115687888Y-96086112D01*
X117808888Y-95948112D02*
X117808888Y-98304112D01*
X116408888Y-94712112D02*
X116408888Y-96086112D01*
X116288888Y-94671112D02*
X116288888Y-96086112D01*
X117448888Y-95427112D02*
X117448888Y-96086112D01*
X117768888Y-95875112D02*
X117768888Y-98377112D01*
X117408888Y-98166112D02*
X117408888Y-98869112D01*
X117168888Y-95155112D02*
X117168888Y-96086112D01*
X116488888Y-98166112D02*
X116488888Y-99508112D01*
X116167888Y-94635112D02*
X116167888Y-96086112D01*
X115607888Y-98166112D02*
X115607888Y-99704112D01*
X117128888Y-98166112D02*
X117128888Y-99130112D01*
X116768888Y-98166112D02*
X116768888Y-99373112D01*
X117928888Y-96211112D02*
X117928888Y-98041112D01*
X115847888Y-94570112D02*
X115847888Y-96086112D01*
X115647888Y-98166112D02*
X115647888Y-99702112D01*
X116007888Y-98166112D02*
X116007888Y-99654112D01*
X116608888Y-94797112D02*
X116608888Y-96086112D01*
X116127888Y-94625112D02*
X116127888Y-96086112D01*
X116928888Y-94977112D02*
X116928888Y-96086112D01*
X116808888Y-98166112D02*
X116808888Y-99350112D01*
X116368888Y-98166112D02*
X116368888Y-99554112D01*
X115567888Y-94547112D02*
X115567888Y-96086112D01*
X117248888Y-95225112D02*
X117248888Y-96086112D01*
X115847888Y-98166112D02*
X115847888Y-99682112D01*
X117368888Y-98166112D02*
X117368888Y-98911112D01*
X118107888Y-97126112D02*
G75*
G03*
X118107888Y-97126112I-2620000J0D01*
G01*
X154011000Y-94503000D02*
X147761000Y-94503000D01*
X154011000Y-99553000D02*
X147761000Y-99553000D01*
X147761000Y-94503000D02*
G75*
G03*
X147761000Y-99553000I0J-2525000D01*
G01*
X154011000Y-99553000D02*
G75*
G03*
X154011000Y-94503000I0J2525000D01*
G01*
X94139000Y-49252000D02*
X94139000Y-48922000D01*
X94139000Y-51332000D02*
X94139000Y-51662000D01*
X100679000Y-48922000D02*
X100679000Y-49252000D01*
X94139000Y-51662000D02*
X100679000Y-51662000D01*
X94139000Y-48922000D02*
X100679000Y-48922000D01*
X100679000Y-51662000D02*
X100679000Y-51332000D01*
X137179000Y-98758000D02*
X137179000Y-97258000D01*
X131429000Y-101258000D02*
X135929000Y-101258000D01*
X135929000Y-94758000D02*
X131429000Y-94758000D01*
X130179000Y-97258000D02*
X130179000Y-98758000D01*
X108561000Y-71596000D02*
X108231000Y-71596000D01*
X110971000Y-71596000D02*
X110971000Y-65056000D01*
X108231000Y-65056000D02*
X108561000Y-65056000D01*
X110971000Y-65056000D02*
X110641000Y-65056000D01*
X108231000Y-71596000D02*
X108231000Y-65056000D01*
X110641000Y-71596000D02*
X110971000Y-71596000D01*
X161556000Y-87193000D02*
X163056000Y-87193000D01*
X163056000Y-80193000D02*
X161556000Y-80193000D01*
X159056000Y-81443000D02*
X159056000Y-85943000D01*
X165556000Y-85943000D02*
X165556000Y-81443000D01*
X162402000Y-97028000D02*
G75*
G03*
X162402000Y-97028000I-2620000J0D01*
G01*
X145261000Y-65056000D02*
X144931000Y-65056000D01*
X142521000Y-71596000D02*
X142521000Y-65056000D01*
X144931000Y-71596000D02*
X145261000Y-71596000D01*
X142521000Y-65056000D02*
X142851000Y-65056000D01*
X145261000Y-71596000D02*
X145261000Y-65056000D01*
X142851000Y-71596000D02*
X142521000Y-71596000D01*
X130021000Y-71596000D02*
X130021000Y-65056000D01*
X127281000Y-65056000D02*
X127611000Y-65056000D01*
X129691000Y-71596000D02*
X130021000Y-71596000D01*
X130021000Y-65056000D02*
X129691000Y-65056000D01*
X127611000Y-71596000D02*
X127281000Y-71596000D01*
X127281000Y-71596000D02*
X127281000Y-65056000D01*
X151724000Y-47776800D02*
X151724000Y-53136200D01*
X147685400Y-47776800D02*
X147685400Y-53136200D01*
X143246000Y-43730000D02*
X143246000Y-62950000D01*
X147863200Y-58216200D02*
X151546200Y-58216200D01*
X147863200Y-47751400D02*
X151546200Y-47751400D01*
X151724000Y-53314000D02*
X151724000Y-58216200D01*
X155966000Y-43730000D02*
X155966000Y-62950000D01*
X143726000Y-63300000D02*
X145336000Y-63300000D01*
X147863200Y-53212400D02*
X151546200Y-53212400D01*
X147685400Y-53314000D02*
X147685400Y-58216200D01*
X143246000Y-43730000D02*
X155966000Y-43730000D01*
X143246000Y-62950000D02*
X155966000Y-62950000D01*
X153068467Y-58402467D02*
G75*
G03*
X153068467Y-58402467I-472467J0D01*
G01*
X156691000Y-71596000D02*
X156691000Y-65056000D01*
X153951000Y-71596000D02*
X153951000Y-65056000D01*
X153951000Y-65056000D02*
X154281000Y-65056000D01*
X156691000Y-65056000D02*
X156361000Y-65056000D01*
X156361000Y-71596000D02*
X156691000Y-71596000D01*
X154281000Y-71596000D02*
X153951000Y-71596000D01*
X126714000Y-98166112D02*
X126714000Y-98496112D01*
X126714000Y-95756112D02*
X120174000Y-95756112D01*
X126714000Y-98496112D02*
X120174000Y-98496112D01*
X120174000Y-98496112D02*
X120174000Y-98166112D01*
X126714000Y-96086112D02*
X126714000Y-95756112D01*
X120174000Y-95756112D02*
X120174000Y-96086112D01*
X161020400Y-47776800D02*
X161020400Y-53136200D01*
X156581000Y-62950000D02*
X169301000Y-62950000D01*
X161020400Y-53314000D02*
X161020400Y-58216200D01*
X161198200Y-53212400D02*
X164881200Y-53212400D01*
X169301000Y-43730000D02*
X169301000Y-62950000D01*
X156581000Y-43730000D02*
X156581000Y-62950000D01*
X156581000Y-43730000D02*
X169301000Y-43730000D01*
X157061000Y-63300000D02*
X158671000Y-63300000D01*
X161198200Y-47751400D02*
X164881200Y-47751400D01*
X165059000Y-53314000D02*
X165059000Y-58216200D01*
X161198200Y-58216200D02*
X164881200Y-58216200D01*
X165059000Y-47776800D02*
X165059000Y-53136200D01*
X166403467Y-58402467D02*
G75*
G03*
X166403467Y-58402467I-472467J0D01*
G01*
X122071000Y-71596000D02*
X122401000Y-71596000D01*
X119661000Y-65056000D02*
X119991000Y-65056000D01*
X122401000Y-71596000D02*
X122401000Y-65056000D01*
X122401000Y-65056000D02*
X122071000Y-65056000D01*
X119991000Y-71596000D02*
X119661000Y-71596000D01*
X119661000Y-71596000D02*
X119661000Y-65056000D01*
X100679000Y-63092000D02*
X100679000Y-62762000D01*
X94139000Y-63092000D02*
X100679000Y-63092000D01*
X94139000Y-60352000D02*
X100679000Y-60352000D01*
X94139000Y-62762000D02*
X94139000Y-63092000D01*
X100679000Y-60352000D02*
X100679000Y-60682000D01*
X94139000Y-60682000D02*
X94139000Y-60352000D01*
X167565000Y-87031000D02*
X167565000Y-91531000D01*
X170065000Y-92781000D02*
X171565000Y-92781000D01*
X171565000Y-85781000D02*
X170065000Y-85781000D01*
X174065000Y-91531000D02*
X174065000Y-87031000D01*
X107858200Y-47755900D02*
X111541200Y-47755900D01*
X103241000Y-43734500D02*
X103241000Y-62954500D01*
X103721000Y-63304500D02*
X105331000Y-63304500D01*
X115961000Y-43734500D02*
X115961000Y-62954500D01*
X111719000Y-53318500D02*
X111719000Y-58220700D01*
X107680400Y-53318500D02*
X107680400Y-58220700D01*
X107858200Y-53216900D02*
X111541200Y-53216900D01*
X107680400Y-47781300D02*
X107680400Y-53140700D01*
X103241000Y-43734500D02*
X115961000Y-43734500D01*
X107858200Y-58220700D02*
X111541200Y-58220700D01*
X103241000Y-62954500D02*
X115961000Y-62954500D01*
X111719000Y-47781300D02*
X111719000Y-53140700D01*
X113063467Y-58406967D02*
G75*
G03*
X113063467Y-58406967I-472467J0D01*
G01*
%LPC*%
D13*
X109601000Y-41508000D03*
D14*
X110871000Y-41508000D03*
X112141000Y-41508000D03*
D15*
X95758000Y-41910000D03*
D16*
X98298000Y-41910000D03*
X100838000Y-41910000D03*
D17*
X93736000Y-88265000D03*
D18*
X101336000Y-88265000D03*
D13*
X122936000Y-41529000D03*
D14*
X124206000Y-41529000D03*
X125476000Y-41529000D03*
D19*
X93599000Y-54102000D03*
D20*
X101219000Y-54102000D03*
D19*
X106426000Y-91059000D03*
X108966000Y-91059000D03*
X111506000Y-91059000D03*
X114046000Y-91059000D03*
X116586000Y-91059000D03*
X119126000Y-91059000D03*
X121666000Y-91059000D03*
X124206000Y-91059000D03*
X126746000Y-91059000D03*
X129286000Y-91059000D03*
X131826000Y-91059000D03*
X134366000Y-91059000D03*
X136906000Y-91059000D03*
X139446000Y-91059000D03*
X141986000Y-91059000D03*
X144526000Y-91059000D03*
X147066000Y-91059000D03*
X149606000Y-91059000D03*
X152146000Y-91059000D03*
X154686000Y-91059000D03*
X154686000Y-75819000D03*
X152146000Y-75819000D03*
X149606000Y-75819000D03*
X147066000Y-75819000D03*
X144526000Y-75819000D03*
X141986000Y-75819000D03*
X139446000Y-75819000D03*
X136906000Y-75819000D03*
X134366000Y-75819000D03*
X131826000Y-75819000D03*
X129286000Y-75819000D03*
X126746000Y-75819000D03*
X124206000Y-75819000D03*
X121666000Y-75819000D03*
X119126000Y-75819000D03*
X116586000Y-75819000D03*
X114046000Y-75819000D03*
X111506000Y-75819000D03*
X108966000Y-75819000D03*
X106426000Y-75819000D03*
X93599000Y-73152000D03*
D20*
X101219000Y-73152000D03*
D19*
X117221000Y-72136000D03*
D20*
X117221000Y-64516000D03*
D19*
X140081000Y-72136000D03*
D20*
X140081000Y-64516000D03*
D13*
X136271000Y-41508000D03*
D14*
X137541000Y-41508000D03*
X138811000Y-41508000D03*
D18*
X110767000Y-100385000D03*
X104267000Y-100385000D03*
X110767000Y-95885000D03*
X104267000Y-95885000D03*
D19*
X105791000Y-72136000D03*
D20*
X105791000Y-64516000D03*
D18*
X168184000Y-72084000D03*
X168184000Y-65584000D03*
X172684000Y-72084000D03*
X172684000Y-65584000D03*
D19*
X93599000Y-76962000D03*
D20*
X101219000Y-76962000D03*
D19*
X93599000Y-69342000D03*
D20*
X101219000Y-69342000D03*
D13*
X162941000Y-41508000D03*
D14*
X164211000Y-41508000D03*
X165481000Y-41508000D03*
D19*
X136271000Y-72136000D03*
D20*
X136271000Y-64516000D03*
D21*
X140859000Y-97155000D03*
X142859000Y-97155000D03*
D18*
X177328000Y-80570000D03*
X177328000Y-87070000D03*
X181828000Y-87070000D03*
X181828000Y-80570000D03*
D13*
X149606000Y-41508000D03*
D14*
X150876000Y-41508000D03*
X152146000Y-41508000D03*
D22*
X117856000Y-60960000D03*
D19*
X120396000Y-60960000D03*
X122936000Y-60960000D03*
X125476000Y-60960000D03*
X128016000Y-60960000D03*
X128016000Y-45720000D03*
X125476000Y-45720000D03*
X122936000Y-45720000D03*
X120396000Y-45720000D03*
X117856000Y-45720000D03*
X113411000Y-72136000D03*
D20*
X113411000Y-64516000D03*
D22*
X131191000Y-60960000D03*
D19*
X133731000Y-60960000D03*
X136271000Y-60960000D03*
X138811000Y-60960000D03*
X141351000Y-60960000D03*
X141351000Y-45720000D03*
X138811000Y-45720000D03*
X136271000Y-45720000D03*
X133731000Y-45720000D03*
X131191000Y-45720000D03*
X93599000Y-65532000D03*
D20*
X101219000Y-65532000D03*
D22*
X171196000Y-60964500D03*
D19*
X173736000Y-60964500D03*
X176276000Y-60964500D03*
X178816000Y-60964500D03*
X181356000Y-60964500D03*
X181356000Y-45724500D03*
X178816000Y-45724500D03*
X176276000Y-45724500D03*
X173736000Y-45724500D03*
X171196000Y-45724500D03*
X124841000Y-72136000D03*
D20*
X124841000Y-64516000D03*
D13*
X176276000Y-41529000D03*
D14*
X177546000Y-41529000D03*
X178816000Y-41529000D03*
D18*
X159675000Y-72084000D03*
X159675000Y-65584000D03*
X164175000Y-65584000D03*
X164175000Y-72084000D03*
D22*
X96961888Y-99187000D03*
D19*
X98961888Y-99187000D03*
X93599000Y-57912000D03*
D20*
X101219000Y-57912000D03*
D19*
X132461000Y-72136000D03*
D20*
X132461000Y-64516000D03*
D18*
X168438000Y-82498000D03*
X168438000Y-75998000D03*
X172938000Y-75998000D03*
X172938000Y-82498000D03*
D19*
X147701000Y-72136000D03*
D20*
X147701000Y-64516000D03*
D19*
X151511000Y-72136000D03*
D20*
X151511000Y-64516000D03*
D22*
X114487888Y-97126112D03*
D19*
X116487888Y-97126112D03*
D23*
X153326000Y-97028000D03*
X148446000Y-97028000D03*
D19*
X93599000Y-50292000D03*
D20*
X101219000Y-50292000D03*
D18*
X130429000Y-100258000D03*
X136929000Y-100258000D03*
X136929000Y-95758000D03*
X130429000Y-95758000D03*
D19*
X109601000Y-72136000D03*
D20*
X109601000Y-64516000D03*
D18*
X164556000Y-86943000D03*
X164556000Y-80443000D03*
X160056000Y-80443000D03*
X160056000Y-86943000D03*
D21*
X160782000Y-97028000D03*
X158782000Y-97028000D03*
D19*
X143891000Y-72136000D03*
D20*
X143891000Y-64516000D03*
D19*
X128651000Y-72136000D03*
D20*
X128651000Y-64516000D03*
D22*
X144526000Y-60960000D03*
D19*
X147066000Y-60960000D03*
X149606000Y-60960000D03*
X152146000Y-60960000D03*
X154686000Y-60960000D03*
X154686000Y-45720000D03*
X152146000Y-45720000D03*
X149606000Y-45720000D03*
X147066000Y-45720000D03*
X144526000Y-45720000D03*
X155321000Y-72136000D03*
D20*
X155321000Y-64516000D03*
D19*
X127254000Y-97126112D03*
D20*
X119634000Y-97126112D03*
D22*
X157861000Y-60960000D03*
D19*
X160401000Y-60960000D03*
X162941000Y-60960000D03*
X165481000Y-60960000D03*
X168021000Y-60960000D03*
X168021000Y-45720000D03*
X165481000Y-45720000D03*
X162941000Y-45720000D03*
X160401000Y-45720000D03*
X157861000Y-45720000D03*
X121031000Y-72136000D03*
D20*
X121031000Y-64516000D03*
D19*
X93599000Y-61722000D03*
D20*
X101219000Y-61722000D03*
D18*
X168565000Y-86031000D03*
X168565000Y-92531000D03*
X173065000Y-92531000D03*
X173065000Y-86031000D03*
D22*
X104521000Y-60964500D03*
D19*
X107061000Y-60964500D03*
X109601000Y-60964500D03*
X112141000Y-60964500D03*
X114681000Y-60964500D03*
X114681000Y-45724500D03*
X112141000Y-45724500D03*
X109601000Y-45724500D03*
X107061000Y-45724500D03*
X104521000Y-45724500D03*
M02*
