%TF.GenerationSoftware,KiCad,Pcbnew,(6.0.8)*%
%TF.CreationDate,2022-12-10T22:36:02+05:30*%
%TF.ProjectId,digclock,64696763-6c6f-4636-9b2e-6b696361645f,rev?*%
%TF.SameCoordinates,Original*%
%TF.FileFunction,Drillmap*%
%TF.FilePolarity,Positive*%
%FSLAX45Y45*%
G04 Gerber Fmt 4.5, Leading zero omitted, Abs format (unit mm)*
G04 Created by KiCad (PCBNEW (6.0.8)) date 2022-12-10 22:36:02*
%MOMM*%
%LPD*%
G01*
G04 APERTURE LIST*
%ADD10C,0.100000*%
%ADD11C,0.200000*%
G04 APERTURE END LIST*
D10*
X9347200Y-4622800D02*
G75*
G03*
X9347200Y-4622800I-152400J0D01*
G01*
X17932400Y-9906000D02*
G75*
G03*
X17932400Y-9906000I-152400J0D01*
G01*
X8817000Y-3683000D02*
X18517000Y-3683000D01*
X8817000Y-10383000D02*
X18517000Y-10383000D01*
X18517000Y-3683000D02*
X18517000Y-10383000D01*
X8817000Y-10383000D02*
X8817000Y-3683000D01*
D11*
X9069619Y-10698476D02*
X9069619Y-10498476D01*
X9117238Y-10498476D01*
X9145810Y-10508000D01*
X9164857Y-10527048D01*
X9174381Y-10546095D01*
X9183905Y-10584190D01*
X9183905Y-10612762D01*
X9174381Y-10650857D01*
X9164857Y-10669905D01*
X9145810Y-10688952D01*
X9117238Y-10698476D01*
X9069619Y-10698476D01*
X9269619Y-10698476D02*
X9269619Y-10565143D01*
X9269619Y-10603238D02*
X9279143Y-10584190D01*
X9288667Y-10574667D01*
X9307714Y-10565143D01*
X9326762Y-10565143D01*
X9393429Y-10698476D02*
X9393429Y-10565143D01*
X9393429Y-10498476D02*
X9383905Y-10508000D01*
X9393429Y-10517524D01*
X9402952Y-10508000D01*
X9393429Y-10498476D01*
X9393429Y-10517524D01*
X9517238Y-10698476D02*
X9498190Y-10688952D01*
X9488667Y-10669905D01*
X9488667Y-10498476D01*
X9622000Y-10698476D02*
X9602952Y-10688952D01*
X9593429Y-10669905D01*
X9593429Y-10498476D01*
X9850571Y-10698476D02*
X9850571Y-10498476D01*
X9917238Y-10641333D01*
X9983905Y-10498476D01*
X9983905Y-10698476D01*
X10164857Y-10698476D02*
X10164857Y-10593714D01*
X10155333Y-10574667D01*
X10136286Y-10565143D01*
X10098190Y-10565143D01*
X10079143Y-10574667D01*
X10164857Y-10688952D02*
X10145810Y-10698476D01*
X10098190Y-10698476D01*
X10079143Y-10688952D01*
X10069619Y-10669905D01*
X10069619Y-10650857D01*
X10079143Y-10631810D01*
X10098190Y-10622286D01*
X10145810Y-10622286D01*
X10164857Y-10612762D01*
X10260095Y-10565143D02*
X10260095Y-10765143D01*
X10260095Y-10574667D02*
X10279143Y-10565143D01*
X10317238Y-10565143D01*
X10336286Y-10574667D01*
X10345810Y-10584190D01*
X10355333Y-10603238D01*
X10355333Y-10660381D01*
X10345810Y-10679429D01*
X10336286Y-10688952D01*
X10317238Y-10698476D01*
X10279143Y-10698476D01*
X10260095Y-10688952D01*
X10441048Y-10679429D02*
X10450571Y-10688952D01*
X10441048Y-10698476D01*
X10431524Y-10688952D01*
X10441048Y-10679429D01*
X10441048Y-10698476D01*
X10441048Y-10574667D02*
X10450571Y-10584190D01*
X10441048Y-10593714D01*
X10431524Y-10584190D01*
X10441048Y-10574667D01*
X10441048Y-10593714D01*
M02*
