G04 #@! TF.GenerationSoftware,KiCad,Pcbnew,(6.0.8)*
G04 #@! TF.CreationDate,2022-12-10T22:33:41+05:30*
G04 #@! TF.ProjectId,digclock,64696763-6c6f-4636-9b2e-6b696361645f,rev?*
G04 #@! TF.SameCoordinates,Original*
G04 #@! TF.FileFunction,Copper,L1,Top*
G04 #@! TF.FilePolarity,Positive*
%FSLAX46Y46*%
G04 Gerber Fmt 4.6, Leading zero omitted, Abs format (unit mm)*
G04 Created by KiCad (PCBNEW (6.0.8)) date 2022-12-10 22:33:41*
%MOMM*%
%LPD*%
G01*
G04 APERTURE LIST*
G04 #@! TA.AperFunction,ComponentPad*
%ADD10R,1.050000X1.500000*%
G04 #@! TD*
G04 #@! TA.AperFunction,ComponentPad*
%ADD11O,1.050000X1.500000*%
G04 #@! TD*
G04 #@! TA.AperFunction,ComponentPad*
%ADD12R,1.905000X2.000000*%
G04 #@! TD*
G04 #@! TA.AperFunction,ComponentPad*
%ADD13O,1.905000X2.000000*%
G04 #@! TD*
G04 #@! TA.AperFunction,ComponentPad*
%ADD14R,2.000000X2.000000*%
G04 #@! TD*
G04 #@! TA.AperFunction,ComponentPad*
%ADD15C,2.000000*%
G04 #@! TD*
G04 #@! TA.AperFunction,ComponentPad*
%ADD16C,1.600000*%
G04 #@! TD*
G04 #@! TA.AperFunction,ComponentPad*
%ADD17O,1.600000X1.600000*%
G04 #@! TD*
G04 #@! TA.AperFunction,ComponentPad*
%ADD18C,1.200000*%
G04 #@! TD*
G04 #@! TA.AperFunction,ComponentPad*
%ADD19R,1.600000X1.600000*%
G04 #@! TD*
G04 #@! TA.AperFunction,ComponentPad*
%ADD20C,1.500000*%
G04 #@! TD*
G04 #@! TA.AperFunction,Conductor*
%ADD21C,0.250000*%
G04 #@! TD*
G04 #@! TA.AperFunction,Conductor*
%ADD22C,0.200000*%
G04 #@! TD*
G04 APERTURE END LIST*
D10*
X109601000Y-41508000D03*
D11*
X110871000Y-41508000D03*
X112141000Y-41508000D03*
D12*
X95758000Y-41910000D03*
D13*
X98298000Y-41910000D03*
X100838000Y-41910000D03*
D14*
X93736000Y-88265000D03*
D15*
X101336000Y-88265000D03*
D10*
X122936000Y-41529000D03*
D11*
X124206000Y-41529000D03*
X125476000Y-41529000D03*
D16*
X93599000Y-54102000D03*
D17*
X101219000Y-54102000D03*
D16*
X106426000Y-91059000D03*
X108966000Y-91059000D03*
X111506000Y-91059000D03*
X114046000Y-91059000D03*
X116586000Y-91059000D03*
X119126000Y-91059000D03*
X121666000Y-91059000D03*
X124206000Y-91059000D03*
X126746000Y-91059000D03*
X129286000Y-91059000D03*
X131826000Y-91059000D03*
X134366000Y-91059000D03*
X136906000Y-91059000D03*
X139446000Y-91059000D03*
X141986000Y-91059000D03*
X144526000Y-91059000D03*
X147066000Y-91059000D03*
X149606000Y-91059000D03*
X152146000Y-91059000D03*
X154686000Y-91059000D03*
X154686000Y-75819000D03*
X152146000Y-75819000D03*
X149606000Y-75819000D03*
X147066000Y-75819000D03*
X144526000Y-75819000D03*
X141986000Y-75819000D03*
X139446000Y-75819000D03*
X136906000Y-75819000D03*
X134366000Y-75819000D03*
X131826000Y-75819000D03*
X129286000Y-75819000D03*
X126746000Y-75819000D03*
X124206000Y-75819000D03*
X121666000Y-75819000D03*
X119126000Y-75819000D03*
X116586000Y-75819000D03*
X114046000Y-75819000D03*
X111506000Y-75819000D03*
X108966000Y-75819000D03*
X106426000Y-75819000D03*
X93599000Y-73152000D03*
D17*
X101219000Y-73152000D03*
D16*
X117221000Y-72136000D03*
D17*
X117221000Y-64516000D03*
D16*
X140081000Y-72136000D03*
D17*
X140081000Y-64516000D03*
D10*
X136271000Y-41508000D03*
D11*
X137541000Y-41508000D03*
X138811000Y-41508000D03*
D15*
X110767000Y-100385000D03*
X104267000Y-100385000D03*
X110767000Y-95885000D03*
X104267000Y-95885000D03*
D16*
X105791000Y-72136000D03*
D17*
X105791000Y-64516000D03*
D15*
X168184000Y-72084000D03*
X168184000Y-65584000D03*
X172684000Y-72084000D03*
X172684000Y-65584000D03*
D16*
X93599000Y-76962000D03*
D17*
X101219000Y-76962000D03*
D16*
X93599000Y-69342000D03*
D17*
X101219000Y-69342000D03*
D10*
X162941000Y-41508000D03*
D11*
X164211000Y-41508000D03*
X165481000Y-41508000D03*
D16*
X136271000Y-72136000D03*
D17*
X136271000Y-64516000D03*
D18*
X140859000Y-97155000D03*
X142859000Y-97155000D03*
D15*
X177328000Y-80570000D03*
X177328000Y-87070000D03*
X181828000Y-87070000D03*
X181828000Y-80570000D03*
D10*
X149606000Y-41508000D03*
D11*
X150876000Y-41508000D03*
X152146000Y-41508000D03*
D19*
X117856000Y-60960000D03*
D16*
X120396000Y-60960000D03*
X122936000Y-60960000D03*
X125476000Y-60960000D03*
X128016000Y-60960000D03*
X128016000Y-45720000D03*
X125476000Y-45720000D03*
X122936000Y-45720000D03*
X120396000Y-45720000D03*
X117856000Y-45720000D03*
X113411000Y-72136000D03*
D17*
X113411000Y-64516000D03*
D19*
X131191000Y-60960000D03*
D16*
X133731000Y-60960000D03*
X136271000Y-60960000D03*
X138811000Y-60960000D03*
X141351000Y-60960000D03*
X141351000Y-45720000D03*
X138811000Y-45720000D03*
X136271000Y-45720000D03*
X133731000Y-45720000D03*
X131191000Y-45720000D03*
X93599000Y-65532000D03*
D17*
X101219000Y-65532000D03*
D19*
X171196000Y-60964500D03*
D16*
X173736000Y-60964500D03*
X176276000Y-60964500D03*
X178816000Y-60964500D03*
X181356000Y-60964500D03*
X181356000Y-45724500D03*
X178816000Y-45724500D03*
X176276000Y-45724500D03*
X173736000Y-45724500D03*
X171196000Y-45724500D03*
X124841000Y-72136000D03*
D17*
X124841000Y-64516000D03*
D10*
X176276000Y-41529000D03*
D11*
X177546000Y-41529000D03*
X178816000Y-41529000D03*
D15*
X159675000Y-72084000D03*
X159675000Y-65584000D03*
X164175000Y-65584000D03*
X164175000Y-72084000D03*
D19*
X96961888Y-99187000D03*
D16*
X98961888Y-99187000D03*
X93599000Y-57912000D03*
D17*
X101219000Y-57912000D03*
D16*
X132461000Y-72136000D03*
D17*
X132461000Y-64516000D03*
D15*
X168438000Y-82498000D03*
X168438000Y-75998000D03*
X172938000Y-75998000D03*
X172938000Y-82498000D03*
D16*
X147701000Y-72136000D03*
D17*
X147701000Y-64516000D03*
D16*
X151511000Y-72136000D03*
D17*
X151511000Y-64516000D03*
D19*
X114487888Y-97126112D03*
D16*
X116487888Y-97126112D03*
D20*
X153326000Y-97028000D03*
X148446000Y-97028000D03*
D16*
X93599000Y-50292000D03*
D17*
X101219000Y-50292000D03*
D15*
X130429000Y-100258000D03*
X136929000Y-100258000D03*
X136929000Y-95758000D03*
X130429000Y-95758000D03*
D16*
X109601000Y-72136000D03*
D17*
X109601000Y-64516000D03*
D15*
X164556000Y-86943000D03*
X164556000Y-80443000D03*
X160056000Y-80443000D03*
X160056000Y-86943000D03*
D18*
X160782000Y-97028000D03*
X158782000Y-97028000D03*
D16*
X143891000Y-72136000D03*
D17*
X143891000Y-64516000D03*
D16*
X128651000Y-72136000D03*
D17*
X128651000Y-64516000D03*
D19*
X144526000Y-60960000D03*
D16*
X147066000Y-60960000D03*
X149606000Y-60960000D03*
X152146000Y-60960000D03*
X154686000Y-60960000D03*
X154686000Y-45720000D03*
X152146000Y-45720000D03*
X149606000Y-45720000D03*
X147066000Y-45720000D03*
X144526000Y-45720000D03*
X155321000Y-72136000D03*
D17*
X155321000Y-64516000D03*
D16*
X127254000Y-97126112D03*
D17*
X119634000Y-97126112D03*
D19*
X157861000Y-60960000D03*
D16*
X160401000Y-60960000D03*
X162941000Y-60960000D03*
X165481000Y-60960000D03*
X168021000Y-60960000D03*
X168021000Y-45720000D03*
X165481000Y-45720000D03*
X162941000Y-45720000D03*
X160401000Y-45720000D03*
X157861000Y-45720000D03*
X121031000Y-72136000D03*
D17*
X121031000Y-64516000D03*
D16*
X93599000Y-61722000D03*
D17*
X101219000Y-61722000D03*
D15*
X168565000Y-86031000D03*
X168565000Y-92531000D03*
X173065000Y-92531000D03*
X173065000Y-86031000D03*
D19*
X104521000Y-60964500D03*
D16*
X107061000Y-60964500D03*
X109601000Y-60964500D03*
X112141000Y-60964500D03*
X114681000Y-60964500D03*
X114681000Y-45724500D03*
X112141000Y-45724500D03*
X109601000Y-45724500D03*
X107061000Y-45724500D03*
X104521000Y-45724500D03*
D21*
X95758000Y-97983112D02*
X95758000Y-41910000D01*
X96961888Y-99187000D02*
X95758000Y-97983112D01*
X156464000Y-92710000D02*
X154940000Y-92710000D01*
D22*
X127254000Y-97126112D02*
X130385888Y-100258000D01*
X164175000Y-65584000D02*
X164175000Y-67401000D01*
X164556000Y-80443000D02*
X170883000Y-80443000D01*
X160655000Y-97028000D02*
X160782000Y-97028000D01*
D21*
X172684000Y-75744000D02*
X172938000Y-75998000D01*
D22*
X172684000Y-67401000D02*
X172684000Y-65584000D01*
D21*
X111888000Y-39752000D02*
X112141000Y-40005000D01*
D22*
X125476000Y-41529000D02*
X125476000Y-40005000D01*
X157552000Y-100258000D02*
X160782000Y-97028000D01*
X164175000Y-67401000D02*
X164211000Y-67437000D01*
X136929000Y-100258000D02*
X140032000Y-97155000D01*
D21*
X98298000Y-41910000D02*
X98298000Y-85227000D01*
D22*
X165481000Y-41508000D02*
X165481000Y-40005000D01*
D21*
X99623000Y-39752000D02*
X111888000Y-39752000D01*
X154940000Y-92710000D02*
X154686000Y-92456000D01*
D22*
X172720000Y-67437000D02*
X172684000Y-67401000D01*
X178816000Y-40005000D02*
X178816000Y-41529000D01*
X173065000Y-92531000D02*
X176367000Y-92531000D01*
X170883000Y-80443000D02*
X172938000Y-82498000D01*
X112141000Y-40005000D02*
X125476000Y-40005000D01*
X125476000Y-40005000D02*
X138811000Y-40005000D01*
D21*
X98298000Y-85227000D02*
X101336000Y-88265000D01*
X98961888Y-90639112D02*
X101336000Y-88265000D01*
D22*
X165481000Y-40005000D02*
X178816000Y-40005000D01*
D21*
X160782000Y-97028000D02*
X156464000Y-92710000D01*
X98961888Y-99187000D02*
X98961888Y-90639112D01*
D22*
X177256000Y-75998000D02*
X181828000Y-80570000D01*
X172938000Y-75998000D02*
X177256000Y-75998000D01*
X160440000Y-91059000D02*
X154686000Y-91059000D01*
X138811000Y-40005000D02*
X152146000Y-40005000D01*
X138811000Y-41508000D02*
X138811000Y-40005000D01*
X130385888Y-100258000D02*
X130429000Y-100258000D01*
D21*
X98298000Y-41077000D02*
X98298000Y-41910000D01*
X172684000Y-72084000D02*
X172684000Y-75744000D01*
D22*
X164556000Y-86943000D02*
X167477000Y-86943000D01*
X136929000Y-100258000D02*
X157552000Y-100258000D01*
X152146000Y-40005000D02*
X165481000Y-40005000D01*
X164556000Y-86943000D02*
X160440000Y-91059000D01*
X112141000Y-41508000D02*
X112141000Y-40005000D01*
X167477000Y-86943000D02*
X173065000Y-92531000D01*
D21*
X154686000Y-92456000D02*
X154686000Y-91059000D01*
D22*
X140032000Y-97155000D02*
X140859000Y-97155000D01*
X176367000Y-92531000D02*
X181828000Y-87070000D01*
X152146000Y-41508000D02*
X152146000Y-40005000D01*
X164211000Y-67437000D02*
X172720000Y-67437000D01*
D21*
X99623000Y-39752000D02*
X98298000Y-41077000D01*
D22*
X148446000Y-97028000D02*
X142986000Y-97028000D01*
X149606000Y-91059000D02*
X149606000Y-95868000D01*
X142986000Y-97028000D02*
X142859000Y-97155000D01*
X149606000Y-95868000D02*
X148446000Y-97028000D01*
X152146000Y-91059000D02*
X152146000Y-95848000D01*
X152146000Y-95848000D02*
X153326000Y-97028000D01*
X153326000Y-97028000D02*
X158782000Y-97028000D01*
X106426000Y-75819000D02*
X104267000Y-77978000D01*
X104267000Y-77978000D02*
X104267000Y-95885000D01*
X110767000Y-95885000D02*
X113246776Y-95885000D01*
X113246776Y-95885000D02*
X114487888Y-97126112D01*
X116487888Y-100301112D02*
X116487888Y-97126112D01*
X110767000Y-100385000D02*
X116404000Y-100385000D01*
X116404000Y-100385000D02*
X116487888Y-100301112D01*
X120678888Y-97126112D02*
X126746000Y-91059000D01*
X119634000Y-97126112D02*
X120678888Y-97126112D01*
D21*
X119634000Y-97126112D02*
X116487888Y-97126112D01*
D22*
X116586000Y-97028000D02*
X116487888Y-97126112D01*
X182753000Y-43053000D02*
X182753000Y-64135000D01*
X110871000Y-43053000D02*
X182753000Y-43053000D01*
X182753000Y-64135000D02*
X182626000Y-64262000D01*
X155575000Y-64262000D02*
X155321000Y-64516000D01*
X182626000Y-64262000D02*
X155575000Y-64262000D01*
X110871000Y-41508000D02*
X110871000Y-43053000D01*
X136271000Y-75184000D02*
X136906000Y-75819000D01*
X136271000Y-72136000D02*
X136271000Y-75184000D01*
X140081000Y-75184000D02*
X139446000Y-75819000D01*
X140081000Y-72136000D02*
X140081000Y-75184000D01*
X143891000Y-72136000D02*
X143891000Y-73914000D01*
X143891000Y-73914000D02*
X141986000Y-75819000D01*
X147701000Y-72136000D02*
X144526000Y-75311000D01*
X144526000Y-75311000D02*
X144526000Y-75819000D01*
X151511000Y-72136000D02*
X147828000Y-75819000D01*
X147828000Y-75819000D02*
X147066000Y-75819000D01*
X155321000Y-72136000D02*
X153289000Y-72136000D01*
X153289000Y-72136000D02*
X149606000Y-75819000D01*
X105791000Y-72136000D02*
X108966000Y-75311000D01*
X108966000Y-75311000D02*
X108966000Y-75819000D01*
X115824000Y-46863000D02*
X115824000Y-44323000D01*
X112061500Y-44624500D02*
X103330500Y-44624500D01*
X125476000Y-45720000D02*
X125476000Y-46952000D01*
X103251000Y-64516000D02*
X103251000Y-65024000D01*
X138684000Y-44196000D02*
X138811000Y-44323000D01*
X165481000Y-45720000D02*
X165481000Y-46952000D01*
X169291000Y-44196000D02*
X169399000Y-44088000D01*
X165481000Y-46952000D02*
X169291000Y-46952000D01*
X152146000Y-45720000D02*
X152146000Y-46952000D01*
X142494000Y-44196000D02*
X142602000Y-44088000D01*
X138811000Y-44323000D02*
X138811000Y-45720000D01*
X103251000Y-64516000D02*
X105791000Y-64516000D01*
X129159000Y-46952000D02*
X129159000Y-44196000D01*
X115951000Y-44196000D02*
X125476000Y-44196000D01*
X103251000Y-65024000D02*
X103251000Y-76962000D01*
X169399000Y-44088000D02*
X178816000Y-44088000D01*
X112141000Y-44704000D02*
X112061500Y-44624500D01*
X112141000Y-45724500D02*
X112141000Y-46863000D01*
X112141000Y-45724500D02*
X112141000Y-44704000D01*
X178816000Y-44088000D02*
X178816000Y-45724500D01*
X125476000Y-44196000D02*
X125476000Y-45720000D01*
X155829000Y-44196000D02*
X155937000Y-44088000D01*
X129159000Y-44196000D02*
X138684000Y-44196000D01*
X169291000Y-46952000D02*
X169291000Y-44196000D01*
X125476000Y-46952000D02*
X129159000Y-46952000D01*
X103251000Y-76962000D02*
X101219000Y-76962000D01*
X142494000Y-46952000D02*
X142494000Y-44196000D01*
X103251000Y-44704000D02*
X103251000Y-64516000D01*
X152146000Y-46952000D02*
X155829000Y-46952000D01*
X152146000Y-44088000D02*
X152146000Y-45720000D01*
X103330500Y-44624500D02*
X103251000Y-44704000D01*
X155937000Y-44088000D02*
X165481000Y-44088000D01*
X138811000Y-45720000D02*
X138811000Y-46952000D01*
X165481000Y-44088000D02*
X165481000Y-45720000D01*
X155829000Y-46952000D02*
X155829000Y-44196000D01*
X115824000Y-44323000D02*
X115951000Y-44196000D01*
X142602000Y-44088000D02*
X152146000Y-44088000D01*
X112141000Y-46863000D02*
X115824000Y-46863000D01*
X138811000Y-46952000D02*
X142494000Y-46952000D01*
X109601000Y-73914000D02*
X111506000Y-75819000D01*
X109601000Y-72136000D02*
X109601000Y-73914000D01*
X114681000Y-44196000D02*
X114681000Y-43688000D01*
X102743000Y-44323000D02*
X102743000Y-73152000D01*
X102870000Y-44196000D02*
X102743000Y-44323000D01*
X128016000Y-43688000D02*
X141351000Y-43688000D01*
X154686000Y-43688000D02*
X168021000Y-43688000D01*
X128016000Y-45720000D02*
X128016000Y-43688000D01*
X114681000Y-44196000D02*
X102870000Y-44196000D01*
X114681000Y-43688000D02*
X128016000Y-43688000D01*
X141351000Y-45720000D02*
X141351000Y-43688000D01*
X154686000Y-45720000D02*
X154686000Y-43688000D01*
X168021000Y-43688000D02*
X181356000Y-43688000D01*
X102743000Y-73152000D02*
X101219000Y-73152000D01*
X141351000Y-43688000D02*
X154686000Y-43688000D01*
X168021000Y-45720000D02*
X168021000Y-43688000D01*
X181356000Y-43688000D02*
X181356000Y-45724500D01*
X114681000Y-45724500D02*
X114681000Y-44196000D01*
X113411000Y-72136000D02*
X113411000Y-75184000D01*
X113411000Y-75184000D02*
X114046000Y-75819000D01*
X155810000Y-59455000D02*
X155937000Y-59328000D01*
X138811000Y-59436000D02*
X138811000Y-60960000D01*
X112141000Y-60964500D02*
X112141000Y-62103000D01*
X152146000Y-59328000D02*
X152146000Y-60960000D01*
X138811000Y-60960000D02*
X138811000Y-62192000D01*
X152146000Y-62192000D02*
X155702000Y-62192000D01*
X169272000Y-62103000D02*
X169272000Y-59474000D01*
X129374315Y-59417000D02*
X138792000Y-59417000D01*
X169272000Y-59474000D02*
X169418000Y-59328000D01*
X142475000Y-62084000D02*
X142475000Y-59455000D01*
X115824000Y-62103000D02*
X115824000Y-59436000D01*
X142367000Y-62192000D02*
X142475000Y-62084000D01*
X129140000Y-59651315D02*
X129374315Y-59417000D01*
X125457000Y-59417000D02*
X125476000Y-59436000D01*
X138792000Y-59417000D02*
X138811000Y-59436000D01*
X155702000Y-62192000D02*
X155810000Y-62084000D01*
X155810000Y-62084000D02*
X155810000Y-59455000D01*
X178816000Y-59328000D02*
X178816000Y-60964500D01*
X112141000Y-62103000D02*
X115824000Y-62103000D01*
X125476000Y-60960000D02*
X125476000Y-62103000D01*
X115824000Y-59436000D02*
X115843000Y-59417000D01*
X165481000Y-59328000D02*
X165481000Y-60960000D01*
X142475000Y-59455000D02*
X142602000Y-59328000D01*
X169418000Y-59328000D02*
X178816000Y-59328000D01*
X138811000Y-62192000D02*
X142367000Y-62192000D01*
X155937000Y-59328000D02*
X165481000Y-59328000D01*
X142602000Y-59328000D02*
X152146000Y-59328000D01*
X129140000Y-62103000D02*
X129140000Y-59651315D01*
X115843000Y-59417000D02*
X125457000Y-59417000D01*
X165481000Y-60960000D02*
X165481000Y-62103000D01*
X125476000Y-62103000D02*
X129140000Y-62103000D01*
X165481000Y-62103000D02*
X169272000Y-62103000D01*
X125476000Y-59436000D02*
X125476000Y-60960000D01*
X152146000Y-60960000D02*
X152146000Y-62192000D01*
X117221000Y-72136000D02*
X117221000Y-75184000D01*
X117221000Y-75184000D02*
X116586000Y-75819000D01*
X116224000Y-62465000D02*
X116224000Y-59817000D01*
X173609000Y-59817000D02*
X173736000Y-59944000D01*
X129540000Y-62592000D02*
X129540000Y-59817000D01*
X147066000Y-62592000D02*
X156210000Y-62592000D01*
X160401000Y-60960000D02*
X160401000Y-62592000D01*
X133731000Y-60960000D02*
X133731000Y-62592000D01*
X169672000Y-62592000D02*
X169672000Y-59817000D01*
X129540000Y-59817000D02*
X133731000Y-59817000D01*
X143002000Y-59817000D02*
X147066000Y-59817000D01*
X107061000Y-62484000D02*
X107080000Y-62503000D01*
X142875000Y-62592000D02*
X142875000Y-59944000D01*
X142875000Y-59944000D02*
X143002000Y-59817000D01*
X156210000Y-59944000D02*
X156337000Y-59817000D01*
X147066000Y-60960000D02*
X147066000Y-62592000D01*
X173736000Y-59944000D02*
X173736000Y-60964500D01*
X107080000Y-62503000D02*
X116186000Y-62503000D01*
X107061000Y-60964500D02*
X107061000Y-62484000D01*
X133731000Y-59817000D02*
X133731000Y-60960000D01*
X160401000Y-59817000D02*
X160401000Y-60960000D01*
X133731000Y-62592000D02*
X142875000Y-62592000D01*
X156337000Y-59817000D02*
X160401000Y-59817000D01*
X116224000Y-59817000D02*
X120396000Y-59817000D01*
X120396000Y-59817000D02*
X120396000Y-60960000D01*
X120396000Y-60960000D02*
X120396000Y-62592000D01*
X160401000Y-62592000D02*
X169672000Y-62592000D01*
X120396000Y-62592000D02*
X129540000Y-62592000D01*
X116186000Y-62503000D02*
X116224000Y-62465000D01*
X169672000Y-59817000D02*
X173609000Y-59817000D01*
X156210000Y-62592000D02*
X156210000Y-59944000D01*
X147066000Y-59817000D02*
X147066000Y-60960000D01*
X121031000Y-73914000D02*
X119126000Y-75819000D01*
X121031000Y-72136000D02*
X121031000Y-73914000D01*
X157861000Y-62992000D02*
X171196000Y-62992000D01*
X131445000Y-62992000D02*
X144526000Y-62992000D01*
X157861000Y-60960000D02*
X157861000Y-62992000D01*
X117856000Y-60960000D02*
X117856000Y-62992000D01*
X131191000Y-60960000D02*
X131191000Y-62992000D01*
X144526000Y-62992000D02*
X157861000Y-62992000D01*
X144526000Y-60960000D02*
X144526000Y-62992000D01*
X117856000Y-62992000D02*
X117983000Y-62992000D01*
X104521000Y-62992000D02*
X117856000Y-62992000D01*
X121793000Y-62992000D02*
X131191000Y-62992000D01*
X117983000Y-62992000D02*
X121031000Y-62992000D01*
X131191000Y-62992000D02*
X131445000Y-62992000D01*
X171196000Y-62992000D02*
X171196000Y-60964500D01*
X121031000Y-62992000D02*
X121793000Y-62992000D01*
X121031000Y-62992000D02*
X121031000Y-64516000D01*
X104521000Y-60964500D02*
X104521000Y-62992000D01*
X121666000Y-75311000D02*
X121666000Y-75819000D01*
X124841000Y-72136000D02*
X121666000Y-75311000D01*
X116332000Y-44704000D02*
X116416000Y-44620000D01*
X143002000Y-47352000D02*
X143002000Y-44704000D01*
X129667000Y-47352000D02*
X129667000Y-44704000D01*
X143002000Y-44704000D02*
X143129000Y-44577000D01*
X107207000Y-47263000D02*
X116313000Y-47263000D01*
X129667000Y-44704000D02*
X129751000Y-44620000D01*
X120396000Y-44704000D02*
X120396000Y-45720000D01*
X156464000Y-44577000D02*
X160401000Y-44577000D01*
X116416000Y-44620000D02*
X120312000Y-44620000D01*
X120396000Y-47352000D02*
X129667000Y-47352000D01*
X147066000Y-44577000D02*
X147066000Y-45720000D01*
X120396000Y-45720000D02*
X120396000Y-47352000D01*
X147066000Y-47352000D02*
X156337000Y-47352000D01*
X147066000Y-45720000D02*
X147066000Y-47352000D01*
X143129000Y-44577000D02*
X147066000Y-44577000D01*
X160401000Y-47352000D02*
X169799000Y-47352000D01*
X129751000Y-44620000D02*
X133647000Y-44620000D01*
X116332000Y-47244000D02*
X116332000Y-44704000D01*
X120312000Y-44620000D02*
X120396000Y-44704000D01*
X116313000Y-47263000D02*
X116332000Y-47244000D01*
X169799000Y-47352000D02*
X169799000Y-44704000D01*
X133647000Y-44620000D02*
X133731000Y-44704000D01*
X133731000Y-47352000D02*
X143002000Y-47352000D01*
X173736000Y-44672000D02*
X173736000Y-45724500D01*
X107061000Y-47117000D02*
X107207000Y-47263000D01*
X156337000Y-44704000D02*
X156464000Y-44577000D01*
X133731000Y-44704000D02*
X133731000Y-45720000D01*
X133731000Y-45720000D02*
X133731000Y-47352000D01*
X160401000Y-44577000D02*
X160401000Y-45720000D01*
X160401000Y-45720000D02*
X160401000Y-47352000D01*
X173688500Y-44624500D02*
X173736000Y-44672000D01*
X107061000Y-45724500D02*
X107061000Y-47117000D01*
X169799000Y-44704000D02*
X169878500Y-44624500D01*
X156337000Y-47352000D02*
X156337000Y-44704000D01*
X169878500Y-44624500D02*
X173688500Y-44624500D01*
X128651000Y-72136000D02*
X124968000Y-75819000D01*
X124968000Y-75819000D02*
X124206000Y-75819000D01*
X157861000Y-45720000D02*
X157861000Y-47752000D01*
X117856000Y-47752000D02*
X131191000Y-47752000D01*
X104521000Y-45724500D02*
X104521000Y-47625000D01*
X131191000Y-45720000D02*
X131191000Y-47752000D01*
X131191000Y-47752000D02*
X144526000Y-47752000D01*
X157861000Y-47752000D02*
X171196000Y-47752000D01*
X117856000Y-45720000D02*
X117856000Y-47752000D01*
X144526000Y-45720000D02*
X144526000Y-47752000D01*
X104521000Y-47625000D02*
X104648000Y-47752000D01*
X144526000Y-47752000D02*
X157861000Y-47752000D01*
X171196000Y-47752000D02*
X171196000Y-45724500D01*
X104648000Y-47752000D02*
X117856000Y-47752000D01*
X130429000Y-72136000D02*
X126746000Y-75819000D01*
X132461000Y-72136000D02*
X130429000Y-72136000D01*
X141351000Y-60960000D02*
X141351000Y-58928000D01*
X128016000Y-58928000D02*
X141351000Y-58928000D01*
X128016000Y-60960000D02*
X128016000Y-58928000D01*
X168021000Y-60960000D02*
X168021000Y-58928000D01*
X114681000Y-60964500D02*
X114681000Y-59055000D01*
X114808000Y-58928000D02*
X128016000Y-58928000D01*
X154813000Y-58928000D02*
X168021000Y-58928000D01*
X154686000Y-59055000D02*
X154813000Y-58928000D01*
X181229000Y-58928000D02*
X181356000Y-59055000D01*
X154686000Y-60960000D02*
X154686000Y-59055000D01*
X114681000Y-59055000D02*
X114808000Y-58928000D01*
X141351000Y-58928000D02*
X154813000Y-58928000D01*
X168021000Y-58928000D02*
X181229000Y-58928000D01*
X181356000Y-59055000D02*
X181356000Y-60964500D01*
X117042000Y-80443000D02*
X106426000Y-91059000D01*
X160056000Y-80443000D02*
X117042000Y-80443000D01*
X177328000Y-87070000D02*
X174056000Y-83798000D01*
X116227000Y-83798000D02*
X108966000Y-91059000D01*
X174056000Y-83798000D02*
X116227000Y-83798000D01*
X134366000Y-93195000D02*
X136929000Y-95758000D01*
X134366000Y-91059000D02*
X134366000Y-93195000D01*
X157040000Y-74719000D02*
X153246000Y-74719000D01*
X159675000Y-72084000D02*
X157040000Y-74719000D01*
X153246000Y-74719000D02*
X152146000Y-75819000D01*
X164449000Y-75819000D02*
X154686000Y-75819000D01*
X168184000Y-72084000D02*
X164449000Y-75819000D01*
M02*
