G04 #@! TF.GenerationSoftware,KiCad,Pcbnew,(6.0.8)*
G04 #@! TF.CreationDate,2022-12-10T22:33:41+05:30*
G04 #@! TF.ProjectId,digclock,64696763-6c6f-4636-9b2e-6b696361645f,rev?*
G04 #@! TF.SameCoordinates,Original*
G04 #@! TF.FileFunction,Soldermask,Bot*
G04 #@! TF.FilePolarity,Negative*
%FSLAX46Y46*%
G04 Gerber Fmt 4.6, Leading zero omitted, Abs format (unit mm)*
G04 Created by KiCad (PCBNEW (6.0.8)) date 2022-12-10 22:33:41*
%MOMM*%
%LPD*%
G01*
G04 APERTURE LIST*
%ADD10R,1.050000X1.500000*%
%ADD11O,1.050000X1.500000*%
%ADD12R,1.905000X2.000000*%
%ADD13O,1.905000X2.000000*%
%ADD14R,2.000000X2.000000*%
%ADD15C,2.000000*%
%ADD16C,1.600000*%
%ADD17O,1.600000X1.600000*%
%ADD18C,1.200000*%
%ADD19R,1.600000X1.600000*%
%ADD20C,1.500000*%
G04 APERTURE END LIST*
D10*
X109601000Y-41508000D03*
D11*
X110871000Y-41508000D03*
X112141000Y-41508000D03*
D12*
X95758000Y-41910000D03*
D13*
X98298000Y-41910000D03*
X100838000Y-41910000D03*
D14*
X93736000Y-88265000D03*
D15*
X101336000Y-88265000D03*
D10*
X122936000Y-41529000D03*
D11*
X124206000Y-41529000D03*
X125476000Y-41529000D03*
D16*
X93599000Y-54102000D03*
D17*
X101219000Y-54102000D03*
D16*
X106426000Y-91059000D03*
X108966000Y-91059000D03*
X111506000Y-91059000D03*
X114046000Y-91059000D03*
X116586000Y-91059000D03*
X119126000Y-91059000D03*
X121666000Y-91059000D03*
X124206000Y-91059000D03*
X126746000Y-91059000D03*
X129286000Y-91059000D03*
X131826000Y-91059000D03*
X134366000Y-91059000D03*
X136906000Y-91059000D03*
X139446000Y-91059000D03*
X141986000Y-91059000D03*
X144526000Y-91059000D03*
X147066000Y-91059000D03*
X149606000Y-91059000D03*
X152146000Y-91059000D03*
X154686000Y-91059000D03*
X154686000Y-75819000D03*
X152146000Y-75819000D03*
X149606000Y-75819000D03*
X147066000Y-75819000D03*
X144526000Y-75819000D03*
X141986000Y-75819000D03*
X139446000Y-75819000D03*
X136906000Y-75819000D03*
X134366000Y-75819000D03*
X131826000Y-75819000D03*
X129286000Y-75819000D03*
X126746000Y-75819000D03*
X124206000Y-75819000D03*
X121666000Y-75819000D03*
X119126000Y-75819000D03*
X116586000Y-75819000D03*
X114046000Y-75819000D03*
X111506000Y-75819000D03*
X108966000Y-75819000D03*
X106426000Y-75819000D03*
X93599000Y-73152000D03*
D17*
X101219000Y-73152000D03*
D16*
X117221000Y-72136000D03*
D17*
X117221000Y-64516000D03*
D16*
X140081000Y-72136000D03*
D17*
X140081000Y-64516000D03*
D10*
X136271000Y-41508000D03*
D11*
X137541000Y-41508000D03*
X138811000Y-41508000D03*
D15*
X110767000Y-100385000D03*
X104267000Y-100385000D03*
X110767000Y-95885000D03*
X104267000Y-95885000D03*
D16*
X105791000Y-72136000D03*
D17*
X105791000Y-64516000D03*
D15*
X168184000Y-72084000D03*
X168184000Y-65584000D03*
X172684000Y-72084000D03*
X172684000Y-65584000D03*
D16*
X93599000Y-76962000D03*
D17*
X101219000Y-76962000D03*
D16*
X93599000Y-69342000D03*
D17*
X101219000Y-69342000D03*
D10*
X162941000Y-41508000D03*
D11*
X164211000Y-41508000D03*
X165481000Y-41508000D03*
D16*
X136271000Y-72136000D03*
D17*
X136271000Y-64516000D03*
D18*
X140859000Y-97155000D03*
X142859000Y-97155000D03*
D15*
X177328000Y-80570000D03*
X177328000Y-87070000D03*
X181828000Y-87070000D03*
X181828000Y-80570000D03*
D10*
X149606000Y-41508000D03*
D11*
X150876000Y-41508000D03*
X152146000Y-41508000D03*
D19*
X117856000Y-60960000D03*
D16*
X120396000Y-60960000D03*
X122936000Y-60960000D03*
X125476000Y-60960000D03*
X128016000Y-60960000D03*
X128016000Y-45720000D03*
X125476000Y-45720000D03*
X122936000Y-45720000D03*
X120396000Y-45720000D03*
X117856000Y-45720000D03*
X113411000Y-72136000D03*
D17*
X113411000Y-64516000D03*
D19*
X131191000Y-60960000D03*
D16*
X133731000Y-60960000D03*
X136271000Y-60960000D03*
X138811000Y-60960000D03*
X141351000Y-60960000D03*
X141351000Y-45720000D03*
X138811000Y-45720000D03*
X136271000Y-45720000D03*
X133731000Y-45720000D03*
X131191000Y-45720000D03*
X93599000Y-65532000D03*
D17*
X101219000Y-65532000D03*
D19*
X171196000Y-60964500D03*
D16*
X173736000Y-60964500D03*
X176276000Y-60964500D03*
X178816000Y-60964500D03*
X181356000Y-60964500D03*
X181356000Y-45724500D03*
X178816000Y-45724500D03*
X176276000Y-45724500D03*
X173736000Y-45724500D03*
X171196000Y-45724500D03*
X124841000Y-72136000D03*
D17*
X124841000Y-64516000D03*
D10*
X176276000Y-41529000D03*
D11*
X177546000Y-41529000D03*
X178816000Y-41529000D03*
D15*
X159675000Y-72084000D03*
X159675000Y-65584000D03*
X164175000Y-65584000D03*
X164175000Y-72084000D03*
D19*
X96961888Y-99187000D03*
D16*
X98961888Y-99187000D03*
X93599000Y-57912000D03*
D17*
X101219000Y-57912000D03*
D16*
X132461000Y-72136000D03*
D17*
X132461000Y-64516000D03*
D15*
X168438000Y-82498000D03*
X168438000Y-75998000D03*
X172938000Y-75998000D03*
X172938000Y-82498000D03*
D16*
X147701000Y-72136000D03*
D17*
X147701000Y-64516000D03*
D16*
X151511000Y-72136000D03*
D17*
X151511000Y-64516000D03*
D19*
X114487888Y-97126112D03*
D16*
X116487888Y-97126112D03*
D20*
X153326000Y-97028000D03*
X148446000Y-97028000D03*
D16*
X93599000Y-50292000D03*
D17*
X101219000Y-50292000D03*
D15*
X130429000Y-100258000D03*
X136929000Y-100258000D03*
X136929000Y-95758000D03*
X130429000Y-95758000D03*
D16*
X109601000Y-72136000D03*
D17*
X109601000Y-64516000D03*
D15*
X164556000Y-86943000D03*
X164556000Y-80443000D03*
X160056000Y-80443000D03*
X160056000Y-86943000D03*
D18*
X160782000Y-97028000D03*
X158782000Y-97028000D03*
D16*
X143891000Y-72136000D03*
D17*
X143891000Y-64516000D03*
D16*
X128651000Y-72136000D03*
D17*
X128651000Y-64516000D03*
D19*
X144526000Y-60960000D03*
D16*
X147066000Y-60960000D03*
X149606000Y-60960000D03*
X152146000Y-60960000D03*
X154686000Y-60960000D03*
X154686000Y-45720000D03*
X152146000Y-45720000D03*
X149606000Y-45720000D03*
X147066000Y-45720000D03*
X144526000Y-45720000D03*
X155321000Y-72136000D03*
D17*
X155321000Y-64516000D03*
D16*
X127254000Y-97126112D03*
D17*
X119634000Y-97126112D03*
D19*
X157861000Y-60960000D03*
D16*
X160401000Y-60960000D03*
X162941000Y-60960000D03*
X165481000Y-60960000D03*
X168021000Y-60960000D03*
X168021000Y-45720000D03*
X165481000Y-45720000D03*
X162941000Y-45720000D03*
X160401000Y-45720000D03*
X157861000Y-45720000D03*
X121031000Y-72136000D03*
D17*
X121031000Y-64516000D03*
D16*
X93599000Y-61722000D03*
D17*
X101219000Y-61722000D03*
D15*
X168565000Y-86031000D03*
X168565000Y-92531000D03*
X173065000Y-92531000D03*
X173065000Y-86031000D03*
D19*
X104521000Y-60964500D03*
D16*
X107061000Y-60964500D03*
X109601000Y-60964500D03*
X112141000Y-60964500D03*
X114681000Y-60964500D03*
X114681000Y-45724500D03*
X112141000Y-45724500D03*
X109601000Y-45724500D03*
X107061000Y-45724500D03*
X104521000Y-45724500D03*
M02*
