%TF.GenerationSoftware,KiCad,Pcbnew,(6.0.8)*%
%TF.CreationDate,2022-12-10T22:36:02+05:30*%
%TF.ProjectId,digclock,64696763-6c6f-4636-9b2e-6b696361645f,rev?*%
%TF.SameCoordinates,Original*%
%TF.FileFunction,Drillmap*%
%TF.FilePolarity,Positive*%
%FSLAX45Y45*%
G04 Gerber Fmt 4.5, Leading zero omitted, Abs format (unit mm)*
G04 Created by KiCad (PCBNEW (6.0.8)) date 2022-12-10 22:36:02*
%MOMM*%
%LPD*%
G01*
G04 APERTURE LIST*
%ADD10C,0.100000*%
%ADD11C,0.200000*%
%ADD12C,0.060000*%
%ADD13C,0.075000*%
%ADD14C,0.080000*%
%ADD15C,0.110000*%
G04 APERTURE END LIST*
D10*
X9347200Y-4622800D02*
G75*
G03*
X9347200Y-4622800I-152400J0D01*
G01*
X17932400Y-9906000D02*
G75*
G03*
X17932400Y-9906000I-152400J0D01*
G01*
X8817000Y-3683000D02*
X18517000Y-3683000D01*
X8817000Y-10383000D02*
X18517000Y-10383000D01*
X18517000Y-3683000D02*
X18517000Y-10383000D01*
X8817000Y-10383000D02*
X8817000Y-3683000D01*
D11*
D12*
X14055900Y-9685500D02*
X14115900Y-9745500D01*
X14115900Y-9685500D02*
X14055900Y-9745500D01*
X14255900Y-9685500D02*
X14315900Y-9745500D01*
X14315900Y-9685500D02*
X14255900Y-9745500D01*
X15848200Y-9672800D02*
X15908200Y-9732800D01*
X15908200Y-9672800D02*
X15848200Y-9732800D01*
X16048200Y-9672800D02*
X16108200Y-9732800D01*
X16108200Y-9672800D02*
X16048200Y-9732800D01*
D13*
X10997600Y-4150800D02*
G75*
G03*
X10997600Y-4150800I-37500J0D01*
G01*
X11124600Y-4150800D02*
G75*
G03*
X11124600Y-4150800I-37500J0D01*
G01*
X11251600Y-4150800D02*
G75*
G03*
X11251600Y-4150800I-37500J0D01*
G01*
X12331100Y-4152900D02*
G75*
G03*
X12331100Y-4152900I-37500J0D01*
G01*
X12458100Y-4152900D02*
G75*
G03*
X12458100Y-4152900I-37500J0D01*
G01*
X12585100Y-4152900D02*
G75*
G03*
X12585100Y-4152900I-37500J0D01*
G01*
X13664600Y-4150800D02*
G75*
G03*
X13664600Y-4150800I-37500J0D01*
G01*
X13791600Y-4150800D02*
G75*
G03*
X13791600Y-4150800I-37500J0D01*
G01*
X13918600Y-4150800D02*
G75*
G03*
X13918600Y-4150800I-37500J0D01*
G01*
X14998100Y-4150800D02*
G75*
G03*
X14998100Y-4150800I-37500J0D01*
G01*
X15125100Y-4150800D02*
G75*
G03*
X15125100Y-4150800I-37500J0D01*
G01*
X15252100Y-4150800D02*
G75*
G03*
X15252100Y-4150800I-37500J0D01*
G01*
X16331600Y-4150800D02*
G75*
G03*
X16331600Y-4150800I-37500J0D01*
G01*
X16458600Y-4150800D02*
G75*
G03*
X16458600Y-4150800I-37500J0D01*
G01*
X16585600Y-4150800D02*
G75*
G03*
X16585600Y-4150800I-37500J0D01*
G01*
X17665100Y-4152900D02*
G75*
G03*
X17665100Y-4152900I-37500J0D01*
G01*
X17792100Y-4152900D02*
G75*
G03*
X17792100Y-4152900I-37500J0D01*
G01*
X17919100Y-4152900D02*
G75*
G03*
X17919100Y-4152900I-37500J0D01*
G01*
D14*
X9359900Y-4989200D02*
X9359900Y-5069200D01*
X9319900Y-5029200D02*
X9399900Y-5029200D01*
X9359900Y-5370200D02*
X9359900Y-5450200D01*
X9319900Y-5410200D02*
X9399900Y-5410200D01*
X9359900Y-5751200D02*
X9359900Y-5831200D01*
X9319900Y-5791200D02*
X9399900Y-5791200D01*
X9359900Y-6132200D02*
X9359900Y-6212200D01*
X9319900Y-6172200D02*
X9399900Y-6172200D01*
X9359900Y-6513200D02*
X9359900Y-6593200D01*
X9319900Y-6553200D02*
X9399900Y-6553200D01*
X9359900Y-6894200D02*
X9359900Y-6974200D01*
X9319900Y-6934200D02*
X9399900Y-6934200D01*
X9359900Y-7275200D02*
X9359900Y-7355200D01*
X9319900Y-7315200D02*
X9399900Y-7315200D01*
X9359900Y-7656200D02*
X9359900Y-7736200D01*
X9319900Y-7696200D02*
X9399900Y-7696200D01*
X9696189Y-9878700D02*
X9696189Y-9958700D01*
X9656189Y-9918700D02*
X9736189Y-9918700D01*
X9896189Y-9878700D02*
X9896189Y-9958700D01*
X9856189Y-9918700D02*
X9936189Y-9918700D01*
X10121900Y-4989200D02*
X10121900Y-5069200D01*
X10081900Y-5029200D02*
X10161900Y-5029200D01*
X10121900Y-5370200D02*
X10121900Y-5450200D01*
X10081900Y-5410200D02*
X10161900Y-5410200D01*
X10121900Y-5751200D02*
X10121900Y-5831200D01*
X10081900Y-5791200D02*
X10161900Y-5791200D01*
X10121900Y-6132200D02*
X10121900Y-6212200D01*
X10081900Y-6172200D02*
X10161900Y-6172200D01*
X10121900Y-6513200D02*
X10121900Y-6593200D01*
X10081900Y-6553200D02*
X10161900Y-6553200D01*
X10121900Y-6894200D02*
X10121900Y-6974200D01*
X10081900Y-6934200D02*
X10161900Y-6934200D01*
X10121900Y-7275200D02*
X10121900Y-7355200D01*
X10081900Y-7315200D02*
X10161900Y-7315200D01*
X10121900Y-7656200D02*
X10121900Y-7736200D01*
X10081900Y-7696200D02*
X10161900Y-7696200D01*
X10452100Y-4532450D02*
X10452100Y-4612450D01*
X10412100Y-4572450D02*
X10492100Y-4572450D01*
X10452100Y-6056450D02*
X10452100Y-6136450D01*
X10412100Y-6096450D02*
X10492100Y-6096450D01*
X10579100Y-6411600D02*
X10579100Y-6491600D01*
X10539100Y-6451600D02*
X10619100Y-6451600D01*
X10579100Y-7173600D02*
X10579100Y-7253600D01*
X10539100Y-7213600D02*
X10619100Y-7213600D01*
X10706100Y-4532450D02*
X10706100Y-4612450D01*
X10666100Y-4572450D02*
X10746100Y-4572450D01*
X10706100Y-6056450D02*
X10706100Y-6136450D01*
X10666100Y-6096450D02*
X10746100Y-6096450D01*
X10960100Y-4532450D02*
X10960100Y-4612450D01*
X10920100Y-4572450D02*
X11000100Y-4572450D01*
X10960100Y-6056450D02*
X10960100Y-6136450D01*
X10920100Y-6096450D02*
X11000100Y-6096450D01*
X10960100Y-6411600D02*
X10960100Y-6491600D01*
X10920100Y-6451600D02*
X11000100Y-6451600D01*
X10960100Y-7173600D02*
X10960100Y-7253600D01*
X10920100Y-7213600D02*
X11000100Y-7213600D01*
X11214100Y-4532450D02*
X11214100Y-4612450D01*
X11174100Y-4572450D02*
X11254100Y-4572450D01*
X11214100Y-6056450D02*
X11214100Y-6136450D01*
X11174100Y-6096450D02*
X11254100Y-6096450D01*
X11341100Y-6411600D02*
X11341100Y-6491600D01*
X11301100Y-6451600D02*
X11381100Y-6451600D01*
X11341100Y-7173600D02*
X11341100Y-7253600D01*
X11301100Y-7213600D02*
X11381100Y-7213600D01*
X11448789Y-9672611D02*
X11448789Y-9752611D01*
X11408789Y-9712611D02*
X11488789Y-9712611D01*
X11468100Y-4532450D02*
X11468100Y-4612450D01*
X11428100Y-4572450D02*
X11508100Y-4572450D01*
X11468100Y-6056450D02*
X11468100Y-6136450D01*
X11428100Y-6096450D02*
X11508100Y-6096450D01*
X11648789Y-9672611D02*
X11648789Y-9752611D01*
X11608789Y-9712611D02*
X11688789Y-9712611D01*
X11722100Y-6411600D02*
X11722100Y-6491600D01*
X11682100Y-6451600D02*
X11762100Y-6451600D01*
X11722100Y-7173600D02*
X11722100Y-7253600D01*
X11682100Y-7213600D02*
X11762100Y-7213600D01*
X11785600Y-4532000D02*
X11785600Y-4612000D01*
X11745600Y-4572000D02*
X11825600Y-4572000D01*
X11785600Y-6056000D02*
X11785600Y-6136000D01*
X11745600Y-6096000D02*
X11825600Y-6096000D01*
X11963400Y-9672611D02*
X11963400Y-9752611D01*
X11923400Y-9712611D02*
X12003400Y-9712611D01*
X12039600Y-4532000D02*
X12039600Y-4612000D01*
X11999600Y-4572000D02*
X12079600Y-4572000D01*
X12039600Y-6056000D02*
X12039600Y-6136000D01*
X11999600Y-6096000D02*
X12079600Y-6096000D01*
X12103100Y-6411600D02*
X12103100Y-6491600D01*
X12063100Y-6451600D02*
X12143100Y-6451600D01*
X12103100Y-7173600D02*
X12103100Y-7253600D01*
X12063100Y-7213600D02*
X12143100Y-7213600D01*
X12293600Y-4532000D02*
X12293600Y-4612000D01*
X12253600Y-4572000D02*
X12333600Y-4572000D01*
X12293600Y-6056000D02*
X12293600Y-6136000D01*
X12253600Y-6096000D02*
X12333600Y-6096000D01*
X12484100Y-6411600D02*
X12484100Y-6491600D01*
X12444100Y-6451600D02*
X12524100Y-6451600D01*
X12484100Y-7173600D02*
X12484100Y-7253600D01*
X12444100Y-7213600D02*
X12524100Y-7213600D01*
X12547600Y-4532000D02*
X12547600Y-4612000D01*
X12507600Y-4572000D02*
X12587600Y-4572000D01*
X12547600Y-6056000D02*
X12547600Y-6136000D01*
X12507600Y-6096000D02*
X12587600Y-6096000D01*
X12725400Y-9672611D02*
X12725400Y-9752611D01*
X12685400Y-9712611D02*
X12765400Y-9712611D01*
X12801600Y-4532000D02*
X12801600Y-4612000D01*
X12761600Y-4572000D02*
X12841600Y-4572000D01*
X12801600Y-6056000D02*
X12801600Y-6136000D01*
X12761600Y-6096000D02*
X12841600Y-6096000D01*
X12865100Y-6411600D02*
X12865100Y-6491600D01*
X12825100Y-6451600D02*
X12905100Y-6451600D01*
X12865100Y-7173600D02*
X12865100Y-7253600D01*
X12825100Y-7213600D02*
X12905100Y-7213600D01*
X13119100Y-4532000D02*
X13119100Y-4612000D01*
X13079100Y-4572000D02*
X13159100Y-4572000D01*
X13119100Y-6056000D02*
X13119100Y-6136000D01*
X13079100Y-6096000D02*
X13159100Y-6096000D01*
X13246100Y-6411600D02*
X13246100Y-6491600D01*
X13206100Y-6451600D02*
X13286100Y-6451600D01*
X13246100Y-7173600D02*
X13246100Y-7253600D01*
X13206100Y-7213600D02*
X13286100Y-7213600D01*
X13373100Y-4532000D02*
X13373100Y-4612000D01*
X13333100Y-4572000D02*
X13413100Y-4572000D01*
X13373100Y-6056000D02*
X13373100Y-6136000D01*
X13333100Y-6096000D02*
X13413100Y-6096000D01*
X13627100Y-4532000D02*
X13627100Y-4612000D01*
X13587100Y-4572000D02*
X13667100Y-4572000D01*
X13627100Y-6056000D02*
X13627100Y-6136000D01*
X13587100Y-6096000D02*
X13667100Y-6096000D01*
X13627100Y-6411600D02*
X13627100Y-6491600D01*
X13587100Y-6451600D02*
X13667100Y-6451600D01*
X13627100Y-7173600D02*
X13627100Y-7253600D01*
X13587100Y-7213600D02*
X13667100Y-7213600D01*
X13881100Y-4532000D02*
X13881100Y-4612000D01*
X13841100Y-4572000D02*
X13921100Y-4572000D01*
X13881100Y-6056000D02*
X13881100Y-6136000D01*
X13841100Y-6096000D02*
X13921100Y-6096000D01*
X14008100Y-6411600D02*
X14008100Y-6491600D01*
X13968100Y-6451600D02*
X14048100Y-6451600D01*
X14008100Y-7173600D02*
X14008100Y-7253600D01*
X13968100Y-7213600D02*
X14048100Y-7213600D01*
X14135100Y-4532000D02*
X14135100Y-4612000D01*
X14095100Y-4572000D02*
X14175100Y-4572000D01*
X14135100Y-6056000D02*
X14135100Y-6136000D01*
X14095100Y-6096000D02*
X14175100Y-6096000D01*
X14389100Y-6411600D02*
X14389100Y-6491600D01*
X14349100Y-6451600D02*
X14429100Y-6451600D01*
X14389100Y-7173600D02*
X14389100Y-7253600D01*
X14349100Y-7213600D02*
X14429100Y-7213600D01*
X14452600Y-4532000D02*
X14452600Y-4612000D01*
X14412600Y-4572000D02*
X14492600Y-4572000D01*
X14452600Y-6056000D02*
X14452600Y-6136000D01*
X14412600Y-6096000D02*
X14492600Y-6096000D01*
X14706600Y-4532000D02*
X14706600Y-4612000D01*
X14666600Y-4572000D02*
X14746600Y-4572000D01*
X14706600Y-6056000D02*
X14706600Y-6136000D01*
X14666600Y-6096000D02*
X14746600Y-6096000D01*
X14770100Y-6411600D02*
X14770100Y-6491600D01*
X14730100Y-6451600D02*
X14810100Y-6451600D01*
X14770100Y-7173600D02*
X14770100Y-7253600D01*
X14730100Y-7213600D02*
X14810100Y-7213600D01*
X14844600Y-9662800D02*
X14844600Y-9742800D01*
X14804600Y-9702800D02*
X14884600Y-9702800D01*
X14960600Y-4532000D02*
X14960600Y-4612000D01*
X14920600Y-4572000D02*
X15000600Y-4572000D01*
X14960600Y-6056000D02*
X14960600Y-6136000D01*
X14920600Y-6096000D02*
X15000600Y-6096000D01*
X15151100Y-6411600D02*
X15151100Y-6491600D01*
X15111100Y-6451600D02*
X15191100Y-6451600D01*
X15151100Y-7173600D02*
X15151100Y-7253600D01*
X15111100Y-7213600D02*
X15191100Y-7213600D01*
X15214600Y-4532000D02*
X15214600Y-4612000D01*
X15174600Y-4572000D02*
X15254600Y-4572000D01*
X15214600Y-6056000D02*
X15214600Y-6136000D01*
X15174600Y-6096000D02*
X15254600Y-6096000D01*
X15332600Y-9662800D02*
X15332600Y-9742800D01*
X15292600Y-9702800D02*
X15372600Y-9702800D01*
X15468600Y-4532000D02*
X15468600Y-4612000D01*
X15428600Y-4572000D02*
X15508600Y-4572000D01*
X15468600Y-6056000D02*
X15468600Y-6136000D01*
X15428600Y-6096000D02*
X15508600Y-6096000D01*
X15532100Y-6411600D02*
X15532100Y-6491600D01*
X15492100Y-6451600D02*
X15572100Y-6451600D01*
X15532100Y-7173600D02*
X15532100Y-7253600D01*
X15492100Y-7213600D02*
X15572100Y-7213600D01*
X15786100Y-4532000D02*
X15786100Y-4612000D01*
X15746100Y-4572000D02*
X15826100Y-4572000D01*
X15786100Y-6056000D02*
X15786100Y-6136000D01*
X15746100Y-6096000D02*
X15826100Y-6096000D01*
X16040100Y-4532000D02*
X16040100Y-4612000D01*
X16000100Y-4572000D02*
X16080100Y-4572000D01*
X16040100Y-6056000D02*
X16040100Y-6136000D01*
X16000100Y-6096000D02*
X16080100Y-6096000D01*
X16294100Y-4532000D02*
X16294100Y-4612000D01*
X16254100Y-4572000D02*
X16334100Y-4572000D01*
X16294100Y-6056000D02*
X16294100Y-6136000D01*
X16254100Y-6096000D02*
X16334100Y-6096000D01*
X16548100Y-4532000D02*
X16548100Y-4612000D01*
X16508100Y-4572000D02*
X16588100Y-4572000D01*
X16548100Y-6056000D02*
X16548100Y-6136000D01*
X16508100Y-6096000D02*
X16588100Y-6096000D01*
X16802100Y-4532000D02*
X16802100Y-4612000D01*
X16762100Y-4572000D02*
X16842100Y-4572000D01*
X16802100Y-6056000D02*
X16802100Y-6136000D01*
X16762100Y-6096000D02*
X16842100Y-6096000D01*
X17119600Y-4532450D02*
X17119600Y-4612450D01*
X17079600Y-4572450D02*
X17159600Y-4572450D01*
X17119600Y-6056450D02*
X17119600Y-6136450D01*
X17079600Y-6096450D02*
X17159600Y-6096450D01*
X17373600Y-4532450D02*
X17373600Y-4612450D01*
X17333600Y-4572450D02*
X17413600Y-4572450D01*
X17373600Y-6056450D02*
X17373600Y-6136450D01*
X17333600Y-6096450D02*
X17413600Y-6096450D01*
X17627600Y-4532450D02*
X17627600Y-4612450D01*
X17587600Y-4572450D02*
X17667600Y-4572450D01*
X17627600Y-6056450D02*
X17627600Y-6136450D01*
X17587600Y-6096450D02*
X17667600Y-6096450D01*
X17881600Y-4532450D02*
X17881600Y-4612450D01*
X17841600Y-4572450D02*
X17921600Y-4572450D01*
X17881600Y-6056450D02*
X17881600Y-6136450D01*
X17841600Y-6096450D02*
X17921600Y-6096450D01*
X18135600Y-4532450D02*
X18135600Y-4612450D01*
X18095600Y-4572450D02*
X18175600Y-4572450D01*
X18135600Y-6056450D02*
X18135600Y-6136450D01*
X18095600Y-6096450D02*
X18175600Y-6096450D01*
D10*
X9408956Y-8861856D02*
X9408956Y-8791144D01*
X9338244Y-8791144D01*
X9338244Y-8861856D01*
X9408956Y-8861856D01*
X10168956Y-8861856D02*
X10168956Y-8791144D01*
X10098244Y-8791144D01*
X10098244Y-8861856D01*
X10168956Y-8861856D01*
X10677956Y-7617256D02*
X10677956Y-7546544D01*
X10607244Y-7546544D01*
X10607244Y-7617256D01*
X10677956Y-7617256D01*
X10677956Y-9141256D02*
X10677956Y-9070544D01*
X10607244Y-9070544D01*
X10607244Y-9141256D01*
X10677956Y-9141256D01*
X10931956Y-7617256D02*
X10931956Y-7546544D01*
X10861244Y-7546544D01*
X10861244Y-7617256D01*
X10931956Y-7617256D01*
X10931956Y-9141256D02*
X10931956Y-9070544D01*
X10861244Y-9070544D01*
X10861244Y-9141256D01*
X10931956Y-9141256D01*
X11185956Y-7617256D02*
X11185956Y-7546544D01*
X11115244Y-7546544D01*
X11115244Y-7617256D01*
X11185956Y-7617256D01*
X11185956Y-9141256D02*
X11185956Y-9070544D01*
X11115244Y-9070544D01*
X11115244Y-9141256D01*
X11185956Y-9141256D01*
X11439956Y-7617256D02*
X11439956Y-7546544D01*
X11369244Y-7546544D01*
X11369244Y-7617256D01*
X11439956Y-7617256D01*
X11439956Y-9141256D02*
X11439956Y-9070544D01*
X11369244Y-9070544D01*
X11369244Y-9141256D01*
X11439956Y-9141256D01*
X11693956Y-7617256D02*
X11693956Y-7546544D01*
X11623244Y-7546544D01*
X11623244Y-7617256D01*
X11693956Y-7617256D01*
X11693956Y-9141256D02*
X11693956Y-9070544D01*
X11623244Y-9070544D01*
X11623244Y-9141256D01*
X11693956Y-9141256D01*
X11947956Y-7617256D02*
X11947956Y-7546544D01*
X11877244Y-7546544D01*
X11877244Y-7617256D01*
X11947956Y-7617256D01*
X11947956Y-9141256D02*
X11947956Y-9070544D01*
X11877244Y-9070544D01*
X11877244Y-9141256D01*
X11947956Y-9141256D01*
X12201956Y-7617256D02*
X12201956Y-7546544D01*
X12131244Y-7546544D01*
X12131244Y-7617256D01*
X12201956Y-7617256D01*
X12201956Y-9141256D02*
X12201956Y-9070544D01*
X12131244Y-9070544D01*
X12131244Y-9141256D01*
X12201956Y-9141256D01*
X12455956Y-7617256D02*
X12455956Y-7546544D01*
X12385244Y-7546544D01*
X12385244Y-7617256D01*
X12455956Y-7617256D01*
X12455956Y-9141256D02*
X12455956Y-9070544D01*
X12385244Y-9070544D01*
X12385244Y-9141256D01*
X12455956Y-9141256D01*
X12709956Y-7617256D02*
X12709956Y-7546544D01*
X12639244Y-7546544D01*
X12639244Y-7617256D01*
X12709956Y-7617256D01*
X12709956Y-9141256D02*
X12709956Y-9070544D01*
X12639244Y-9070544D01*
X12639244Y-9141256D01*
X12709956Y-9141256D01*
X12963956Y-7617256D02*
X12963956Y-7546544D01*
X12893244Y-7546544D01*
X12893244Y-7617256D01*
X12963956Y-7617256D01*
X12963956Y-9141256D02*
X12963956Y-9070544D01*
X12893244Y-9070544D01*
X12893244Y-9141256D01*
X12963956Y-9141256D01*
X13217956Y-7617256D02*
X13217956Y-7546544D01*
X13147244Y-7546544D01*
X13147244Y-7617256D01*
X13217956Y-7617256D01*
X13217956Y-9141256D02*
X13217956Y-9070544D01*
X13147244Y-9070544D01*
X13147244Y-9141256D01*
X13217956Y-9141256D01*
X13471956Y-7617256D02*
X13471956Y-7546544D01*
X13401244Y-7546544D01*
X13401244Y-7617256D01*
X13471956Y-7617256D01*
X13471956Y-9141256D02*
X13471956Y-9070544D01*
X13401244Y-9070544D01*
X13401244Y-9141256D01*
X13471956Y-9141256D01*
X13725956Y-7617256D02*
X13725956Y-7546544D01*
X13655244Y-7546544D01*
X13655244Y-7617256D01*
X13725956Y-7617256D01*
X13725956Y-9141256D02*
X13725956Y-9070544D01*
X13655244Y-9070544D01*
X13655244Y-9141256D01*
X13725956Y-9141256D01*
X13979956Y-7617256D02*
X13979956Y-7546544D01*
X13909244Y-7546544D01*
X13909244Y-7617256D01*
X13979956Y-7617256D01*
X13979956Y-9141256D02*
X13979956Y-9070544D01*
X13909244Y-9070544D01*
X13909244Y-9141256D01*
X13979956Y-9141256D01*
X14233956Y-7617256D02*
X14233956Y-7546544D01*
X14163244Y-7546544D01*
X14163244Y-7617256D01*
X14233956Y-7617256D01*
X14233956Y-9141256D02*
X14233956Y-9070544D01*
X14163244Y-9070544D01*
X14163244Y-9141256D01*
X14233956Y-9141256D01*
X14487956Y-7617256D02*
X14487956Y-7546544D01*
X14417244Y-7546544D01*
X14417244Y-7617256D01*
X14487956Y-7617256D01*
X14487956Y-9141256D02*
X14487956Y-9070544D01*
X14417244Y-9070544D01*
X14417244Y-9141256D01*
X14487956Y-9141256D01*
X14741956Y-7617256D02*
X14741956Y-7546544D01*
X14671244Y-7546544D01*
X14671244Y-7617256D01*
X14741956Y-7617256D01*
X14741956Y-9141256D02*
X14741956Y-9070544D01*
X14671244Y-9070544D01*
X14671244Y-9141256D01*
X14741956Y-9141256D01*
X14995956Y-7617256D02*
X14995956Y-7546544D01*
X14925244Y-7546544D01*
X14925244Y-7617256D01*
X14995956Y-7617256D01*
X14995956Y-9141256D02*
X14995956Y-9070544D01*
X14925244Y-9070544D01*
X14925244Y-9141256D01*
X14995956Y-9141256D01*
X15249956Y-7617256D02*
X15249956Y-7546544D01*
X15179244Y-7546544D01*
X15179244Y-7617256D01*
X15249956Y-7617256D01*
X15249956Y-9141256D02*
X15249956Y-9070544D01*
X15179244Y-9070544D01*
X15179244Y-9141256D01*
X15249956Y-9141256D01*
X15503956Y-7617256D02*
X15503956Y-7546544D01*
X15433244Y-7546544D01*
X15433244Y-7617256D01*
X15503956Y-7617256D01*
X15503956Y-9141256D02*
X15503956Y-9070544D01*
X15433244Y-9070544D01*
X15433244Y-9141256D01*
X15503956Y-9141256D01*
D15*
X9575800Y-4246000D02*
X9630800Y-4191000D01*
X9575800Y-4136000D01*
X9520800Y-4191000D01*
X9575800Y-4246000D01*
X9829800Y-4246000D02*
X9884800Y-4191000D01*
X9829800Y-4136000D01*
X9774800Y-4191000D01*
X9829800Y-4246000D01*
X10083800Y-4246000D02*
X10138800Y-4191000D01*
X10083800Y-4136000D01*
X10028800Y-4191000D01*
X10083800Y-4246000D01*
X10426700Y-9643500D02*
X10481700Y-9588500D01*
X10426700Y-9533500D01*
X10371700Y-9588500D01*
X10426700Y-9643500D01*
X10426700Y-10093500D02*
X10481700Y-10038500D01*
X10426700Y-9983500D01*
X10371700Y-10038500D01*
X10426700Y-10093500D01*
X11076700Y-9643500D02*
X11131700Y-9588500D01*
X11076700Y-9533500D01*
X11021700Y-9588500D01*
X11076700Y-9643500D01*
X11076700Y-10093500D02*
X11131700Y-10038500D01*
X11076700Y-9983500D01*
X11021700Y-10038500D01*
X11076700Y-10093500D01*
X13042900Y-9630800D02*
X13097900Y-9575800D01*
X13042900Y-9520800D01*
X12987900Y-9575800D01*
X13042900Y-9630800D01*
X13042900Y-10080800D02*
X13097900Y-10025800D01*
X13042900Y-9970800D01*
X12987900Y-10025800D01*
X13042900Y-10080800D01*
X13692900Y-9630800D02*
X13747900Y-9575800D01*
X13692900Y-9520800D01*
X13637900Y-9575800D01*
X13692900Y-9630800D01*
X13692900Y-10080800D02*
X13747900Y-10025800D01*
X13692900Y-9970800D01*
X13637900Y-10025800D01*
X13692900Y-10080800D01*
X15967500Y-6613400D02*
X16022500Y-6558400D01*
X15967500Y-6503400D01*
X15912500Y-6558400D01*
X15967500Y-6613400D01*
X15967500Y-7263400D02*
X16022500Y-7208400D01*
X15967500Y-7153400D01*
X15912500Y-7208400D01*
X15967500Y-7263400D01*
X16005600Y-8099300D02*
X16060600Y-8044300D01*
X16005600Y-7989300D01*
X15950600Y-8044300D01*
X16005600Y-8099300D01*
X16005600Y-8749300D02*
X16060600Y-8694300D01*
X16005600Y-8639300D01*
X15950600Y-8694300D01*
X16005600Y-8749300D01*
X16417500Y-6613400D02*
X16472500Y-6558400D01*
X16417500Y-6503400D01*
X16362500Y-6558400D01*
X16417500Y-6613400D01*
X16417500Y-7263400D02*
X16472500Y-7208400D01*
X16417500Y-7153400D01*
X16362500Y-7208400D01*
X16417500Y-7263400D01*
X16455600Y-8099300D02*
X16510600Y-8044300D01*
X16455600Y-7989300D01*
X16400600Y-8044300D01*
X16455600Y-8099300D01*
X16455600Y-8749300D02*
X16510600Y-8694300D01*
X16455600Y-8639300D01*
X16400600Y-8694300D01*
X16455600Y-8749300D01*
X16818400Y-6613400D02*
X16873400Y-6558400D01*
X16818400Y-6503400D01*
X16763400Y-6558400D01*
X16818400Y-6613400D01*
X16818400Y-7263400D02*
X16873400Y-7208400D01*
X16818400Y-7153400D01*
X16763400Y-7208400D01*
X16818400Y-7263400D01*
X16843800Y-7654800D02*
X16898800Y-7599800D01*
X16843800Y-7544800D01*
X16788800Y-7599800D01*
X16843800Y-7654800D01*
X16843800Y-8304800D02*
X16898800Y-8249800D01*
X16843800Y-8194800D01*
X16788800Y-8249800D01*
X16843800Y-8304800D01*
X16856500Y-8658100D02*
X16911500Y-8603100D01*
X16856500Y-8548100D01*
X16801500Y-8603100D01*
X16856500Y-8658100D01*
X16856500Y-9308100D02*
X16911500Y-9253100D01*
X16856500Y-9198100D01*
X16801500Y-9253100D01*
X16856500Y-9308100D01*
X17268400Y-6613400D02*
X17323400Y-6558400D01*
X17268400Y-6503400D01*
X17213400Y-6558400D01*
X17268400Y-6613400D01*
X17268400Y-7263400D02*
X17323400Y-7208400D01*
X17268400Y-7153400D01*
X17213400Y-7208400D01*
X17268400Y-7263400D01*
X17293800Y-7654800D02*
X17348800Y-7599800D01*
X17293800Y-7544800D01*
X17238800Y-7599800D01*
X17293800Y-7654800D01*
X17293800Y-8304800D02*
X17348800Y-8249800D01*
X17293800Y-8194800D01*
X17238800Y-8249800D01*
X17293800Y-8304800D01*
X17306500Y-8658100D02*
X17361500Y-8603100D01*
X17306500Y-8548100D01*
X17251500Y-8603100D01*
X17306500Y-8658100D01*
X17306500Y-9308100D02*
X17361500Y-9253100D01*
X17306500Y-9198100D01*
X17251500Y-9253100D01*
X17306500Y-9308100D01*
X17732800Y-8112000D02*
X17787800Y-8057000D01*
X17732800Y-8002000D01*
X17677800Y-8057000D01*
X17732800Y-8112000D01*
X17732800Y-8762000D02*
X17787800Y-8707000D01*
X17732800Y-8652000D01*
X17677800Y-8707000D01*
X17732800Y-8762000D01*
X18182800Y-8112000D02*
X18237800Y-8057000D01*
X18182800Y-8002000D01*
X18127800Y-8057000D01*
X18182800Y-8112000D01*
X18182800Y-8762000D02*
X18237800Y-8707000D01*
X18182800Y-8652000D01*
X18127800Y-8707000D01*
X18182800Y-8762000D01*
D11*
X9069619Y-10698476D02*
X9069619Y-10498476D01*
X9117238Y-10498476D01*
X9145810Y-10508000D01*
X9164857Y-10527048D01*
X9174381Y-10546095D01*
X9183905Y-10584190D01*
X9183905Y-10612762D01*
X9174381Y-10650857D01*
X9164857Y-10669905D01*
X9145810Y-10688952D01*
X9117238Y-10698476D01*
X9069619Y-10698476D01*
X9269619Y-10698476D02*
X9269619Y-10565143D01*
X9269619Y-10603238D02*
X9279143Y-10584190D01*
X9288667Y-10574667D01*
X9307714Y-10565143D01*
X9326762Y-10565143D01*
X9393429Y-10698476D02*
X9393429Y-10565143D01*
X9393429Y-10498476D02*
X9383905Y-10508000D01*
X9393429Y-10517524D01*
X9402952Y-10508000D01*
X9393429Y-10498476D01*
X9393429Y-10517524D01*
X9517238Y-10698476D02*
X9498190Y-10688952D01*
X9488667Y-10669905D01*
X9488667Y-10498476D01*
X9622000Y-10698476D02*
X9602952Y-10688952D01*
X9593429Y-10669905D01*
X9593429Y-10498476D01*
X9850571Y-10698476D02*
X9850571Y-10498476D01*
X9917238Y-10641333D01*
X9983905Y-10498476D01*
X9983905Y-10698476D01*
X10164857Y-10698476D02*
X10164857Y-10593714D01*
X10155333Y-10574667D01*
X10136286Y-10565143D01*
X10098190Y-10565143D01*
X10079143Y-10574667D01*
X10164857Y-10688952D02*
X10145810Y-10698476D01*
X10098190Y-10698476D01*
X10079143Y-10688952D01*
X10069619Y-10669905D01*
X10069619Y-10650857D01*
X10079143Y-10631810D01*
X10098190Y-10622286D01*
X10145810Y-10622286D01*
X10164857Y-10612762D01*
X10260095Y-10565143D02*
X10260095Y-10765143D01*
X10260095Y-10574667D02*
X10279143Y-10565143D01*
X10317238Y-10565143D01*
X10336286Y-10574667D01*
X10345810Y-10584190D01*
X10355333Y-10603238D01*
X10355333Y-10660381D01*
X10345810Y-10679429D01*
X10336286Y-10688952D01*
X10317238Y-10698476D01*
X10279143Y-10698476D01*
X10260095Y-10688952D01*
X10441048Y-10679429D02*
X10450571Y-10688952D01*
X10441048Y-10698476D01*
X10431524Y-10688952D01*
X10441048Y-10679429D01*
X10441048Y-10698476D01*
X10441048Y-10574667D02*
X10450571Y-10584190D01*
X10441048Y-10593714D01*
X10431524Y-10584190D01*
X10441048Y-10574667D01*
X10441048Y-10593714D01*
D12*
X8752000Y-10998000D02*
X8812000Y-11058000D01*
X8812000Y-10998000D02*
X8752000Y-11058000D01*
D11*
X9107714Y-10918476D02*
X9126762Y-10918476D01*
X9145810Y-10928000D01*
X9155333Y-10937524D01*
X9164857Y-10956571D01*
X9174381Y-10994667D01*
X9174381Y-11042286D01*
X9164857Y-11080381D01*
X9155333Y-11099429D01*
X9145810Y-11108952D01*
X9126762Y-11118476D01*
X9107714Y-11118476D01*
X9088667Y-11108952D01*
X9079143Y-11099429D01*
X9069619Y-11080381D01*
X9060095Y-11042286D01*
X9060095Y-10994667D01*
X9069619Y-10956571D01*
X9079143Y-10937524D01*
X9088667Y-10928000D01*
X9107714Y-10918476D01*
X9260095Y-11099429D02*
X9269619Y-11108952D01*
X9260095Y-11118476D01*
X9250571Y-11108952D01*
X9260095Y-11099429D01*
X9260095Y-11118476D01*
X9441048Y-10918476D02*
X9402952Y-10918476D01*
X9383905Y-10928000D01*
X9374381Y-10937524D01*
X9355333Y-10966095D01*
X9345810Y-11004190D01*
X9345810Y-11080381D01*
X9355333Y-11099429D01*
X9364857Y-11108952D01*
X9383905Y-11118476D01*
X9422000Y-11118476D01*
X9441048Y-11108952D01*
X9450571Y-11099429D01*
X9460095Y-11080381D01*
X9460095Y-11032762D01*
X9450571Y-11013714D01*
X9441048Y-11004190D01*
X9422000Y-10994667D01*
X9383905Y-10994667D01*
X9364857Y-11004190D01*
X9355333Y-11013714D01*
X9345810Y-11032762D01*
X9583905Y-10918476D02*
X9602952Y-10918476D01*
X9622000Y-10928000D01*
X9631524Y-10937524D01*
X9641048Y-10956571D01*
X9650571Y-10994667D01*
X9650571Y-11042286D01*
X9641048Y-11080381D01*
X9631524Y-11099429D01*
X9622000Y-11108952D01*
X9602952Y-11118476D01*
X9583905Y-11118476D01*
X9564857Y-11108952D01*
X9555333Y-11099429D01*
X9545810Y-11080381D01*
X9536286Y-11042286D01*
X9536286Y-10994667D01*
X9545810Y-10956571D01*
X9555333Y-10937524D01*
X9564857Y-10928000D01*
X9583905Y-10918476D01*
X9774381Y-10918476D02*
X9793429Y-10918476D01*
X9812476Y-10928000D01*
X9822000Y-10937524D01*
X9831524Y-10956571D01*
X9841048Y-10994667D01*
X9841048Y-11042286D01*
X9831524Y-11080381D01*
X9822000Y-11099429D01*
X9812476Y-11108952D01*
X9793429Y-11118476D01*
X9774381Y-11118476D01*
X9755333Y-11108952D01*
X9745810Y-11099429D01*
X9736286Y-11080381D01*
X9726762Y-11042286D01*
X9726762Y-10994667D01*
X9736286Y-10956571D01*
X9745810Y-10937524D01*
X9755333Y-10928000D01*
X9774381Y-10918476D01*
X9926762Y-11118476D02*
X9926762Y-10985143D01*
X9926762Y-11004190D02*
X9936286Y-10994667D01*
X9955333Y-10985143D01*
X9983905Y-10985143D01*
X10002952Y-10994667D01*
X10012476Y-11013714D01*
X10012476Y-11118476D01*
X10012476Y-11013714D02*
X10022000Y-10994667D01*
X10041048Y-10985143D01*
X10069619Y-10985143D01*
X10088667Y-10994667D01*
X10098190Y-11013714D01*
X10098190Y-11118476D01*
X10193429Y-11118476D02*
X10193429Y-10985143D01*
X10193429Y-11004190D02*
X10202952Y-10994667D01*
X10222000Y-10985143D01*
X10250571Y-10985143D01*
X10269619Y-10994667D01*
X10279143Y-11013714D01*
X10279143Y-11118476D01*
X10279143Y-11013714D02*
X10288667Y-10994667D01*
X10307714Y-10985143D01*
X10336286Y-10985143D01*
X10355333Y-10994667D01*
X10364857Y-11013714D01*
X10364857Y-11118476D01*
X10755333Y-10908952D02*
X10583905Y-11166095D01*
X11012476Y-10918476D02*
X11031524Y-10918476D01*
X11050571Y-10928000D01*
X11060095Y-10937524D01*
X11069619Y-10956571D01*
X11079143Y-10994667D01*
X11079143Y-11042286D01*
X11069619Y-11080381D01*
X11060095Y-11099429D01*
X11050571Y-11108952D01*
X11031524Y-11118476D01*
X11012476Y-11118476D01*
X10993429Y-11108952D01*
X10983905Y-11099429D01*
X10974381Y-11080381D01*
X10964857Y-11042286D01*
X10964857Y-10994667D01*
X10974381Y-10956571D01*
X10983905Y-10937524D01*
X10993429Y-10928000D01*
X11012476Y-10918476D01*
X11164857Y-11099429D02*
X11174381Y-11108952D01*
X11164857Y-11118476D01*
X11155333Y-11108952D01*
X11164857Y-11099429D01*
X11164857Y-11118476D01*
X11298190Y-10918476D02*
X11317238Y-10918476D01*
X11336286Y-10928000D01*
X11345809Y-10937524D01*
X11355333Y-10956571D01*
X11364857Y-10994667D01*
X11364857Y-11042286D01*
X11355333Y-11080381D01*
X11345809Y-11099429D01*
X11336286Y-11108952D01*
X11317238Y-11118476D01*
X11298190Y-11118476D01*
X11279143Y-11108952D01*
X11269619Y-11099429D01*
X11260095Y-11080381D01*
X11250571Y-11042286D01*
X11250571Y-10994667D01*
X11260095Y-10956571D01*
X11269619Y-10937524D01*
X11279143Y-10928000D01*
X11298190Y-10918476D01*
X11441048Y-10937524D02*
X11450571Y-10928000D01*
X11469619Y-10918476D01*
X11517238Y-10918476D01*
X11536286Y-10928000D01*
X11545809Y-10937524D01*
X11555333Y-10956571D01*
X11555333Y-10975619D01*
X11545809Y-11004190D01*
X11431524Y-11118476D01*
X11555333Y-11118476D01*
X11622000Y-10918476D02*
X11745809Y-10918476D01*
X11679143Y-10994667D01*
X11707714Y-10994667D01*
X11726762Y-11004190D01*
X11736286Y-11013714D01*
X11745809Y-11032762D01*
X11745809Y-11080381D01*
X11736286Y-11099429D01*
X11726762Y-11108952D01*
X11707714Y-11118476D01*
X11650571Y-11118476D01*
X11631524Y-11108952D01*
X11622000Y-11099429D01*
X11917238Y-10918476D02*
X11879143Y-10918476D01*
X11860095Y-10928000D01*
X11850571Y-10937524D01*
X11831524Y-10966095D01*
X11822000Y-11004190D01*
X11822000Y-11080381D01*
X11831524Y-11099429D01*
X11841048Y-11108952D01*
X11860095Y-11118476D01*
X11898190Y-11118476D01*
X11917238Y-11108952D01*
X11926762Y-11099429D01*
X11936286Y-11080381D01*
X11936286Y-11032762D01*
X11926762Y-11013714D01*
X11917238Y-11004190D01*
X11898190Y-10994667D01*
X11860095Y-10994667D01*
X11841048Y-11004190D01*
X11831524Y-11013714D01*
X11822000Y-11032762D01*
X12012476Y-10918476D02*
X12012476Y-10956571D01*
X12088667Y-10918476D02*
X12088667Y-10956571D01*
X12383905Y-11194667D02*
X12374381Y-11185143D01*
X12355333Y-11156571D01*
X12345809Y-11137524D01*
X12336286Y-11108952D01*
X12326762Y-11061333D01*
X12326762Y-11023238D01*
X12336286Y-10975619D01*
X12345809Y-10947048D01*
X12355333Y-10928000D01*
X12374381Y-10899429D01*
X12383905Y-10889905D01*
X12545809Y-10985143D02*
X12545809Y-11118476D01*
X12498190Y-10908952D02*
X12450571Y-11051810D01*
X12574381Y-11051810D01*
X12802952Y-11118476D02*
X12802952Y-10918476D01*
X12888667Y-11118476D02*
X12888667Y-11013714D01*
X12879143Y-10994667D01*
X12860095Y-10985143D01*
X12831524Y-10985143D01*
X12812476Y-10994667D01*
X12802952Y-11004190D01*
X13012476Y-11118476D02*
X12993428Y-11108952D01*
X12983905Y-11099429D01*
X12974381Y-11080381D01*
X12974381Y-11023238D01*
X12983905Y-11004190D01*
X12993428Y-10994667D01*
X13012476Y-10985143D01*
X13041048Y-10985143D01*
X13060095Y-10994667D01*
X13069619Y-11004190D01*
X13079143Y-11023238D01*
X13079143Y-11080381D01*
X13069619Y-11099429D01*
X13060095Y-11108952D01*
X13041048Y-11118476D01*
X13012476Y-11118476D01*
X13193428Y-11118476D02*
X13174381Y-11108952D01*
X13164857Y-11089905D01*
X13164857Y-10918476D01*
X13345809Y-11108952D02*
X13326762Y-11118476D01*
X13288667Y-11118476D01*
X13269619Y-11108952D01*
X13260095Y-11089905D01*
X13260095Y-11013714D01*
X13269619Y-10994667D01*
X13288667Y-10985143D01*
X13326762Y-10985143D01*
X13345809Y-10994667D01*
X13355333Y-11013714D01*
X13355333Y-11032762D01*
X13260095Y-11051810D01*
X13431524Y-11108952D02*
X13450571Y-11118476D01*
X13488667Y-11118476D01*
X13507714Y-11108952D01*
X13517238Y-11089905D01*
X13517238Y-11080381D01*
X13507714Y-11061333D01*
X13488667Y-11051810D01*
X13460095Y-11051810D01*
X13441048Y-11042286D01*
X13431524Y-11023238D01*
X13431524Y-11013714D01*
X13441048Y-10994667D01*
X13460095Y-10985143D01*
X13488667Y-10985143D01*
X13507714Y-10994667D01*
X13583905Y-11194667D02*
X13593428Y-11185143D01*
X13612476Y-11156571D01*
X13622000Y-11137524D01*
X13631524Y-11108952D01*
X13641048Y-11061333D01*
X13641048Y-11023238D01*
X13631524Y-10975619D01*
X13622000Y-10947048D01*
X13612476Y-10928000D01*
X13593428Y-10899429D01*
X13583905Y-10889905D01*
D13*
X8812000Y-11292000D02*
G75*
G03*
X8812000Y-11292000I-37500J0D01*
G01*
D11*
X9107714Y-11182476D02*
X9126762Y-11182476D01*
X9145810Y-11192000D01*
X9155333Y-11201524D01*
X9164857Y-11220571D01*
X9174381Y-11258667D01*
X9174381Y-11306286D01*
X9164857Y-11344381D01*
X9155333Y-11363428D01*
X9145810Y-11372952D01*
X9126762Y-11382476D01*
X9107714Y-11382476D01*
X9088667Y-11372952D01*
X9079143Y-11363428D01*
X9069619Y-11344381D01*
X9060095Y-11306286D01*
X9060095Y-11258667D01*
X9069619Y-11220571D01*
X9079143Y-11201524D01*
X9088667Y-11192000D01*
X9107714Y-11182476D01*
X9260095Y-11363428D02*
X9269619Y-11372952D01*
X9260095Y-11382476D01*
X9250571Y-11372952D01*
X9260095Y-11363428D01*
X9260095Y-11382476D01*
X9336286Y-11182476D02*
X9469619Y-11182476D01*
X9383905Y-11382476D01*
X9641048Y-11182476D02*
X9545810Y-11182476D01*
X9536286Y-11277714D01*
X9545810Y-11268190D01*
X9564857Y-11258667D01*
X9612476Y-11258667D01*
X9631524Y-11268190D01*
X9641048Y-11277714D01*
X9650571Y-11296762D01*
X9650571Y-11344381D01*
X9641048Y-11363428D01*
X9631524Y-11372952D01*
X9612476Y-11382476D01*
X9564857Y-11382476D01*
X9545810Y-11372952D01*
X9536286Y-11363428D01*
X9774381Y-11182476D02*
X9793429Y-11182476D01*
X9812476Y-11192000D01*
X9822000Y-11201524D01*
X9831524Y-11220571D01*
X9841048Y-11258667D01*
X9841048Y-11306286D01*
X9831524Y-11344381D01*
X9822000Y-11363428D01*
X9812476Y-11372952D01*
X9793429Y-11382476D01*
X9774381Y-11382476D01*
X9755333Y-11372952D01*
X9745810Y-11363428D01*
X9736286Y-11344381D01*
X9726762Y-11306286D01*
X9726762Y-11258667D01*
X9736286Y-11220571D01*
X9745810Y-11201524D01*
X9755333Y-11192000D01*
X9774381Y-11182476D01*
X9926762Y-11382476D02*
X9926762Y-11249143D01*
X9926762Y-11268190D02*
X9936286Y-11258667D01*
X9955333Y-11249143D01*
X9983905Y-11249143D01*
X10002952Y-11258667D01*
X10012476Y-11277714D01*
X10012476Y-11382476D01*
X10012476Y-11277714D02*
X10022000Y-11258667D01*
X10041048Y-11249143D01*
X10069619Y-11249143D01*
X10088667Y-11258667D01*
X10098190Y-11277714D01*
X10098190Y-11382476D01*
X10193429Y-11382476D02*
X10193429Y-11249143D01*
X10193429Y-11268190D02*
X10202952Y-11258667D01*
X10222000Y-11249143D01*
X10250571Y-11249143D01*
X10269619Y-11258667D01*
X10279143Y-11277714D01*
X10279143Y-11382476D01*
X10279143Y-11277714D02*
X10288667Y-11258667D01*
X10307714Y-11249143D01*
X10336286Y-11249143D01*
X10355333Y-11258667D01*
X10364857Y-11277714D01*
X10364857Y-11382476D01*
X10755333Y-11172952D02*
X10583905Y-11430095D01*
X11012476Y-11182476D02*
X11031524Y-11182476D01*
X11050571Y-11192000D01*
X11060095Y-11201524D01*
X11069619Y-11220571D01*
X11079143Y-11258667D01*
X11079143Y-11306286D01*
X11069619Y-11344381D01*
X11060095Y-11363428D01*
X11050571Y-11372952D01*
X11031524Y-11382476D01*
X11012476Y-11382476D01*
X10993429Y-11372952D01*
X10983905Y-11363428D01*
X10974381Y-11344381D01*
X10964857Y-11306286D01*
X10964857Y-11258667D01*
X10974381Y-11220571D01*
X10983905Y-11201524D01*
X10993429Y-11192000D01*
X11012476Y-11182476D01*
X11164857Y-11363428D02*
X11174381Y-11372952D01*
X11164857Y-11382476D01*
X11155333Y-11372952D01*
X11164857Y-11363428D01*
X11164857Y-11382476D01*
X11298190Y-11182476D02*
X11317238Y-11182476D01*
X11336286Y-11192000D01*
X11345809Y-11201524D01*
X11355333Y-11220571D01*
X11364857Y-11258667D01*
X11364857Y-11306286D01*
X11355333Y-11344381D01*
X11345809Y-11363428D01*
X11336286Y-11372952D01*
X11317238Y-11382476D01*
X11298190Y-11382476D01*
X11279143Y-11372952D01*
X11269619Y-11363428D01*
X11260095Y-11344381D01*
X11250571Y-11306286D01*
X11250571Y-11258667D01*
X11260095Y-11220571D01*
X11269619Y-11201524D01*
X11279143Y-11192000D01*
X11298190Y-11182476D01*
X11441048Y-11201524D02*
X11450571Y-11192000D01*
X11469619Y-11182476D01*
X11517238Y-11182476D01*
X11536286Y-11192000D01*
X11545809Y-11201524D01*
X11555333Y-11220571D01*
X11555333Y-11239619D01*
X11545809Y-11268190D01*
X11431524Y-11382476D01*
X11555333Y-11382476D01*
X11650571Y-11382476D02*
X11688667Y-11382476D01*
X11707714Y-11372952D01*
X11717238Y-11363428D01*
X11736286Y-11334857D01*
X11745809Y-11296762D01*
X11745809Y-11220571D01*
X11736286Y-11201524D01*
X11726762Y-11192000D01*
X11707714Y-11182476D01*
X11669619Y-11182476D01*
X11650571Y-11192000D01*
X11641048Y-11201524D01*
X11631524Y-11220571D01*
X11631524Y-11268190D01*
X11641048Y-11287238D01*
X11650571Y-11296762D01*
X11669619Y-11306286D01*
X11707714Y-11306286D01*
X11726762Y-11296762D01*
X11736286Y-11287238D01*
X11745809Y-11268190D01*
X11926762Y-11182476D02*
X11831524Y-11182476D01*
X11822000Y-11277714D01*
X11831524Y-11268190D01*
X11850571Y-11258667D01*
X11898190Y-11258667D01*
X11917238Y-11268190D01*
X11926762Y-11277714D01*
X11936286Y-11296762D01*
X11936286Y-11344381D01*
X11926762Y-11363428D01*
X11917238Y-11372952D01*
X11898190Y-11382476D01*
X11850571Y-11382476D01*
X11831524Y-11372952D01*
X11822000Y-11363428D01*
X12012476Y-11182476D02*
X12012476Y-11220571D01*
X12088667Y-11182476D02*
X12088667Y-11220571D01*
X12383905Y-11458667D02*
X12374381Y-11449143D01*
X12355333Y-11420571D01*
X12345809Y-11401524D01*
X12336286Y-11372952D01*
X12326762Y-11325333D01*
X12326762Y-11287238D01*
X12336286Y-11239619D01*
X12345809Y-11211048D01*
X12355333Y-11192000D01*
X12374381Y-11163429D01*
X12383905Y-11153905D01*
X12564857Y-11382476D02*
X12450571Y-11382476D01*
X12507714Y-11382476D02*
X12507714Y-11182476D01*
X12488667Y-11211048D01*
X12469619Y-11230095D01*
X12450571Y-11239619D01*
X12679143Y-11268190D02*
X12660095Y-11258667D01*
X12650571Y-11249143D01*
X12641048Y-11230095D01*
X12641048Y-11220571D01*
X12650571Y-11201524D01*
X12660095Y-11192000D01*
X12679143Y-11182476D01*
X12717238Y-11182476D01*
X12736286Y-11192000D01*
X12745809Y-11201524D01*
X12755333Y-11220571D01*
X12755333Y-11230095D01*
X12745809Y-11249143D01*
X12736286Y-11258667D01*
X12717238Y-11268190D01*
X12679143Y-11268190D01*
X12660095Y-11277714D01*
X12650571Y-11287238D01*
X12641048Y-11306286D01*
X12641048Y-11344381D01*
X12650571Y-11363428D01*
X12660095Y-11372952D01*
X12679143Y-11382476D01*
X12717238Y-11382476D01*
X12736286Y-11372952D01*
X12745809Y-11363428D01*
X12755333Y-11344381D01*
X12755333Y-11306286D01*
X12745809Y-11287238D01*
X12736286Y-11277714D01*
X12717238Y-11268190D01*
X12993428Y-11382476D02*
X12993428Y-11182476D01*
X13079143Y-11382476D02*
X13079143Y-11277714D01*
X13069619Y-11258667D01*
X13050571Y-11249143D01*
X13022000Y-11249143D01*
X13002952Y-11258667D01*
X12993428Y-11268190D01*
X13202952Y-11382476D02*
X13183905Y-11372952D01*
X13174381Y-11363428D01*
X13164857Y-11344381D01*
X13164857Y-11287238D01*
X13174381Y-11268190D01*
X13183905Y-11258667D01*
X13202952Y-11249143D01*
X13231524Y-11249143D01*
X13250571Y-11258667D01*
X13260095Y-11268190D01*
X13269619Y-11287238D01*
X13269619Y-11344381D01*
X13260095Y-11363428D01*
X13250571Y-11372952D01*
X13231524Y-11382476D01*
X13202952Y-11382476D01*
X13383905Y-11382476D02*
X13364857Y-11372952D01*
X13355333Y-11353905D01*
X13355333Y-11182476D01*
X13536286Y-11372952D02*
X13517238Y-11382476D01*
X13479143Y-11382476D01*
X13460095Y-11372952D01*
X13450571Y-11353905D01*
X13450571Y-11277714D01*
X13460095Y-11258667D01*
X13479143Y-11249143D01*
X13517238Y-11249143D01*
X13536286Y-11258667D01*
X13545809Y-11277714D01*
X13545809Y-11296762D01*
X13450571Y-11315809D01*
X13622000Y-11372952D02*
X13641048Y-11382476D01*
X13679143Y-11382476D01*
X13698190Y-11372952D01*
X13707714Y-11353905D01*
X13707714Y-11344381D01*
X13698190Y-11325333D01*
X13679143Y-11315809D01*
X13650571Y-11315809D01*
X13631524Y-11306286D01*
X13622000Y-11287238D01*
X13622000Y-11277714D01*
X13631524Y-11258667D01*
X13650571Y-11249143D01*
X13679143Y-11249143D01*
X13698190Y-11258667D01*
X13774381Y-11458667D02*
X13783905Y-11449143D01*
X13802952Y-11420571D01*
X13812476Y-11401524D01*
X13822000Y-11372952D01*
X13831524Y-11325333D01*
X13831524Y-11287238D01*
X13822000Y-11239619D01*
X13812476Y-11211048D01*
X13802952Y-11192000D01*
X13783905Y-11163429D01*
X13774381Y-11153905D01*
D14*
X8772000Y-11516000D02*
X8772000Y-11596000D01*
X8732000Y-11556000D02*
X8812000Y-11556000D01*
D11*
X9107714Y-11446476D02*
X9126762Y-11446476D01*
X9145810Y-11456000D01*
X9155333Y-11465524D01*
X9164857Y-11484571D01*
X9174381Y-11522667D01*
X9174381Y-11570286D01*
X9164857Y-11608381D01*
X9155333Y-11627428D01*
X9145810Y-11636952D01*
X9126762Y-11646476D01*
X9107714Y-11646476D01*
X9088667Y-11636952D01*
X9079143Y-11627428D01*
X9069619Y-11608381D01*
X9060095Y-11570286D01*
X9060095Y-11522667D01*
X9069619Y-11484571D01*
X9079143Y-11465524D01*
X9088667Y-11456000D01*
X9107714Y-11446476D01*
X9260095Y-11627428D02*
X9269619Y-11636952D01*
X9260095Y-11646476D01*
X9250571Y-11636952D01*
X9260095Y-11627428D01*
X9260095Y-11646476D01*
X9383905Y-11532190D02*
X9364857Y-11522667D01*
X9355333Y-11513143D01*
X9345810Y-11494095D01*
X9345810Y-11484571D01*
X9355333Y-11465524D01*
X9364857Y-11456000D01*
X9383905Y-11446476D01*
X9422000Y-11446476D01*
X9441048Y-11456000D01*
X9450571Y-11465524D01*
X9460095Y-11484571D01*
X9460095Y-11494095D01*
X9450571Y-11513143D01*
X9441048Y-11522667D01*
X9422000Y-11532190D01*
X9383905Y-11532190D01*
X9364857Y-11541714D01*
X9355333Y-11551238D01*
X9345810Y-11570286D01*
X9345810Y-11608381D01*
X9355333Y-11627428D01*
X9364857Y-11636952D01*
X9383905Y-11646476D01*
X9422000Y-11646476D01*
X9441048Y-11636952D01*
X9450571Y-11627428D01*
X9460095Y-11608381D01*
X9460095Y-11570286D01*
X9450571Y-11551238D01*
X9441048Y-11541714D01*
X9422000Y-11532190D01*
X9583905Y-11446476D02*
X9602952Y-11446476D01*
X9622000Y-11456000D01*
X9631524Y-11465524D01*
X9641048Y-11484571D01*
X9650571Y-11522667D01*
X9650571Y-11570286D01*
X9641048Y-11608381D01*
X9631524Y-11627428D01*
X9622000Y-11636952D01*
X9602952Y-11646476D01*
X9583905Y-11646476D01*
X9564857Y-11636952D01*
X9555333Y-11627428D01*
X9545810Y-11608381D01*
X9536286Y-11570286D01*
X9536286Y-11522667D01*
X9545810Y-11484571D01*
X9555333Y-11465524D01*
X9564857Y-11456000D01*
X9583905Y-11446476D01*
X9774381Y-11446476D02*
X9793429Y-11446476D01*
X9812476Y-11456000D01*
X9822000Y-11465524D01*
X9831524Y-11484571D01*
X9841048Y-11522667D01*
X9841048Y-11570286D01*
X9831524Y-11608381D01*
X9822000Y-11627428D01*
X9812476Y-11636952D01*
X9793429Y-11646476D01*
X9774381Y-11646476D01*
X9755333Y-11636952D01*
X9745810Y-11627428D01*
X9736286Y-11608381D01*
X9726762Y-11570286D01*
X9726762Y-11522667D01*
X9736286Y-11484571D01*
X9745810Y-11465524D01*
X9755333Y-11456000D01*
X9774381Y-11446476D01*
X9926762Y-11646476D02*
X9926762Y-11513143D01*
X9926762Y-11532190D02*
X9936286Y-11522667D01*
X9955333Y-11513143D01*
X9983905Y-11513143D01*
X10002952Y-11522667D01*
X10012476Y-11541714D01*
X10012476Y-11646476D01*
X10012476Y-11541714D02*
X10022000Y-11522667D01*
X10041048Y-11513143D01*
X10069619Y-11513143D01*
X10088667Y-11522667D01*
X10098190Y-11541714D01*
X10098190Y-11646476D01*
X10193429Y-11646476D02*
X10193429Y-11513143D01*
X10193429Y-11532190D02*
X10202952Y-11522667D01*
X10222000Y-11513143D01*
X10250571Y-11513143D01*
X10269619Y-11522667D01*
X10279143Y-11541714D01*
X10279143Y-11646476D01*
X10279143Y-11541714D02*
X10288667Y-11522667D01*
X10307714Y-11513143D01*
X10336286Y-11513143D01*
X10355333Y-11522667D01*
X10364857Y-11541714D01*
X10364857Y-11646476D01*
X10755333Y-11436952D02*
X10583905Y-11694095D01*
X11012476Y-11446476D02*
X11031524Y-11446476D01*
X11050571Y-11456000D01*
X11060095Y-11465524D01*
X11069619Y-11484571D01*
X11079143Y-11522667D01*
X11079143Y-11570286D01*
X11069619Y-11608381D01*
X11060095Y-11627428D01*
X11050571Y-11636952D01*
X11031524Y-11646476D01*
X11012476Y-11646476D01*
X10993429Y-11636952D01*
X10983905Y-11627428D01*
X10974381Y-11608381D01*
X10964857Y-11570286D01*
X10964857Y-11522667D01*
X10974381Y-11484571D01*
X10983905Y-11465524D01*
X10993429Y-11456000D01*
X11012476Y-11446476D01*
X11164857Y-11627428D02*
X11174381Y-11636952D01*
X11164857Y-11646476D01*
X11155333Y-11636952D01*
X11164857Y-11627428D01*
X11164857Y-11646476D01*
X11298190Y-11446476D02*
X11317238Y-11446476D01*
X11336286Y-11456000D01*
X11345809Y-11465524D01*
X11355333Y-11484571D01*
X11364857Y-11522667D01*
X11364857Y-11570286D01*
X11355333Y-11608381D01*
X11345809Y-11627428D01*
X11336286Y-11636952D01*
X11317238Y-11646476D01*
X11298190Y-11646476D01*
X11279143Y-11636952D01*
X11269619Y-11627428D01*
X11260095Y-11608381D01*
X11250571Y-11570286D01*
X11250571Y-11522667D01*
X11260095Y-11484571D01*
X11269619Y-11465524D01*
X11279143Y-11456000D01*
X11298190Y-11446476D01*
X11431524Y-11446476D02*
X11555333Y-11446476D01*
X11488667Y-11522667D01*
X11517238Y-11522667D01*
X11536286Y-11532190D01*
X11545809Y-11541714D01*
X11555333Y-11560762D01*
X11555333Y-11608381D01*
X11545809Y-11627428D01*
X11536286Y-11636952D01*
X11517238Y-11646476D01*
X11460095Y-11646476D01*
X11441048Y-11636952D01*
X11431524Y-11627428D01*
X11745809Y-11646476D02*
X11631524Y-11646476D01*
X11688667Y-11646476D02*
X11688667Y-11446476D01*
X11669619Y-11475048D01*
X11650571Y-11494095D01*
X11631524Y-11503619D01*
X11926762Y-11446476D02*
X11831524Y-11446476D01*
X11822000Y-11541714D01*
X11831524Y-11532190D01*
X11850571Y-11522667D01*
X11898190Y-11522667D01*
X11917238Y-11532190D01*
X11926762Y-11541714D01*
X11936286Y-11560762D01*
X11936286Y-11608381D01*
X11926762Y-11627428D01*
X11917238Y-11636952D01*
X11898190Y-11646476D01*
X11850571Y-11646476D01*
X11831524Y-11636952D01*
X11822000Y-11627428D01*
X12012476Y-11446476D02*
X12012476Y-11484571D01*
X12088667Y-11446476D02*
X12088667Y-11484571D01*
X12383905Y-11722667D02*
X12374381Y-11713143D01*
X12355333Y-11684571D01*
X12345809Y-11665524D01*
X12336286Y-11636952D01*
X12326762Y-11589333D01*
X12326762Y-11551238D01*
X12336286Y-11503619D01*
X12345809Y-11475048D01*
X12355333Y-11456000D01*
X12374381Y-11427428D01*
X12383905Y-11417905D01*
X12564857Y-11646476D02*
X12450571Y-11646476D01*
X12507714Y-11646476D02*
X12507714Y-11446476D01*
X12488667Y-11475048D01*
X12469619Y-11494095D01*
X12450571Y-11503619D01*
X12755333Y-11646476D02*
X12641048Y-11646476D01*
X12698190Y-11646476D02*
X12698190Y-11446476D01*
X12679143Y-11475048D01*
X12660095Y-11494095D01*
X12641048Y-11503619D01*
X12831524Y-11465524D02*
X12841048Y-11456000D01*
X12860095Y-11446476D01*
X12907714Y-11446476D01*
X12926762Y-11456000D01*
X12936286Y-11465524D01*
X12945809Y-11484571D01*
X12945809Y-11503619D01*
X12936286Y-11532190D01*
X12822000Y-11646476D01*
X12945809Y-11646476D01*
X13183905Y-11646476D02*
X13183905Y-11446476D01*
X13269619Y-11646476D02*
X13269619Y-11541714D01*
X13260095Y-11522667D01*
X13241048Y-11513143D01*
X13212476Y-11513143D01*
X13193428Y-11522667D01*
X13183905Y-11532190D01*
X13393428Y-11646476D02*
X13374381Y-11636952D01*
X13364857Y-11627428D01*
X13355333Y-11608381D01*
X13355333Y-11551238D01*
X13364857Y-11532190D01*
X13374381Y-11522667D01*
X13393428Y-11513143D01*
X13422000Y-11513143D01*
X13441048Y-11522667D01*
X13450571Y-11532190D01*
X13460095Y-11551238D01*
X13460095Y-11608381D01*
X13450571Y-11627428D01*
X13441048Y-11636952D01*
X13422000Y-11646476D01*
X13393428Y-11646476D01*
X13574381Y-11646476D02*
X13555333Y-11636952D01*
X13545809Y-11617905D01*
X13545809Y-11446476D01*
X13726762Y-11636952D02*
X13707714Y-11646476D01*
X13669619Y-11646476D01*
X13650571Y-11636952D01*
X13641048Y-11617905D01*
X13641048Y-11541714D01*
X13650571Y-11522667D01*
X13669619Y-11513143D01*
X13707714Y-11513143D01*
X13726762Y-11522667D01*
X13736286Y-11541714D01*
X13736286Y-11560762D01*
X13641048Y-11579809D01*
X13812476Y-11636952D02*
X13831524Y-11646476D01*
X13869619Y-11646476D01*
X13888667Y-11636952D01*
X13898190Y-11617905D01*
X13898190Y-11608381D01*
X13888667Y-11589333D01*
X13869619Y-11579809D01*
X13841048Y-11579809D01*
X13822000Y-11570286D01*
X13812476Y-11551238D01*
X13812476Y-11541714D01*
X13822000Y-11522667D01*
X13841048Y-11513143D01*
X13869619Y-11513143D01*
X13888667Y-11522667D01*
X13964857Y-11722667D02*
X13974381Y-11713143D01*
X13993428Y-11684571D01*
X14002952Y-11665524D01*
X14012476Y-11636952D01*
X14022000Y-11589333D01*
X14022000Y-11551238D01*
X14012476Y-11503619D01*
X14002952Y-11475048D01*
X13993428Y-11456000D01*
X13974381Y-11427428D01*
X13964857Y-11417905D01*
D10*
X8797356Y-11855356D02*
X8797356Y-11784644D01*
X8726644Y-11784644D01*
X8726644Y-11855356D01*
X8797356Y-11855356D01*
D11*
X9174381Y-11910476D02*
X9060095Y-11910476D01*
X9117238Y-11910476D02*
X9117238Y-11710476D01*
X9098190Y-11739048D01*
X9079143Y-11758095D01*
X9060095Y-11767619D01*
X9260095Y-11891428D02*
X9269619Y-11900952D01*
X9260095Y-11910476D01*
X9250571Y-11900952D01*
X9260095Y-11891428D01*
X9260095Y-11910476D01*
X9393429Y-11710476D02*
X9412476Y-11710476D01*
X9431524Y-11720000D01*
X9441048Y-11729524D01*
X9450571Y-11748571D01*
X9460095Y-11786667D01*
X9460095Y-11834286D01*
X9450571Y-11872381D01*
X9441048Y-11891428D01*
X9431524Y-11900952D01*
X9412476Y-11910476D01*
X9393429Y-11910476D01*
X9374381Y-11900952D01*
X9364857Y-11891428D01*
X9355333Y-11872381D01*
X9345810Y-11834286D01*
X9345810Y-11786667D01*
X9355333Y-11748571D01*
X9364857Y-11729524D01*
X9374381Y-11720000D01*
X9393429Y-11710476D01*
X9583905Y-11710476D02*
X9602952Y-11710476D01*
X9622000Y-11720000D01*
X9631524Y-11729524D01*
X9641048Y-11748571D01*
X9650571Y-11786667D01*
X9650571Y-11834286D01*
X9641048Y-11872381D01*
X9631524Y-11891428D01*
X9622000Y-11900952D01*
X9602952Y-11910476D01*
X9583905Y-11910476D01*
X9564857Y-11900952D01*
X9555333Y-11891428D01*
X9545810Y-11872381D01*
X9536286Y-11834286D01*
X9536286Y-11786667D01*
X9545810Y-11748571D01*
X9555333Y-11729524D01*
X9564857Y-11720000D01*
X9583905Y-11710476D01*
X9774381Y-11710476D02*
X9793429Y-11710476D01*
X9812476Y-11720000D01*
X9822000Y-11729524D01*
X9831524Y-11748571D01*
X9841048Y-11786667D01*
X9841048Y-11834286D01*
X9831524Y-11872381D01*
X9822000Y-11891428D01*
X9812476Y-11900952D01*
X9793429Y-11910476D01*
X9774381Y-11910476D01*
X9755333Y-11900952D01*
X9745810Y-11891428D01*
X9736286Y-11872381D01*
X9726762Y-11834286D01*
X9726762Y-11786667D01*
X9736286Y-11748571D01*
X9745810Y-11729524D01*
X9755333Y-11720000D01*
X9774381Y-11710476D01*
X9926762Y-11910476D02*
X9926762Y-11777143D01*
X9926762Y-11796190D02*
X9936286Y-11786667D01*
X9955333Y-11777143D01*
X9983905Y-11777143D01*
X10002952Y-11786667D01*
X10012476Y-11805714D01*
X10012476Y-11910476D01*
X10012476Y-11805714D02*
X10022000Y-11786667D01*
X10041048Y-11777143D01*
X10069619Y-11777143D01*
X10088667Y-11786667D01*
X10098190Y-11805714D01*
X10098190Y-11910476D01*
X10193429Y-11910476D02*
X10193429Y-11777143D01*
X10193429Y-11796190D02*
X10202952Y-11786667D01*
X10222000Y-11777143D01*
X10250571Y-11777143D01*
X10269619Y-11786667D01*
X10279143Y-11805714D01*
X10279143Y-11910476D01*
X10279143Y-11805714D02*
X10288667Y-11786667D01*
X10307714Y-11777143D01*
X10336286Y-11777143D01*
X10355333Y-11786667D01*
X10364857Y-11805714D01*
X10364857Y-11910476D01*
X10755333Y-11700952D02*
X10583905Y-11958095D01*
X11012476Y-11710476D02*
X11031524Y-11710476D01*
X11050571Y-11720000D01*
X11060095Y-11729524D01*
X11069619Y-11748571D01*
X11079143Y-11786667D01*
X11079143Y-11834286D01*
X11069619Y-11872381D01*
X11060095Y-11891428D01*
X11050571Y-11900952D01*
X11031524Y-11910476D01*
X11012476Y-11910476D01*
X10993429Y-11900952D01*
X10983905Y-11891428D01*
X10974381Y-11872381D01*
X10964857Y-11834286D01*
X10964857Y-11786667D01*
X10974381Y-11748571D01*
X10983905Y-11729524D01*
X10993429Y-11720000D01*
X11012476Y-11710476D01*
X11164857Y-11891428D02*
X11174381Y-11900952D01*
X11164857Y-11910476D01*
X11155333Y-11900952D01*
X11164857Y-11891428D01*
X11164857Y-11910476D01*
X11298190Y-11710476D02*
X11317238Y-11710476D01*
X11336286Y-11720000D01*
X11345809Y-11729524D01*
X11355333Y-11748571D01*
X11364857Y-11786667D01*
X11364857Y-11834286D01*
X11355333Y-11872381D01*
X11345809Y-11891428D01*
X11336286Y-11900952D01*
X11317238Y-11910476D01*
X11298190Y-11910476D01*
X11279143Y-11900952D01*
X11269619Y-11891428D01*
X11260095Y-11872381D01*
X11250571Y-11834286D01*
X11250571Y-11786667D01*
X11260095Y-11748571D01*
X11269619Y-11729524D01*
X11279143Y-11720000D01*
X11298190Y-11710476D01*
X11431524Y-11710476D02*
X11555333Y-11710476D01*
X11488667Y-11786667D01*
X11517238Y-11786667D01*
X11536286Y-11796190D01*
X11545809Y-11805714D01*
X11555333Y-11824762D01*
X11555333Y-11872381D01*
X11545809Y-11891428D01*
X11536286Y-11900952D01*
X11517238Y-11910476D01*
X11460095Y-11910476D01*
X11441048Y-11900952D01*
X11431524Y-11891428D01*
X11650571Y-11910476D02*
X11688667Y-11910476D01*
X11707714Y-11900952D01*
X11717238Y-11891428D01*
X11736286Y-11862857D01*
X11745809Y-11824762D01*
X11745809Y-11748571D01*
X11736286Y-11729524D01*
X11726762Y-11720000D01*
X11707714Y-11710476D01*
X11669619Y-11710476D01*
X11650571Y-11720000D01*
X11641048Y-11729524D01*
X11631524Y-11748571D01*
X11631524Y-11796190D01*
X11641048Y-11815238D01*
X11650571Y-11824762D01*
X11669619Y-11834286D01*
X11707714Y-11834286D01*
X11726762Y-11824762D01*
X11736286Y-11815238D01*
X11745809Y-11796190D01*
X11917238Y-11777143D02*
X11917238Y-11910476D01*
X11869619Y-11700952D02*
X11822000Y-11843809D01*
X11945809Y-11843809D01*
X12012476Y-11710476D02*
X12012476Y-11748571D01*
X12088667Y-11710476D02*
X12088667Y-11748571D01*
X12383905Y-11986667D02*
X12374381Y-11977143D01*
X12355333Y-11948571D01*
X12345809Y-11929524D01*
X12336286Y-11900952D01*
X12326762Y-11853333D01*
X12326762Y-11815238D01*
X12336286Y-11767619D01*
X12345809Y-11739048D01*
X12355333Y-11720000D01*
X12374381Y-11691428D01*
X12383905Y-11681905D01*
X12545809Y-11777143D02*
X12545809Y-11910476D01*
X12498190Y-11700952D02*
X12450571Y-11843809D01*
X12574381Y-11843809D01*
X12641048Y-11729524D02*
X12650571Y-11720000D01*
X12669619Y-11710476D01*
X12717238Y-11710476D01*
X12736286Y-11720000D01*
X12745809Y-11729524D01*
X12755333Y-11748571D01*
X12755333Y-11767619D01*
X12745809Y-11796190D01*
X12631524Y-11910476D01*
X12755333Y-11910476D01*
X12993428Y-11910476D02*
X12993428Y-11710476D01*
X13079143Y-11910476D02*
X13079143Y-11805714D01*
X13069619Y-11786667D01*
X13050571Y-11777143D01*
X13022000Y-11777143D01*
X13002952Y-11786667D01*
X12993428Y-11796190D01*
X13202952Y-11910476D02*
X13183905Y-11900952D01*
X13174381Y-11891428D01*
X13164857Y-11872381D01*
X13164857Y-11815238D01*
X13174381Y-11796190D01*
X13183905Y-11786667D01*
X13202952Y-11777143D01*
X13231524Y-11777143D01*
X13250571Y-11786667D01*
X13260095Y-11796190D01*
X13269619Y-11815238D01*
X13269619Y-11872381D01*
X13260095Y-11891428D01*
X13250571Y-11900952D01*
X13231524Y-11910476D01*
X13202952Y-11910476D01*
X13383905Y-11910476D02*
X13364857Y-11900952D01*
X13355333Y-11881905D01*
X13355333Y-11710476D01*
X13536286Y-11900952D02*
X13517238Y-11910476D01*
X13479143Y-11910476D01*
X13460095Y-11900952D01*
X13450571Y-11881905D01*
X13450571Y-11805714D01*
X13460095Y-11786667D01*
X13479143Y-11777143D01*
X13517238Y-11777143D01*
X13536286Y-11786667D01*
X13545809Y-11805714D01*
X13545809Y-11824762D01*
X13450571Y-11843809D01*
X13622000Y-11900952D02*
X13641048Y-11910476D01*
X13679143Y-11910476D01*
X13698190Y-11900952D01*
X13707714Y-11881905D01*
X13707714Y-11872381D01*
X13698190Y-11853333D01*
X13679143Y-11843809D01*
X13650571Y-11843809D01*
X13631524Y-11834286D01*
X13622000Y-11815238D01*
X13622000Y-11805714D01*
X13631524Y-11786667D01*
X13650571Y-11777143D01*
X13679143Y-11777143D01*
X13698190Y-11786667D01*
X13774381Y-11986667D02*
X13783905Y-11977143D01*
X13802952Y-11948571D01*
X13812476Y-11929524D01*
X13822000Y-11900952D01*
X13831524Y-11853333D01*
X13831524Y-11815238D01*
X13822000Y-11767619D01*
X13812476Y-11739048D01*
X13802952Y-11720000D01*
X13783905Y-11691428D01*
X13774381Y-11681905D01*
D15*
X8757000Y-12139000D02*
X8812000Y-12084000D01*
X8757000Y-12029000D01*
X8702000Y-12084000D01*
X8757000Y-12139000D01*
D11*
X9174381Y-12174476D02*
X9060095Y-12174476D01*
X9117238Y-12174476D02*
X9117238Y-11974476D01*
X9098190Y-12003048D01*
X9079143Y-12022095D01*
X9060095Y-12031619D01*
X9260095Y-12155428D02*
X9269619Y-12164952D01*
X9260095Y-12174476D01*
X9250571Y-12164952D01*
X9260095Y-12155428D01*
X9260095Y-12174476D01*
X9460095Y-12174476D02*
X9345810Y-12174476D01*
X9402952Y-12174476D02*
X9402952Y-11974476D01*
X9383905Y-12003048D01*
X9364857Y-12022095D01*
X9345810Y-12031619D01*
X9583905Y-11974476D02*
X9602952Y-11974476D01*
X9622000Y-11984000D01*
X9631524Y-11993524D01*
X9641048Y-12012571D01*
X9650571Y-12050667D01*
X9650571Y-12098286D01*
X9641048Y-12136381D01*
X9631524Y-12155428D01*
X9622000Y-12164952D01*
X9602952Y-12174476D01*
X9583905Y-12174476D01*
X9564857Y-12164952D01*
X9555333Y-12155428D01*
X9545810Y-12136381D01*
X9536286Y-12098286D01*
X9536286Y-12050667D01*
X9545810Y-12012571D01*
X9555333Y-11993524D01*
X9564857Y-11984000D01*
X9583905Y-11974476D01*
X9774381Y-11974476D02*
X9793429Y-11974476D01*
X9812476Y-11984000D01*
X9822000Y-11993524D01*
X9831524Y-12012571D01*
X9841048Y-12050667D01*
X9841048Y-12098286D01*
X9831524Y-12136381D01*
X9822000Y-12155428D01*
X9812476Y-12164952D01*
X9793429Y-12174476D01*
X9774381Y-12174476D01*
X9755333Y-12164952D01*
X9745810Y-12155428D01*
X9736286Y-12136381D01*
X9726762Y-12098286D01*
X9726762Y-12050667D01*
X9736286Y-12012571D01*
X9745810Y-11993524D01*
X9755333Y-11984000D01*
X9774381Y-11974476D01*
X9926762Y-12174476D02*
X9926762Y-12041143D01*
X9926762Y-12060190D02*
X9936286Y-12050667D01*
X9955333Y-12041143D01*
X9983905Y-12041143D01*
X10002952Y-12050667D01*
X10012476Y-12069714D01*
X10012476Y-12174476D01*
X10012476Y-12069714D02*
X10022000Y-12050667D01*
X10041048Y-12041143D01*
X10069619Y-12041143D01*
X10088667Y-12050667D01*
X10098190Y-12069714D01*
X10098190Y-12174476D01*
X10193429Y-12174476D02*
X10193429Y-12041143D01*
X10193429Y-12060190D02*
X10202952Y-12050667D01*
X10222000Y-12041143D01*
X10250571Y-12041143D01*
X10269619Y-12050667D01*
X10279143Y-12069714D01*
X10279143Y-12174476D01*
X10279143Y-12069714D02*
X10288667Y-12050667D01*
X10307714Y-12041143D01*
X10336286Y-12041143D01*
X10355333Y-12050667D01*
X10364857Y-12069714D01*
X10364857Y-12174476D01*
X10755333Y-11964952D02*
X10583905Y-12222095D01*
X11012476Y-11974476D02*
X11031524Y-11974476D01*
X11050571Y-11984000D01*
X11060095Y-11993524D01*
X11069619Y-12012571D01*
X11079143Y-12050667D01*
X11079143Y-12098286D01*
X11069619Y-12136381D01*
X11060095Y-12155428D01*
X11050571Y-12164952D01*
X11031524Y-12174476D01*
X11012476Y-12174476D01*
X10993429Y-12164952D01*
X10983905Y-12155428D01*
X10974381Y-12136381D01*
X10964857Y-12098286D01*
X10964857Y-12050667D01*
X10974381Y-12012571D01*
X10983905Y-11993524D01*
X10993429Y-11984000D01*
X11012476Y-11974476D01*
X11164857Y-12155428D02*
X11174381Y-12164952D01*
X11164857Y-12174476D01*
X11155333Y-12164952D01*
X11164857Y-12155428D01*
X11164857Y-12174476D01*
X11298190Y-11974476D02*
X11317238Y-11974476D01*
X11336286Y-11984000D01*
X11345809Y-11993524D01*
X11355333Y-12012571D01*
X11364857Y-12050667D01*
X11364857Y-12098286D01*
X11355333Y-12136381D01*
X11345809Y-12155428D01*
X11336286Y-12164952D01*
X11317238Y-12174476D01*
X11298190Y-12174476D01*
X11279143Y-12164952D01*
X11269619Y-12155428D01*
X11260095Y-12136381D01*
X11250571Y-12098286D01*
X11250571Y-12050667D01*
X11260095Y-12012571D01*
X11269619Y-11993524D01*
X11279143Y-11984000D01*
X11298190Y-11974476D01*
X11536286Y-12041143D02*
X11536286Y-12174476D01*
X11488667Y-11964952D02*
X11441048Y-12107809D01*
X11564857Y-12107809D01*
X11622000Y-11974476D02*
X11745809Y-11974476D01*
X11679143Y-12050667D01*
X11707714Y-12050667D01*
X11726762Y-12060190D01*
X11736286Y-12069714D01*
X11745809Y-12088762D01*
X11745809Y-12136381D01*
X11736286Y-12155428D01*
X11726762Y-12164952D01*
X11707714Y-12174476D01*
X11650571Y-12174476D01*
X11631524Y-12164952D01*
X11622000Y-12155428D01*
X11812476Y-11974476D02*
X11936286Y-11974476D01*
X11869619Y-12050667D01*
X11898190Y-12050667D01*
X11917238Y-12060190D01*
X11926762Y-12069714D01*
X11936286Y-12088762D01*
X11936286Y-12136381D01*
X11926762Y-12155428D01*
X11917238Y-12164952D01*
X11898190Y-12174476D01*
X11841048Y-12174476D01*
X11822000Y-12164952D01*
X11812476Y-12155428D01*
X12012476Y-11974476D02*
X12012476Y-12012571D01*
X12088667Y-11974476D02*
X12088667Y-12012571D01*
X12383905Y-12250667D02*
X12374381Y-12241143D01*
X12355333Y-12212571D01*
X12345809Y-12193524D01*
X12336286Y-12164952D01*
X12326762Y-12117333D01*
X12326762Y-12079238D01*
X12336286Y-12031619D01*
X12345809Y-12003048D01*
X12355333Y-11984000D01*
X12374381Y-11955428D01*
X12383905Y-11945905D01*
X12441048Y-11974476D02*
X12564857Y-11974476D01*
X12498190Y-12050667D01*
X12526762Y-12050667D01*
X12545809Y-12060190D01*
X12555333Y-12069714D01*
X12564857Y-12088762D01*
X12564857Y-12136381D01*
X12555333Y-12155428D01*
X12545809Y-12164952D01*
X12526762Y-12174476D01*
X12469619Y-12174476D01*
X12450571Y-12164952D01*
X12441048Y-12155428D01*
X12745809Y-11974476D02*
X12650571Y-11974476D01*
X12641048Y-12069714D01*
X12650571Y-12060190D01*
X12669619Y-12050667D01*
X12717238Y-12050667D01*
X12736286Y-12060190D01*
X12745809Y-12069714D01*
X12755333Y-12088762D01*
X12755333Y-12136381D01*
X12745809Y-12155428D01*
X12736286Y-12164952D01*
X12717238Y-12174476D01*
X12669619Y-12174476D01*
X12650571Y-12164952D01*
X12641048Y-12155428D01*
X12993428Y-12174476D02*
X12993428Y-11974476D01*
X13079143Y-12174476D02*
X13079143Y-12069714D01*
X13069619Y-12050667D01*
X13050571Y-12041143D01*
X13022000Y-12041143D01*
X13002952Y-12050667D01*
X12993428Y-12060190D01*
X13202952Y-12174476D02*
X13183905Y-12164952D01*
X13174381Y-12155428D01*
X13164857Y-12136381D01*
X13164857Y-12079238D01*
X13174381Y-12060190D01*
X13183905Y-12050667D01*
X13202952Y-12041143D01*
X13231524Y-12041143D01*
X13250571Y-12050667D01*
X13260095Y-12060190D01*
X13269619Y-12079238D01*
X13269619Y-12136381D01*
X13260095Y-12155428D01*
X13250571Y-12164952D01*
X13231524Y-12174476D01*
X13202952Y-12174476D01*
X13383905Y-12174476D02*
X13364857Y-12164952D01*
X13355333Y-12145905D01*
X13355333Y-11974476D01*
X13536286Y-12164952D02*
X13517238Y-12174476D01*
X13479143Y-12174476D01*
X13460095Y-12164952D01*
X13450571Y-12145905D01*
X13450571Y-12069714D01*
X13460095Y-12050667D01*
X13479143Y-12041143D01*
X13517238Y-12041143D01*
X13536286Y-12050667D01*
X13545809Y-12069714D01*
X13545809Y-12088762D01*
X13450571Y-12107809D01*
X13622000Y-12164952D02*
X13641048Y-12174476D01*
X13679143Y-12174476D01*
X13698190Y-12164952D01*
X13707714Y-12145905D01*
X13707714Y-12136381D01*
X13698190Y-12117333D01*
X13679143Y-12107809D01*
X13650571Y-12107809D01*
X13631524Y-12098286D01*
X13622000Y-12079238D01*
X13622000Y-12069714D01*
X13631524Y-12050667D01*
X13650571Y-12041143D01*
X13679143Y-12041143D01*
X13698190Y-12050667D01*
X13774381Y-12250667D02*
X13783905Y-12241143D01*
X13802952Y-12212571D01*
X13812476Y-12193524D01*
X13822000Y-12164952D01*
X13831524Y-12117333D01*
X13831524Y-12079238D01*
X13822000Y-12031619D01*
X13812476Y-12003048D01*
X13802952Y-11984000D01*
X13783905Y-11955428D01*
X13774381Y-11945905D01*
M02*
