%TF.GenerationSoftware,KiCad,Pcbnew,(6.0.8)*%
%TF.CreationDate,2022-11-05T21:59:00+05:30*%
%TF.ProjectId,digclockv2,64696763-6c6f-4636-9b76-322e6b696361,rev?*%
%TF.SameCoordinates,Original*%
%TF.FileFunction,Drillmap*%
%TF.FilePolarity,Positive*%
%FSLAX45Y45*%
G04 Gerber Fmt 4.5, Leading zero omitted, Abs format (unit mm)*
G04 Created by KiCad (PCBNEW (6.0.8)) date 2022-11-05 21:59:00*
%MOMM*%
%LPD*%
G01*
G04 APERTURE LIST*
%ADD10C,0.100000*%
%ADD11C,0.200000*%
%ADD12C,0.060000*%
%ADD13C,0.075000*%
%ADD14C,0.080000*%
%ADD15C,0.110000*%
G04 APERTURE END LIST*
D10*
X9017000Y-3683000D02*
X18417000Y-3683000D01*
X9017000Y-10283000D02*
X18417000Y-10283000D01*
X18417000Y-3683000D02*
X18417000Y-10283000D01*
X9017000Y-10283000D02*
X9017000Y-3683000D01*
D11*
D12*
X14055900Y-9685500D02*
X14115900Y-9745500D01*
X14115900Y-9685500D02*
X14055900Y-9745500D01*
X14255900Y-9685500D02*
X14315900Y-9745500D01*
X14315900Y-9685500D02*
X14255900Y-9745500D01*
X15848200Y-9672800D02*
X15908200Y-9732800D01*
X15908200Y-9672800D02*
X15848200Y-9732800D01*
X16048200Y-9672800D02*
X16108200Y-9732800D01*
X16108200Y-9672800D02*
X16048200Y-9732800D01*
D13*
X10997600Y-4150800D02*
G75*
G03*
X10997600Y-4150800I-37500J0D01*
G01*
X11124600Y-4150800D02*
G75*
G03*
X11124600Y-4150800I-37500J0D01*
G01*
X11251600Y-4150800D02*
G75*
G03*
X11251600Y-4150800I-37500J0D01*
G01*
X12331100Y-4152900D02*
G75*
G03*
X12331100Y-4152900I-37500J0D01*
G01*
X12458100Y-4152900D02*
G75*
G03*
X12458100Y-4152900I-37500J0D01*
G01*
X12585100Y-4152900D02*
G75*
G03*
X12585100Y-4152900I-37500J0D01*
G01*
X13664600Y-4150800D02*
G75*
G03*
X13664600Y-4150800I-37500J0D01*
G01*
X13791600Y-4150800D02*
G75*
G03*
X13791600Y-4150800I-37500J0D01*
G01*
X13918600Y-4150800D02*
G75*
G03*
X13918600Y-4150800I-37500J0D01*
G01*
X14998100Y-4150800D02*
G75*
G03*
X14998100Y-4150800I-37500J0D01*
G01*
X15125100Y-4150800D02*
G75*
G03*
X15125100Y-4150800I-37500J0D01*
G01*
X15252100Y-4150800D02*
G75*
G03*
X15252100Y-4150800I-37500J0D01*
G01*
X16331600Y-4150800D02*
G75*
G03*
X16331600Y-4150800I-37500J0D01*
G01*
X16458600Y-4150800D02*
G75*
G03*
X16458600Y-4150800I-37500J0D01*
G01*
X16585600Y-4150800D02*
G75*
G03*
X16585600Y-4150800I-37500J0D01*
G01*
X17665100Y-4152900D02*
G75*
G03*
X17665100Y-4152900I-37500J0D01*
G01*
X17792100Y-4152900D02*
G75*
G03*
X17792100Y-4152900I-37500J0D01*
G01*
X17919100Y-4152900D02*
G75*
G03*
X17919100Y-4152900I-37500J0D01*
G01*
D14*
X9359900Y-4989200D02*
X9359900Y-5069200D01*
X9319900Y-5029200D02*
X9399900Y-5029200D01*
X9359900Y-5370200D02*
X9359900Y-5450200D01*
X9319900Y-5410200D02*
X9399900Y-5410200D01*
X9359900Y-5751200D02*
X9359900Y-5831200D01*
X9319900Y-5791200D02*
X9399900Y-5791200D01*
X9359900Y-6132200D02*
X9359900Y-6212200D01*
X9319900Y-6172200D02*
X9399900Y-6172200D01*
X9359900Y-6513200D02*
X9359900Y-6593200D01*
X9319900Y-6553200D02*
X9399900Y-6553200D01*
X9359900Y-6894200D02*
X9359900Y-6974200D01*
X9319900Y-6934200D02*
X9399900Y-6934200D01*
X9359900Y-7275200D02*
X9359900Y-7355200D01*
X9319900Y-7315200D02*
X9399900Y-7315200D01*
X9359900Y-7656200D02*
X9359900Y-7736200D01*
X9319900Y-7696200D02*
X9399900Y-7696200D01*
X9696189Y-9878700D02*
X9696189Y-9958700D01*
X9656189Y-9918700D02*
X9736189Y-9918700D01*
X9896189Y-9878700D02*
X9896189Y-9958700D01*
X9856189Y-9918700D02*
X9936189Y-9918700D01*
X10121900Y-4989200D02*
X10121900Y-5069200D01*
X10081900Y-5029200D02*
X10161900Y-5029200D01*
X10121900Y-5370200D02*
X10121900Y-5450200D01*
X10081900Y-5410200D02*
X10161900Y-5410200D01*
X10121900Y-5751200D02*
X10121900Y-5831200D01*
X10081900Y-5791200D02*
X10161900Y-5791200D01*
X10121900Y-6132200D02*
X10121900Y-6212200D01*
X10081900Y-6172200D02*
X10161900Y-6172200D01*
X10121900Y-6513200D02*
X10121900Y-6593200D01*
X10081900Y-6553200D02*
X10161900Y-6553200D01*
X10121900Y-6894200D02*
X10121900Y-6974200D01*
X10081900Y-6934200D02*
X10161900Y-6934200D01*
X10121900Y-7275200D02*
X10121900Y-7355200D01*
X10081900Y-7315200D02*
X10161900Y-7315200D01*
X10121900Y-7656200D02*
X10121900Y-7736200D01*
X10081900Y-7696200D02*
X10161900Y-7696200D01*
X10452100Y-4532450D02*
X10452100Y-4612450D01*
X10412100Y-4572450D02*
X10492100Y-4572450D01*
X10452100Y-6056450D02*
X10452100Y-6136450D01*
X10412100Y-6096450D02*
X10492100Y-6096450D01*
X10579100Y-6411600D02*
X10579100Y-6491600D01*
X10539100Y-6451600D02*
X10619100Y-6451600D01*
X10579100Y-7173600D02*
X10579100Y-7253600D01*
X10539100Y-7213600D02*
X10619100Y-7213600D01*
X10706100Y-4532450D02*
X10706100Y-4612450D01*
X10666100Y-4572450D02*
X10746100Y-4572450D01*
X10706100Y-6056450D02*
X10706100Y-6136450D01*
X10666100Y-6096450D02*
X10746100Y-6096450D01*
X10960100Y-4532450D02*
X10960100Y-4612450D01*
X10920100Y-4572450D02*
X11000100Y-4572450D01*
X10960100Y-6056450D02*
X10960100Y-6136450D01*
X10920100Y-6096450D02*
X11000100Y-6096450D01*
X10960100Y-6411600D02*
X10960100Y-6491600D01*
X10920100Y-6451600D02*
X11000100Y-6451600D01*
X10960100Y-7173600D02*
X10960100Y-7253600D01*
X10920100Y-7213600D02*
X11000100Y-7213600D01*
X11214100Y-4532450D02*
X11214100Y-4612450D01*
X11174100Y-4572450D02*
X11254100Y-4572450D01*
X11214100Y-6056450D02*
X11214100Y-6136450D01*
X11174100Y-6096450D02*
X11254100Y-6096450D01*
X11341100Y-6411600D02*
X11341100Y-6491600D01*
X11301100Y-6451600D02*
X11381100Y-6451600D01*
X11341100Y-7173600D02*
X11341100Y-7253600D01*
X11301100Y-7213600D02*
X11381100Y-7213600D01*
X11448789Y-9672611D02*
X11448789Y-9752611D01*
X11408789Y-9712611D02*
X11488789Y-9712611D01*
X11468100Y-4532450D02*
X11468100Y-4612450D01*
X11428100Y-4572450D02*
X11508100Y-4572450D01*
X11468100Y-6056450D02*
X11468100Y-6136450D01*
X11428100Y-6096450D02*
X11508100Y-6096450D01*
X11648789Y-9672611D02*
X11648789Y-9752611D01*
X11608789Y-9712611D02*
X11688789Y-9712611D01*
X11722100Y-6411600D02*
X11722100Y-6491600D01*
X11682100Y-6451600D02*
X11762100Y-6451600D01*
X11722100Y-7173600D02*
X11722100Y-7253600D01*
X11682100Y-7213600D02*
X11762100Y-7213600D01*
X11785600Y-4532000D02*
X11785600Y-4612000D01*
X11745600Y-4572000D02*
X11825600Y-4572000D01*
X11785600Y-6056000D02*
X11785600Y-6136000D01*
X11745600Y-6096000D02*
X11825600Y-6096000D01*
X11963400Y-9672611D02*
X11963400Y-9752611D01*
X11923400Y-9712611D02*
X12003400Y-9712611D01*
X12039600Y-4532000D02*
X12039600Y-4612000D01*
X11999600Y-4572000D02*
X12079600Y-4572000D01*
X12039600Y-6056000D02*
X12039600Y-6136000D01*
X11999600Y-6096000D02*
X12079600Y-6096000D01*
X12103100Y-6411600D02*
X12103100Y-6491600D01*
X12063100Y-6451600D02*
X12143100Y-6451600D01*
X12103100Y-7173600D02*
X12103100Y-7253600D01*
X12063100Y-7213600D02*
X12143100Y-7213600D01*
X12293600Y-4532000D02*
X12293600Y-4612000D01*
X12253600Y-4572000D02*
X12333600Y-4572000D01*
X12293600Y-6056000D02*
X12293600Y-6136000D01*
X12253600Y-6096000D02*
X12333600Y-6096000D01*
X12484100Y-6411600D02*
X12484100Y-6491600D01*
X12444100Y-6451600D02*
X12524100Y-6451600D01*
X12484100Y-7173600D02*
X12484100Y-7253600D01*
X12444100Y-7213600D02*
X12524100Y-7213600D01*
X12547600Y-4532000D02*
X12547600Y-4612000D01*
X12507600Y-4572000D02*
X12587600Y-4572000D01*
X12547600Y-6056000D02*
X12547600Y-6136000D01*
X12507600Y-6096000D02*
X12587600Y-6096000D01*
X12725400Y-9672611D02*
X12725400Y-9752611D01*
X12685400Y-9712611D02*
X12765400Y-9712611D01*
X12801600Y-4532000D02*
X12801600Y-4612000D01*
X12761600Y-4572000D02*
X12841600Y-4572000D01*
X12801600Y-6056000D02*
X12801600Y-6136000D01*
X12761600Y-6096000D02*
X12841600Y-6096000D01*
X12865100Y-6411600D02*
X12865100Y-6491600D01*
X12825100Y-6451600D02*
X12905100Y-6451600D01*
X12865100Y-7173600D02*
X12865100Y-7253600D01*
X12825100Y-7213600D02*
X12905100Y-7213600D01*
X13119100Y-4532000D02*
X13119100Y-4612000D01*
X13079100Y-4572000D02*
X13159100Y-4572000D01*
X13119100Y-6056000D02*
X13119100Y-6136000D01*
X13079100Y-6096000D02*
X13159100Y-6096000D01*
X13246100Y-6411600D02*
X13246100Y-6491600D01*
X13206100Y-6451600D02*
X13286100Y-6451600D01*
X13246100Y-7173600D02*
X13246100Y-7253600D01*
X13206100Y-7213600D02*
X13286100Y-7213600D01*
X13373100Y-4532000D02*
X13373100Y-4612000D01*
X13333100Y-4572000D02*
X13413100Y-4572000D01*
X13373100Y-6056000D02*
X13373100Y-6136000D01*
X13333100Y-6096000D02*
X13413100Y-6096000D01*
X13627100Y-4532000D02*
X13627100Y-4612000D01*
X13587100Y-4572000D02*
X13667100Y-4572000D01*
X13627100Y-6056000D02*
X13627100Y-6136000D01*
X13587100Y-6096000D02*
X13667100Y-6096000D01*
X13627100Y-6411600D02*
X13627100Y-6491600D01*
X13587100Y-6451600D02*
X13667100Y-6451600D01*
X13627100Y-7173600D02*
X13627100Y-7253600D01*
X13587100Y-7213600D02*
X13667100Y-7213600D01*
X13881100Y-4532000D02*
X13881100Y-4612000D01*
X13841100Y-4572000D02*
X13921100Y-4572000D01*
X13881100Y-6056000D02*
X13881100Y-6136000D01*
X13841100Y-6096000D02*
X13921100Y-6096000D01*
X14008100Y-6411600D02*
X14008100Y-6491600D01*
X13968100Y-6451600D02*
X14048100Y-6451600D01*
X14008100Y-7173600D02*
X14008100Y-7253600D01*
X13968100Y-7213600D02*
X14048100Y-7213600D01*
X14135100Y-4532000D02*
X14135100Y-4612000D01*
X14095100Y-4572000D02*
X14175100Y-4572000D01*
X14135100Y-6056000D02*
X14135100Y-6136000D01*
X14095100Y-6096000D02*
X14175100Y-6096000D01*
X14389100Y-6411600D02*
X14389100Y-6491600D01*
X14349100Y-6451600D02*
X14429100Y-6451600D01*
X14389100Y-7173600D02*
X14389100Y-7253600D01*
X14349100Y-7213600D02*
X14429100Y-7213600D01*
X14452600Y-4532000D02*
X14452600Y-4612000D01*
X14412600Y-4572000D02*
X14492600Y-4572000D01*
X14452600Y-6056000D02*
X14452600Y-6136000D01*
X14412600Y-6096000D02*
X14492600Y-6096000D01*
X14706600Y-4532000D02*
X14706600Y-4612000D01*
X14666600Y-4572000D02*
X14746600Y-4572000D01*
X14706600Y-6056000D02*
X14706600Y-6136000D01*
X14666600Y-6096000D02*
X14746600Y-6096000D01*
X14770100Y-6411600D02*
X14770100Y-6491600D01*
X14730100Y-6451600D02*
X14810100Y-6451600D01*
X14770100Y-7173600D02*
X14770100Y-7253600D01*
X14730100Y-7213600D02*
X14810100Y-7213600D01*
X14844600Y-9662800D02*
X14844600Y-9742800D01*
X14804600Y-9702800D02*
X14884600Y-9702800D01*
X14960600Y-4532000D02*
X14960600Y-4612000D01*
X14920600Y-4572000D02*
X15000600Y-4572000D01*
X14960600Y-6056000D02*
X14960600Y-6136000D01*
X14920600Y-6096000D02*
X15000600Y-6096000D01*
X15151100Y-6411600D02*
X15151100Y-6491600D01*
X15111100Y-6451600D02*
X15191100Y-6451600D01*
X15151100Y-7173600D02*
X15151100Y-7253600D01*
X15111100Y-7213600D02*
X15191100Y-7213600D01*
X15214600Y-4532000D02*
X15214600Y-4612000D01*
X15174600Y-4572000D02*
X15254600Y-4572000D01*
X15214600Y-6056000D02*
X15214600Y-6136000D01*
X15174600Y-6096000D02*
X15254600Y-6096000D01*
X15332600Y-9662800D02*
X15332600Y-9742800D01*
X15292600Y-9702800D02*
X15372600Y-9702800D01*
X15468600Y-4532000D02*
X15468600Y-4612000D01*
X15428600Y-4572000D02*
X15508600Y-4572000D01*
X15468600Y-6056000D02*
X15468600Y-6136000D01*
X15428600Y-6096000D02*
X15508600Y-6096000D01*
X15532100Y-6411600D02*
X15532100Y-6491600D01*
X15492100Y-6451600D02*
X15572100Y-6451600D01*
X15532100Y-7173600D02*
X15532100Y-7253600D01*
X15492100Y-7213600D02*
X15572100Y-7213600D01*
X15786100Y-4532000D02*
X15786100Y-4612000D01*
X15746100Y-4572000D02*
X15826100Y-4572000D01*
X15786100Y-6056000D02*
X15786100Y-6136000D01*
X15746100Y-6096000D02*
X15826100Y-6096000D01*
X16040100Y-4532000D02*
X16040100Y-4612000D01*
X16000100Y-4572000D02*
X16080100Y-4572000D01*
X16040100Y-6056000D02*
X16040100Y-6136000D01*
X16000100Y-6096000D02*
X16080100Y-6096000D01*
X16294100Y-4532000D02*
X16294100Y-4612000D01*
X16254100Y-4572000D02*
X16334100Y-4572000D01*
X16294100Y-6056000D02*
X16294100Y-6136000D01*
X16254100Y-6096000D02*
X16334100Y-6096000D01*
X16548100Y-4532000D02*
X16548100Y-4612000D01*
X16508100Y-4572000D02*
X16588100Y-4572000D01*
X16548100Y-6056000D02*
X16548100Y-6136000D01*
X16508100Y-6096000D02*
X16588100Y-6096000D01*
X16802100Y-4532000D02*
X16802100Y-4612000D01*
X16762100Y-4572000D02*
X16842100Y-4572000D01*
X16802100Y-6056000D02*
X16802100Y-6136000D01*
X16762100Y-6096000D02*
X16842100Y-6096000D01*
X17119600Y-4532450D02*
X17119600Y-4612450D01*
X17079600Y-4572450D02*
X17159600Y-4572450D01*
X17119600Y-6056450D02*
X17119600Y-6136450D01*
X17079600Y-6096450D02*
X17159600Y-6096450D01*
X17373600Y-4532450D02*
X17373600Y-4612450D01*
X17333600Y-4572450D02*
X17413600Y-4572450D01*
X17373600Y-6056450D02*
X17373600Y-6136450D01*
X17333600Y-6096450D02*
X17413600Y-6096450D01*
X17627600Y-4532450D02*
X17627600Y-4612450D01*
X17587600Y-4572450D02*
X17667600Y-4572450D01*
X17627600Y-6056450D02*
X17627600Y-6136450D01*
X17587600Y-6096450D02*
X17667600Y-6096450D01*
X17881600Y-4532450D02*
X17881600Y-4612450D01*
X17841600Y-4572450D02*
X17921600Y-4572450D01*
X17881600Y-6056450D02*
X17881600Y-6136450D01*
X17841600Y-6096450D02*
X17921600Y-6096450D01*
X18135600Y-4532450D02*
X18135600Y-4612450D01*
X18095600Y-4572450D02*
X18175600Y-4572450D01*
X18135600Y-6056450D02*
X18135600Y-6136450D01*
X18095600Y-6096450D02*
X18175600Y-6096450D01*
D10*
X9408956Y-8861856D02*
X9408956Y-8791144D01*
X9338244Y-8791144D01*
X9338244Y-8861856D01*
X9408956Y-8861856D01*
X10168956Y-8861856D02*
X10168956Y-8791144D01*
X10098244Y-8791144D01*
X10098244Y-8861856D01*
X10168956Y-8861856D01*
X10677956Y-7617256D02*
X10677956Y-7546544D01*
X10607244Y-7546544D01*
X10607244Y-7617256D01*
X10677956Y-7617256D01*
X10677956Y-9141256D02*
X10677956Y-9070544D01*
X10607244Y-9070544D01*
X10607244Y-9141256D01*
X10677956Y-9141256D01*
X10931956Y-7617256D02*
X10931956Y-7546544D01*
X10861244Y-7546544D01*
X10861244Y-7617256D01*
X10931956Y-7617256D01*
X10931956Y-9141256D02*
X10931956Y-9070544D01*
X10861244Y-9070544D01*
X10861244Y-9141256D01*
X10931956Y-9141256D01*
X11185956Y-7617256D02*
X11185956Y-7546544D01*
X11115244Y-7546544D01*
X11115244Y-7617256D01*
X11185956Y-7617256D01*
X11185956Y-9141256D02*
X11185956Y-9070544D01*
X11115244Y-9070544D01*
X11115244Y-9141256D01*
X11185956Y-9141256D01*
X11439956Y-7617256D02*
X11439956Y-7546544D01*
X11369244Y-7546544D01*
X11369244Y-7617256D01*
X11439956Y-7617256D01*
X11439956Y-9141256D02*
X11439956Y-9070544D01*
X11369244Y-9070544D01*
X11369244Y-9141256D01*
X11439956Y-9141256D01*
X11693956Y-7617256D02*
X11693956Y-7546544D01*
X11623244Y-7546544D01*
X11623244Y-7617256D01*
X11693956Y-7617256D01*
X11693956Y-9141256D02*
X11693956Y-9070544D01*
X11623244Y-9070544D01*
X11623244Y-9141256D01*
X11693956Y-9141256D01*
X11947956Y-7617256D02*
X11947956Y-7546544D01*
X11877244Y-7546544D01*
X11877244Y-7617256D01*
X11947956Y-7617256D01*
X11947956Y-9141256D02*
X11947956Y-9070544D01*
X11877244Y-9070544D01*
X11877244Y-9141256D01*
X11947956Y-9141256D01*
X12201956Y-7617256D02*
X12201956Y-7546544D01*
X12131244Y-7546544D01*
X12131244Y-7617256D01*
X12201956Y-7617256D01*
X12201956Y-9141256D02*
X12201956Y-9070544D01*
X12131244Y-9070544D01*
X12131244Y-9141256D01*
X12201956Y-9141256D01*
X12455956Y-7617256D02*
X12455956Y-7546544D01*
X12385244Y-7546544D01*
X12385244Y-7617256D01*
X12455956Y-7617256D01*
X12455956Y-9141256D02*
X12455956Y-9070544D01*
X12385244Y-9070544D01*
X12385244Y-9141256D01*
X12455956Y-9141256D01*
X12709956Y-7617256D02*
X12709956Y-7546544D01*
X12639244Y-7546544D01*
X12639244Y-7617256D01*
X12709956Y-7617256D01*
X12709956Y-9141256D02*
X12709956Y-9070544D01*
X12639244Y-9070544D01*
X12639244Y-9141256D01*
X12709956Y-9141256D01*
X12963956Y-7617256D02*
X12963956Y-7546544D01*
X12893244Y-7546544D01*
X12893244Y-7617256D01*
X12963956Y-7617256D01*
X12963956Y-9141256D02*
X12963956Y-9070544D01*
X12893244Y-9070544D01*
X12893244Y-9141256D01*
X12963956Y-9141256D01*
X13217956Y-7617256D02*
X13217956Y-7546544D01*
X13147244Y-7546544D01*
X13147244Y-7617256D01*
X13217956Y-7617256D01*
X13217956Y-9141256D02*
X13217956Y-9070544D01*
X13147244Y-9070544D01*
X13147244Y-9141256D01*
X13217956Y-9141256D01*
X13471956Y-7617256D02*
X13471956Y-7546544D01*
X13401244Y-7546544D01*
X13401244Y-7617256D01*
X13471956Y-7617256D01*
X13471956Y-9141256D02*
X13471956Y-9070544D01*
X13401244Y-9070544D01*
X13401244Y-9141256D01*
X13471956Y-9141256D01*
X13725956Y-7617256D02*
X13725956Y-7546544D01*
X13655244Y-7546544D01*
X13655244Y-7617256D01*
X13725956Y-7617256D01*
X13725956Y-9141256D02*
X13725956Y-9070544D01*
X13655244Y-9070544D01*
X13655244Y-9141256D01*
X13725956Y-9141256D01*
X13979956Y-7617256D02*
X13979956Y-7546544D01*
X13909244Y-7546544D01*
X13909244Y-7617256D01*
X13979956Y-7617256D01*
X13979956Y-9141256D02*
X13979956Y-9070544D01*
X13909244Y-9070544D01*
X13909244Y-9141256D01*
X13979956Y-9141256D01*
X14233956Y-7617256D02*
X14233956Y-7546544D01*
X14163244Y-7546544D01*
X14163244Y-7617256D01*
X14233956Y-7617256D01*
X14233956Y-9141256D02*
X14233956Y-9070544D01*
X14163244Y-9070544D01*
X14163244Y-9141256D01*
X14233956Y-9141256D01*
X14487956Y-7617256D02*
X14487956Y-7546544D01*
X14417244Y-7546544D01*
X14417244Y-7617256D01*
X14487956Y-7617256D01*
X14487956Y-9141256D02*
X14487956Y-9070544D01*
X14417244Y-9070544D01*
X14417244Y-9141256D01*
X14487956Y-9141256D01*
X14741956Y-7617256D02*
X14741956Y-7546544D01*
X14671244Y-7546544D01*
X14671244Y-7617256D01*
X14741956Y-7617256D01*
X14741956Y-9141256D02*
X14741956Y-9070544D01*
X14671244Y-9070544D01*
X14671244Y-9141256D01*
X14741956Y-9141256D01*
X14995956Y-7617256D02*
X14995956Y-7546544D01*
X14925244Y-7546544D01*
X14925244Y-7617256D01*
X14995956Y-7617256D01*
X14995956Y-9141256D02*
X14995956Y-9070544D01*
X14925244Y-9070544D01*
X14925244Y-9141256D01*
X14995956Y-9141256D01*
X15249956Y-7617256D02*
X15249956Y-7546544D01*
X15179244Y-7546544D01*
X15179244Y-7617256D01*
X15249956Y-7617256D01*
X15249956Y-9141256D02*
X15249956Y-9070544D01*
X15179244Y-9070544D01*
X15179244Y-9141256D01*
X15249956Y-9141256D01*
X15503956Y-7617256D02*
X15503956Y-7546544D01*
X15433244Y-7546544D01*
X15433244Y-7617256D01*
X15503956Y-7617256D01*
X15503956Y-9141256D02*
X15503956Y-9070544D01*
X15433244Y-9070544D01*
X15433244Y-9141256D01*
X15503956Y-9141256D01*
D15*
X9575800Y-4246000D02*
X9630800Y-4191000D01*
X9575800Y-4136000D01*
X9520800Y-4191000D01*
X9575800Y-4246000D01*
X9829800Y-4246000D02*
X9884800Y-4191000D01*
X9829800Y-4136000D01*
X9774800Y-4191000D01*
X9829800Y-4246000D01*
X10083800Y-4246000D02*
X10138800Y-4191000D01*
X10083800Y-4136000D01*
X10028800Y-4191000D01*
X10083800Y-4246000D01*
X10426700Y-9643500D02*
X10481700Y-9588500D01*
X10426700Y-9533500D01*
X10371700Y-9588500D01*
X10426700Y-9643500D01*
X10426700Y-10093500D02*
X10481700Y-10038500D01*
X10426700Y-9983500D01*
X10371700Y-10038500D01*
X10426700Y-10093500D01*
X11076700Y-9643500D02*
X11131700Y-9588500D01*
X11076700Y-9533500D01*
X11021700Y-9588500D01*
X11076700Y-9643500D01*
X11076700Y-10093500D02*
X11131700Y-10038500D01*
X11076700Y-9983500D01*
X11021700Y-10038500D01*
X11076700Y-10093500D01*
X13042900Y-9630800D02*
X13097900Y-9575800D01*
X13042900Y-9520800D01*
X12987900Y-9575800D01*
X13042900Y-9630800D01*
X13042900Y-10080800D02*
X13097900Y-10025800D01*
X13042900Y-9970800D01*
X12987900Y-10025800D01*
X13042900Y-10080800D01*
X13692900Y-9630800D02*
X13747900Y-9575800D01*
X13692900Y-9520800D01*
X13637900Y-9575800D01*
X13692900Y-9630800D01*
X13692900Y-10080800D02*
X13747900Y-10025800D01*
X13692900Y-9970800D01*
X13637900Y-10025800D01*
X13692900Y-10080800D01*
X15967500Y-6613400D02*
X16022500Y-6558400D01*
X15967500Y-6503400D01*
X15912500Y-6558400D01*
X15967500Y-6613400D01*
X15967500Y-7263400D02*
X16022500Y-7208400D01*
X15967500Y-7153400D01*
X15912500Y-7208400D01*
X15967500Y-7263400D01*
X16005600Y-8099300D02*
X16060600Y-8044300D01*
X16005600Y-7989300D01*
X15950600Y-8044300D01*
X16005600Y-8099300D01*
X16005600Y-8749300D02*
X16060600Y-8694300D01*
X16005600Y-8639300D01*
X15950600Y-8694300D01*
X16005600Y-8749300D01*
X16417500Y-6613400D02*
X16472500Y-6558400D01*
X16417500Y-6503400D01*
X16362500Y-6558400D01*
X16417500Y-6613400D01*
X16417500Y-7263400D02*
X16472500Y-7208400D01*
X16417500Y-7153400D01*
X16362500Y-7208400D01*
X16417500Y-7263400D01*
X16455600Y-8099300D02*
X16510600Y-8044300D01*
X16455600Y-7989300D01*
X16400600Y-8044300D01*
X16455600Y-8099300D01*
X16455600Y-8749300D02*
X16510600Y-8694300D01*
X16455600Y-8639300D01*
X16400600Y-8694300D01*
X16455600Y-8749300D01*
X16818400Y-6613400D02*
X16873400Y-6558400D01*
X16818400Y-6503400D01*
X16763400Y-6558400D01*
X16818400Y-6613400D01*
X16818400Y-7263400D02*
X16873400Y-7208400D01*
X16818400Y-7153400D01*
X16763400Y-7208400D01*
X16818400Y-7263400D01*
X16843800Y-7654800D02*
X16898800Y-7599800D01*
X16843800Y-7544800D01*
X16788800Y-7599800D01*
X16843800Y-7654800D01*
X16843800Y-8304800D02*
X16898800Y-8249800D01*
X16843800Y-8194800D01*
X16788800Y-8249800D01*
X16843800Y-8304800D01*
X16856500Y-8658100D02*
X16911500Y-8603100D01*
X16856500Y-8548100D01*
X16801500Y-8603100D01*
X16856500Y-8658100D01*
X16856500Y-9308100D02*
X16911500Y-9253100D01*
X16856500Y-9198100D01*
X16801500Y-9253100D01*
X16856500Y-9308100D01*
X17268400Y-6613400D02*
X17323400Y-6558400D01*
X17268400Y-6503400D01*
X17213400Y-6558400D01*
X17268400Y-6613400D01*
X17268400Y-7263400D02*
X17323400Y-7208400D01*
X17268400Y-7153400D01*
X17213400Y-7208400D01*
X17268400Y-7263400D01*
X17293800Y-7654800D02*
X17348800Y-7599800D01*
X17293800Y-7544800D01*
X17238800Y-7599800D01*
X17293800Y-7654800D01*
X17293800Y-8304800D02*
X17348800Y-8249800D01*
X17293800Y-8194800D01*
X17238800Y-8249800D01*
X17293800Y-8304800D01*
X17306500Y-8658100D02*
X17361500Y-8603100D01*
X17306500Y-8548100D01*
X17251500Y-8603100D01*
X17306500Y-8658100D01*
X17306500Y-9308100D02*
X17361500Y-9253100D01*
X17306500Y-9198100D01*
X17251500Y-9253100D01*
X17306500Y-9308100D01*
X17732800Y-8112000D02*
X17787800Y-8057000D01*
X17732800Y-8002000D01*
X17677800Y-8057000D01*
X17732800Y-8112000D01*
X17732800Y-8762000D02*
X17787800Y-8707000D01*
X17732800Y-8652000D01*
X17677800Y-8707000D01*
X17732800Y-8762000D01*
X18182800Y-8112000D02*
X18237800Y-8057000D01*
X18182800Y-8002000D01*
X18127800Y-8057000D01*
X18182800Y-8112000D01*
X18182800Y-8762000D02*
X18237800Y-8707000D01*
X18182800Y-8652000D01*
X18127800Y-8707000D01*
X18182800Y-8762000D01*
D11*
X9269619Y-10598476D02*
X9269619Y-10398476D01*
X9317238Y-10398476D01*
X9345810Y-10408000D01*
X9364857Y-10427048D01*
X9374381Y-10446095D01*
X9383905Y-10484190D01*
X9383905Y-10512762D01*
X9374381Y-10550857D01*
X9364857Y-10569905D01*
X9345810Y-10588952D01*
X9317238Y-10598476D01*
X9269619Y-10598476D01*
X9469619Y-10598476D02*
X9469619Y-10465143D01*
X9469619Y-10503238D02*
X9479143Y-10484190D01*
X9488667Y-10474667D01*
X9507714Y-10465143D01*
X9526762Y-10465143D01*
X9593429Y-10598476D02*
X9593429Y-10465143D01*
X9593429Y-10398476D02*
X9583905Y-10408000D01*
X9593429Y-10417524D01*
X9602952Y-10408000D01*
X9593429Y-10398476D01*
X9593429Y-10417524D01*
X9717238Y-10598476D02*
X9698190Y-10588952D01*
X9688667Y-10569905D01*
X9688667Y-10398476D01*
X9822000Y-10598476D02*
X9802952Y-10588952D01*
X9793429Y-10569905D01*
X9793429Y-10398476D01*
X10050571Y-10598476D02*
X10050571Y-10398476D01*
X10117238Y-10541333D01*
X10183905Y-10398476D01*
X10183905Y-10598476D01*
X10364857Y-10598476D02*
X10364857Y-10493714D01*
X10355333Y-10474667D01*
X10336286Y-10465143D01*
X10298190Y-10465143D01*
X10279143Y-10474667D01*
X10364857Y-10588952D02*
X10345810Y-10598476D01*
X10298190Y-10598476D01*
X10279143Y-10588952D01*
X10269619Y-10569905D01*
X10269619Y-10550857D01*
X10279143Y-10531810D01*
X10298190Y-10522286D01*
X10345810Y-10522286D01*
X10364857Y-10512762D01*
X10460095Y-10465143D02*
X10460095Y-10665143D01*
X10460095Y-10474667D02*
X10479143Y-10465143D01*
X10517238Y-10465143D01*
X10536286Y-10474667D01*
X10545810Y-10484190D01*
X10555333Y-10503238D01*
X10555333Y-10560381D01*
X10545810Y-10579429D01*
X10536286Y-10588952D01*
X10517238Y-10598476D01*
X10479143Y-10598476D01*
X10460095Y-10588952D01*
X10641048Y-10579429D02*
X10650571Y-10588952D01*
X10641048Y-10598476D01*
X10631524Y-10588952D01*
X10641048Y-10579429D01*
X10641048Y-10598476D01*
X10641048Y-10474667D02*
X10650571Y-10484190D01*
X10641048Y-10493714D01*
X10631524Y-10484190D01*
X10641048Y-10474667D01*
X10641048Y-10493714D01*
D12*
X8952000Y-10898000D02*
X9012000Y-10958000D01*
X9012000Y-10898000D02*
X8952000Y-10958000D01*
D11*
X9307714Y-10818476D02*
X9326762Y-10818476D01*
X9345810Y-10828000D01*
X9355333Y-10837524D01*
X9364857Y-10856571D01*
X9374381Y-10894667D01*
X9374381Y-10942286D01*
X9364857Y-10980381D01*
X9355333Y-10999429D01*
X9345810Y-11008952D01*
X9326762Y-11018476D01*
X9307714Y-11018476D01*
X9288667Y-11008952D01*
X9279143Y-10999429D01*
X9269619Y-10980381D01*
X9260095Y-10942286D01*
X9260095Y-10894667D01*
X9269619Y-10856571D01*
X9279143Y-10837524D01*
X9288667Y-10828000D01*
X9307714Y-10818476D01*
X9460095Y-10999429D02*
X9469619Y-11008952D01*
X9460095Y-11018476D01*
X9450571Y-11008952D01*
X9460095Y-10999429D01*
X9460095Y-11018476D01*
X9641048Y-10818476D02*
X9602952Y-10818476D01*
X9583905Y-10828000D01*
X9574381Y-10837524D01*
X9555333Y-10866095D01*
X9545810Y-10904190D01*
X9545810Y-10980381D01*
X9555333Y-10999429D01*
X9564857Y-11008952D01*
X9583905Y-11018476D01*
X9622000Y-11018476D01*
X9641048Y-11008952D01*
X9650571Y-10999429D01*
X9660095Y-10980381D01*
X9660095Y-10932762D01*
X9650571Y-10913714D01*
X9641048Y-10904190D01*
X9622000Y-10894667D01*
X9583905Y-10894667D01*
X9564857Y-10904190D01*
X9555333Y-10913714D01*
X9545810Y-10932762D01*
X9783905Y-10818476D02*
X9802952Y-10818476D01*
X9822000Y-10828000D01*
X9831524Y-10837524D01*
X9841048Y-10856571D01*
X9850571Y-10894667D01*
X9850571Y-10942286D01*
X9841048Y-10980381D01*
X9831524Y-10999429D01*
X9822000Y-11008952D01*
X9802952Y-11018476D01*
X9783905Y-11018476D01*
X9764857Y-11008952D01*
X9755333Y-10999429D01*
X9745810Y-10980381D01*
X9736286Y-10942286D01*
X9736286Y-10894667D01*
X9745810Y-10856571D01*
X9755333Y-10837524D01*
X9764857Y-10828000D01*
X9783905Y-10818476D01*
X9974381Y-10818476D02*
X9993429Y-10818476D01*
X10012476Y-10828000D01*
X10022000Y-10837524D01*
X10031524Y-10856571D01*
X10041048Y-10894667D01*
X10041048Y-10942286D01*
X10031524Y-10980381D01*
X10022000Y-10999429D01*
X10012476Y-11008952D01*
X9993429Y-11018476D01*
X9974381Y-11018476D01*
X9955333Y-11008952D01*
X9945810Y-10999429D01*
X9936286Y-10980381D01*
X9926762Y-10942286D01*
X9926762Y-10894667D01*
X9936286Y-10856571D01*
X9945810Y-10837524D01*
X9955333Y-10828000D01*
X9974381Y-10818476D01*
X10126762Y-11018476D02*
X10126762Y-10885143D01*
X10126762Y-10904190D02*
X10136286Y-10894667D01*
X10155333Y-10885143D01*
X10183905Y-10885143D01*
X10202952Y-10894667D01*
X10212476Y-10913714D01*
X10212476Y-11018476D01*
X10212476Y-10913714D02*
X10222000Y-10894667D01*
X10241048Y-10885143D01*
X10269619Y-10885143D01*
X10288667Y-10894667D01*
X10298190Y-10913714D01*
X10298190Y-11018476D01*
X10393429Y-11018476D02*
X10393429Y-10885143D01*
X10393429Y-10904190D02*
X10402952Y-10894667D01*
X10422000Y-10885143D01*
X10450571Y-10885143D01*
X10469619Y-10894667D01*
X10479143Y-10913714D01*
X10479143Y-11018476D01*
X10479143Y-10913714D02*
X10488667Y-10894667D01*
X10507714Y-10885143D01*
X10536286Y-10885143D01*
X10555333Y-10894667D01*
X10564857Y-10913714D01*
X10564857Y-11018476D01*
X10955333Y-10808952D02*
X10783905Y-11066095D01*
X11212476Y-10818476D02*
X11231524Y-10818476D01*
X11250571Y-10828000D01*
X11260095Y-10837524D01*
X11269619Y-10856571D01*
X11279143Y-10894667D01*
X11279143Y-10942286D01*
X11269619Y-10980381D01*
X11260095Y-10999429D01*
X11250571Y-11008952D01*
X11231524Y-11018476D01*
X11212476Y-11018476D01*
X11193428Y-11008952D01*
X11183905Y-10999429D01*
X11174381Y-10980381D01*
X11164857Y-10942286D01*
X11164857Y-10894667D01*
X11174381Y-10856571D01*
X11183905Y-10837524D01*
X11193428Y-10828000D01*
X11212476Y-10818476D01*
X11364857Y-10999429D02*
X11374381Y-11008952D01*
X11364857Y-11018476D01*
X11355333Y-11008952D01*
X11364857Y-10999429D01*
X11364857Y-11018476D01*
X11498190Y-10818476D02*
X11517238Y-10818476D01*
X11536286Y-10828000D01*
X11545809Y-10837524D01*
X11555333Y-10856571D01*
X11564857Y-10894667D01*
X11564857Y-10942286D01*
X11555333Y-10980381D01*
X11545809Y-10999429D01*
X11536286Y-11008952D01*
X11517238Y-11018476D01*
X11498190Y-11018476D01*
X11479143Y-11008952D01*
X11469619Y-10999429D01*
X11460095Y-10980381D01*
X11450571Y-10942286D01*
X11450571Y-10894667D01*
X11460095Y-10856571D01*
X11469619Y-10837524D01*
X11479143Y-10828000D01*
X11498190Y-10818476D01*
X11641048Y-10837524D02*
X11650571Y-10828000D01*
X11669619Y-10818476D01*
X11717238Y-10818476D01*
X11736286Y-10828000D01*
X11745809Y-10837524D01*
X11755333Y-10856571D01*
X11755333Y-10875619D01*
X11745809Y-10904190D01*
X11631524Y-11018476D01*
X11755333Y-11018476D01*
X11822000Y-10818476D02*
X11945809Y-10818476D01*
X11879143Y-10894667D01*
X11907714Y-10894667D01*
X11926762Y-10904190D01*
X11936286Y-10913714D01*
X11945809Y-10932762D01*
X11945809Y-10980381D01*
X11936286Y-10999429D01*
X11926762Y-11008952D01*
X11907714Y-11018476D01*
X11850571Y-11018476D01*
X11831524Y-11008952D01*
X11822000Y-10999429D01*
X12117238Y-10818476D02*
X12079143Y-10818476D01*
X12060095Y-10828000D01*
X12050571Y-10837524D01*
X12031524Y-10866095D01*
X12022000Y-10904190D01*
X12022000Y-10980381D01*
X12031524Y-10999429D01*
X12041048Y-11008952D01*
X12060095Y-11018476D01*
X12098190Y-11018476D01*
X12117238Y-11008952D01*
X12126762Y-10999429D01*
X12136286Y-10980381D01*
X12136286Y-10932762D01*
X12126762Y-10913714D01*
X12117238Y-10904190D01*
X12098190Y-10894667D01*
X12060095Y-10894667D01*
X12041048Y-10904190D01*
X12031524Y-10913714D01*
X12022000Y-10932762D01*
X12212476Y-10818476D02*
X12212476Y-10856571D01*
X12288667Y-10818476D02*
X12288667Y-10856571D01*
X12583905Y-11094667D02*
X12574381Y-11085143D01*
X12555333Y-11056571D01*
X12545809Y-11037524D01*
X12536286Y-11008952D01*
X12526762Y-10961333D01*
X12526762Y-10923238D01*
X12536286Y-10875619D01*
X12545809Y-10847048D01*
X12555333Y-10828000D01*
X12574381Y-10799429D01*
X12583905Y-10789905D01*
X12745809Y-10885143D02*
X12745809Y-11018476D01*
X12698190Y-10808952D02*
X12650571Y-10951810D01*
X12774381Y-10951810D01*
X13002952Y-11018476D02*
X13002952Y-10818476D01*
X13088667Y-11018476D02*
X13088667Y-10913714D01*
X13079143Y-10894667D01*
X13060095Y-10885143D01*
X13031524Y-10885143D01*
X13012476Y-10894667D01*
X13002952Y-10904190D01*
X13212476Y-11018476D02*
X13193428Y-11008952D01*
X13183905Y-10999429D01*
X13174381Y-10980381D01*
X13174381Y-10923238D01*
X13183905Y-10904190D01*
X13193428Y-10894667D01*
X13212476Y-10885143D01*
X13241048Y-10885143D01*
X13260095Y-10894667D01*
X13269619Y-10904190D01*
X13279143Y-10923238D01*
X13279143Y-10980381D01*
X13269619Y-10999429D01*
X13260095Y-11008952D01*
X13241048Y-11018476D01*
X13212476Y-11018476D01*
X13393428Y-11018476D02*
X13374381Y-11008952D01*
X13364857Y-10989905D01*
X13364857Y-10818476D01*
X13545809Y-11008952D02*
X13526762Y-11018476D01*
X13488667Y-11018476D01*
X13469619Y-11008952D01*
X13460095Y-10989905D01*
X13460095Y-10913714D01*
X13469619Y-10894667D01*
X13488667Y-10885143D01*
X13526762Y-10885143D01*
X13545809Y-10894667D01*
X13555333Y-10913714D01*
X13555333Y-10932762D01*
X13460095Y-10951810D01*
X13631524Y-11008952D02*
X13650571Y-11018476D01*
X13688667Y-11018476D01*
X13707714Y-11008952D01*
X13717238Y-10989905D01*
X13717238Y-10980381D01*
X13707714Y-10961333D01*
X13688667Y-10951810D01*
X13660095Y-10951810D01*
X13641048Y-10942286D01*
X13631524Y-10923238D01*
X13631524Y-10913714D01*
X13641048Y-10894667D01*
X13660095Y-10885143D01*
X13688667Y-10885143D01*
X13707714Y-10894667D01*
X13783905Y-11094667D02*
X13793428Y-11085143D01*
X13812476Y-11056571D01*
X13822000Y-11037524D01*
X13831524Y-11008952D01*
X13841048Y-10961333D01*
X13841048Y-10923238D01*
X13831524Y-10875619D01*
X13822000Y-10847048D01*
X13812476Y-10828000D01*
X13793428Y-10799429D01*
X13783905Y-10789905D01*
D13*
X9012000Y-11192000D02*
G75*
G03*
X9012000Y-11192000I-37500J0D01*
G01*
D11*
X9307714Y-11082476D02*
X9326762Y-11082476D01*
X9345810Y-11092000D01*
X9355333Y-11101524D01*
X9364857Y-11120571D01*
X9374381Y-11158667D01*
X9374381Y-11206286D01*
X9364857Y-11244381D01*
X9355333Y-11263428D01*
X9345810Y-11272952D01*
X9326762Y-11282476D01*
X9307714Y-11282476D01*
X9288667Y-11272952D01*
X9279143Y-11263428D01*
X9269619Y-11244381D01*
X9260095Y-11206286D01*
X9260095Y-11158667D01*
X9269619Y-11120571D01*
X9279143Y-11101524D01*
X9288667Y-11092000D01*
X9307714Y-11082476D01*
X9460095Y-11263428D02*
X9469619Y-11272952D01*
X9460095Y-11282476D01*
X9450571Y-11272952D01*
X9460095Y-11263428D01*
X9460095Y-11282476D01*
X9536286Y-11082476D02*
X9669619Y-11082476D01*
X9583905Y-11282476D01*
X9841048Y-11082476D02*
X9745810Y-11082476D01*
X9736286Y-11177714D01*
X9745810Y-11168190D01*
X9764857Y-11158667D01*
X9812476Y-11158667D01*
X9831524Y-11168190D01*
X9841048Y-11177714D01*
X9850571Y-11196762D01*
X9850571Y-11244381D01*
X9841048Y-11263428D01*
X9831524Y-11272952D01*
X9812476Y-11282476D01*
X9764857Y-11282476D01*
X9745810Y-11272952D01*
X9736286Y-11263428D01*
X9974381Y-11082476D02*
X9993429Y-11082476D01*
X10012476Y-11092000D01*
X10022000Y-11101524D01*
X10031524Y-11120571D01*
X10041048Y-11158667D01*
X10041048Y-11206286D01*
X10031524Y-11244381D01*
X10022000Y-11263428D01*
X10012476Y-11272952D01*
X9993429Y-11282476D01*
X9974381Y-11282476D01*
X9955333Y-11272952D01*
X9945810Y-11263428D01*
X9936286Y-11244381D01*
X9926762Y-11206286D01*
X9926762Y-11158667D01*
X9936286Y-11120571D01*
X9945810Y-11101524D01*
X9955333Y-11092000D01*
X9974381Y-11082476D01*
X10126762Y-11282476D02*
X10126762Y-11149143D01*
X10126762Y-11168190D02*
X10136286Y-11158667D01*
X10155333Y-11149143D01*
X10183905Y-11149143D01*
X10202952Y-11158667D01*
X10212476Y-11177714D01*
X10212476Y-11282476D01*
X10212476Y-11177714D02*
X10222000Y-11158667D01*
X10241048Y-11149143D01*
X10269619Y-11149143D01*
X10288667Y-11158667D01*
X10298190Y-11177714D01*
X10298190Y-11282476D01*
X10393429Y-11282476D02*
X10393429Y-11149143D01*
X10393429Y-11168190D02*
X10402952Y-11158667D01*
X10422000Y-11149143D01*
X10450571Y-11149143D01*
X10469619Y-11158667D01*
X10479143Y-11177714D01*
X10479143Y-11282476D01*
X10479143Y-11177714D02*
X10488667Y-11158667D01*
X10507714Y-11149143D01*
X10536286Y-11149143D01*
X10555333Y-11158667D01*
X10564857Y-11177714D01*
X10564857Y-11282476D01*
X10955333Y-11072952D02*
X10783905Y-11330095D01*
X11212476Y-11082476D02*
X11231524Y-11082476D01*
X11250571Y-11092000D01*
X11260095Y-11101524D01*
X11269619Y-11120571D01*
X11279143Y-11158667D01*
X11279143Y-11206286D01*
X11269619Y-11244381D01*
X11260095Y-11263428D01*
X11250571Y-11272952D01*
X11231524Y-11282476D01*
X11212476Y-11282476D01*
X11193428Y-11272952D01*
X11183905Y-11263428D01*
X11174381Y-11244381D01*
X11164857Y-11206286D01*
X11164857Y-11158667D01*
X11174381Y-11120571D01*
X11183905Y-11101524D01*
X11193428Y-11092000D01*
X11212476Y-11082476D01*
X11364857Y-11263428D02*
X11374381Y-11272952D01*
X11364857Y-11282476D01*
X11355333Y-11272952D01*
X11364857Y-11263428D01*
X11364857Y-11282476D01*
X11498190Y-11082476D02*
X11517238Y-11082476D01*
X11536286Y-11092000D01*
X11545809Y-11101524D01*
X11555333Y-11120571D01*
X11564857Y-11158667D01*
X11564857Y-11206286D01*
X11555333Y-11244381D01*
X11545809Y-11263428D01*
X11536286Y-11272952D01*
X11517238Y-11282476D01*
X11498190Y-11282476D01*
X11479143Y-11272952D01*
X11469619Y-11263428D01*
X11460095Y-11244381D01*
X11450571Y-11206286D01*
X11450571Y-11158667D01*
X11460095Y-11120571D01*
X11469619Y-11101524D01*
X11479143Y-11092000D01*
X11498190Y-11082476D01*
X11641048Y-11101524D02*
X11650571Y-11092000D01*
X11669619Y-11082476D01*
X11717238Y-11082476D01*
X11736286Y-11092000D01*
X11745809Y-11101524D01*
X11755333Y-11120571D01*
X11755333Y-11139619D01*
X11745809Y-11168190D01*
X11631524Y-11282476D01*
X11755333Y-11282476D01*
X11850571Y-11282476D02*
X11888667Y-11282476D01*
X11907714Y-11272952D01*
X11917238Y-11263428D01*
X11936286Y-11234857D01*
X11945809Y-11196762D01*
X11945809Y-11120571D01*
X11936286Y-11101524D01*
X11926762Y-11092000D01*
X11907714Y-11082476D01*
X11869619Y-11082476D01*
X11850571Y-11092000D01*
X11841048Y-11101524D01*
X11831524Y-11120571D01*
X11831524Y-11168190D01*
X11841048Y-11187238D01*
X11850571Y-11196762D01*
X11869619Y-11206286D01*
X11907714Y-11206286D01*
X11926762Y-11196762D01*
X11936286Y-11187238D01*
X11945809Y-11168190D01*
X12126762Y-11082476D02*
X12031524Y-11082476D01*
X12022000Y-11177714D01*
X12031524Y-11168190D01*
X12050571Y-11158667D01*
X12098190Y-11158667D01*
X12117238Y-11168190D01*
X12126762Y-11177714D01*
X12136286Y-11196762D01*
X12136286Y-11244381D01*
X12126762Y-11263428D01*
X12117238Y-11272952D01*
X12098190Y-11282476D01*
X12050571Y-11282476D01*
X12031524Y-11272952D01*
X12022000Y-11263428D01*
X12212476Y-11082476D02*
X12212476Y-11120571D01*
X12288667Y-11082476D02*
X12288667Y-11120571D01*
X12583905Y-11358667D02*
X12574381Y-11349143D01*
X12555333Y-11320571D01*
X12545809Y-11301524D01*
X12536286Y-11272952D01*
X12526762Y-11225333D01*
X12526762Y-11187238D01*
X12536286Y-11139619D01*
X12545809Y-11111048D01*
X12555333Y-11092000D01*
X12574381Y-11063429D01*
X12583905Y-11053905D01*
X12764857Y-11282476D02*
X12650571Y-11282476D01*
X12707714Y-11282476D02*
X12707714Y-11082476D01*
X12688667Y-11111048D01*
X12669619Y-11130095D01*
X12650571Y-11139619D01*
X12879143Y-11168190D02*
X12860095Y-11158667D01*
X12850571Y-11149143D01*
X12841048Y-11130095D01*
X12841048Y-11120571D01*
X12850571Y-11101524D01*
X12860095Y-11092000D01*
X12879143Y-11082476D01*
X12917238Y-11082476D01*
X12936286Y-11092000D01*
X12945809Y-11101524D01*
X12955333Y-11120571D01*
X12955333Y-11130095D01*
X12945809Y-11149143D01*
X12936286Y-11158667D01*
X12917238Y-11168190D01*
X12879143Y-11168190D01*
X12860095Y-11177714D01*
X12850571Y-11187238D01*
X12841048Y-11206286D01*
X12841048Y-11244381D01*
X12850571Y-11263428D01*
X12860095Y-11272952D01*
X12879143Y-11282476D01*
X12917238Y-11282476D01*
X12936286Y-11272952D01*
X12945809Y-11263428D01*
X12955333Y-11244381D01*
X12955333Y-11206286D01*
X12945809Y-11187238D01*
X12936286Y-11177714D01*
X12917238Y-11168190D01*
X13193428Y-11282476D02*
X13193428Y-11082476D01*
X13279143Y-11282476D02*
X13279143Y-11177714D01*
X13269619Y-11158667D01*
X13250571Y-11149143D01*
X13222000Y-11149143D01*
X13202952Y-11158667D01*
X13193428Y-11168190D01*
X13402952Y-11282476D02*
X13383905Y-11272952D01*
X13374381Y-11263428D01*
X13364857Y-11244381D01*
X13364857Y-11187238D01*
X13374381Y-11168190D01*
X13383905Y-11158667D01*
X13402952Y-11149143D01*
X13431524Y-11149143D01*
X13450571Y-11158667D01*
X13460095Y-11168190D01*
X13469619Y-11187238D01*
X13469619Y-11244381D01*
X13460095Y-11263428D01*
X13450571Y-11272952D01*
X13431524Y-11282476D01*
X13402952Y-11282476D01*
X13583905Y-11282476D02*
X13564857Y-11272952D01*
X13555333Y-11253905D01*
X13555333Y-11082476D01*
X13736286Y-11272952D02*
X13717238Y-11282476D01*
X13679143Y-11282476D01*
X13660095Y-11272952D01*
X13650571Y-11253905D01*
X13650571Y-11177714D01*
X13660095Y-11158667D01*
X13679143Y-11149143D01*
X13717238Y-11149143D01*
X13736286Y-11158667D01*
X13745809Y-11177714D01*
X13745809Y-11196762D01*
X13650571Y-11215809D01*
X13822000Y-11272952D02*
X13841048Y-11282476D01*
X13879143Y-11282476D01*
X13898190Y-11272952D01*
X13907714Y-11253905D01*
X13907714Y-11244381D01*
X13898190Y-11225333D01*
X13879143Y-11215809D01*
X13850571Y-11215809D01*
X13831524Y-11206286D01*
X13822000Y-11187238D01*
X13822000Y-11177714D01*
X13831524Y-11158667D01*
X13850571Y-11149143D01*
X13879143Y-11149143D01*
X13898190Y-11158667D01*
X13974381Y-11358667D02*
X13983905Y-11349143D01*
X14002952Y-11320571D01*
X14012476Y-11301524D01*
X14022000Y-11272952D01*
X14031524Y-11225333D01*
X14031524Y-11187238D01*
X14022000Y-11139619D01*
X14012476Y-11111048D01*
X14002952Y-11092000D01*
X13983905Y-11063429D01*
X13974381Y-11053905D01*
D14*
X8972000Y-11416000D02*
X8972000Y-11496000D01*
X8932000Y-11456000D02*
X9012000Y-11456000D01*
D11*
X9307714Y-11346476D02*
X9326762Y-11346476D01*
X9345810Y-11356000D01*
X9355333Y-11365524D01*
X9364857Y-11384571D01*
X9374381Y-11422667D01*
X9374381Y-11470286D01*
X9364857Y-11508381D01*
X9355333Y-11527428D01*
X9345810Y-11536952D01*
X9326762Y-11546476D01*
X9307714Y-11546476D01*
X9288667Y-11536952D01*
X9279143Y-11527428D01*
X9269619Y-11508381D01*
X9260095Y-11470286D01*
X9260095Y-11422667D01*
X9269619Y-11384571D01*
X9279143Y-11365524D01*
X9288667Y-11356000D01*
X9307714Y-11346476D01*
X9460095Y-11527428D02*
X9469619Y-11536952D01*
X9460095Y-11546476D01*
X9450571Y-11536952D01*
X9460095Y-11527428D01*
X9460095Y-11546476D01*
X9583905Y-11432190D02*
X9564857Y-11422667D01*
X9555333Y-11413143D01*
X9545810Y-11394095D01*
X9545810Y-11384571D01*
X9555333Y-11365524D01*
X9564857Y-11356000D01*
X9583905Y-11346476D01*
X9622000Y-11346476D01*
X9641048Y-11356000D01*
X9650571Y-11365524D01*
X9660095Y-11384571D01*
X9660095Y-11394095D01*
X9650571Y-11413143D01*
X9641048Y-11422667D01*
X9622000Y-11432190D01*
X9583905Y-11432190D01*
X9564857Y-11441714D01*
X9555333Y-11451238D01*
X9545810Y-11470286D01*
X9545810Y-11508381D01*
X9555333Y-11527428D01*
X9564857Y-11536952D01*
X9583905Y-11546476D01*
X9622000Y-11546476D01*
X9641048Y-11536952D01*
X9650571Y-11527428D01*
X9660095Y-11508381D01*
X9660095Y-11470286D01*
X9650571Y-11451238D01*
X9641048Y-11441714D01*
X9622000Y-11432190D01*
X9783905Y-11346476D02*
X9802952Y-11346476D01*
X9822000Y-11356000D01*
X9831524Y-11365524D01*
X9841048Y-11384571D01*
X9850571Y-11422667D01*
X9850571Y-11470286D01*
X9841048Y-11508381D01*
X9831524Y-11527428D01*
X9822000Y-11536952D01*
X9802952Y-11546476D01*
X9783905Y-11546476D01*
X9764857Y-11536952D01*
X9755333Y-11527428D01*
X9745810Y-11508381D01*
X9736286Y-11470286D01*
X9736286Y-11422667D01*
X9745810Y-11384571D01*
X9755333Y-11365524D01*
X9764857Y-11356000D01*
X9783905Y-11346476D01*
X9974381Y-11346476D02*
X9993429Y-11346476D01*
X10012476Y-11356000D01*
X10022000Y-11365524D01*
X10031524Y-11384571D01*
X10041048Y-11422667D01*
X10041048Y-11470286D01*
X10031524Y-11508381D01*
X10022000Y-11527428D01*
X10012476Y-11536952D01*
X9993429Y-11546476D01*
X9974381Y-11546476D01*
X9955333Y-11536952D01*
X9945810Y-11527428D01*
X9936286Y-11508381D01*
X9926762Y-11470286D01*
X9926762Y-11422667D01*
X9936286Y-11384571D01*
X9945810Y-11365524D01*
X9955333Y-11356000D01*
X9974381Y-11346476D01*
X10126762Y-11546476D02*
X10126762Y-11413143D01*
X10126762Y-11432190D02*
X10136286Y-11422667D01*
X10155333Y-11413143D01*
X10183905Y-11413143D01*
X10202952Y-11422667D01*
X10212476Y-11441714D01*
X10212476Y-11546476D01*
X10212476Y-11441714D02*
X10222000Y-11422667D01*
X10241048Y-11413143D01*
X10269619Y-11413143D01*
X10288667Y-11422667D01*
X10298190Y-11441714D01*
X10298190Y-11546476D01*
X10393429Y-11546476D02*
X10393429Y-11413143D01*
X10393429Y-11432190D02*
X10402952Y-11422667D01*
X10422000Y-11413143D01*
X10450571Y-11413143D01*
X10469619Y-11422667D01*
X10479143Y-11441714D01*
X10479143Y-11546476D01*
X10479143Y-11441714D02*
X10488667Y-11422667D01*
X10507714Y-11413143D01*
X10536286Y-11413143D01*
X10555333Y-11422667D01*
X10564857Y-11441714D01*
X10564857Y-11546476D01*
X10955333Y-11336952D02*
X10783905Y-11594095D01*
X11212476Y-11346476D02*
X11231524Y-11346476D01*
X11250571Y-11356000D01*
X11260095Y-11365524D01*
X11269619Y-11384571D01*
X11279143Y-11422667D01*
X11279143Y-11470286D01*
X11269619Y-11508381D01*
X11260095Y-11527428D01*
X11250571Y-11536952D01*
X11231524Y-11546476D01*
X11212476Y-11546476D01*
X11193428Y-11536952D01*
X11183905Y-11527428D01*
X11174381Y-11508381D01*
X11164857Y-11470286D01*
X11164857Y-11422667D01*
X11174381Y-11384571D01*
X11183905Y-11365524D01*
X11193428Y-11356000D01*
X11212476Y-11346476D01*
X11364857Y-11527428D02*
X11374381Y-11536952D01*
X11364857Y-11546476D01*
X11355333Y-11536952D01*
X11364857Y-11527428D01*
X11364857Y-11546476D01*
X11498190Y-11346476D02*
X11517238Y-11346476D01*
X11536286Y-11356000D01*
X11545809Y-11365524D01*
X11555333Y-11384571D01*
X11564857Y-11422667D01*
X11564857Y-11470286D01*
X11555333Y-11508381D01*
X11545809Y-11527428D01*
X11536286Y-11536952D01*
X11517238Y-11546476D01*
X11498190Y-11546476D01*
X11479143Y-11536952D01*
X11469619Y-11527428D01*
X11460095Y-11508381D01*
X11450571Y-11470286D01*
X11450571Y-11422667D01*
X11460095Y-11384571D01*
X11469619Y-11365524D01*
X11479143Y-11356000D01*
X11498190Y-11346476D01*
X11631524Y-11346476D02*
X11755333Y-11346476D01*
X11688667Y-11422667D01*
X11717238Y-11422667D01*
X11736286Y-11432190D01*
X11745809Y-11441714D01*
X11755333Y-11460762D01*
X11755333Y-11508381D01*
X11745809Y-11527428D01*
X11736286Y-11536952D01*
X11717238Y-11546476D01*
X11660095Y-11546476D01*
X11641048Y-11536952D01*
X11631524Y-11527428D01*
X11945809Y-11546476D02*
X11831524Y-11546476D01*
X11888667Y-11546476D02*
X11888667Y-11346476D01*
X11869619Y-11375048D01*
X11850571Y-11394095D01*
X11831524Y-11403619D01*
X12126762Y-11346476D02*
X12031524Y-11346476D01*
X12022000Y-11441714D01*
X12031524Y-11432190D01*
X12050571Y-11422667D01*
X12098190Y-11422667D01*
X12117238Y-11432190D01*
X12126762Y-11441714D01*
X12136286Y-11460762D01*
X12136286Y-11508381D01*
X12126762Y-11527428D01*
X12117238Y-11536952D01*
X12098190Y-11546476D01*
X12050571Y-11546476D01*
X12031524Y-11536952D01*
X12022000Y-11527428D01*
X12212476Y-11346476D02*
X12212476Y-11384571D01*
X12288667Y-11346476D02*
X12288667Y-11384571D01*
X12583905Y-11622667D02*
X12574381Y-11613143D01*
X12555333Y-11584571D01*
X12545809Y-11565524D01*
X12536286Y-11536952D01*
X12526762Y-11489333D01*
X12526762Y-11451238D01*
X12536286Y-11403619D01*
X12545809Y-11375048D01*
X12555333Y-11356000D01*
X12574381Y-11327428D01*
X12583905Y-11317905D01*
X12764857Y-11546476D02*
X12650571Y-11546476D01*
X12707714Y-11546476D02*
X12707714Y-11346476D01*
X12688667Y-11375048D01*
X12669619Y-11394095D01*
X12650571Y-11403619D01*
X12955333Y-11546476D02*
X12841048Y-11546476D01*
X12898190Y-11546476D02*
X12898190Y-11346476D01*
X12879143Y-11375048D01*
X12860095Y-11394095D01*
X12841048Y-11403619D01*
X13031524Y-11365524D02*
X13041048Y-11356000D01*
X13060095Y-11346476D01*
X13107714Y-11346476D01*
X13126762Y-11356000D01*
X13136286Y-11365524D01*
X13145809Y-11384571D01*
X13145809Y-11403619D01*
X13136286Y-11432190D01*
X13022000Y-11546476D01*
X13145809Y-11546476D01*
X13383905Y-11546476D02*
X13383905Y-11346476D01*
X13469619Y-11546476D02*
X13469619Y-11441714D01*
X13460095Y-11422667D01*
X13441048Y-11413143D01*
X13412476Y-11413143D01*
X13393428Y-11422667D01*
X13383905Y-11432190D01*
X13593428Y-11546476D02*
X13574381Y-11536952D01*
X13564857Y-11527428D01*
X13555333Y-11508381D01*
X13555333Y-11451238D01*
X13564857Y-11432190D01*
X13574381Y-11422667D01*
X13593428Y-11413143D01*
X13622000Y-11413143D01*
X13641048Y-11422667D01*
X13650571Y-11432190D01*
X13660095Y-11451238D01*
X13660095Y-11508381D01*
X13650571Y-11527428D01*
X13641048Y-11536952D01*
X13622000Y-11546476D01*
X13593428Y-11546476D01*
X13774381Y-11546476D02*
X13755333Y-11536952D01*
X13745809Y-11517905D01*
X13745809Y-11346476D01*
X13926762Y-11536952D02*
X13907714Y-11546476D01*
X13869619Y-11546476D01*
X13850571Y-11536952D01*
X13841048Y-11517905D01*
X13841048Y-11441714D01*
X13850571Y-11422667D01*
X13869619Y-11413143D01*
X13907714Y-11413143D01*
X13926762Y-11422667D01*
X13936286Y-11441714D01*
X13936286Y-11460762D01*
X13841048Y-11479809D01*
X14012476Y-11536952D02*
X14031524Y-11546476D01*
X14069619Y-11546476D01*
X14088667Y-11536952D01*
X14098190Y-11517905D01*
X14098190Y-11508381D01*
X14088667Y-11489333D01*
X14069619Y-11479809D01*
X14041048Y-11479809D01*
X14022000Y-11470286D01*
X14012476Y-11451238D01*
X14012476Y-11441714D01*
X14022000Y-11422667D01*
X14041048Y-11413143D01*
X14069619Y-11413143D01*
X14088667Y-11422667D01*
X14164857Y-11622667D02*
X14174381Y-11613143D01*
X14193428Y-11584571D01*
X14202952Y-11565524D01*
X14212476Y-11536952D01*
X14222000Y-11489333D01*
X14222000Y-11451238D01*
X14212476Y-11403619D01*
X14202952Y-11375048D01*
X14193428Y-11356000D01*
X14174381Y-11327428D01*
X14164857Y-11317905D01*
D10*
X8997356Y-11755356D02*
X8997356Y-11684644D01*
X8926644Y-11684644D01*
X8926644Y-11755356D01*
X8997356Y-11755356D01*
D11*
X9374381Y-11810476D02*
X9260095Y-11810476D01*
X9317238Y-11810476D02*
X9317238Y-11610476D01*
X9298190Y-11639048D01*
X9279143Y-11658095D01*
X9260095Y-11667619D01*
X9460095Y-11791428D02*
X9469619Y-11800952D01*
X9460095Y-11810476D01*
X9450571Y-11800952D01*
X9460095Y-11791428D01*
X9460095Y-11810476D01*
X9593429Y-11610476D02*
X9612476Y-11610476D01*
X9631524Y-11620000D01*
X9641048Y-11629524D01*
X9650571Y-11648571D01*
X9660095Y-11686667D01*
X9660095Y-11734286D01*
X9650571Y-11772381D01*
X9641048Y-11791428D01*
X9631524Y-11800952D01*
X9612476Y-11810476D01*
X9593429Y-11810476D01*
X9574381Y-11800952D01*
X9564857Y-11791428D01*
X9555333Y-11772381D01*
X9545810Y-11734286D01*
X9545810Y-11686667D01*
X9555333Y-11648571D01*
X9564857Y-11629524D01*
X9574381Y-11620000D01*
X9593429Y-11610476D01*
X9783905Y-11610476D02*
X9802952Y-11610476D01*
X9822000Y-11620000D01*
X9831524Y-11629524D01*
X9841048Y-11648571D01*
X9850571Y-11686667D01*
X9850571Y-11734286D01*
X9841048Y-11772381D01*
X9831524Y-11791428D01*
X9822000Y-11800952D01*
X9802952Y-11810476D01*
X9783905Y-11810476D01*
X9764857Y-11800952D01*
X9755333Y-11791428D01*
X9745810Y-11772381D01*
X9736286Y-11734286D01*
X9736286Y-11686667D01*
X9745810Y-11648571D01*
X9755333Y-11629524D01*
X9764857Y-11620000D01*
X9783905Y-11610476D01*
X9974381Y-11610476D02*
X9993429Y-11610476D01*
X10012476Y-11620000D01*
X10022000Y-11629524D01*
X10031524Y-11648571D01*
X10041048Y-11686667D01*
X10041048Y-11734286D01*
X10031524Y-11772381D01*
X10022000Y-11791428D01*
X10012476Y-11800952D01*
X9993429Y-11810476D01*
X9974381Y-11810476D01*
X9955333Y-11800952D01*
X9945810Y-11791428D01*
X9936286Y-11772381D01*
X9926762Y-11734286D01*
X9926762Y-11686667D01*
X9936286Y-11648571D01*
X9945810Y-11629524D01*
X9955333Y-11620000D01*
X9974381Y-11610476D01*
X10126762Y-11810476D02*
X10126762Y-11677143D01*
X10126762Y-11696190D02*
X10136286Y-11686667D01*
X10155333Y-11677143D01*
X10183905Y-11677143D01*
X10202952Y-11686667D01*
X10212476Y-11705714D01*
X10212476Y-11810476D01*
X10212476Y-11705714D02*
X10222000Y-11686667D01*
X10241048Y-11677143D01*
X10269619Y-11677143D01*
X10288667Y-11686667D01*
X10298190Y-11705714D01*
X10298190Y-11810476D01*
X10393429Y-11810476D02*
X10393429Y-11677143D01*
X10393429Y-11696190D02*
X10402952Y-11686667D01*
X10422000Y-11677143D01*
X10450571Y-11677143D01*
X10469619Y-11686667D01*
X10479143Y-11705714D01*
X10479143Y-11810476D01*
X10479143Y-11705714D02*
X10488667Y-11686667D01*
X10507714Y-11677143D01*
X10536286Y-11677143D01*
X10555333Y-11686667D01*
X10564857Y-11705714D01*
X10564857Y-11810476D01*
X10955333Y-11600952D02*
X10783905Y-11858095D01*
X11212476Y-11610476D02*
X11231524Y-11610476D01*
X11250571Y-11620000D01*
X11260095Y-11629524D01*
X11269619Y-11648571D01*
X11279143Y-11686667D01*
X11279143Y-11734286D01*
X11269619Y-11772381D01*
X11260095Y-11791428D01*
X11250571Y-11800952D01*
X11231524Y-11810476D01*
X11212476Y-11810476D01*
X11193428Y-11800952D01*
X11183905Y-11791428D01*
X11174381Y-11772381D01*
X11164857Y-11734286D01*
X11164857Y-11686667D01*
X11174381Y-11648571D01*
X11183905Y-11629524D01*
X11193428Y-11620000D01*
X11212476Y-11610476D01*
X11364857Y-11791428D02*
X11374381Y-11800952D01*
X11364857Y-11810476D01*
X11355333Y-11800952D01*
X11364857Y-11791428D01*
X11364857Y-11810476D01*
X11498190Y-11610476D02*
X11517238Y-11610476D01*
X11536286Y-11620000D01*
X11545809Y-11629524D01*
X11555333Y-11648571D01*
X11564857Y-11686667D01*
X11564857Y-11734286D01*
X11555333Y-11772381D01*
X11545809Y-11791428D01*
X11536286Y-11800952D01*
X11517238Y-11810476D01*
X11498190Y-11810476D01*
X11479143Y-11800952D01*
X11469619Y-11791428D01*
X11460095Y-11772381D01*
X11450571Y-11734286D01*
X11450571Y-11686667D01*
X11460095Y-11648571D01*
X11469619Y-11629524D01*
X11479143Y-11620000D01*
X11498190Y-11610476D01*
X11631524Y-11610476D02*
X11755333Y-11610476D01*
X11688667Y-11686667D01*
X11717238Y-11686667D01*
X11736286Y-11696190D01*
X11745809Y-11705714D01*
X11755333Y-11724762D01*
X11755333Y-11772381D01*
X11745809Y-11791428D01*
X11736286Y-11800952D01*
X11717238Y-11810476D01*
X11660095Y-11810476D01*
X11641048Y-11800952D01*
X11631524Y-11791428D01*
X11850571Y-11810476D02*
X11888667Y-11810476D01*
X11907714Y-11800952D01*
X11917238Y-11791428D01*
X11936286Y-11762857D01*
X11945809Y-11724762D01*
X11945809Y-11648571D01*
X11936286Y-11629524D01*
X11926762Y-11620000D01*
X11907714Y-11610476D01*
X11869619Y-11610476D01*
X11850571Y-11620000D01*
X11841048Y-11629524D01*
X11831524Y-11648571D01*
X11831524Y-11696190D01*
X11841048Y-11715238D01*
X11850571Y-11724762D01*
X11869619Y-11734286D01*
X11907714Y-11734286D01*
X11926762Y-11724762D01*
X11936286Y-11715238D01*
X11945809Y-11696190D01*
X12117238Y-11677143D02*
X12117238Y-11810476D01*
X12069619Y-11600952D02*
X12022000Y-11743809D01*
X12145809Y-11743809D01*
X12212476Y-11610476D02*
X12212476Y-11648571D01*
X12288667Y-11610476D02*
X12288667Y-11648571D01*
X12583905Y-11886667D02*
X12574381Y-11877143D01*
X12555333Y-11848571D01*
X12545809Y-11829524D01*
X12536286Y-11800952D01*
X12526762Y-11753333D01*
X12526762Y-11715238D01*
X12536286Y-11667619D01*
X12545809Y-11639048D01*
X12555333Y-11620000D01*
X12574381Y-11591428D01*
X12583905Y-11581905D01*
X12745809Y-11677143D02*
X12745809Y-11810476D01*
X12698190Y-11600952D02*
X12650571Y-11743809D01*
X12774381Y-11743809D01*
X12841048Y-11629524D02*
X12850571Y-11620000D01*
X12869619Y-11610476D01*
X12917238Y-11610476D01*
X12936286Y-11620000D01*
X12945809Y-11629524D01*
X12955333Y-11648571D01*
X12955333Y-11667619D01*
X12945809Y-11696190D01*
X12831524Y-11810476D01*
X12955333Y-11810476D01*
X13193428Y-11810476D02*
X13193428Y-11610476D01*
X13279143Y-11810476D02*
X13279143Y-11705714D01*
X13269619Y-11686667D01*
X13250571Y-11677143D01*
X13222000Y-11677143D01*
X13202952Y-11686667D01*
X13193428Y-11696190D01*
X13402952Y-11810476D02*
X13383905Y-11800952D01*
X13374381Y-11791428D01*
X13364857Y-11772381D01*
X13364857Y-11715238D01*
X13374381Y-11696190D01*
X13383905Y-11686667D01*
X13402952Y-11677143D01*
X13431524Y-11677143D01*
X13450571Y-11686667D01*
X13460095Y-11696190D01*
X13469619Y-11715238D01*
X13469619Y-11772381D01*
X13460095Y-11791428D01*
X13450571Y-11800952D01*
X13431524Y-11810476D01*
X13402952Y-11810476D01*
X13583905Y-11810476D02*
X13564857Y-11800952D01*
X13555333Y-11781905D01*
X13555333Y-11610476D01*
X13736286Y-11800952D02*
X13717238Y-11810476D01*
X13679143Y-11810476D01*
X13660095Y-11800952D01*
X13650571Y-11781905D01*
X13650571Y-11705714D01*
X13660095Y-11686667D01*
X13679143Y-11677143D01*
X13717238Y-11677143D01*
X13736286Y-11686667D01*
X13745809Y-11705714D01*
X13745809Y-11724762D01*
X13650571Y-11743809D01*
X13822000Y-11800952D02*
X13841048Y-11810476D01*
X13879143Y-11810476D01*
X13898190Y-11800952D01*
X13907714Y-11781905D01*
X13907714Y-11772381D01*
X13898190Y-11753333D01*
X13879143Y-11743809D01*
X13850571Y-11743809D01*
X13831524Y-11734286D01*
X13822000Y-11715238D01*
X13822000Y-11705714D01*
X13831524Y-11686667D01*
X13850571Y-11677143D01*
X13879143Y-11677143D01*
X13898190Y-11686667D01*
X13974381Y-11886667D02*
X13983905Y-11877143D01*
X14002952Y-11848571D01*
X14012476Y-11829524D01*
X14022000Y-11800952D01*
X14031524Y-11753333D01*
X14031524Y-11715238D01*
X14022000Y-11667619D01*
X14012476Y-11639048D01*
X14002952Y-11620000D01*
X13983905Y-11591428D01*
X13974381Y-11581905D01*
D15*
X8957000Y-12039000D02*
X9012000Y-11984000D01*
X8957000Y-11929000D01*
X8902000Y-11984000D01*
X8957000Y-12039000D01*
D11*
X9374381Y-12074476D02*
X9260095Y-12074476D01*
X9317238Y-12074476D02*
X9317238Y-11874476D01*
X9298190Y-11903048D01*
X9279143Y-11922095D01*
X9260095Y-11931619D01*
X9460095Y-12055428D02*
X9469619Y-12064952D01*
X9460095Y-12074476D01*
X9450571Y-12064952D01*
X9460095Y-12055428D01*
X9460095Y-12074476D01*
X9660095Y-12074476D02*
X9545810Y-12074476D01*
X9602952Y-12074476D02*
X9602952Y-11874476D01*
X9583905Y-11903048D01*
X9564857Y-11922095D01*
X9545810Y-11931619D01*
X9783905Y-11874476D02*
X9802952Y-11874476D01*
X9822000Y-11884000D01*
X9831524Y-11893524D01*
X9841048Y-11912571D01*
X9850571Y-11950667D01*
X9850571Y-11998286D01*
X9841048Y-12036381D01*
X9831524Y-12055428D01*
X9822000Y-12064952D01*
X9802952Y-12074476D01*
X9783905Y-12074476D01*
X9764857Y-12064952D01*
X9755333Y-12055428D01*
X9745810Y-12036381D01*
X9736286Y-11998286D01*
X9736286Y-11950667D01*
X9745810Y-11912571D01*
X9755333Y-11893524D01*
X9764857Y-11884000D01*
X9783905Y-11874476D01*
X9974381Y-11874476D02*
X9993429Y-11874476D01*
X10012476Y-11884000D01*
X10022000Y-11893524D01*
X10031524Y-11912571D01*
X10041048Y-11950667D01*
X10041048Y-11998286D01*
X10031524Y-12036381D01*
X10022000Y-12055428D01*
X10012476Y-12064952D01*
X9993429Y-12074476D01*
X9974381Y-12074476D01*
X9955333Y-12064952D01*
X9945810Y-12055428D01*
X9936286Y-12036381D01*
X9926762Y-11998286D01*
X9926762Y-11950667D01*
X9936286Y-11912571D01*
X9945810Y-11893524D01*
X9955333Y-11884000D01*
X9974381Y-11874476D01*
X10126762Y-12074476D02*
X10126762Y-11941143D01*
X10126762Y-11960190D02*
X10136286Y-11950667D01*
X10155333Y-11941143D01*
X10183905Y-11941143D01*
X10202952Y-11950667D01*
X10212476Y-11969714D01*
X10212476Y-12074476D01*
X10212476Y-11969714D02*
X10222000Y-11950667D01*
X10241048Y-11941143D01*
X10269619Y-11941143D01*
X10288667Y-11950667D01*
X10298190Y-11969714D01*
X10298190Y-12074476D01*
X10393429Y-12074476D02*
X10393429Y-11941143D01*
X10393429Y-11960190D02*
X10402952Y-11950667D01*
X10422000Y-11941143D01*
X10450571Y-11941143D01*
X10469619Y-11950667D01*
X10479143Y-11969714D01*
X10479143Y-12074476D01*
X10479143Y-11969714D02*
X10488667Y-11950667D01*
X10507714Y-11941143D01*
X10536286Y-11941143D01*
X10555333Y-11950667D01*
X10564857Y-11969714D01*
X10564857Y-12074476D01*
X10955333Y-11864952D02*
X10783905Y-12122095D01*
X11212476Y-11874476D02*
X11231524Y-11874476D01*
X11250571Y-11884000D01*
X11260095Y-11893524D01*
X11269619Y-11912571D01*
X11279143Y-11950667D01*
X11279143Y-11998286D01*
X11269619Y-12036381D01*
X11260095Y-12055428D01*
X11250571Y-12064952D01*
X11231524Y-12074476D01*
X11212476Y-12074476D01*
X11193428Y-12064952D01*
X11183905Y-12055428D01*
X11174381Y-12036381D01*
X11164857Y-11998286D01*
X11164857Y-11950667D01*
X11174381Y-11912571D01*
X11183905Y-11893524D01*
X11193428Y-11884000D01*
X11212476Y-11874476D01*
X11364857Y-12055428D02*
X11374381Y-12064952D01*
X11364857Y-12074476D01*
X11355333Y-12064952D01*
X11364857Y-12055428D01*
X11364857Y-12074476D01*
X11498190Y-11874476D02*
X11517238Y-11874476D01*
X11536286Y-11884000D01*
X11545809Y-11893524D01*
X11555333Y-11912571D01*
X11564857Y-11950667D01*
X11564857Y-11998286D01*
X11555333Y-12036381D01*
X11545809Y-12055428D01*
X11536286Y-12064952D01*
X11517238Y-12074476D01*
X11498190Y-12074476D01*
X11479143Y-12064952D01*
X11469619Y-12055428D01*
X11460095Y-12036381D01*
X11450571Y-11998286D01*
X11450571Y-11950667D01*
X11460095Y-11912571D01*
X11469619Y-11893524D01*
X11479143Y-11884000D01*
X11498190Y-11874476D01*
X11736286Y-11941143D02*
X11736286Y-12074476D01*
X11688667Y-11864952D02*
X11641048Y-12007809D01*
X11764857Y-12007809D01*
X11822000Y-11874476D02*
X11945809Y-11874476D01*
X11879143Y-11950667D01*
X11907714Y-11950667D01*
X11926762Y-11960190D01*
X11936286Y-11969714D01*
X11945809Y-11988762D01*
X11945809Y-12036381D01*
X11936286Y-12055428D01*
X11926762Y-12064952D01*
X11907714Y-12074476D01*
X11850571Y-12074476D01*
X11831524Y-12064952D01*
X11822000Y-12055428D01*
X12012476Y-11874476D02*
X12136286Y-11874476D01*
X12069619Y-11950667D01*
X12098190Y-11950667D01*
X12117238Y-11960190D01*
X12126762Y-11969714D01*
X12136286Y-11988762D01*
X12136286Y-12036381D01*
X12126762Y-12055428D01*
X12117238Y-12064952D01*
X12098190Y-12074476D01*
X12041048Y-12074476D01*
X12022000Y-12064952D01*
X12012476Y-12055428D01*
X12212476Y-11874476D02*
X12212476Y-11912571D01*
X12288667Y-11874476D02*
X12288667Y-11912571D01*
X12583905Y-12150667D02*
X12574381Y-12141143D01*
X12555333Y-12112571D01*
X12545809Y-12093524D01*
X12536286Y-12064952D01*
X12526762Y-12017333D01*
X12526762Y-11979238D01*
X12536286Y-11931619D01*
X12545809Y-11903048D01*
X12555333Y-11884000D01*
X12574381Y-11855428D01*
X12583905Y-11845905D01*
X12641048Y-11874476D02*
X12764857Y-11874476D01*
X12698190Y-11950667D01*
X12726762Y-11950667D01*
X12745809Y-11960190D01*
X12755333Y-11969714D01*
X12764857Y-11988762D01*
X12764857Y-12036381D01*
X12755333Y-12055428D01*
X12745809Y-12064952D01*
X12726762Y-12074476D01*
X12669619Y-12074476D01*
X12650571Y-12064952D01*
X12641048Y-12055428D01*
X12945809Y-11874476D02*
X12850571Y-11874476D01*
X12841048Y-11969714D01*
X12850571Y-11960190D01*
X12869619Y-11950667D01*
X12917238Y-11950667D01*
X12936286Y-11960190D01*
X12945809Y-11969714D01*
X12955333Y-11988762D01*
X12955333Y-12036381D01*
X12945809Y-12055428D01*
X12936286Y-12064952D01*
X12917238Y-12074476D01*
X12869619Y-12074476D01*
X12850571Y-12064952D01*
X12841048Y-12055428D01*
X13193428Y-12074476D02*
X13193428Y-11874476D01*
X13279143Y-12074476D02*
X13279143Y-11969714D01*
X13269619Y-11950667D01*
X13250571Y-11941143D01*
X13222000Y-11941143D01*
X13202952Y-11950667D01*
X13193428Y-11960190D01*
X13402952Y-12074476D02*
X13383905Y-12064952D01*
X13374381Y-12055428D01*
X13364857Y-12036381D01*
X13364857Y-11979238D01*
X13374381Y-11960190D01*
X13383905Y-11950667D01*
X13402952Y-11941143D01*
X13431524Y-11941143D01*
X13450571Y-11950667D01*
X13460095Y-11960190D01*
X13469619Y-11979238D01*
X13469619Y-12036381D01*
X13460095Y-12055428D01*
X13450571Y-12064952D01*
X13431524Y-12074476D01*
X13402952Y-12074476D01*
X13583905Y-12074476D02*
X13564857Y-12064952D01*
X13555333Y-12045905D01*
X13555333Y-11874476D01*
X13736286Y-12064952D02*
X13717238Y-12074476D01*
X13679143Y-12074476D01*
X13660095Y-12064952D01*
X13650571Y-12045905D01*
X13650571Y-11969714D01*
X13660095Y-11950667D01*
X13679143Y-11941143D01*
X13717238Y-11941143D01*
X13736286Y-11950667D01*
X13745809Y-11969714D01*
X13745809Y-11988762D01*
X13650571Y-12007809D01*
X13822000Y-12064952D02*
X13841048Y-12074476D01*
X13879143Y-12074476D01*
X13898190Y-12064952D01*
X13907714Y-12045905D01*
X13907714Y-12036381D01*
X13898190Y-12017333D01*
X13879143Y-12007809D01*
X13850571Y-12007809D01*
X13831524Y-11998286D01*
X13822000Y-11979238D01*
X13822000Y-11969714D01*
X13831524Y-11950667D01*
X13850571Y-11941143D01*
X13879143Y-11941143D01*
X13898190Y-11950667D01*
X13974381Y-12150667D02*
X13983905Y-12141143D01*
X14002952Y-12112571D01*
X14012476Y-12093524D01*
X14022000Y-12064952D01*
X14031524Y-12017333D01*
X14031524Y-11979238D01*
X14022000Y-11931619D01*
X14012476Y-11903048D01*
X14002952Y-11884000D01*
X13983905Y-11855428D01*
X13974381Y-11845905D01*
M02*
